<svg xmlns="http://www.w3.org/2000/svg" width="20.91" height="20.951" viewBox="0 0 20.91 20.951">
  <g id="Group_346" data-name="Group 346" transform="translate(-0.5)">
    <path id="Path_2495" data-name="Path 2495" d="M.926,396.2a1.442,1.442,0,1,0,2.039,2.039l2.361-2.376L3.3,393.84Z" transform="translate(0 -377.755)" fill="#191201"/>
    <path id="Path_2496" data-name="Path 2496" d="M97.312,205.1l-6.892,6.845,2.017,2.017,6.845-6.892Z" transform="translate(-86.248 -196.724)" fill="#191201"/>
    <path id="Path_2497" data-name="Path 2497" d="M270.893,82.313l2.4,2.4a.613.613,0,0,0,.866,0l3.054-3.054a.613.613,0,0,0,0-.866l-2.4-2.4a.613.613,0,0,0-.866,0l-3.054,3.054A.613.613,0,0,0,270.893,82.313Z" transform="translate(-259.178 -75.018)" fill="#191201"/>
    <path id="Path_2498" data-name="Path 2498" d="M149.08,5.448,151.9,2.629A10.075,10.075,0,0,0,145.111,0a.613.613,0,0,0-.433,1.046Z" transform="translate(-138.117 0)" fill="#191201"/>
    <path id="Path_2499" data-name="Path 2499" d="M381.929,186.8l-2.819,2.819,4.4,4.4a.613.613,0,0,0,1.046-.433,10.075,10.075,0,0,0-2.629-6.788Z" transform="translate(-363.147 -179.171)" fill="#191201"/>
    <path id="Path_2500" data-name="Path 2500" d="M400.041,50.366a1.386,1.386,0,0,0-1.96-1.96l-.361.361,1.96,1.96Z" transform="translate(-380.997 -46.04)" fill="#191201"/>
    <path id="Path_2501" data-name="Path 2501" d="M183.266,379.125l-2.655-2a.613.613,0,0,0-.369-.123h-3.267a.613.613,0,0,0-.274.065l-1.882.941-3.508.638a.613.613,0,0,0-.44.332l-1.307,2.655a.612.612,0,0,0,.548.883l12.783.041h0a.613.613,0,0,0,.613-.613v-2.328A.613.613,0,0,0,183.266,379.125Z" transform="translate(-162.1 -361.603)" fill="#191201"/>
    <path id="Path_2502" data-name="Path 2502" d="M329.68,289.18a.613.613,0,0,0,0,.866l.327.327a.613.613,0,0,0,.866-.866l-.327-.327A.613.613,0,0,0,329.68,289.18Z" transform="translate(-315.564 -277.198)" fill="#191201"/>
    <path id="Path_2503" data-name="Path 2503" d="M474.113,146.552a.613.613,0,0,0,.613-.613v-.327a.613.613,0,1,0-1.225,0v.327A.613.613,0,0,0,474.113,146.552Z" transform="translate(-453.682 -139.078)" fill="#191201"/>
  </g>
</svg>
