<svg xmlns="http://www.w3.org/2000/svg" width="22.791" height="20.976" viewBox="0 0 22.791 20.976">
  <g id="wallet-sharp" transform="translate(-2.203 -2.498)">
    <path id="Path_2394" data-name="Path 2394" d="M3.055,5.98H22.608V3.312a.814.814,0,0,0-.973-.8L2.92,5.589a.814.814,0,0,0-.61.532,2.019,2.019,0,0,1,.745-.141Z" transform="translate(-0.03)" fill="#191201"/>
    <path id="Path_2395" data-name="Path 2395" d="M24.184,9H3.029a.814.814,0,0,0-.814.814V24.459a.814.814,0,0,0,.814.814H24.184A.814.814,0,0,0,25,24.459V9.814A.814.814,0,0,0,24.184,9Zm-4.857,9.764a1.627,1.627,0,1,1,1.627-1.627A1.627,1.627,0,0,1,19.327,18.764Z" transform="translate(-0.003 -1.799)" fill="#191201"/>
    <path id="Path_2396" data-name="Path 2396" d="M2.2,14.9V7.6a.89.89,0,0,1,.784-1.017c1.79-.281,5.522-.433,5.522-.433a1.626,1.626,0,0,1-1.39.814V8.212c.941,0,1.593,1.195,1.593,1.195L4.924,13.7Z" transform="translate(0 -1.011)" fill="#191201"/>
  </g>
</svg>
