<svg xmlns="http://www.w3.org/2000/svg" width="20.977" height="20.976" viewBox="0 0 20.977 20.976">
  <path id="network" d="M.025,11.019a2.636,2.636,0,0,1-.024-.5v-.048A16.959,16.959,0,0,0,8.28,7.848,2.163,2.163,0,0,0,10.224,7.8a10.155,10.155,0,0,0,4.32,2.786,2.072,2.072,0,0,0,.84,1.033,9.635,9.635,0,0,1-1.944,3.051A2.291,2.291,0,0,0,10.032,15.7,12.936,12.936,0,0,1,.024,11.02Zm9.984,6.2a11.9,11.9,0,0,1-6.144,1.442,11.079,11.079,0,0,1-3.408-5.02,14.985,14.985,0,0,0,9.552,3.579Zm4.344-.288A13.658,13.658,0,0,0,20.3,14.189a10.619,10.619,0,0,1-14.16,5.885,13.726,13.726,0,0,0,4.8-1.658,2.318,2.318,0,0,0,3.408-1.489Zm4.128-5.861c.86-.064,1.7-.127,2.5-.264,0,.214-.024.426-.024.625a11.546,11.546,0,0,1-6,3.843,11.777,11.777,0,0,0,1.9-3.291,2.37,2.37,0,0,0,1.632-.913Zm.384-1.537a2.292,2.292,0,0,0-1.008-1.658,24.594,24.594,0,0,0,.072-4.756A10.884,10.884,0,0,1,20.9,9.265a14.334,14.334,0,0,1-2.04.264ZM7.177,6.767A15.614,15.614,0,0,1,.12,8.954,10.6,10.6,0,0,1,6.84.666a10.764,10.764,0,0,0,.84,3.483,2.277,2.277,0,0,0-.5,2.619ZM11.3,4.99A13.6,13.6,0,0,0,13.848.569a10.332,10.332,0,0,1,2.424,1.178,25.474,25.474,0,0,1,.1,5.789A2.34,2.34,0,0,0,14.52,8.977,9.131,9.131,0,0,1,11.256,6.72,2.416,2.416,0,0,0,11.3,4.99ZM9.073,3.573A8.879,8.879,0,0,1,8.329.234,9.943,9.943,0,0,1,12.385.186a13.275,13.275,0,0,1-2.064,3.651c-.286-.122-.98-.393-1.248-.264Z" transform="translate(0 0)" fill="#fff"/>
</svg>
