<svg xmlns="http://www.w3.org/2000/svg" width="18.354" height="20.976" viewBox="0 0 18.354 20.976">
  <path id="report" d="M17.052,20.976H1.32A1.277,1.277,0,0,1,.4,20.6a1.25,1.25,0,0,1-.389-.932V1.331A1.251,1.251,0,0,1,.4.4,1.274,1.274,0,0,1,1.32.02H10.5v7.21a.665.665,0,0,0,.655.655h7.21V19.665a1.293,1.293,0,0,1-1.311,1.311Zm-1.966-3.933H14.43V12.454a.665.665,0,0,0-.655-.655H12.463a.665.665,0,0,0-.655.655v4.588H10.5V9.832a.665.665,0,0,0-.655-.655H8.53a.665.665,0,0,0-.655.655v7.21H6.564V13.765a.665.665,0,0,0-.655-.655H4.6a.665.665,0,0,0-.655.655v3.277H3.286a.656.656,0,0,0,0,1.311h11.8a.621.621,0,0,0,.471-.195.645.645,0,0,0,.184-.461.665.665,0,0,0-.655-.655ZM11.808,0a1.226,1.226,0,0,1,.9.369l5.264,5.264a1.283,1.283,0,0,1,.389.942H11.808Z" transform="translate(-0.009)" fill="#fff"/>
</svg>
