<svg xmlns="http://www.w3.org/2000/svg" width="20.995" height="20.976" viewBox="0 0 20.995 20.976">
  <g id="settings-solid-badged" transform="translate(-2.97 -1)">
    <path id="Path_2399" data-name="Path 2399" d="M22.372,11.338l-2.2-.655a7.945,7.945,0,0,0-.308-.865,4.91,4.91,0,0,1-4.025-4.038,7.748,7.748,0,0,0-.872-.315l-.655-2.17A.4.4,0,0,0,13.93,3H11.714a.4.4,0,0,0-.38.282l-.655,2.163a7.623,7.623,0,0,0-1.56.655L7.152,5.039a.4.4,0,0,0-.472.072L5.087,6.664a.4.4,0,0,0-.072.472L6.077,9.1a7.623,7.623,0,0,0-.655,1.554l-2.17.655a.4.4,0,0,0-.282.38v2.216a.4.4,0,0,0,.282.38l2.183.655A7.617,7.617,0,0,0,6.09,16.47L5.015,18.528A.4.4,0,0,0,5.087,19l1.567,1.567a.4.4,0,0,0,.472.072l2.025-1.082a7.636,7.636,0,0,0,1.508.616l.655,2.209a.4.4,0,0,0,.38.282H13.91a.4.4,0,0,0,.38-.282l.655-2.216a7.623,7.623,0,0,0,1.495-.616l2.039,1.088a.4.4,0,0,0,.472-.072L20.517,19a.4.4,0,0,0,.072-.472L19.5,16.5a7.623,7.623,0,0,0,.623-1.5l2.209-.655a.4.4,0,0,0,.282-.38V11.725a.4.4,0,0,0-.243-.387Zm-9.55,5.1a3.605,3.605,0,1,1,3.605-3.605,3.605,3.605,0,0,1-3.605,3.605Z" transform="translate(0 -0.689)" fill="#fff"/>
    <path id="Path_2400" data-name="Path 2400" d="M31.555,4.277A3.277,3.277,0,1,1,28.277,1a3.277,3.277,0,0,1,3.277,3.277Z" transform="translate(-7.59)" fill="#fff"/>
  </g>
</svg>
