<svg xmlns="http://www.w3.org/2000/svg" width="21.232" height="20.5" viewBox="0 0 21.232 20.5">
  <g id="logout-solid" transform="translate(-5 -4)">
    <path id="Path_88" data-name="Path 88" d="M18.179,4H6.464A1.464,1.464,0,0,0,5,5.464V23.036A1.464,1.464,0,0,0,6.464,24.5H18.179a1.464,1.464,0,0,0,1.464-1.464V18.643h-6.86a.732.732,0,1,1,0-1.464h6.86V5.464A1.464,1.464,0,0,0,18.179,4Z" fill="#191201"/>
    <path id="Path_89" data-name="Path 89" d="M27.314,17.216a.732.732,0,0,0-1.032,1.032l2.475,2.423H25v1.464h3.756l-2.475,2.533A.732.732,0,1,0,27.314,25.7l4.276-4.246Z" transform="translate(-5.357 -3.493)" fill="#191201"/>
  </g>
</svg>
