<svg width="47" height="47" viewBox="0 0 47 47" fill="none" xmlns="http://www.w3.org/2000/svg">
<g clip-path="url(#clip0_298_21376)">
<path d="M23.2666 0.934509C35.8646 0.934509 46.0742 11.1029 46.0742 23.6415C46.074 36.18 35.8644 46.3476 23.2666 46.3476C10.6688 46.3475 0.459169 36.18 0.458984 23.6415C0.458984 11.103 10.6687 0.934567 23.2666 0.934509Z" stroke="white" stroke-width="0.860019"/>
<g clip-path="url(#clip1_298_21376)">
<path d="M20.1998 9.86169C19.168 10.3422 18.8995 10.5684 18.7319 11.1055C18.6188 11.4669 18.528 11.7839 18.53 11.8122C18.532 11.8405 19.1196 11.5679 19.8344 11.2065C20.8157 10.7118 21.1973 10.3907 21.3992 9.90207C21.5446 9.54669 21.6193 9.25795 21.5628 9.26401C21.5062 9.26805 20.8944 9.5366 20.1998 9.86169ZM15.5921 10.9016C15.4184 11.4326 15.4548 11.794 15.7758 12.7713L16.1776 13.9828C16.6804 12.5714 16.6723 12.3372 16.3876 11.5093C16.2059 10.9823 16.002 10.4816 15.9333 10.3968C15.8647 10.314 15.7112 10.5401 15.5921 10.9016ZM19.5941 11.6709C18.4795 12.1959 18.3099 12.3554 18.1383 13.0237C18.0312 13.4397 17.9626 13.8072 17.9868 13.8395C18.009 13.8697 18.5502 13.6436 19.1882 13.3347C20.1292 12.8783 20.3735 12.6562 20.4744 12.1656C20.5431 11.8324 20.6865 11.4467 20.7935 11.3074C20.8985 11.1681 20.957 11.0591 20.9207 11.0651C20.8843 11.0692 20.2887 11.3417 19.5941 11.6709ZM14.9076 13.0237C14.7945 13.4397 14.6996 13.9404 14.6996 14.1343C14.6976 14.3281 14.9015 14.9056 15.1519 15.4144L15.6062 16.3432C15.9979 14.7541 15.9737 14.3705 15.687 13.4275C15.4911 12.7895 15.2852 12.2665 15.2246 12.2665C15.166 12.2665 15.0227 12.6078 14.9076 13.0237ZM24.4785 12.8218C24.2887 13.0156 23.9777 13.4922 23.7859 13.8819C23.5961 14.2695 23.2973 15.1782 23.1236 15.901C22.9479 16.6219 22.7541 17.7587 22.6895 18.425C22.6249 19.0913 22.6269 19.4992 22.6915 19.3336C22.7844 19.0994 22.9661 19.1883 23.5032 19.7375C23.8828 20.1251 24.1938 20.3755 24.1917 20.2927C24.1897 20.21 23.907 19.5739 23.5618 18.8793C23.0893 17.9283 22.9661 17.4558 23.057 16.9611C23.1236 16.5997 23.2468 16.3029 23.3296 16.2988C23.4123 16.2968 23.8081 16.9995 24.2059 17.8637L24.9308 19.4346C25.1509 15.8344 25.2559 14.4492 25.3063 14.0333C25.373 13.4821 25.4961 13.2761 25.7526 13.2761C26.0777 13.2741 26.0958 13.4881 25.9828 15.9515L25.8576 18.6269C26.429 16.2786 26.5986 15.4386 26.6026 15.2448C26.6067 15.051 26.7016 14.8914 26.8126 14.8914C26.9237 14.8914 27.0125 15.0045 27.0085 15.1438C27.0065 15.2832 27.0509 15.3276 27.1095 15.2448C27.168 15.162 27.0287 14.6613 26.8005 14.1343C26.5724 13.6073 26.2311 13.0136 26.0433 12.8157C25.8555 12.6179 25.5042 12.4583 25.2619 12.4624C25.0196 12.4664 24.6683 12.628 24.4785 12.8218ZM18.9257 13.8314C17.9767 14.314 17.799 14.4997 17.5769 15.2448C17.4376 15.7173 17.3912 16.1009 17.474 16.0989C17.5567 16.0949 18.0716 15.8465 18.6188 15.5436C19.4245 15.0974 19.6547 14.843 19.8384 14.2029C19.9636 13.7688 20.0545 13.3811 20.0423 13.3448C20.0302 13.3084 19.5275 13.5265 18.9257 13.8314ZM14.1484 16.0505C13.9081 17.1852 13.9141 17.2297 14.4513 17.8859C14.7541 18.2554 15.0691 18.4836 15.1519 18.3907C15.2347 18.2978 15.3155 17.9041 15.3336 17.5164C15.3498 17.1166 15.1539 16.3937 14.8793 15.8485L14.3947 14.8894L14.1484 16.0505ZM18.3826 16.002C17.5527 16.3957 17.3023 16.6259 17.2296 17.06C17.1771 17.367 17.0863 17.9566 17.0277 18.3725C16.9671 18.7905 16.9651 19.1297 17.0196 19.1297C17.0762 19.1297 17.5527 18.8208 18.0797 18.4452C18.95 17.8233 19.059 17.6537 19.2468 16.6279C19.3619 16.004 19.4527 15.4972 19.4487 15.4972C19.4467 15.4992 18.9661 15.7254 18.3826 16.002ZM26.5905 18.5239C26.2291 20.0242 25.9949 21.4093 26.0716 21.6032C26.1726 21.8677 26.4371 21.9565 27.1155 21.9565H28.0241C28.0221 20.315 27.8868 18.9742 27.7233 17.9182C27.5597 16.8642 27.3861 15.9556 27.3376 15.899C27.2871 15.8445 26.952 17.0257 26.5905 18.5239ZM13.6113 19.0792C13.4921 20.1595 13.5224 20.2806 14.0393 20.7996C14.3463 21.1085 14.6431 21.3589 14.6976 21.3589C14.7541 21.3568 14.8531 20.8904 14.9217 20.323C15.0287 19.4144 14.9783 19.2024 14.5179 18.5946C14.2271 18.213 13.9343 17.9041 13.8637 17.9101C13.795 17.9142 13.6799 18.4412 13.6113 19.0792ZM17.8637 18.9823C17.2054 19.4386 16.8864 19.8182 16.8036 20.2402C16.737 20.5734 16.7127 21.06 16.7511 21.3185C16.8177 21.7889 16.8218 21.7889 17.7264 21.1004C18.5259 20.4906 18.6511 20.2887 18.7682 19.4164C18.8409 18.8692 18.8793 18.4028 18.8531 18.3765C18.8268 18.3503 18.3826 18.6229 17.8637 18.9823ZM22.4492 20.4866C22.3684 20.5552 22.318 21.5507 22.3361 22.6976C22.3563 23.8505 22.4613 24.8298 22.5724 24.8843C22.6834 24.9409 23.0933 24.7592 23.481 24.4805C23.9999 24.111 24.222 23.7758 24.3149 23.2185C24.4017 22.7016 24.3391 22.2715 24.115 21.8556C23.9353 21.5224 23.5194 21.052 23.1923 20.8076C22.8652 20.5633 22.53 20.4199 22.4492 20.4866ZM24.9732 21.0984C24.854 21.4053 24.7874 22.3079 24.8258 23.1055C24.8641 23.9313 25.0075 24.6723 25.1549 24.8217C25.3709 25.0398 25.4497 25.0338 25.6072 24.7834C25.7122 24.6178 25.799 23.7314 25.801 22.8147C25.801 21.9 25.7586 21.0136 25.7021 20.846C25.6476 20.6804 25.5083 20.5431 25.3952 20.5431C25.2821 20.5431 25.0923 20.7935 24.9732 21.0984ZM13.4033 21.2498C13.3367 21.4174 13.2821 21.8939 13.2801 22.3099C13.2761 22.9217 13.3932 23.1559 13.8859 23.5214C14.2211 23.7718 14.5179 23.9777 14.5462 23.9798C14.5744 23.9798 14.6572 23.5497 14.7319 23.0206C14.8531 22.1564 14.8127 22.001 14.3281 21.4982C14.0313 21.1913 13.7284 20.9409 13.6557 20.9429C13.581 20.9449 13.4679 21.0843 13.4033 21.2498ZM17.5063 21.5911C16.632 22.2211 16.6198 22.2473 16.6683 23.3053C16.6946 23.897 16.7854 24.3795 16.8682 24.3775C16.951 24.3755 17.3669 24.0807 17.791 23.7213C18.53 23.0933 18.5562 23.0267 18.4775 22.009L18.3947 20.951L17.5063 21.5911ZM26.6107 23.0509C26.8894 23.1983 27.3194 23.376 27.5698 23.4467C27.9313 23.5456 28.0241 23.4891 28.0241 23.168C28.0241 22.8207 27.8929 22.7662 27.065 22.7723C26.1463 22.7804 26.1261 22.7925 26.6107 23.0509ZM13.2902 24.6259C13.2721 25.6355 13.3124 25.7223 14.0353 26.2513L14.7985 26.8086C14.9399 24.8379 14.8874 24.6542 14.4694 24.3331C14.2069 24.1312 13.8374 23.8727 13.6496 23.7617C13.3468 23.582 13.3064 23.6789 13.2902 24.6259ZM26.005 24.0262C26.005 24.2766 26.3401 25.48 26.75 26.7016C27.4588 28.8197 27.5012 28.8904 27.6405 28.216C27.7213 27.8283 27.8404 26.851 27.907 26.0454C27.9939 24.9469 27.9615 24.5794 27.7717 24.5754C27.6324 24.5734 27.2245 24.3452 26.8631 24.0706C26.5017 23.796 26.1625 23.5719 26.1059 23.5719C26.0514 23.5719 26.005 23.7758 26.005 24.0262ZM17.4618 24.4341L16.6946 25.0863L17.0196 27.5981C18.6653 26.5562 18.744 26.4371 18.6431 25.8939C18.5805 25.5608 18.53 24.9469 18.532 24.531C18.532 24.115 18.4654 23.7758 18.3826 23.7778C18.2998 23.7778 17.8859 24.0747 17.4618 24.4341ZM23.3296 25.7001C22.6733 26.3058 22.5885 26.4876 22.6854 27.055L22.7985 27.7112C23.6647 26.3038 24.008 25.69 24.1191 25.4396C24.2321 25.1892 24.2705 24.9893 24.2059 24.9934C24.1393 24.9994 23.7455 25.3164 23.3296 25.7001ZM23.9656 27.3982C23.588 28.1695 23.2104 28.7612 23.1276 28.7107C23.0449 28.6602 22.9742 28.7329 22.9722 28.8722C22.9701 29.0115 23.1438 29.7162 23.3619 30.4371C23.6021 31.2407 23.9959 32.004 24.3755 32.4058C24.7167 32.7672 25.1085 33.064 25.2478 33.0681C25.3871 33.0701 25.692 32.8661 25.9242 32.6137C26.1584 32.3613 26.429 32.0181 26.5279 31.8505C26.6572 31.6324 26.637 31.59 26.4573 31.6991C26.2695 31.8121 26.0898 31.1135 25.7425 28.9227C25.377 26.6188 25.2114 25.9949 24.9651 25.9949C24.7813 25.9949 24.3755 26.5643 23.9656 27.3982ZM25.8192 26.0958C25.8071 26.2069 26.0272 27.3437 26.3078 28.6198C26.5885 29.898 26.8227 30.9883 26.8288 31.0428C26.8348 31.0994 26.9701 30.7803 27.1276 30.3361C27.2851 29.8919 27.3679 29.484 27.3094 29.4275C27.2528 29.373 27.1983 29.4638 27.1902 29.6294C27.1821 29.797 26.8752 29.0237 26.5077 27.9131C26.1403 26.8026 25.8313 25.9848 25.8192 26.0958ZM32.2644 26.2978C32.6541 26.4472 33.1084 26.5704 33.274 26.5704C33.4416 26.5704 33.3002 26.4411 32.961 26.2836C32.6218 26.1241 32.1675 26.003 31.9514 26.011C31.697 26.0211 31.8061 26.1221 32.2644 26.2978ZM13.4841 26.954C13.4841 27.2589 13.5527 27.9414 13.6355 28.4684C13.7748 29.3407 13.8717 29.4699 14.6976 29.9141L15.6062 30.4007C15.0509 27.7071 14.8934 27.378 14.3442 26.9318C13.9828 26.639 13.6436 26.3987 13.587 26.3987C13.5325 26.3987 13.4861 26.6491 13.4841 26.954ZM17.8313 27.3821C17.0843 27.907 17.0762 27.9272 17.2135 28.9227C17.2902 29.478 17.4154 30.0534 17.4901 30.1988C17.587 30.3886 17.8435 30.2291 18.3826 29.6435C19.1155 28.848 19.1337 28.7935 18.9318 27.9636C18.8167 27.4911 18.6935 27.0489 18.6552 26.9782C18.6168 26.9096 18.2473 27.0913 17.8313 27.3821ZM18.322 30.1403L17.6254 30.853C18.0353 32.3311 18.217 32.8278 18.2937 32.9106C18.3705 32.9954 18.7319 32.7672 19.0954 32.4058C19.7536 31.7556 19.7576 31.7415 19.5234 30.74C19.3922 30.1847 19.2266 29.6617 19.1519 29.5789C19.0792 29.4961 18.7057 29.7485 18.322 30.1403ZM13.9969 30.5602C14.0696 30.9923 14.1989 31.483 14.2837 31.6486C14.3685 31.8162 14.9056 32.2463 15.477 32.6077C16.0484 32.9691 16.4745 33.1508 16.426 33.0115C16.3755 32.8722 16.218 32.3573 16.0726 31.8666C15.8788 31.2084 15.6204 30.8571 15.1014 30.5401C14.7137 30.3018 14.2756 30.0312 14.1302 29.9404C13.9202 29.8091 13.894 29.9383 13.9969 30.5602ZM37.8171 31.1821C38.0392 31.2326 38.3583 31.2326 38.5238 31.1821C38.6914 31.1317 38.5097 31.0893 38.12 31.0893C37.7323 31.0893 37.595 31.1317 37.8171 31.1821ZM30.7359 31.9959C31.063 32.0423 31.5173 32.0403 31.7455 31.9939C31.9757 31.9454 31.7091 31.907 31.1539 31.9091C30.5966 31.9111 30.4108 31.9494 30.7359 31.9959ZM33.173 31.9898C33.3951 32.0403 33.7142 32.0403 33.8797 31.9898C34.0473 31.9393 33.8656 31.8969 33.4759 31.8969C33.0882 31.8969 32.9509 31.9393 33.173 31.9898ZM19.1458 32.7086C18.7642 33.0802 18.4694 33.4719 18.4936 33.5769C18.5158 33.6819 18.6935 34.1544 18.8874 34.6269C19.0812 35.0973 19.2872 35.489 19.3417 35.4931C19.3982 35.4991 19.693 35.1821 19.9979 34.7884C20.3028 34.3947 20.5471 33.9585 20.5391 33.8192C20.531 33.6799 20.3695 33.2215 20.1837 32.7995L19.8424 32.0322L19.1458 32.7086ZM14.6229 32.8803C14.6774 33.1468 14.8107 33.593 14.9177 33.8697C15.0368 34.1826 15.5739 34.6269 16.317 35.0307L17.5244 35.6869C17.0257 34.5138 16.844 34.0817 16.7975 33.9706C16.7511 33.8596 16.5552 33.6738 16.3614 33.5567C16.1675 33.4376 15.6749 33.1286 15.265 32.8682L14.5199 32.3957L14.6229 32.8803Z" fill="white"/>
<path d="M25.1348 21.7728C25.05 21.9303 25.0056 22.4694 25.0379 22.9682C25.0702 23.4669 25.1873 23.8768 25.2984 23.8768C25.4094 23.8768 25.5245 23.4225 25.5568 22.8672C25.5871 22.3119 25.5407 21.7748 25.4518 21.6718C25.359 21.5648 25.2277 21.6072 25.1348 21.7728Z" fill="#F2F3F8"/>
<mask id="mask0_298_21376" style="mask-type:luminance" maskUnits="userSpaceOnUse" x="0" y="1" width="47" height="46">
<path d="M23.6805 46.433C36.2216 46.433 46.3882 36.2664 46.3882 23.7253C46.3882 11.1843 36.2216 1.0177 23.6805 1.0177C11.1395 1.0177 0.9729 11.1843 0.9729 23.7253C0.9729 36.2664 11.1395 46.433 23.6805 46.433Z" fill="white"/>
</mask>
<g mask="url(#mask0_298_21376)">
<path d="M43.2484 23.7253C43.2403 23.7092 43.22 23.6728 43.1917 23.6284C43.2282 23.6991 43.2586 23.7597 43.2789 23.8081C43.2789 23.792 43.2687 23.7657 43.2484 23.7253Z" fill="white"/>
<path d="M15.8059 4.89856L15.8547 4.9408L15.8165 4.90701C15.8144 4.9049 15.8102 4.90067 15.8059 4.89856Z" fill="white"/>
<path d="M40.8441 25.7465C40.8258 25.7263 40.7974 25.696 40.7629 25.6617C40.7934 25.698 40.8238 25.7324 40.8562 25.7727C40.8623 25.7727 40.8603 25.7647 40.8441 25.7465Z" fill="white"/>
<path d="M0.560791 0.504822V46.9458H46.7999V0.504822H0.560791ZM4.4477 35.5476C4.30838 35.487 3.83791 34.6874 3.40177 33.7707C2.96361 32.854 2.41843 31.5375 2.19026 30.8429C1.96008 30.1483 1.62288 28.9227 1.44115 28.117C1.22308 27.1599 1.10395 25.6738 1.09587 23.8263C1.0878 22.2311 1.19481 20.4724 1.34221 19.7879C1.48557 19.1216 1.78643 17.9404 2.01056 17.163C2.23469 16.3856 2.73342 15.0671 3.11707 14.2352C3.50273 13.4013 4.30232 11.9939 4.89596 11.1055C5.4896 10.2171 6.59812 8.85209 7.35733 8.07067C8.11654 7.29127 9.37449 6.16861 10.1519 5.57901C10.9293 4.98739 12.5648 4.01819 13.7864 3.42051C15.008 2.82485 16.6435 2.15853 17.4209 1.94045C18.1983 1.72238 18.9474 1.53662 19.0867 1.52854C19.226 1.52047 20.5203 2.76428 24.593 7.06714L23.9348 7.12368C23.4744 7.16406 23.1251 7.04291 22.7737 6.71984C22.3154 6.29985 22.3053 6.29783 23.0746 7.14589L21.1564 7.27108C19.3169 7.38819 19.2099 7.37204 18.5314 6.8733C18.3497 6.74003 18.0812 6.54417 17.6895 6.25947C17.7743 6.33216 17.8308 6.38668 17.8449 6.41091C17.8893 6.49369 17.857 6.55831 17.7743 6.55427C17.748 6.55225 17.6794 6.50985 17.5865 6.44523C17.9418 6.75821 18.3538 7.1257 18.8343 7.55982L18.3295 7.56184C18.0509 7.56184 17.5057 7.69712 17.118 7.86471C16.7303 8.03029 16.3427 8.12317 16.2599 8.07067C16.1771 8.01817 16.1529 8.04442 16.2094 8.12721C16.2639 8.20999 16.0156 8.46845 15.6541 8.70065C15.2927 8.93084 14.6688 9.56688 14.2649 10.1141C13.8631 10.6593 13.2836 11.6042 12.9767 12.216C12.6718 12.8258 12.1933 14.1908 11.9166 15.2448C11.4825 16.8904 11.3977 17.7385 11.3149 21.2014C11.2564 23.6749 11.3109 25.9828 11.4563 27.1579C11.5855 28.2119 11.8682 29.8253 12.0822 30.742C12.2983 31.6587 12.7001 32.9752 12.9767 33.6698C13.2533 34.3644 13.4573 34.9499 13.431 34.9742C13.4048 34.9984 11.43 35.1619 9.04132 35.3376C6.65264 35.5153 4.58703 35.6102 4.4477 35.5476ZM29.1099 23.0186C29.1018 26.1221 29.0049 27.9474 28.7889 29.0761C28.6192 29.9646 28.2639 31.3719 28.0014 32.2059C27.65 33.3144 27.3169 33.9222 26.7616 34.4774C26.1861 35.0509 25.8934 35.2064 25.5481 35.1155C25.2977 35.0509 24.8878 34.7561 24.6374 34.4593C24.3871 34.1645 23.9913 33.4234 23.7591 32.8116C23.5249 32.1998 23.1432 30.8369 22.909 29.7829C22.5395 28.1191 22.483 27.2064 22.483 22.9177C22.483 18.6289 22.5395 17.7163 22.909 16.0525C23.1432 14.9985 23.5208 13.6355 23.747 13.0237C23.9731 12.4119 24.4295 11.6184 24.7586 11.2569C25.0877 10.8955 25.5259 10.6027 25.7298 10.6068C25.9358 10.6108 26.4224 10.952 26.8121 11.3639C27.2563 11.8364 27.6884 12.6219 27.9731 13.478C28.2215 14.2271 28.5809 15.6809 28.7727 16.7087C29.0372 18.1322 29.118 19.6345 29.1099 23.0186ZM29.2836 35.7313C29.645 35.6708 30.6223 35.4971 31.4542 35.3477C32.2881 35.1983 33.0816 35.067 33.2209 35.0549C33.3603 35.0428 33.5178 35.17 33.5743 35.3356C33.647 35.5516 33.4552 35.695 32.9181 35.8323C32.5021 35.9373 31.2967 36.2119 30.2427 36.4401C29.1887 36.6662 28.3022 36.8076 28.274 36.751C28.2457 36.6945 28.3143 36.4663 28.4254 36.2442C28.5405 36.012 28.908 35.7939 29.2836 35.7313ZM22.1902 36.4966C22.3457 36.8055 22.3477 36.8883 22.1983 36.749C22.0771 36.638 21.7722 36.1069 21.0554 34.5905L20.2982 35.4164C19.8823 35.8727 19.5107 36.222 19.4724 36.1937C19.434 36.1655 19.0564 35.279 18.6324 34.225C18.2104 33.171 17.6612 31.5799 17.4148 30.6915C17.1685 29.803 16.8535 28.2584 16.7162 27.2589C16.5527 26.0938 16.5002 24.2463 16.5668 22.11C16.6354 19.8889 16.8071 18.1383 17.0797 16.8601C17.3038 15.8061 17.8611 13.8051 18.3174 12.418C18.7737 11.0288 19.2866 9.66582 19.4582 9.38919C19.6299 9.11054 19.7187 9.04391 19.6561 9.23775C19.5935 9.43159 19.4724 9.74255 19.3896 9.92831C19.2765 10.1827 19.5653 10.102 20.5506 9.60524C21.6571 9.04795 21.8954 8.98939 22.065 9.23573C22.2387 9.48813 22.378 9.47803 23.0746 9.17112C23.5188 8.97324 23.9731 8.80969 24.0842 8.80565C24.1952 8.80161 23.7187 9.11256 23.0241 9.49621C22.2124 9.94648 21.7217 10.3584 21.647 10.6512C21.5844 10.9016 21.5622 11.1297 21.5966 11.158C21.6329 11.1883 21.9115 11.1196 22.2164 11.0065C22.5213 10.8955 22.7717 10.847 22.7717 10.9036C22.7717 10.9581 22.4083 11.1863 21.964 11.4084C21.3926 11.6951 21.1241 11.9737 21.0453 12.3675C20.9847 12.6724 20.8838 13.1045 20.8192 13.3266C20.7142 13.69 20.7606 13.6799 21.2775 13.2256C21.6975 12.8561 21.7742 12.8299 21.5642 13.1247C21.4047 13.3468 21.112 13.7102 20.9121 13.9323C20.7101 14.1544 20.4577 14.6996 20.1508 15.9515L20.7869 15.3458C21.4047 14.7582 21.4027 14.7683 20.6778 15.7496C20.2679 16.3049 19.9368 16.8945 19.9408 17.0621C19.9449 17.2296 19.8904 17.684 19.6804 18.7784L20.6092 17.9707L20.4012 18.3745C20.2881 18.5966 20.0438 18.9136 19.858 19.0812C19.6299 19.2872 19.5249 19.7052 19.5309 21.4033L20.0802 20.8985C20.5849 20.4341 20.5769 20.4644 19.9832 21.2518C19.4805 21.9202 19.3391 22.3099 19.3391 23.0186C19.3391 23.5174 19.4078 23.9313 19.4906 23.9353C19.5733 23.9414 19.7773 23.8 19.9449 23.6244C20.1104 23.4487 20.3386 23.3053 20.4497 23.3094C20.5607 23.3114 20.3548 23.6102 19.9933 23.9737C19.3532 24.6158 19.3391 24.6663 19.4885 25.797C19.5733 26.4371 19.6864 26.958 19.743 26.954C19.7995 26.95 20.066 26.744 20.3366 26.4977C20.7344 26.1342 20.7162 26.1928 20.2356 26.7985C19.6703 27.5133 19.6501 27.6042 19.8177 28.7167C19.9146 29.3588 20.0277 29.906 20.0701 29.9343C20.1125 29.9626 20.379 29.7344 21.1786 28.8742L20.6637 29.7324C20.1508 30.5845 20.1488 30.6006 20.7869 32.9126L21.1685 32.4078C21.3785 32.1291 21.5501 31.8121 21.5501 31.7011C21.5501 31.59 21.5966 31.5678 21.6551 31.6506C21.7137 31.7334 21.5804 32.1655 20.9545 33.4174L21.8065 35.7394L22.1882 35.0832C22.3982 34.7218 22.6142 34.427 22.6708 34.427C22.7273 34.427 22.59 34.7904 22.3679 35.2346C22.0428 35.8848 22.0085 36.1311 22.1902 36.4966ZM22.1983 31.0953C21.9721 30.2069 21.6753 28.5269 21.54 27.3598C21.4047 26.1928 21.2957 23.695 21.2977 21.8071C21.2997 19.1297 21.3926 17.9525 21.7116 16.4563C21.9378 15.4023 22.3113 14.0393 22.5435 13.4275C22.7737 12.8157 23.2361 11.8849 23.5693 11.3579C23.9045 10.8309 24.2094 10.3988 24.2477 10.3988C24.2861 10.3988 24.062 10.8753 23.753 11.4588C23.4421 12.0424 22.9676 13.3831 22.699 14.4371C22.4305 15.4911 22.0953 17.5366 21.956 18.9803C21.7985 20.6097 21.744 22.9823 21.8126 25.2397C21.8792 27.4265 22.0569 29.5183 22.2609 30.4896C22.4466 31.378 22.8262 32.6036 23.1049 33.2155C23.3835 33.8273 23.7954 34.5986 24.4214 35.5375L23.9792 35.0327C23.7349 34.7541 23.327 34.118 23.0726 33.6193C22.8161 33.1206 22.4244 31.9838 22.1983 31.0953ZM16.7142 39.3618C16.6577 39.4143 14.9777 39.8262 12.9787 40.2765C10.9797 40.7268 9.29978 41.0923 9.24324 41.0862C9.18872 41.0822 8.80104 40.7631 8.38509 40.3775C7.96914 39.9918 7.65011 39.6344 7.67838 39.5799C7.70665 39.5274 9.41083 39.1761 11.4643 38.7985C13.5199 38.4189 15.2907 38.0978 15.4017 38.0817C15.5128 38.0655 15.8762 38.326 16.2094 38.6612C16.5426 38.9943 16.7707 39.3113 16.7142 39.3618ZM15.5471 35.0953C15.5168 35.1155 15.7208 35.6566 16.0014 36.2947C16.2821 36.9328 16.4678 37.4557 16.4113 37.4557C16.3548 37.4557 15.9792 36.751 15.5734 35.8909C15.1392 34.9701 14.4103 33.8737 13.8066 33.2276C12.8313 32.1877 12.8192 32.1614 14.3598 33.3164L14.1983 32.6097C14.1095 32.22 13.9681 31.7213 13.8813 31.4992C13.7965 31.277 13.4431 30.8227 13.0958 30.4896C12.7485 30.1564 12.4658 29.793 12.4638 29.6819C12.4638 29.5708 12.696 29.7061 12.9787 29.9848C13.2614 30.2614 13.4916 30.3987 13.4875 30.2876C13.4835 30.1766 13.3765 29.4941 13.2513 28.7733C13.0777 27.7839 12.8455 27.2367 11.5814 25.6435L12.8858 26.8551L12.8818 25.8959C12.8798 25.2841 12.696 24.5714 12.373 23.9272C12.0943 23.372 11.8904 22.8692 11.9186 22.8106C11.9469 22.7501 12.171 23.0004 12.8717 24.0282L12.8737 22.9681C12.8757 22.2352 12.7223 21.5951 12.373 20.8985C12.0943 20.3432 11.8682 19.8202 11.8682 19.7375C11.8661 19.6547 12.1165 19.9495 12.9787 21.2014L13.0978 20.0908C13.1968 19.1761 13.1342 18.8107 12.7445 18.0212C12.484 17.4942 12.3164 17.0176 12.373 16.9611C12.4275 16.9046 12.6334 17.1347 12.8273 17.4679C13.0211 17.8031 13.2251 18.0757 13.2816 18.0757C13.3381 18.0757 13.4855 17.5971 13.6107 17.0136C13.8207 16.0404 13.7985 15.8667 13.3502 14.9419C13.0817 14.3866 13.005 14.1141 13.1806 14.3362C13.3563 14.5583 13.6208 14.9217 13.7662 15.1438C14.0105 15.5174 14.0489 15.4709 14.2831 14.5381C14.4749 13.7789 14.483 13.3528 14.3154 12.8218C14.1922 12.4321 14.1317 12.0686 14.1781 12.0141C14.2266 11.9576 14.3154 12.1171 14.378 12.3675C14.4426 12.6179 14.5617 12.8258 14.6445 12.8278C14.7273 12.8319 14.9555 12.4462 15.1534 11.9697C15.4764 11.1842 15.4825 11.0469 15.2038 10.4493C15.0342 10.0878 14.9454 9.72437 15.0039 9.64159C15.0605 9.5588 15.22 9.78495 15.6036 10.8026L15.9631 10.1464C16.2054 9.70418 16.2902 9.63553 16.2155 9.94446C16.1569 10.1948 16.1993 10.3988 16.3104 10.3988C16.4214 10.3988 16.6314 10.7844 17.0433 12.1151L17.3724 11.3074C17.6834 10.5462 17.6794 10.4392 17.3098 9.43967C17.0938 8.85613 17.009 8.3796 17.12 8.3796C17.2291 8.3796 17.4108 8.69863 17.5219 9.08631C17.6329 9.474 17.8045 9.81524 17.9055 9.8435C18.0044 9.87177 17.7823 10.8026 17.4108 11.9132C17.0393 13.0237 16.4981 15.0671 16.2094 16.4563C15.8157 18.3402 15.6541 19.8505 15.5673 22.4129C15.4764 25.0903 15.5269 26.3563 15.7975 28.1675C15.9873 29.4436 16.3689 31.2609 16.6455 32.2059C16.9222 33.1508 17.4148 34.536 18.3295 36.648L16.9666 35.8525C16.2175 35.4143 15.5774 35.0731 15.5471 35.0953ZM43.2058 35.0832C43.0442 35.4446 42.4768 36.331 41.9458 37.0519C41.4127 37.7727 40.2214 39.0993 39.2946 39.9958C38.3698 40.8924 37.021 42.0231 36.3002 42.5077C35.5793 42.9923 34.17 43.7757 33.1705 44.2462C32.171 44.7187 30.4446 45.3547 29.334 45.6596C27.4703 46.1705 27.0342 46.2129 23.6803 46.2048C21.2614 46.1987 19.6804 46.1018 17.8651 45.6334L30.5657 40.0382C37.5501 36.961 43.3188 34.4411 43.3814 34.435C43.446 34.431 43.3653 34.7218 43.2058 35.0832ZM38.602 34.2755C38.6848 34.1927 39.5854 33.9767 40.6051 33.795C41.6247 33.6132 42.5415 33.4537 42.6444 33.4416C42.7454 33.4275 42.7918 33.4638 42.7454 33.5224C42.6989 33.5789 41.9337 33.803 41.0452 34.0191C40.1568 34.2351 39.2098 34.4169 38.9413 34.4209C38.6727 34.4229 38.5213 34.3583 38.602 34.2755ZM45.9074 28.0666C45.7156 28.955 45.338 30.3179 45.0674 31.0953C44.7969 31.8727 44.5081 32.5814 44.4253 32.6703C44.3426 32.7591 41.2775 33.0519 37.6126 33.3225C33.9478 33.591 30.6324 33.8131 29.5359 33.8151L29.9357 32.1513C30.1538 31.2387 30.3355 30.4653 30.3396 30.4371C30.3416 30.4088 31.8883 30.5744 33.7762 30.8025C34.7636 30.9237 35.6803 31.0226 36.3486 31.0832C36.381 31.061 36.5384 31.0448 36.805 31.0448C36.8999 31.0448 36.9806 31.0469 37.0513 31.0489C36.3244 30.9156 34.4123 30.6309 30.4345 30.0857L30.5657 28.8742C30.6364 28.2079 30.7535 27.592 30.8222 27.5072C30.8928 27.4204 32.9484 27.8121 35.3916 28.3755C37.8348 28.9409 39.8539 29.375 39.8782 29.3407C39.9024 29.3063 38.2224 28.8056 36.1427 28.2281C34.0629 27.6486 32.0458 27.0994 31.6561 27.0025C30.9716 26.8349 30.9474 26.7985 30.8989 25.7829C30.8504 24.7834 30.8686 24.741 31.3027 24.8641C31.5531 24.9348 33.6187 25.7082 35.8963 26.5825C36.7908 26.9257 37.6227 27.2387 38.3072 27.4931C37.9398 27.3195 37.7641 27.1842 37.9155 27.1842C37.9196 27.1842 37.9236 27.1862 37.9276 27.1862C36.5405 26.6107 34.3799 25.7243 31.1513 24.4118L31.1008 23.059C31.0725 22.3139 31.0725 21.7041 31.1008 21.7001C31.1291 21.6981 33.0594 22.7965 35.3916 24.1433C36.2497 24.638 37.0917 25.1226 37.8348 25.5507C37.758 25.4961 37.7136 25.4558 37.7136 25.4416C37.7136 25.3851 37.758 25.3407 37.8146 25.3407C37.8388 25.3407 37.9761 25.4113 38.1901 25.5285C37.4733 25.0923 36.6495 24.5976 35.7954 24.0888C33.3522 22.635 31.2361 21.3447 31.0948 21.2216C30.9352 21.0842 30.8565 20.634 30.9494 19.0893L34.382 21.6436C35.4481 22.4371 36.6132 23.3013 37.5702 24.0121C37.4451 23.9131 37.3522 23.8384 37.3098 23.798C37.1442 23.6446 37.0755 23.5194 37.1583 23.5194C37.2411 23.5214 38.0811 24.113 39.0261 24.8359C39.0745 24.8722 39.123 24.9106 39.1715 24.9469C38.8625 24.7046 38.5233 24.4401 38.1679 24.1675C36.7525 23.0772 34.4809 21.3508 33.12 20.3311C31.0221 18.7582 30.6445 18.3907 30.6384 17.9202C30.6283 17.4073 30.6566 17.3892 30.9898 17.6678C31.1897 17.8334 33.5783 19.8243 36.3002 22.0898C38.0003 23.5052 39.438 24.6804 40.2214 25.2983C40.0458 25.1266 39.9286 25.0035 39.9307 24.9873C39.9327 24.9651 39.967 24.9489 40.0134 24.9409C39.438 24.4018 38.6404 23.6708 37.8146 22.9298C36.3709 21.6314 34.1437 19.6749 30.5455 16.5956L29.9398 13.9041L31.8903 15.7355C32.9625 16.743 35.8701 19.5174 38.3517 21.902C39.2865 22.8005 40.1225 23.5981 40.7827 24.2281C40.702 24.1473 40.6212 24.0646 40.5405 23.9797C39.3734 22.7844 39.1472 22.5138 40.0357 23.378C40.9241 24.2422 41.7196 24.9005 41.8024 24.8419C41.8852 24.7834 41.9074 24.8016 41.8509 24.8864C41.8145 24.9368 41.8812 25.0802 42.0084 25.2538C41.8973 25.0741 41.8509 24.9247 41.9014 24.8702C41.9862 24.7773 41.9539 24.7309 41.8307 24.7692C41.7055 24.8056 38.9291 22.2009 35.6581 18.9803C32.387 15.7597 29.645 12.8965 29.5642 12.6199C29.4734 12.3109 31.7409 14.4654 35.4097 18.1726C37.0029 19.7819 38.3295 21.1085 39.2038 21.9727C39.1795 21.9303 39.1735 21.9061 39.1916 21.9061C39.2239 21.9061 39.3188 21.9747 39.4541 22.0898C38.279 20.8278 36.1205 18.5381 33.9781 16.2827C30.8646 13.0015 28.7141 10.5664 28.3648 9.92427C28.0539 9.35285 27.5087 8.58556 27.1533 8.22009C26.7979 7.85462 26.1882 7.4629 25.8005 7.35184C25.2997 7.20646 24.2699 6.33014 22.2669 4.33923C22.2508 4.32308 22.2366 4.30895 22.2185 4.29279C22.5839 4.69057 22.804 4.95306 22.7717 4.95306C22.7152 4.95306 21.9439 4.22414 21.0554 3.33369C20.167 2.44323 19.5128 1.71633 19.6016 1.71633C19.6541 1.71835 19.957 1.98286 20.375 2.38669C19.8278 1.7769 19.6258 1.46999 19.743 1.43162C19.9105 1.37711 20.272 1.2923 20.5506 1.24586C20.8272 1.1974 21.6147 1.16913 23.539 1.21153L31.327 10.8188C27.0564 5.53862 23.7793 1.43566 23.7793 1.36297C23.7773 1.28018 23.9025 1.34682 24.0559 1.51441C24.0599 1.51845 24.0721 1.53258 24.0781 1.54066C23.9873 1.4296 23.8984 1.32259 23.8055 1.21153L24.7525 1.14894C25.2735 1.11259 25.9943 1.1348 26.3557 1.19942C26.9554 1.3024 27.6844 2.25141 34.8726 12.2665C38.1598 16.848 41.0776 20.8985 42.3678 22.6754C42.1275 22.3159 41.9559 22.0211 41.9579 21.9586C41.9599 21.8859 42.0932 21.9949 42.2668 22.2069C41.8004 21.5042 41.2088 20.6198 40.5788 19.687C39.1896 17.6315 36.8696 14.2695 35.4198 12.216C33.9721 10.1605 31.6682 6.9581 30.3032 5.09844C28.9363 3.23878 27.8681 1.64767 27.9267 1.56489C27.9872 1.4821 28.7828 1.62344 29.6934 1.87786C30.6061 2.1343 32.171 2.72793 33.1705 3.20042C34.17 3.67089 35.6682 4.52298 36.5021 5.09441C37.334 5.66583 38.6868 6.79657 39.5046 7.60828C40.3224 8.42201 41.437 9.67591 41.9781 10.3988C42.5213 11.1196 43.3693 12.529 43.862 13.5285C44.3567 14.528 44.9463 15.9131 45.1745 16.6077C45.4026 17.3023 45.7378 18.528 45.9216 19.3336C46.1437 20.3129 46.2547 21.7344 46.2547 23.6244C46.2567 25.5547 46.1477 26.9641 45.9074 28.0666Z" fill="white"/>
<path d="M40.532 21.801C41.0206 22.4149 41.3518 22.8348 41.4608 22.9721C41.3578 22.8389 41.0267 22.4209 40.532 21.801Z" fill="white"/>
<path d="M37.2716 31.1317C37.2493 31.1377 37.2229 31.1438 37.1965 31.1478C37.3162 31.1518 37.3912 31.1518 37.4115 31.1438C37.4298 31.1377 37.4054 31.1256 37.3304 31.1074C37.3223 31.1135 37.304 31.1236 37.2716 31.1317Z" fill="white"/>
<path d="M39.8424 28.0484C39.9939 28.0989 40.0827 28.1251 40.0888 28.119C40.0948 28.113 39.9979 28.0645 39.7637 27.9615C39.8364 28.008 39.8646 28.0403 39.8424 28.0484Z" fill="white"/>
<path d="M15.8059 4.89655L15.816 4.90664C16.6418 5.5023 17.2456 5.93642 17.6898 6.25949C17.5 6.09594 17.1588 5.83748 16.7852 5.57701L15.8059 4.89655Z" fill="white"/>
<path d="M42.1048 23.8283C42.022 23.8828 37.81 18.8167 32.7459 12.5694L31.3264 10.8188C31.8272 11.4387 32.3421 12.0727 32.867 12.7208C37.8645 18.8854 42.022 23.8828 42.1048 23.8283Z" fill="white"/>
<path d="M15.8516 4.93896L16.7137 5.72039C17.055 6.03134 17.3841 6.30191 17.586 6.44527C17.2448 6.14441 16.954 5.89202 16.7097 5.68L15.8516 4.93896Z" fill="white"/>
<path d="M40.5326 21.801C39.5452 20.5572 37.9138 18.5118 36.1954 16.3553C33.625 13.1348 29.9057 8.54517 27.9289 6.1585C26.0107 3.84251 24.3187 1.81122 24.0784 1.54065C29.2737 7.78596 33.0334 12.4119 35.7815 15.8505C37.6876 18.2332 39.4806 20.4785 40.5326 21.801Z" fill="white"/>
<path d="M43.0525 23.372C42.8789 23.0651 42.5619 22.5885 42.3499 22.3119C42.3216 22.2756 42.2933 22.2392 42.2671 22.2069C42.7275 22.9015 43.0626 23.4164 43.1919 23.6284C43.1515 23.5517 43.105 23.4649 43.0525 23.372Z" fill="white"/>
<path d="M43.3172 23.9333C43.3293 23.9313 43.3131 23.8848 43.2808 23.8081C43.2849 23.8586 43.2041 23.792 43.0648 23.6244C43.0204 23.5719 42.774 23.2347 42.3682 22.6754C42.4429 22.7864 42.5236 22.9055 42.6105 23.0247C42.9719 23.5274 43.2889 23.9353 43.3172 23.9333Z" fill="white"/>
<path d="M41.2474 26.2493C41.1 26.0676 40.9708 25.9101 40.8557 25.7708C40.8254 25.7647 40.6013 25.5971 40.2217 25.2983C40.3267 25.3992 40.4519 25.5184 40.5871 25.6436L41.2474 26.2493Z" fill="white"/>
<path d="M39.7332 28.0342C39.7937 28.0504 39.8281 28.0524 39.8422 28.0484C39.5494 27.9494 39.0063 27.7536 38.3076 27.4931C38.344 27.5113 38.3803 27.5274 38.4207 27.5456C38.8649 27.7435 39.4545 27.9636 39.7332 28.0342Z" fill="white"/>
<path d="M39.2278 27.6728C38.6827 27.4062 38.1052 27.1922 37.9275 27.1862C38.8583 27.5718 39.4419 27.8202 39.7629 27.9615C39.662 27.8949 39.4802 27.7939 39.2278 27.6728Z" fill="white"/>
<path d="M36.4631 31.1357C36.6913 31.1781 36.9982 31.1821 37.1961 31.1478C37.0123 31.1397 36.7175 31.1175 36.348 31.0832C36.3258 31.0973 36.3601 31.1155 36.4631 31.1357Z" fill="white"/>
<path d="M20.375 2.3847C20.7889 2.84508 21.4007 3.47506 22.2185 4.29081C21.9722 4.02226 21.6612 3.69111 21.318 3.33372C20.9767 2.98036 20.6516 2.65325 20.375 2.3847Z" fill="white"/>
<path d="M40.5346 27.1095C40.8092 27.273 41.0152 27.3497 40.9889 27.2811C40.9647 27.2124 40.262 26.748 39.4301 26.2493C38.9415 25.9565 38.4912 25.694 38.1903 25.5284C39.525 26.3402 40.4983 26.9459 40.6416 27.065C40.892 27.269 40.7769 27.2407 40.3387 26.9923C40.0924 26.851 39.1111 26.2877 37.835 25.5507C38.0248 25.688 38.4205 25.9262 38.8748 26.1766C39.5129 26.5259 40.26 26.9459 40.5346 27.1095Z" fill="white"/>
<path d="M37.051 31.0489C37.1803 31.0731 37.2711 31.0913 37.3297 31.1054C37.362 31.0792 37.257 31.057 37.051 31.0489Z" fill="white"/>
<path d="M41.3477 24.1332C41.4043 24.1332 40.9782 23.6324 40.4028 23.0206C40.0373 22.6329 39.6859 22.2897 39.4537 22.0898C39.8031 22.4633 40.0656 22.748 40.215 22.9136C40.5542 23.2892 40.1382 22.8974 39.2034 21.9727C39.2942 22.1261 39.6577 22.538 40.1362 23.0186C40.748 23.6304 41.2912 24.1332 41.3477 24.1332Z" fill="white"/>
<path d="M40.7628 25.6617C40.3024 25.1145 40.1126 24.9368 40.0601 24.9368C40.044 24.9368 40.0278 24.9388 40.0137 24.9409C40.361 25.266 40.6235 25.5184 40.7628 25.6617Z" fill="white"/>
<path d="M40.6236 26.2008C40.3994 26.0716 39.8805 25.7162 39.2788 25.274C38.9274 25.0156 38.3116 24.5612 37.5706 24.012C37.9219 24.2887 38.5438 24.7531 39.1778 25.2134C39.828 25.6859 40.3873 26.0655 40.6236 26.2008Z" fill="white"/>
<path d="M42.762 26.1524C42.8185 26.1544 42.6126 25.904 42.3057 25.5971C42.1886 25.48 42.0876 25.3608 42.0088 25.2538C42.0815 25.373 42.1825 25.5062 42.3057 25.6375C42.4975 25.8434 41.8776 25.268 40.7832 24.2281C41.8433 25.3063 42.7095 26.1524 42.762 26.1524Z" fill="white"/>
<path d="M40.7418 26.2493C40.7418 26.1948 40.0472 25.6214 39.1709 24.947C40.0916 25.6698 40.7418 26.2069 40.7418 26.2493Z" fill="white"/>
</g>
</g>
</g>
<defs>
<clipPath id="clip0_298_21376">
<rect width="46.441" height="46.441" fill="white" transform="translate(0.0292969 0.504822)"/>
</clipPath>
<clipPath id="clip1_298_21376">
<rect width="46.2391" height="46.441" fill="white" transform="translate(0.560791 0.504822)"/>
</clipPath>
</defs>
</svg>
