<svg width="47" height="48" viewBox="0 0 47 48" fill="none" xmlns="http://www.w3.org/2000/svg">
<g clip-path="url(#clip0_298_21416)">
<mask id="mask0_298_21416" style="mask-type:luminance" maskUnits="userSpaceOnUse" x="0" y="1" width="47" height="46">
<path d="M23.6813 46.6854C36.2224 46.6854 46.3889 36.5189 46.3889 23.9778C46.3889 11.4367 36.2224 1.27014 23.6813 1.27014C11.1402 1.27014 0.973633 11.4367 0.973633 23.9778C0.973633 36.5189 11.1402 46.6854 23.6813 46.6854Z" fill="white"/>
</mask>
<g mask="url(#mask0_298_21416)">
<path d="M25.8508 9.84559C25.768 9.84357 24.9724 10.2514 24.084 10.7522C24.9724 10.2514 25.768 9.84559 25.8508 9.84559Z" fill="white"/>
<path d="M25.8757 9.83551C25.8672 9.83973 25.8567 9.84607 25.8503 9.84607C25.8567 9.84607 25.8672 9.84185 25.8757 9.83551Z" fill="white"/>
<path d="M22.9189 10.1687C23.2743 9.56699 23.6983 9.26613 25.2147 8.40192C25.2753 8.3676 25.3339 8.33327 25.3924 8.30096C25.344 8.32721 25.2955 8.35346 25.245 8.37971C23.6499 9.23988 23.3006 9.48016 22.9189 10.1687Z" fill="white"/>
<path d="M22.3671 11.5599C22.3105 11.5054 22.4943 11.0046 22.7709 10.4494C22.8214 10.3464 22.8699 10.2555 22.9183 10.1687C22.8598 10.2697 22.8012 10.3787 22.7406 10.4998C22.4802 11.0269 22.3105 11.5054 22.3671 11.5599Z" fill="white"/>
<path d="M25.8743 9.83552C25.9712 9.78706 26.1852 9.48621 26.3811 9.1167C26.159 9.49832 25.9591 9.78303 25.8743 9.83552Z" fill="white"/>
<path d="M27.3487 7.24089C27.278 7.25099 26.4158 7.71943 25.3921 8.30096C26.2765 7.82847 27.0761 7.44079 27.3588 7.34387C27.381 7.27522 27.379 7.23685 27.3487 7.24089Z" fill="white"/>
<path d="M16.326 37.5164L14.959 38.532L14.9973 42.5583L17.5698 39.8324C17.7616 37.2498 17.7899 36.5007 17.7555 36.5007C17.7212 36.5007 17.0771 36.9571 16.326 37.5164Z" fill="white"/>
<path d="M10.7271 35.689C10.6544 35.691 10.5373 36.533 10.4667 37.5607C10.396 38.5865 10.293 39.7455 10.2385 40.1352C10.1436 40.7955 10.2082 40.8964 11.2562 41.7001C11.87 42.1705 12.4192 42.5582 12.4737 42.5582C12.5303 42.5582 12.5747 41.3992 12.5727 39.9838L12.5706 37.4093C11.244 36.0746 10.7998 35.687 10.7271 35.689Z" fill="white"/>
<path d="M24.4452 29.7366L22.7734 28.9289L9.20652 28.8077L9.07124 29.4741C8.99653 29.8395 8.93797 30.207 8.93999 30.2918C8.93999 30.3746 12.0536 30.4655 15.8577 30.4938L22.7734 30.5442C25.1196 31.4004 25.8688 31.6507 25.9536 31.6507C26.0363 31.6528 26.107 31.4044 26.1111 31.0995C26.1151 30.6008 25.9435 30.4594 24.4452 29.7366Z" fill="white"/>
<path d="M26.0567 25.9768C25.4731 25.5225 24.5423 24.9087 23.987 24.6139L22.9774 24.0808L10.0164 23.9576L9.88107 24.626C9.80636 24.9915 9.7478 25.4054 9.7478 25.5447C9.74982 25.7386 11.2157 25.8072 16.2637 25.8476L22.7755 25.8981C24.9663 26.94 25.8507 27.4185 26.1576 27.6305L26.7129 28.0182C27.1066 26.835 27.0642 26.7663 26.0567 25.9768Z" fill="white"/>
<path d="M28.1527 16.8361C27.7468 16.406 26.9613 15.8386 26.4061 15.5761C25.4126 15.1056 25.2935 15.0975 19.2925 15.0955L13.1865 15.0935L12.7807 15.9012L12.3728 16.7088L24.5888 16.8098C26.612 17.8275 27.4177 18.4837 28.3162 19.4691L29.6367 20.9188C30.3051 19.8527 30.297 19.8103 29.6004 18.728C29.2087 18.1162 28.5565 17.2661 28.1527 16.8361Z" fill="white"/>
<path d="M27.1644 19.1056C26.692 18.6755 25.9428 18.1424 25.4986 17.9203C24.7414 17.5427 24.2871 17.5165 18.3447 17.5165H12.0004L11.7804 18.1727C11.6592 18.5341 11.5603 18.8512 11.5623 18.8794C11.5643 18.9077 14.3366 18.9299 17.7248 18.9299C23.6551 18.9299 23.9176 18.9461 24.8424 19.3761C25.3815 19.6285 26.4416 20.4685 27.2654 21.2944L28.7293 22.7663C29.2119 21.6134 29.1816 21.4902 28.6283 20.7249C28.2952 20.2646 27.6349 19.5357 27.1644 19.1056Z" fill="white"/>
<path d="M26.5589 23.9455C25.9208 23.3721 24.8991 22.6674 24.2873 22.3807C23.1788 21.8577 23.1667 21.8577 16.9032 21.7931L10.6276 21.7264L10.3913 22.5503L10.1531 23.3721C22.1631 23.3721 22.5286 23.3943 23.6311 23.8143C24.2691 24.0586 25.3453 24.6724 26.0198 25.1772L27.2474 26.098C27.7078 25.0137 27.6654 24.9369 26.5589 23.9455Z" fill="white"/>
<path d="M25.0974 27.786C24.3745 27.3499 23.3306 26.8612 22.7754 26.6977C21.9838 26.4635 20.4493 26.4009 15.6759 26.4029L9.58812 26.4049L9.46899 26.8592C9.40438 27.1076 9.35188 27.471 9.34986 27.6669C9.34784 27.994 9.76177 28.0182 15.2539 28.0182C19.9223 28.0182 21.4124 28.0828 22.3715 28.3292C23.0378 28.5008 24.1726 28.9127 24.8955 29.2439C25.899 29.7042 26.2423 29.787 26.3594 29.5891C26.4442 29.4478 26.4886 29.1611 26.4603 28.9551C26.4301 28.735 25.8607 28.2464 25.0974 27.786Z" fill="white"/>
<path d="M26.4809 21.3913C25.8852 20.8017 25.0351 20.1434 24.5909 19.9294C23.8479 19.572 23.2845 19.5417 17.5703 19.5377L11.3573 19.5356L11.1533 20.0909C11.0423 20.3958 10.907 20.7593 10.8545 20.8986C10.7798 21.0965 12.1225 21.1611 17.0695 21.2015L23.3794 21.2519C25.1018 22.0657 26.1013 22.7219 26.7111 23.2348C27.7206 24.0828 27.8438 24.1353 28.0679 23.8203C28.2678 23.5376 28.2436 23.3781 27.9387 22.9682C27.7307 22.6896 27.0765 21.9809 26.4809 21.3913Z" fill="white"/>
<path d="M0.459229 0.757324V47.1983H46.9002V0.757324H0.459229ZM13.8827 32.105C13.8241 32.3554 13.6404 33.5124 13.4728 34.6795C13.3052 35.8465 13.1033 38.5038 13.0225 40.5855C12.9418 42.6693 12.8085 44.3715 12.7237 44.3715C12.6409 44.3715 12.5723 44.1454 12.5723 43.8667C12.5723 43.5073 12.2694 43.1035 11.5122 42.4593C10.9307 41.9646 10.3855 41.5547 10.3007 41.5507C10.2179 41.5487 10.1533 41.8395 10.1593 42.2009C10.1674 42.7986 10.1392 42.8309 9.83628 42.5542C9.55561 42.2998 9.51321 41.8718 9.56167 39.8284C9.61821 37.4679 9.60407 37.371 8.97611 36.0424C8.62275 35.2933 8.37843 34.6795 8.43295 34.6795C8.48949 34.6795 8.77217 35.1116 9.06293 35.6386C9.46677 36.3715 9.63032 36.527 9.75753 36.2948C9.84839 36.1292 9.99175 35.3559 10.0745 34.5785C10.1573 33.8011 10.2199 33.1207 10.2139 33.0641C10.2078 33.0076 10.1351 32.6825 10.0503 32.3392C9.90291 31.7315 9.91906 31.7153 10.6298 31.683C11.2356 31.6568 11.3466 31.7113 11.2719 32.0041C11.2234 32.1979 11.0861 32.8804 10.969 33.5184C10.7812 34.5442 10.8014 34.7441 11.1407 35.2347C11.3527 35.5396 11.7848 36.0363 12.6732 36.8864L13.1457 32.9632L12.6066 32.2968C12.3118 31.9314 12.1583 31.6345 12.2694 31.6406C12.3804 31.6446 12.6773 31.784 12.9256 31.9516C13.3294 32.2221 13.3799 32.2221 13.3799 31.9536C13.3799 31.788 13.5172 31.6507 13.6828 31.6507C13.8948 31.6507 13.9554 31.79 13.8827 32.105ZM20.0674 39.6264L19.1467 41.0399C18.2603 42.4008 18.2259 42.5078 18.23 43.9677C18.232 44.8016 18.3108 45.6193 18.4057 45.7849C18.5389 46.0232 18.7227 45.8798 19.2598 45.1226C19.6353 44.5916 19.9665 44.1615 19.9927 44.1635C20.021 44.1676 19.8049 44.6017 19.5142 45.1287C19.2214 45.6557 18.8822 46.2049 18.757 46.3462C18.6318 46.4876 18.3713 46.5562 18.1755 46.4977C17.9211 46.421 17.8241 46.1827 17.8322 44.8763L17.2729 45.4275C16.964 45.7304 16.5763 45.9828 16.4087 45.9868C16.2249 45.9909 16.3986 45.6981 17.6162 44.4725L17.602 40.4341L16.2956 41.8475C15.0195 43.2286 14.9912 43.2852 14.9892 44.3715C14.9892 45.163 14.9347 45.3952 14.7933 45.1792C14.6863 45.0136 14.5975 43.2408 14.5955 41.2418C14.5935 39.2428 14.7308 36.426 14.8983 34.9823C15.0659 33.5386 15.2537 32.1979 15.3143 32.0041C15.3729 31.8102 15.5081 31.6507 15.6131 31.6507C15.7181 31.6507 15.7989 31.9011 15.7848 32.7612L16.4592 32.1918C16.8287 31.8789 17.289 31.6527 17.4829 31.687C17.7413 31.7355 17.5394 31.9919 16.7196 32.6603C15.9281 33.3064 15.5788 33.7446 15.5122 34.1747C15.4597 34.5078 15.3466 35.4407 15.2578 36.2463C15.1689 37.054 15.1649 37.7123 15.2477 37.7102C15.3325 37.7102 15.9443 37.2983 16.6106 36.7996C17.2991 36.2827 17.8625 35.6951 17.913 35.4366C17.9635 35.1863 18.0584 34.528 18.125 33.9727C18.1916 33.4175 18.2885 32.6684 18.339 32.3069C18.4198 31.7153 18.4965 31.6507 19.1023 31.6507C19.7706 31.6507 19.7726 31.6547 19.4253 32.105C19.2214 32.3695 18.9609 33.3327 18.8034 34.417C18.652 35.4387 18.5753 36.319 18.6298 36.3756C18.6863 36.4321 19.1851 36.0949 20.7499 34.7824L18.4763 37.4053L18.2037 41.6456L20.0674 39.6264ZM42.9588 35.5881C42.6458 36.1434 42.0058 37.0964 41.5333 37.7082C41.0608 38.32 40.0532 39.4225 39.294 40.1595C38.5348 40.8965 37.3677 41.896 36.7014 42.3806C36.0351 42.8652 34.7186 43.6446 33.7736 44.111C32.8306 44.5775 31.3304 45.1913 30.442 45.476C29.5535 45.7607 28.7135 45.9929 28.5742 45.9909C28.4369 45.9889 28.2794 45.8273 28.2269 45.6335C28.1744 45.4396 27.9765 44.4159 27.7867 43.3619C27.5424 42.0151 27.4394 40.3614 27.4394 37.8092C27.4394 35.2448 27.5424 33.6093 27.7888 32.2564C27.9786 31.2024 28.3238 29.7022 28.554 28.9248C28.7822 28.1474 29.1981 26.9662 29.4768 26.2999C29.7534 25.6336 30.3672 24.4988 30.8418 23.7759C31.3142 23.0551 32.1441 22.1323 32.6873 21.7265C33.2304 21.3206 33.9917 20.8925 34.3793 20.7754C34.769 20.6603 35.4273 20.6058 35.8432 20.6563C36.2612 20.7068 36.9417 20.9188 37.3576 21.1288C37.7756 21.3388 38.6136 22.0435 39.2213 22.6936C39.9523 23.4771 40.6166 24.4907 41.184 25.6941C41.6565 26.6936 42.2622 28.3756 42.5328 29.4296C42.8033 30.4836 43.1385 32.0747 43.2758 32.9632C43.5262 34.5704 43.5242 34.5825 42.9588 35.5881ZM44.5439 32.5008C44.3399 33.0237 44.1562 33.4316 44.132 33.4094C44.1097 33.3852 43.9482 32.5492 43.7725 31.5497C43.5969 30.5502 43.2698 29.05 43.0436 28.2181C42.8175 27.3842 42.1491 25.7042 41.5555 24.4826C40.8387 23.0026 40.1522 21.9203 39.5 21.2358C38.9609 20.6704 38.1108 19.994 37.612 19.7295C36.9578 19.3842 36.3662 19.2489 35.4919 19.2429C34.5025 19.2368 34.0765 19.3499 33.1699 19.8587C32.5035 20.2343 31.6696 20.9592 31.0861 21.676C30.551 22.3302 29.7615 23.5942 29.3294 24.4826C28.8993 25.3711 28.3117 26.9157 28.023 27.9152C27.7363 28.9147 27.3587 30.5038 27.185 31.4488C27.0134 32.3938 26.8256 34.7562 26.7691 36.6986C26.6923 39.3377 26.7489 40.846 26.9972 42.6552C27.179 43.9879 27.3708 45.3286 27.4213 45.6335C27.498 46.0797 27.4273 46.213 27.0619 46.3079C26.7832 46.3806 26.555 46.322 26.4682 46.1564C26.3935 46.007 26.2138 45.2034 26.0704 44.3715C25.9109 43.4407 25.8019 40.8379 25.7595 32.3574L24.972 32.0162C24.5379 31.8284 23.6394 31.5336 22.973 31.3599C21.9897 31.1035 20.4935 31.0429 8.33401 31.0449L7.96854 31.4993C7.66162 31.8809 7.57884 32.5512 7.27596 39.4245L6.57127 38.6168C6.18561 38.1726 5.52736 37.3104 5.10939 36.6986C4.69142 36.0868 4.00692 34.9056 3.58693 34.0737C3.16896 33.2398 2.60965 31.9233 2.34514 31.1459C2.08063 30.3685 1.71516 28.9612 1.53343 28.0162C1.34767 27.0429 1.2043 25.2943 1.2043 23.9778C1.2043 22.5927 1.34565 20.9228 1.55766 19.8385C1.7515 18.839 2.13918 17.3852 2.41783 16.6078C2.69849 15.8305 3.30223 14.4675 3.76058 13.5791C4.21893 12.6906 5.10737 11.2813 5.73533 10.4494C6.3633 9.61544 7.40923 8.42817 8.0594 7.8103C8.70958 7.19041 9.78782 6.28179 10.4562 5.79113C11.1225 5.29845 12.3946 4.52107 13.283 4.06069C14.1694 3.60032 15.5324 2.99659 16.3097 2.71592C17.0871 2.43728 18.4965 2.06777 19.4395 1.89412C20.3844 1.72047 21.5192 1.54076 21.9634 1.49432C22.4077 1.44788 23.5889 1.45192 24.5884 1.50442C25.5879 1.5549 27.0881 1.72451 27.92 1.87999C28.7539 2.03748 30.0704 2.38074 30.8478 2.64323C31.6252 2.90775 32.9881 3.49533 35.4919 4.77548L28.8286 4.78356C23.4455 4.79164 21.9332 4.85423 20.9539 5.11066C20.2875 5.28431 19.2436 5.73257 18.6318 6.1041C18.02 6.47563 16.9216 7.40243 16.1866 8.16164C15.4536 8.92085 14.3835 10.2676 13.808 11.1561C13.2325 12.0445 12.7641 12.8623 12.7661 12.9733C12.7681 13.0844 12.861 13.47 13.18 14.4877L19.389 14.4897C25.4808 14.4918 25.6161 14.4998 26.6075 14.9663C27.1628 15.2267 28.0735 15.9294 28.6348 16.5291C29.1941 17.1268 29.8685 17.9809 30.133 18.4251C30.3975 18.8693 30.6398 19.2772 30.6721 19.3337C30.7044 19.3903 31.1244 19.0712 31.609 18.627C32.0936 18.1828 32.8468 17.6437 33.2829 17.4276C33.7211 17.2136 34.6237 17.0016 35.29 16.9572C36.3238 16.8885 36.6792 16.9652 37.713 17.4801C38.448 17.8436 39.3102 18.5059 39.9058 19.1621C40.447 19.7557 41.2405 20.832 41.6726 21.5548C42.1027 22.2777 42.8094 23.8668 43.2435 25.0884C43.6776 26.31 44.2309 28.2625 44.4732 29.4296C44.9053 31.5114 44.9073 31.5659 44.5439 32.5008ZM27.1123 10.1465C27.6676 9.86986 28.1623 9.6639 28.2108 9.69217C28.2612 9.72044 27.7201 10.1061 27.0094 10.5503C26.0422 11.1541 25.6121 11.574 25.3052 12.2161C25.077 12.6886 24.8004 13.0743 24.6893 13.0743C24.5783 13.0743 24.5439 12.9148 24.6126 12.7209C24.6833 12.5271 24.8408 12.095 24.966 11.7618C25.0911 11.4287 25.3072 11.043 25.4465 10.9037C25.5858 10.7644 25.6767 10.6048 25.6484 10.5463C25.6202 10.4897 24.8246 10.8673 23.8817 11.3842C22.9387 11.9011 22.0058 12.4706 21.81 12.6503C21.6161 12.828 21.4142 12.9269 21.3658 12.8724C21.3153 12.8179 21.598 12.1354 21.9937 11.358C22.3915 10.5806 23.1144 9.19546 23.601 8.27875C24.0896 7.36204 24.5318 6.61293 24.5884 6.61293C24.6449 6.61293 24.445 7.06725 24.1441 7.62252C23.8453 8.17779 23.6636 8.63211 23.7403 8.63211C23.8191 8.63211 24.6086 8.22423 25.497 7.72348C26.3854 7.22272 27.2032 6.86129 27.3143 6.91581C27.4253 6.97032 27.6535 6.85725 27.8231 6.66341C28.1038 6.34034 28.1098 6.35246 27.9079 6.81485C27.7888 7.09349 27.5828 7.31964 27.4516 7.31964C27.4354 7.31964 27.4031 7.32772 27.3587 7.34387C27.3284 7.44079 27.2496 7.59627 27.1386 7.77396C26.9488 8.07885 26.6156 8.67047 26.3975 9.08844C26.3935 9.09853 26.3875 9.10661 26.3814 9.11671C26.4541 8.99152 26.5308 8.85623 26.6075 8.71287C26.9407 8.08895 27.2819 7.54175 27.3647 7.49935C27.4475 7.45695 27.498 7.51348 27.4778 7.62454C27.4556 7.73761 28.1603 7.46906 29.0427 7.02888C29.925 6.5887 30.7368 6.22525 30.8478 6.21717C30.9589 6.21112 30.1229 6.77447 28.9922 7.46906C27.2739 8.52509 26.866 8.87441 26.5187 9.59121C26.2905 10.0637 26.1027 10.4958 26.1027 10.5503C26.1027 10.6048 26.5571 10.4251 27.1123 10.1465ZM18.1149 12.1152C18.1775 12.5372 18.1391 12.9168 18.026 12.9733C17.915 13.0278 17.7656 12.9148 17.6949 12.7209C17.5717 12.3837 17.5576 12.3837 17.392 12.7209C17.2971 12.9148 17.1275 13.0278 17.0165 12.9733C16.9014 12.9168 17.1215 12.303 17.5213 11.5599C18.1088 10.4696 18.1936 10.1626 18.026 9.74265C17.915 9.46401 17.8342 8.89662 17.8443 8.48067L17.8645 7.72348L18.0685 8.43019C18.1795 8.81787 18.3128 9.27218 18.3633 9.43978C18.4279 9.64775 18.5934 9.51448 18.8983 9.00565C19.1406 8.60182 19.4152 8.19193 19.5061 8.09702C19.599 8.00212 19.2981 8.69874 18.8378 9.64169C18.1573 11.0369 18.024 11.4993 18.1149 12.1152ZM19.3345 9.23786C19.393 9.18334 19.4799 9.18334 19.5283 9.23786C19.5768 9.29238 19.6898 9.91428 19.9443 11.8971L20.6934 10.516C21.3476 9.31661 21.4223 9.04604 21.2688 8.43019C21.1719 8.04251 21.0508 7.29137 21.0003 6.76437C20.9316 6.04554 20.9781 5.80526 21.184 5.80526C21.3597 5.80526 21.4586 6.0415 21.4566 6.46149C21.4546 6.82293 21.501 7.41252 21.5576 7.77396C21.6141 8.13539 21.7514 8.38375 21.8625 8.32923C21.9735 8.27471 21.5879 9.27017 21.0043 10.5443C20.4208 11.8184 19.8534 12.8623 19.7423 12.8683C19.6313 12.8724 19.4698 12.0809 19.385 11.1076C19.3001 10.1344 19.2759 9.29238 19.3345 9.23786ZM16.0069 12.8724C15.8978 12.7048 15.8191 12.2505 15.8312 11.8628L15.8514 11.1561L16.0069 11.7618C16.0917 12.095 16.1704 12.5493 16.1805 12.7714C16.1987 13.1046 16.1684 13.1207 16.0069 12.8724Z" fill="white"/>
<path d="M23.4571 9.33681L22.2981 11.6266L25.973 9.83554L27.3481 7.24091L23.4571 9.33681Z" fill="white"/>
</g>
</g>
<defs>
<clipPath id="clip0_298_21416">
<rect width="46.441" height="46.441" fill="white" transform="translate(0.459961 0.757263)"/>
</clipPath>
</defs>
</svg>
