<svg width="46" height="18" viewBox="0 0 46 18" fill="none" xmlns="http://www.w3.org/2000/svg">
<path d="M43.448 6.21599C37.976 4.77599 34.616 4.96799 33.848 4.67999C33.464 4.58399 33.848 4.67999 27.992 1.12799C27.416 0.743991 26.648 0.551992 25.976 0.455992C19.352 -0.312008 11.576 -0.120009 6.29597 4.00799C6.00797 4.19999 5.81597 4.39199 5.52797 4.39199L2.45597 5.35199C1.87997 5.54399 1.39997 5.92799 1.20797 6.40799C0.15197 8.23199 -0.23203 10.536 0.34397 12.648C0.53597 13.512 1.20797 14.088 1.97597 14.28L2.74397 14.472C2.74397 14.184 2.64797 13.992 2.64797 13.704C2.64797 10.248 5.43197 7.46399 8.88797 7.46399C12.344 7.46399 15.128 10.248 15.128 13.704C15.128 14.184 15.032 14.664 14.936 15.048H32.504C32.408 14.568 32.312 14.184 32.312 13.704C32.312 10.248 35.096 7.46399 38.552 7.46399C42.008 7.46399 44.792 10.248 44.792 13.704C44.792 14.088 44.792 14.472 44.696 14.856C45.464 14.472 45.944 13.608 45.944 12.744V9.76799C46.04 8.03999 44.984 6.59999 43.448 6.21599ZM15.224 6.11999C14.936 6.11999 14.648 6.02399 14.456 5.73599L12.152 2.95199C14.264 2.27999 16.76 1.89599 19.544 1.89599L20.696 6.11999H15.224ZM30.968 6.02399C30.776 6.11999 30.68 6.11999 30.488 6.11999H22.712L21.56 1.99199L25.592 2.27999C25.976 2.27999 26.456 2.47199 26.84 2.66399L31.544 5.54399L30.968 6.02399Z" fill="#FFDD00"/>
<path d="M8.88787 17.928C11.2737 17.928 13.2079 15.9938 13.2079 13.608C13.2079 11.2221 11.2737 9.28796 8.88787 9.28796C6.502 9.28796 4.56787 11.2221 4.56787 13.608C4.56787 15.9938 6.502 17.928 8.88787 17.928Z" fill="#FFDD00"/>
<path d="M38.6479 17.928C41.0338 17.928 42.9679 15.9938 42.9679 13.608C42.9679 11.2221 41.0338 9.28796 38.6479 9.28796C36.262 9.28796 34.3279 11.2221 34.3279 13.608C34.3279 15.9938 36.262 17.928 38.6479 17.928Z" fill="#FFDD00"/>
</svg>
