<svg width="24" height="24" viewBox="0 0 24 24" fill="none" xmlns="http://www.w3.org/2000/svg">
<path d="M0.502117 4.46044C3.79602 7.25002 9.5758 12.1577 11.2746 13.688C11.5026 13.8945 11.7472 13.9995 12.0011 13.9995C12.2545 13.9995 12.4987 13.8955 12.7262 13.6899C14.4264 12.1582 20.2062 7.25002 23.5002 4.46044C23.7052 4.28709 23.7365 3.98241 23.5705 3.77048C23.1867 3.28078 22.6144 3 22.0011 3H2.00113C1.38787 3 0.81557 3.28078 0.431804 3.77053C0.265773 3.98241 0.297039 4.28709 0.502117 4.46044Z" fill="#EC2526"/>
<path d="M23.71 5.9724C23.5327 5.8899 23.3242 5.91868 23.1768 6.04468C19.5239 9.14133 14.8618 13.1106 13.395 14.4323C12.5717 15.1755 11.4292 15.1755 10.604 14.4314C9.0405 13.0227 3.80512 8.57199 0.823219 6.04463C0.674766 5.91863 0.465797 5.89083 0.290016 5.97235C0.113297 6.05443 0 6.23119 0 6.426V19.0002C0 20.1033 0.896953 21.0002 2.00002 21.0002H22C23.103 21.0002 24 20.1033 24 19.0002V6.426C24 6.23119 23.8867 6.05396 23.71 5.9724Z" fill="#EC2526"/>
</svg>
