<svg width="25" height="24" viewBox="0 0 25 24" fill="none" xmlns="http://www.w3.org/2000/svg">
<path d="M12.6694 16.7985C15.5488 16.7985 17.8913 14.456 17.8913 11.5766V5.22183C17.8913 2.34253 15.5488 0 12.6694 0C9.79009 0 7.44761 2.34253 7.44761 5.22183V11.5766C7.44761 14.456 9.79009 16.7985 12.6694 16.7985ZM8.94761 5.22183C8.94761 3.16959 10.6172 1.5 12.6694 1.5C14.7217 1.5 16.3913 3.16959 16.3913 5.22183V11.5766C16.3913 13.6288 14.7217 15.2985 12.6694 15.2985C10.6172 15.2985 8.94761 13.6288 8.94761 11.5766V5.22183ZM21.2752 13.0863C20.9239 15.082 19.8718 16.9104 18.3127 18.2349C16.9266 19.4123 15.2122 20.125 13.4194 20.2813V22.5H18.2944C18.7087 22.5 19.0444 22.8358 19.0444 23.25C19.0444 23.6642 18.7087 24 18.2944 24H7.04443C6.6302 24 6.29443 23.6642 6.29443 23.25C6.29443 22.8358 6.6302 22.5 7.04443 22.5H11.9194V20.2813C10.1267 20.125 8.41229 19.4123 7.0262 18.2349C5.46704 16.9104 4.41498 15.082 4.06375 13.0863C3.99198 12.6784 4.26442 12.2895 4.67237 12.2177C5.08028 12.1459 5.46925 12.4184 5.54101 12.8263C6.15165 16.2959 9.14959 18.8141 12.6694 18.8141C16.1893 18.8141 19.1872 16.2959 19.7979 12.8263C19.8696 12.4184 20.2585 12.1458 20.6665 12.2177C21.0745 12.2895 21.3469 12.6784 21.2752 13.0863ZM21.2865 5.05162V9.38452C21.2865 9.79875 20.9507 10.1345 20.5365 10.1345C20.1222 10.1345 19.7865 9.79875 19.7865 9.38452V5.05162C19.7865 4.63739 20.1222 4.30162 20.5365 4.30162C20.9507 4.30162 21.2865 4.63739 21.2865 5.05162ZM24.6694 6.08353V8.35247C24.6694 8.7667 24.3337 9.10247 23.9194 9.10247C23.5052 9.10247 23.1694 8.7667 23.1694 8.35247V6.08353C23.1694 5.6693 23.5052 5.33353 23.9194 5.33353C24.3337 5.33353 24.6694 5.6693 24.6694 6.08353ZM4.0524 9.38447V5.05158C4.0524 4.63734 4.38817 4.30158 4.8024 4.30158C5.21664 4.30158 5.5524 4.63734 5.5524 5.05158V9.38447C5.5524 9.7987 5.21664 10.1345 4.8024 10.1345C4.38817 10.1345 4.0524 9.7987 4.0524 9.38447ZM2.16943 6.08353V8.35247C2.16943 8.7667 1.83367 9.10247 1.41943 9.10247C1.0052 9.10247 0.669434 8.7667 0.669434 8.35247V6.08353C0.669434 5.6693 1.0052 5.33353 1.41943 5.33353C1.83367 5.33353 2.16943 5.6693 2.16943 6.08353Z" fill="white"/>
</svg>
