<svg width="40" height="23" viewBox="0 0 40 23" fill="none" xmlns="http://www.w3.org/2000/svg">
<path d="M6.57997 9.21268C2.94591 9.21268 0 12.1586 0 15.7933C0 19.427 2.94591 22.3731 6.57997 22.3731C9.23332 22.3731 11.5148 20.7988 12.5555 18.5356L14.1187 19.741C14.1187 19.741 25.6065 19.8231 26.2375 19.4665C26.2375 19.4665 24.8119 15.5734 26.6215 13.9278C26.812 13.7545 27.0514 13.5569 27.3147 13.3475C27.0113 14.1035 26.8408 14.9273 26.8408 15.7927C26.8408 19.4271 29.7865 22.3725 33.4205 22.3725C37.0546 22.3725 40 19.4258 40 15.7927C40 12.158 37.0539 9.21277 33.4205 9.21277C33.3609 9.21277 33.3039 9.2203 33.2445 9.2215C33.7198 8.91301 34.0231 8.71933 34.0231 8.71933L33.5296 8.28034C33.5296 8.28034 34.9553 7.95181 34.627 7.23858C34.2975 6.52535 30.8433 2.24852 30.8433 2.24852C30.8433 2.24852 31.4552 0.932254 30.1897 0L29.5819 1.3161C29.5819 1.3161 28.0328 0.246763 27.4161 0.452684C26.7992 0.658006 25.8745 0.761181 25.5856 1.21335L25.2981 1.48083C25.2981 1.48083 25.2167 1.95415 25.6886 2.65326C25.6886 2.65326 30.4391 4.11312 30.6649 5.18228C30.6649 5.18228 30.9944 5.86152 29.5751 6.02514L29.2879 6.39572L28.5262 6.43673L27.1492 3.29029C27.1492 3.29029 25.8323 3.6398 25.1543 4.17416L25.2572 4.70845C25.2572 4.70845 19.7261 0.945953 14.5234 6.51824C14.5234 6.51824 10.6782 7.62842 7.98443 4.21526C7.98443 4.21526 7.94342 3.10492 1.44573 3.31067L1.89833 3.78364C1.89833 3.78364 1.44573 3.82465 1.26096 4.11252C1.07618 4.40003 1.3637 4.70853 2.84445 4.70853C2.84445 4.70853 6.19682 8.5331 8.76693 8.3074L12.4267 10.076L14.0514 12.8519C14.0514 12.8519 14.0543 13.0903 14.0711 13.4551C13.694 13.5354 13.2713 13.6245 12.8228 13.7197C11.9533 11.1025 9.48967 9.21268 6.57997 9.21268ZM33.4205 11.2291C35.9373 11.2291 37.984 13.2765 37.984 15.7927C37.984 18.3091 35.9366 20.3558 33.4205 20.3558C30.9037 20.3558 28.8573 18.3084 28.8573 15.7927C28.8573 13.2765 30.9038 11.2291 33.4205 11.2291ZM6.57997 20.3566C4.0638 20.3566 2.0164 18.3091 2.0164 15.7933C2.0164 13.2765 4.0638 11.2298 6.57997 11.2298C8.51435 11.2298 10.1672 12.4417 10.8299 14.1443C8.41023 14.6589 6.00853 15.1709 6.00853 15.1709L6.3184 16.8776L11.0566 16.6683C10.6484 18.7668 8.79724 20.3566 6.57997 20.3566ZM14.4832 16.5166C14.6177 16.9733 14.793 17.3363 15.0236 17.4922L12.9091 17.5749C13.0012 17.2476 13.0681 16.9138 13.1093 16.5764L14.4832 16.5166Z" fill="#BFCCD0"/>
</svg>
