<svg width="34" height="21" viewBox="0 0 34 21" fill="none" xmlns="http://www.w3.org/2000/svg">
<path d="M4.73022 16.1H1.40015C1.40015 16.6569 1.6214 17.1911 2.01522 17.5849C2.40905 17.9787 2.94319 18.2 3.50015 18.2H3.86765C3.93638 17.4289 4.23712 16.6967 4.73022 16.1ZM21.0001 16.1H10.67C11.1631 16.6968 11.4638 17.4289 11.5324 18.2H21.0001C21.1858 18.2 21.3638 18.1262 21.4951 17.9949C21.6264 17.8637 21.7001 17.6856 21.7001 17.5V16.8C21.7001 16.6143 21.6264 16.4363 21.4951 16.305C21.3638 16.1737 21.1858 16.1 21.0001 16.1Z" fill="#C1C3C3"/>
<path d="M7.69998 21C9.05306 21 10.15 19.9031 10.15 18.55C10.15 17.1969 9.05306 16.1 7.69998 16.1C6.34689 16.1 5.25 17.1969 5.25 18.55C5.25 19.9031 6.34689 21 7.69998 21Z" fill="#C1C3C3"/>
<path d="M33.2863 11.7582L30.5967 5.84129C30.3737 5.35237 30.015 4.93778 29.5632 4.64682C29.1114 4.35586 28.5856 4.20078 28.0482 4.20001H23.8001C23.6145 4.20001 23.4364 4.27376 23.3051 4.40504C23.1739 4.53632 23.1001 4.71438 23.1001 4.90003V15.913C23.6075 15.3726 24.2604 14.9903 24.9801 14.8124C25.6998 14.6344 26.4556 14.6683 27.1564 14.91C27.8573 15.1516 28.4733 15.5908 28.9304 16.1745C29.3874 16.7582 29.6659 17.4616 29.7324 18.2H31.5001C32.0571 18.2 32.5912 17.9787 32.985 17.5849C33.3788 17.1911 33.6001 16.6569 33.6001 16.1V13.2065C33.6001 12.7069 33.4931 12.2131 33.2863 11.7582ZM30.0948 11.2H25.5501C25.3644 11.1999 25.1864 11.1262 25.0552 10.9949C24.9239 10.8637 24.8501 10.6856 24.8501 10.5V7.69999C24.8501 7.51433 24.9239 7.33628 25.0552 7.205C25.1864 7.07372 25.3645 6.99997 25.5501 6.99997H28.3714C28.6402 6.99994 28.9033 7.07727 29.1293 7.22273C29.3553 7.36819 29.5346 7.57563 29.6459 7.82028L30.7323 10.2103C30.7808 10.317 30.8017 10.4341 30.7932 10.5509C30.7847 10.6678 30.7469 10.7806 30.6835 10.8791C30.6201 10.9776 30.5329 11.0586 30.4301 11.1146C30.3272 11.1707 30.2119 11.2001 30.0948 11.2V11.2Z" fill="#C1C3C3"/>
<path d="M25.8997 21C27.2528 21 28.3497 19.9031 28.3497 18.55C28.3497 17.1969 27.2528 16.1 25.8997 16.1C24.5466 16.1 23.4497 17.1969 23.4497 18.55C23.4497 19.9031 24.5466 21 25.8997 21Z" fill="#C1C3C3"/>
<path d="M19.6003 0H3.50025C2.94329 0 2.40915 0.221249 2.01532 0.615076C1.6215 1.0089 1.40025 1.54305 1.40025 2.1V10.5H0.737436C0.389099 10.5 0.0658958 10.7382 0.00985206 11.0824C-0.00717468 11.1829 -0.00208604 11.2858 0.0247632 11.3841C0.0516124 11.4824 0.0995759 11.5736 0.16531 11.6515C0.231043 11.7293 0.312965 11.7919 0.405362 11.8348C0.497759 11.8777 0.598409 11.9 0.700293 11.9H2.4131C2.76184 11.9 3.08497 12.1383 3.14102 12.4825C3.15804 12.5829 3.15296 12.6859 3.12611 12.7842C3.09926 12.8824 3.05129 12.9737 2.98556 13.0515C2.91983 13.1294 2.8379 13.1919 2.74551 13.2349C2.65311 13.2778 2.55246 13.3 2.45058 13.3001H0.737764C0.389099 13.3 0.0658958 13.5384 0.00985206 13.8824C-0.00717468 13.9828 -0.00208604 14.0858 0.0247632 14.1841C0.0516124 14.2823 0.0995759 14.3736 0.16531 14.4514C0.231043 14.5293 0.312965 14.5918 0.405362 14.6348C0.497759 14.6777 0.598409 14.7 0.700293 14.7H21.0003C21.1859 14.7 21.364 14.6262 21.4953 14.495C21.6265 14.3637 21.7003 14.1856 21.7003 14V2.1C21.7003 1.54305 21.479 1.0089 21.0852 0.615076C20.6914 0.221249 20.1572 0 19.6003 0Z" fill="#C1C3C3"/>
</svg>
