<svg width="70" height="70" viewBox="0 0 70 70" fill="none" xmlns="http://www.w3.org/2000/svg">
<rect width="70" height="70" rx="35" fill="white" fill-opacity="0.5"/>
<rect x="6" y="6" width="58" height="58" rx="29" fill="white"/>
<path fill-rule="evenodd" clip-rule="evenodd" d="M43.2816 37.2677C42.0444 36.0261 40.0375 36.025 38.7992 37.2677L38.7953 37.2716C38.1524 37.9168 37.1105 37.9175 36.4679 37.2727C35.3639 36.1647 33.9308 34.7265 32.8268 33.6185C32.1842 32.9736 32.1849 31.9279 32.8278 31.2827L32.8317 31.2788C34.07 30.0361 34.0689 28.022 32.8317 26.7803C32.2716 26.2182 31.6417 25.5861 31.0527 24.995C30.3391 24.2772 29.3691 23.8747 28.359 23.8745C27.3481 23.8751 26.3792 24.2776 25.6646 24.9947L24.4154 26.2484C22.8475 27.8219 22.4127 30.2041 23.3226 32.2325L23.3252 32.2398C26.11 38.1222 31.7701 43.8073 37.8462 46.719L37.8498 46.7211C39.8704 47.6572 42.2517 47.2331 43.824 45.6608C44.238 45.2849 44.658 44.8649 45.0609 44.4605C45.7755 43.7434 46.1765 42.771 46.1771 41.7564C46.1769 40.7427 45.7758 39.7693 45.0606 39.0531C44.4716 38.4619 43.8417 37.8298 43.2816 37.2677ZM42.2046 38.3485L43.9836 40.1339C44.4127 40.5645 44.6528 41.148 44.6526 41.7563C44.6531 42.3652 44.4115 42.9485 43.9829 43.3787C43.594 43.7689 43.1887 44.1771 42.7817 44.546L42.7537 44.5727C41.6339 45.6965 39.9358 46.0007 38.4973 45.3359C32.7291 42.5705 27.3526 37.1763 24.7093 31.5987C24.0627 30.1505 24.3744 28.4518 25.4934 27.3302L26.7426 26.0766C27.1712 25.6464 27.7524 25.4039 28.3592 25.4044C28.9653 25.4043 29.5467 25.6452 29.9758 26.0758L31.7548 27.8612C32.3973 28.506 32.3966 29.5517 31.7537 30.197L31.7498 30.2009C30.5116 31.4436 30.5118 33.4585 31.7498 34.6993L35.3909 38.3535C36.6274 39.5959 38.6351 39.5962 39.8733 38.3535L39.8772 38.3496C40.5201 37.7043 41.5613 37.7044 42.2046 38.3485Z" fill="#0E273D"/>
<path fill-rule="evenodd" clip-rule="evenodd" d="M37.3626 30.7707C38.6253 30.7707 39.6501 31.7992 39.6501 33.0664C39.6501 33.4888 39.9917 33.8316 40.4126 33.8316C40.8335 33.8316 41.1751 33.4888 41.1751 33.0664C41.1751 30.9544 39.4671 29.2402 37.3626 29.2402C36.9417 29.2402 36.6001 29.5831 36.6001 30.0055C36.6001 30.4279 36.9417 30.7707 37.3626 30.7707Z" fill="#0E273D"/>
<path fill-rule="evenodd" clip-rule="evenodd" d="M37.3626 26.1799C41.1507 26.1799 44.2251 29.2653 44.2251 33.067C44.2251 33.4894 44.5667 33.8322 44.9876 33.8322C45.4085 33.8322 45.7501 33.4894 45.7501 33.067C45.7501 28.4205 41.9925 24.6494 37.3626 24.6494C36.9417 24.6494 36.6001 24.9922 36.6001 25.4147C36.6001 25.8371 36.9417 26.1799 37.3626 26.1799Z" fill="#0E273D"/>
<path fill-rule="evenodd" clip-rule="evenodd" d="M37.3626 21.5881C43.6746 21.5881 48.8001 26.732 48.8001 33.0666C48.8001 33.489 49.1417 33.8318 49.5626 33.8318C49.9835 33.8318 50.3251 33.489 50.3251 33.0666C50.3251 25.8872 44.5164 20.0576 37.3626 20.0576C36.9417 20.0576 36.6001 20.4004 36.6001 20.8229C36.6001 21.2453 36.9417 21.5881 37.3626 21.5881Z" fill="#0E273D"/>
</svg>
