<svg xmlns="http://www.w3.org/2000/svg" xmlns:xlink="http://www.w3.org/1999/xlink" width="52.6" height="54.16" viewBox="0 0 52.6 54.16">
  <defs>
    <linearGradient id="linear-gradient" x1="0.5" x2="0.5" y2="1" gradientUnits="objectBoundingBox">
      <stop offset="0" stop-color="#f7941d"/>
      <stop offset="1" stop-color="#ffcb05"/>
    </linearGradient>
  </defs>
  <path id="Path_2630" data-name="Path 2630" d="M42.562,40.721h8.222V69.543H40.489a2.463,2.463,0,0,1-2.46-2.46V51.665ZM27.616,52.469l.129-.017L29.78,47.54l-.162-.1a5.18,5.18,0,0,1-2.03-2.367l-.084-.195-.2.072C23.62,46.28,21.92,48.1,22.389,50.217c.339,1.529,1.7,2.337,3.95,2.337a10.014,10.014,0,0,0,1.277-.085ZM40.279,25.72,25.745,60.809l6,2.487L46.284,28.207l-6-2.487ZM52.134,69.543H59.86V40.721H52.134ZM30.067,46.113l.232.173,2.93-7.075-.287-.041a3.878,3.878,0,0,0-2.876,6.944Zm31.143,23.43H71.505a2.463,2.463,0,0,0,2.46-2.46V40.721H61.211ZM30.257,38.23l.2-.079a5.179,5.179,0,0,1,3.109-.238l.186.043,2.035-4.912-.079-.1c-.584-.761-2.131-2.531-3.869-2.531a2.609,2.609,0,0,0-1.419.427c-1.825,1.163-1.911,3.653-.249,7.2ZM60.8,29.9a7.26,7.26,0,1,1,7.26-7.26A7.269,7.269,0,0,1,60.8,29.9Zm2.449-6.127a2.745,2.745,0,0,0-2.6-2.032.918.918,0,0,1-.818-.537.668.668,0,0,1,.153-.677,1.2,1.2,0,0,1,.85-.324H60.9a1.276,1.276,0,0,1,.956.486.675.675,0,1,0,1.048-.851,2.646,2.646,0,0,0-1.266-.866l-.158-.049v-.639a.675.675,0,1,0-1.351,0v.658L59.976,19a2.411,2.411,0,0,0-.957.591,2.03,2.03,0,0,0-.461,2.058,2.251,2.251,0,0,0,1.911,1.434c.838.115,1.368.455,1.454.934a.855.855,0,0,1-.456.883,1.556,1.556,0,0,1-.735.179,1.514,1.514,0,0,1-.584-.114.812.812,0,0,1-.5-.489.675.675,0,0,0-1.3.371,2.158,2.158,0,0,0,1.275,1.362,2.789,2.789,0,0,0,.341.118l.165.046V27a.675.675,0,0,0,1.351,0v-.659l.156-.05a2.846,2.846,0,0,0,.472-.2,2.191,2.191,0,0,0,1.146-2.312Zm-9.6,12.066,1.816.955a.327.327,0,0,0,.474-.345L55.6,34.43a.327.327,0,0,1,.094-.289l1.469-1.432a.327.327,0,0,0-.181-.558l-2.031-.3a.327.327,0,0,1-.246-.179l-.908-1.84a.327.327,0,0,0-.586,0l-.908,1.84a.327.327,0,0,1-.246.179l-2.031.3a.327.327,0,0,0-.181.558l1.469,1.432a.327.327,0,0,1,.094.289l-.347,2.022a.327.327,0,0,0,.474.345l1.816-.955a.327.327,0,0,1,.3,0Zm21.1-4.524-1.763-1.05a.327.327,0,0,1-.159-.259L72.7,27.962a.327.327,0,0,0-.542-.224L70.612,29.09a.327.327,0,0,1-.3.071l-1.989-.5a.327.327,0,0,0-.381.446l.809,1.885a.327.327,0,0,1-.024.3l-1.094,1.736a.327.327,0,0,0,.306.5l2.043-.187a.327.327,0,0,1,.281.116l1.312,1.577a.327.327,0,0,0,.57-.137l.453-2a.327.327,0,0,1,.2-.231l1.905-.761a.327.327,0,0,0,.046-.585Zm-33.1-11.313,1.905.761a.327.327,0,0,1,.2.231l.453,2a.327.327,0,0,0,.57.137l1.312-1.577a.327.327,0,0,1,.281-.116l2.043.187a.327.327,0,0,0,.306-.5l-1.094-1.736a.327.327,0,0,1-.024-.3L48.41,17.2a.327.327,0,0,0-.381-.446l-1.989.5a.327.327,0,0,1-.3-.071L44.2,15.84a.327.327,0,0,0-.542.224l-.135,2.047a.327.327,0,0,1-.159.259L41.6,19.421a.327.327,0,0,0,.046.585Z" transform="translate(-22.313 -15.383)" fill="url(#linear-gradient)"/>
</svg>
