<svg id="Group_382" data-name="Group 382" xmlns="http://www.w3.org/2000/svg" xmlns:xlink="http://www.w3.org/1999/xlink" width="52.359" height="52.359" viewBox="0 0 52.359 52.359">
  <defs>
    <linearGradient id="linear-gradient" x1="0.5" x2="0.5" y2="1" gradientUnits="objectBoundingBox">
      <stop offset="0" stop-color="#f7941d"/>
      <stop offset="1" stop-color="#ffcb05"/>
    </linearGradient>
  </defs>
  <path id="Path_2635" data-name="Path 2635" d="M5.318,323.476H1.534A1.534,1.534,0,0,1,0,321.942V303.534A1.534,1.534,0,0,1,1.534,302H5.318a1.534,1.534,0,0,1,1.534,1.534v18.408A1.534,1.534,0,0,1,5.318,323.476Z" transform="translate(0 -271.116)" fill="url(#linear-gradient)"/>
  <path id="Path_2636" data-name="Path 2636" d="M137.522,315.765a3.7,3.7,0,0,0-3.766.116l-5.612,3.554a6.652,6.652,0,0,1-6.6,5.86h-7.626a1.562,1.562,0,0,1-1.576-1.46,1.534,1.534,0,0,1,1.532-1.608h7.67a3.583,3.583,0,0,0,3.578-3.666,3.623,3.623,0,0,0-3.645-3.493h-8.625l-1-.75a11.588,11.588,0,0,0-12.914-.666L97,314.813v15.595h25.783a7.67,7.67,0,0,0,4.2-1.25l10.783-7.05a3.7,3.7,0,0,0-.241-6.342Z" transform="translate(-87.08 -280.094)" fill="url(#linear-gradient)"/>
  <path id="Path_2637" data-name="Path 2637" d="M99.783,0a12.783,12.783,0,1,0,12.783,12.783A12.8,12.8,0,0,0,99.783,0Zm1.534,19.131v.3a1.534,1.534,0,1,1-3.068,0v-.3a4.1,4.1,0,0,1-2.474-2.973,1.534,1.534,0,1,1,3.007-.611,1.023,1.023,0,1,0,1-1.229,4.09,4.09,0,0,1-1.534-7.882v-.3a1.534,1.534,0,0,1,3.068,0v.3a4.1,4.1,0,0,1,2.474,2.973,1.534,1.534,0,0,1-3.007.611,1.023,1.023,0,1,0-1,1.229,4.09,4.09,0,0,1,1.534,7.882Z" transform="translate(-78.103)" fill="url(#linear-gradient)"/>
  <path id="Path_2638" data-name="Path 2638" d="M344.683,38.475a1.534,1.534,0,0,0-1.389-.883h-2.233a26.17,26.17,0,0,0-15.276-17.722,15.833,15.833,0,0,1,3.777,14.455,17.072,17.072,0,0,1,1.788,3.268H330a1.534,1.534,0,0,0-1.178,2.516l6.647,7.977a1.534,1.534,0,0,0,2.357,0l6.647-7.977A1.534,1.534,0,0,0,344.683,38.475Z" transform="translate(-292.469 -17.837)" fill="url(#linear-gradient)"/>
</svg>
