<svg xmlns="http://www.w3.org/2000/svg" xmlns:xlink="http://www.w3.org/1999/xlink" width="53.486" height="48.2" viewBox="0 0 53.486 48.2">
  <defs>
    <linearGradient id="linear-gradient" x1="0.5" x2="0.5" y2="1" gradientUnits="objectBoundingBox">
      <stop offset="0" stop-color="#f7941d"/>
      <stop offset="1" stop-color="#ffcb05"/>
    </linearGradient>
  </defs>
  <path id="Union_1" data-name="Union 1" d="M13087.891,3744.2a2.893,2.893,0,0,1,0-5.787h47.234a2.893,2.893,0,0,1,0,5.787Zm40.534-9.641a8.041,8.041,0,0,0,1.3-4.379,18.015,18.015,0,0,0-2.618-9.338c.244-.017.491-.043.742-.043a10.645,10.645,0,0,1,10.634,10.634,3.134,3.134,0,0,1-3.13,3.126Zm-29.06,0a1.869,1.869,0,0,1-1.856-1.876v-2.5a14.234,14.234,0,1,1,28.466,0v2.5a1.869,1.869,0,0,1-1.856,1.876Zm-11.237,0a3.133,3.133,0,0,1-3.129-3.126,10.645,10.645,0,0,1,10.634-10.634c.251,0,.5.026.742.043a18.015,18.015,0,0,0-2.618,9.338,8.033,8.033,0,0,0,1.3,4.379Zm32.736-22.814a6.985,6.985,0,1,1,6.987,6.984A7,7,0,0,1,13120.864,3711.744Zm-32.219,0a6.987,6.987,0,1,1,6.987,6.984A7,7,0,0,1,13088.646,3711.744Zm13.714-6.361a9.383,9.383,0,1,1,9.385,9.381A9.394,9.394,0,0,1,13102.359,3705.383Z" transform="translate(-13084.999 -3695.999)" fill="url(#linear-gradient)"/>
</svg>
