<svg xmlns="http://www.w3.org/2000/svg" xmlns:xlink="http://www.w3.org/1999/xlink" width="35.803" height="52.927" viewBox="0 0 35.803 52.927">
  <defs>
    <linearGradient id="linear-gradient" x1="0.5" x2="0.5" y2="1" gradientUnits="objectBoundingBox">
      <stop offset="0" stop-color="#f7941d"/>
      <stop offset="1" stop-color="#ffcb05"/>
    </linearGradient>
  </defs>
  <g id="Group_383" data-name="Group 383" transform="translate(-99.323)">
    <path id="Path_2639" data-name="Path 2639" d="M100.88,0h4.67a1.557,1.557,0,0,1,1.557,1.557v4.67a1.557,1.557,0,0,1-1.557,1.557h-4.67a1.557,1.557,0,0,1-1.557-1.557V1.557A1.557,1.557,0,0,1,100.88,0Zm14.01,14.788h4.67a1.557,1.557,0,0,1,1.557,1.557v4.67a1.557,1.557,0,0,1-1.557,1.557h-4.67a1.557,1.557,0,0,1-1.557-1.557v-4.67A1.557,1.557,0,0,1,114.89,14.788ZM128.9,28.8h4.67a1.557,1.557,0,0,1,1.557,1.557v4.67a1.557,1.557,0,0,1-1.557,1.557H128.9a1.557,1.557,0,0,1-1.557-1.557v-4.67A1.557,1.557,0,0,1,128.9,28.8Zm0,14.01h4.67a1.557,1.557,0,0,1,1.557,1.557v4.67a1.557,1.557,0,0,1-1.557,1.557H128.9a1.557,1.557,0,0,1-1.557-1.557v-4.67A1.557,1.557,0,0,1,128.9,42.808Zm-11.286,5.4a1.558,1.558,0,0,1-1.946-1.508V26.458a.78.78,0,0,1,.786-.773H118a.775.775,0,0,1,.786.773v4.675h4.672a.784.784,0,0,1,.776.786v1.542a.777.777,0,0,1-.776.786h-4.672v10.9h4.672a.784.784,0,0,1,.776.786v1.542a.777.777,0,0,1-.776.786H118a1.56,1.56,0,0,1-.389-.049ZM104.771,17.123h4.672a.781.781,0,0,1,.776.786v1.542a.777.777,0,0,1-.776.786h-4.672V52.149a.779.779,0,0,1-.786.778h-1.542a.778.778,0,0,1-.786-.778V11.675a.779.779,0,0,1,.786-.778h1.542a.778.778,0,0,1,.786.778Z" fill-rule="evenodd" fill="url(#linear-gradient)"/>
  </g>
</svg>
