<svg id="Group_384" data-name="Group 384" xmlns="http://www.w3.org/2000/svg" xmlns:xlink="http://www.w3.org/1999/xlink" width="35.803" height="52.927" viewBox="0 0 35.803 52.927">
  <defs>
    <linearGradient id="linear-gradient" x1="0.5" x2="0.5" y2="1" gradientUnits="objectBoundingBox">
      <stop offset="0" stop-color="#f7941d"/>
      <stop offset="1" stop-color="#ffcb05"/>
    </linearGradient>
  </defs>
  <path id="Path_2639" data-name="Path 2639" d="M133.569,0H128.9a1.557,1.557,0,0,0-1.557,1.557v4.67A1.557,1.557,0,0,0,128.9,7.783h4.67a1.557,1.557,0,0,0,1.557-1.557V1.557A1.557,1.557,0,0,0,133.569,0Zm-14.01,14.788h-4.67a1.557,1.557,0,0,0-1.557,1.557v4.67a1.557,1.557,0,0,0,1.557,1.557h4.67a1.557,1.557,0,0,0,1.557-1.557v-4.67A1.557,1.557,0,0,0,119.559,14.788ZM105.55,28.8h-4.67a1.557,1.557,0,0,0-1.557,1.557v4.67a1.557,1.557,0,0,0,1.557,1.557h4.67a1.557,1.557,0,0,0,1.557-1.557v-4.67A1.557,1.557,0,0,0,105.55,28.8Zm0,14.01h-4.67a1.557,1.557,0,0,0-1.557,1.557v4.67a1.557,1.557,0,0,0,1.557,1.557h4.67a1.557,1.557,0,0,0,1.557-1.557v-4.67A1.557,1.557,0,0,0,105.55,42.808Zm11.286,5.4a1.558,1.558,0,0,0,1.946-1.508V26.458a.78.78,0,0,0-.786-.773h-1.542a.775.775,0,0,0-.786.773v4.675H111a.784.784,0,0,0-.776.786v1.542a.777.777,0,0,0,.776.786h4.672v10.9H111a.784.784,0,0,0-.776.786v1.542a.777.777,0,0,0,.776.786h5.451a1.56,1.56,0,0,0,.389-.049Zm12.842-31.084h-4.672a.781.781,0,0,0-.776.786v1.542a.777.777,0,0,0,.776.786h4.672V52.149a.779.779,0,0,0,.786.778h1.542a.778.778,0,0,0,.786-.778V11.675a.779.779,0,0,0-.786-.778h-1.542a.778.778,0,0,0-.786.778Z" transform="translate(-99.323)" fill-rule="evenodd" fill="url(#linear-gradient)"/>
</svg>
