<svg id="arroba" xmlns="http://www.w3.org/2000/svg" xmlns:xlink="http://www.w3.org/1999/xlink" width="19.337" height="19.337" viewBox="0 0 19.337 19.337">
  <defs>
    <linearGradient id="linear-gradient" y1="1" x2="1" y2="0.5" gradientUnits="objectBoundingBox">
      <stop offset="0" stop-color="#f7941d"/>
      <stop offset="1" stop-color="#ffcb05"/>
    </linearGradient>
  </defs>
  <g id="Group_326" data-name="Group 326" transform="translate(8.007 7.931)">
    <g id="Group_325" data-name="Group 325">
      <path id="Path_2481" data-name="Path 2481" d="M213.7,210a1.7,1.7,0,1,0,1.7,1.7A1.7,1.7,0,0,0,213.7,210Z" transform="translate(-212 -210)" fill="url(#linear-gradient)"/>
    </g>
  </g>
  <g id="Group_328" data-name="Group 328">
    <g id="Group_327" data-name="Group 327">
      <path id="Path_2482" data-name="Path 2482" d="M9.631,0a9.669,9.669,0,0,0,0,19.337,9.771,9.771,0,0,0,9.706-9.706A9.707,9.707,0,0,0,9.631,0Zm4.041,12.464a2.262,2.262,0,0,1-1.851-.967,2.834,2.834,0,1,1-.415-4.118V7.365a.567.567,0,1,1,1.133,0V10.2a1.133,1.133,0,0,0,2.266,0c0-3.792-2.509-5.665-5.1-5.665a5.1,5.1,0,1,0,0,10.2,5.044,5.044,0,0,0,3.1-1.05.567.567,0,0,1,.69.9,6.171,6.171,0,0,1-3.79,1.285,6.232,6.232,0,1,1,0-12.464c3.131,0,6.232,2.309,6.232,6.8A2.268,2.268,0,0,1,13.672,12.464Z" fill="url(#linear-gradient)"/>
    </g>
  </g>
</svg>
