<svg width="64" height="64" viewBox="0 0 64 64" fill="none" xmlns="http://www.w3.org/2000/svg">
<path d="M31.9994 25.1412C30.6428 25.1412 29.3168 25.5435 28.1889 26.2971C27.0609 27.0508 26.1818 28.122 25.6627 29.3753C25.1436 30.6285 25.0078 32.0076 25.2724 33.3381C25.5371 34.6685 26.1903 35.8906 27.1495 36.8499C28.1087 37.8091 29.3308 38.4623 30.6613 38.7269C31.9918 38.9916 33.3708 38.8558 34.6241 38.3366C35.8774 37.8175 36.9486 36.9384 37.7022 35.8105C38.4559 34.6826 38.8581 33.3565 38.8581 32C38.8561 30.1816 38.1328 28.4382 36.847 27.1524C35.5612 25.8666 33.8178 25.1433 31.9994 25.1412ZM31.9994 37.3587C30.9395 37.3587 29.9035 37.0445 29.0222 36.4556C28.141 35.8668 27.4541 35.0299 27.0485 34.0507C26.6429 33.0715 26.5368 31.994 26.7436 30.9545C26.9504 29.915 27.4607 28.9602 28.2102 28.2108C28.9596 27.4613 29.9144 26.951 30.9539 26.7442C31.9934 26.5374 33.0709 26.6436 34.0501 27.0491C35.0293 27.4547 35.8662 28.1416 36.455 29.0228C37.0438 29.9041 37.3581 30.9401 37.3581 32C37.3565 33.4207 36.7914 34.7828 35.7868 35.7874C34.7822 36.7921 33.4201 37.3571 31.9994 37.3587Z" fill="#CF171C"/>
<path d="M30.418 23.2888C30.4592 23.2888 30.5004 23.2854 30.541 23.2787C31.0238 23.199 31.5122 23.1589 32.0014 23.1587C32.2003 23.1587 32.3911 23.0797 32.5317 22.939C32.6724 22.7984 32.7514 22.6076 32.7514 22.4087C32.7514 22.2098 32.6724 22.019 32.5317 21.8784C32.3911 21.7377 32.2003 21.6587 32.0014 21.6587C31.4303 21.6589 30.8602 21.7058 30.2967 21.7987C30.1108 21.8292 29.9431 21.9285 29.8271 22.0769C29.7111 22.2253 29.6552 22.4119 29.6704 22.5997C29.6857 22.7875 29.7711 22.9626 29.9096 23.0903C30.0482 23.218 30.2297 23.2888 30.418 23.2888Z" fill="#CF171C"/>
<path d="M28.395 23.926C28.5766 23.8447 28.7185 23.6947 28.7895 23.5089C28.8605 23.323 28.8547 23.1166 28.7735 22.935C28.6922 22.7534 28.5422 22.6115 28.3564 22.5406C28.1705 22.4696 27.9641 22.4754 27.7825 22.5566C25.9603 23.373 24.413 24.6987 23.3267 26.3741C22.2405 28.0495 21.6618 30.0032 21.6602 32C21.6602 32.1989 21.7392 32.3896 21.8798 32.5303C22.0205 32.6709 22.2112 32.75 22.4102 32.75C22.6091 32.75 22.7998 32.6709 22.9405 32.5303C23.0811 32.3896 23.1602 32.1989 23.1602 32C23.1616 30.2927 23.6564 28.6223 24.5852 27.1899C25.514 25.7574 26.837 24.6239 28.395 23.926Z" fill="#CF171C"/>
<mask id="path-4-outside-1_2137_21804" maskUnits="userSpaceOnUse" x="1.14844" y="1.1499" width="62" height="62" fill="black">
<rect fill="white" x="1.14844" y="1.1499" width="62" height="62"/>
<path d="M54.5062 12.3932C49.9122 7.11949 43.6122 3.62636 36.7056 2.52344C29.799 1.42052 22.7244 2.77785 16.7164 6.35856C10.7084 9.93927 6.14852 15.516 3.83251 22.1155C1.51649 28.715 1.59141 35.9182 4.0442 42.4681C6.49698 49.0181 11.1719 54.4987 17.253 57.9537C23.3342 61.4087 30.4355 62.6185 37.3177 61.3722C44.1998 60.1259 50.4258 56.5025 54.9091 51.1343C59.3925 45.7661 61.8484 38.9941 61.8484 32C61.8477 24.7924 59.2399 17.8284 54.5062 12.3932ZM31.9984 3.64999C35.9724 3.65084 39.9017 4.48699 43.5317 6.10421C47.1617 7.72142 50.4112 10.0836 53.0694 13.0375L51.7551 16.4541C49.4027 13.4641 46.4024 11.0471 42.9802 9.38509C39.558 7.72312 35.8032 6.8596 31.9988 6.8596C28.1944 6.8596 24.4396 7.72312 21.0174 9.38509C17.5952 11.0471 14.5949 13.4641 12.2426 16.4541L10.9281 13.0375C13.5861 10.0834 16.8354 7.72111 20.4653 6.10388C24.0952 4.48665 28.0246 3.6506 31.9984 3.64999ZM54.8916 26.0785L42.4207 23.566C41.164 22.0124 39.5758 20.7595 37.7725 19.8988C35.9692 19.0381 33.9962 18.5914 31.998 18.5914C29.9998 18.5914 28.0268 19.0381 26.2235 19.8988C24.4202 20.7595 22.832 22.0124 21.5753 23.566L9.10531 26.0785C9.81126 23.3333 11.0099 20.7392 12.6428 18.4224C14.8238 15.314 17.7214 12.7767 21.0904 11.0249C24.4594 9.27323 28.2007 8.3587 31.9979 8.3587C35.7951 8.3587 39.5365 9.27323 42.9055 11.0249C46.2745 12.7767 49.1721 15.314 51.3531 18.4224C52.9863 20.7392 54.1853 23.3333 54.8916 26.0785ZM60.3484 32C60.3484 37.6071 58.6857 43.0882 55.5705 47.7503C52.4554 52.4124 48.0277 56.0461 42.8475 58.1918C37.6672 60.3375 31.967 60.8989 26.4677 59.8051C20.9683 58.7112 15.9169 56.0111 11.9521 52.0464C7.02634 47.1208 4.08653 40.5542 3.69357 33.5994C3.30061 26.6446 5.48202 19.7885 9.82156 14.3395L11.1884 17.893C9.33582 20.6113 8.0406 23.67 7.37769 26.8921C7.35263 27.0135 7.35804 27.1392 7.39345 27.258C7.42886 27.3768 7.49316 27.485 7.58059 27.5728C7.66803 27.6607 7.77588 27.7255 7.8945 27.7615C8.01312 27.7974 8.1388 27.8035 8.26031 27.779L20.3581 25.3415C19.1991 27.3694 18.5895 29.6646 18.5895 32.0004C18.5895 34.3361 19.1991 36.6313 20.3581 38.6592L8.26094 36.221C8.13943 36.1965 8.01374 36.2025 7.89512 36.2385C7.7765 36.2744 7.66864 36.3392 7.58119 36.4271C7.49374 36.5149 7.42943 36.6231 7.394 36.7418C7.35858 36.8606 7.35314 36.9863 7.37819 37.1077C8.39247 41.9827 10.8302 46.4471 14.3829 49.936C17.9356 53.4249 22.4434 55.7813 27.3359 56.7071C27.4443 56.7274 27.5558 56.7236 27.6625 56.6959C27.7692 56.6683 27.8685 56.6174 27.9533 56.547C28.0381 56.4766 28.1063 56.3883 28.1532 56.2885C28.2 56.1887 28.2242 56.0798 28.2242 55.9696V44.8671C30.6882 45.5891 33.3077 45.5891 35.7717 44.8671V55.97C35.7716 56.0802 35.7959 56.1891 35.8427 56.2889C35.8895 56.3887 35.9578 56.477 36.0426 56.5474C36.1274 56.6178 36.2267 56.6686 36.3334 56.6963C36.4401 56.724 36.5516 56.7278 36.6599 56.7075C41.5526 55.7819 46.0607 53.4255 49.6136 49.9366C53.1664 46.4477 55.6043 41.9832 56.6187 37.1081C56.6437 36.9867 56.6383 36.861 56.6029 36.7423C56.5675 36.6235 56.5032 36.5153 56.4157 36.4275C56.3283 36.3397 56.2204 36.2749 56.1018 36.2389C55.9832 36.2029 55.8576 36.1969 55.7361 36.2214L43.6383 38.6589C44.8038 36.6337 45.414 34.3366 45.4072 32C45.4073 31.2472 45.3445 30.4956 45.2197 29.7532C45.2037 29.6557 45.1686 29.5623 45.1165 29.4784C45.0643 29.3945 44.996 29.3217 44.9156 29.2643C44.8352 29.2068 44.7443 29.1658 44.648 29.1436C44.5517 29.1214 44.452 29.1185 44.3545 29.1349C44.2571 29.1514 44.1639 29.187 44.0803 29.2396C43.9966 29.2922 43.9242 29.3608 43.8671 29.4415C43.8101 29.5222 43.7696 29.6133 43.7479 29.7097C43.7262 29.8062 43.7237 29.9059 43.7407 30.0032C43.8515 30.663 43.9072 31.3309 43.9072 32C43.9164 34.6417 43.0381 37.21 41.4132 39.2929C40.3008 40.7305 38.874 41.8943 37.2422 42.695C35.6103 43.4957 33.8168 43.9121 31.9991 43.9121C30.1814 43.9122 28.3878 43.496 26.7559 42.6955C25.124 41.8949 23.697 40.7313 22.5846 39.2937C21.6239 38.0567 20.9167 36.6424 20.5035 35.1316C20.0902 33.6209 19.9791 32.0435 20.1763 30.4898C20.3736 28.936 20.8754 27.4364 21.653 26.0769C22.4306 24.7174 23.4688 23.5246 24.7081 22.5668C25.9474 21.6091 27.3634 20.9053 28.8751 20.4956C30.3868 20.0859 31.9644 19.9784 33.5177 20.1793C35.071 20.3802 36.5694 20.8856 37.9271 21.6664C39.2848 22.4472 40.4751 23.4882 41.4299 24.7297C41.8883 25.3231 42.2897 25.9583 42.6289 26.627C42.7216 26.7996 42.8781 26.929 43.0649 26.9877C43.2518 27.0464 43.4542 27.0297 43.6289 26.9412C43.8036 26.8526 43.9367 26.6992 43.9998 26.5138C44.0628 26.3283 44.0509 26.1256 43.9664 25.9489C43.8624 25.7435 43.7517 25.5411 43.6368 25.341L55.7361 27.7785C55.8576 27.803 55.9833 27.797 56.1019 27.761C56.2206 27.7251 56.3284 27.6602 56.4159 27.5724C56.5033 27.4845 56.5676 27.3763 56.6031 27.2575C56.6385 27.1387 56.6439 27.013 56.6188 26.8916C55.9559 23.6695 54.6607 20.6108 52.8081 17.8925L54.1753 14.3389C58.1732 19.3572 60.3496 25.5838 60.3484 32ZM21.5779 40.4352C22.9508 42.1332 24.7176 43.4701 26.7247 44.3299V55.0486C22.5019 54.0791 18.6261 51.9695 15.5194 48.9496C12.4126 45.9296 10.1941 42.1151 9.10544 37.9215L21.5779 40.4352ZM37.2722 55.0486V44.3306C39.2797 43.4701 41.0469 42.1325 42.4202 40.4341L54.8914 37.9216C53.8027 42.1152 51.5842 45.9297 48.4775 48.9496C45.3708 51.9696 41.495 54.0791 37.2722 55.0486Z"/>
</mask>
<path d="M54.5062 12.3932C49.9122 7.11949 43.6122 3.62636 36.7056 2.52344C29.799 1.42052 22.7244 2.77785 16.7164 6.35856C10.7084 9.93927 6.14852 15.516 3.83251 22.1155C1.51649 28.715 1.59141 35.9182 4.0442 42.4681C6.49698 49.0181 11.1719 54.4987 17.253 57.9537C23.3342 61.4087 30.4355 62.6185 37.3177 61.3722C44.1998 60.1259 50.4258 56.5025 54.9091 51.1343C59.3925 45.7661 61.8484 38.9941 61.8484 32C61.8477 24.7924 59.2399 17.8284 54.5062 12.3932ZM31.9984 3.64999C35.9724 3.65084 39.9017 4.48699 43.5317 6.10421C47.1617 7.72142 50.4112 10.0836 53.0694 13.0375L51.7551 16.4541C49.4027 13.4641 46.4024 11.0471 42.9802 9.38509C39.558 7.72312 35.8032 6.8596 31.9988 6.8596C28.1944 6.8596 24.4396 7.72312 21.0174 9.38509C17.5952 11.0471 14.5949 13.4641 12.2426 16.4541L10.9281 13.0375C13.5861 10.0834 16.8354 7.72111 20.4653 6.10388C24.0952 4.48665 28.0246 3.6506 31.9984 3.64999ZM54.8916 26.0785L42.4207 23.566C41.164 22.0124 39.5758 20.7595 37.7725 19.8988C35.9692 19.0381 33.9962 18.5914 31.998 18.5914C29.9998 18.5914 28.0268 19.0381 26.2235 19.8988C24.4202 20.7595 22.832 22.0124 21.5753 23.566L9.10531 26.0785C9.81126 23.3333 11.0099 20.7392 12.6428 18.4224C14.8238 15.314 17.7214 12.7767 21.0904 11.0249C24.4594 9.27323 28.2007 8.3587 31.9979 8.3587C35.7951 8.3587 39.5365 9.27323 42.9055 11.0249C46.2745 12.7767 49.1721 15.314 51.3531 18.4224C52.9863 20.7392 54.1853 23.3333 54.8916 26.0785ZM60.3484 32C60.3484 37.6071 58.6857 43.0882 55.5705 47.7503C52.4554 52.4124 48.0277 56.0461 42.8475 58.1918C37.6672 60.3375 31.967 60.8989 26.4677 59.8051C20.9683 58.7112 15.9169 56.0111 11.9521 52.0464C7.02634 47.1208 4.08653 40.5542 3.69357 33.5994C3.30061 26.6446 5.48202 19.7885 9.82156 14.3395L11.1884 17.893C9.33582 20.6113 8.0406 23.67 7.37769 26.8921C7.35263 27.0135 7.35804 27.1392 7.39345 27.258C7.42886 27.3768 7.49316 27.485 7.58059 27.5728C7.66803 27.6607 7.77588 27.7255 7.8945 27.7615C8.01312 27.7974 8.1388 27.8035 8.26031 27.779L20.3581 25.3415C19.1991 27.3694 18.5895 29.6646 18.5895 32.0004C18.5895 34.3361 19.1991 36.6313 20.3581 38.6592L8.26094 36.221C8.13943 36.1965 8.01374 36.2025 7.89512 36.2385C7.7765 36.2744 7.66864 36.3392 7.58119 36.4271C7.49374 36.5149 7.42943 36.6231 7.394 36.7418C7.35858 36.8606 7.35314 36.9863 7.37819 37.1077C8.39247 41.9827 10.8302 46.4471 14.3829 49.936C17.9356 53.4249 22.4434 55.7813 27.3359 56.7071C27.4443 56.7274 27.5558 56.7236 27.6625 56.6959C27.7692 56.6683 27.8685 56.6174 27.9533 56.547C28.0381 56.4766 28.1063 56.3883 28.1532 56.2885C28.2 56.1887 28.2242 56.0798 28.2242 55.9696V44.8671C30.6882 45.5891 33.3077 45.5891 35.7717 44.8671V55.97C35.7716 56.0802 35.7959 56.1891 35.8427 56.2889C35.8895 56.3887 35.9578 56.477 36.0426 56.5474C36.1274 56.6178 36.2267 56.6686 36.3334 56.6963C36.4401 56.724 36.5516 56.7278 36.6599 56.7075C41.5526 55.7819 46.0607 53.4255 49.6136 49.9366C53.1664 46.4477 55.6043 41.9832 56.6187 37.1081C56.6437 36.9867 56.6383 36.861 56.6029 36.7423C56.5675 36.6235 56.5032 36.5153 56.4157 36.4275C56.3283 36.3397 56.2204 36.2749 56.1018 36.2389C55.9832 36.2029 55.8576 36.1969 55.7361 36.2214L43.6383 38.6589C44.8038 36.6337 45.414 34.3366 45.4072 32C45.4073 31.2472 45.3445 30.4956 45.2197 29.7532C45.2037 29.6557 45.1686 29.5623 45.1165 29.4784C45.0643 29.3945 44.996 29.3217 44.9156 29.2643C44.8352 29.2068 44.7443 29.1658 44.648 29.1436C44.5517 29.1214 44.452 29.1185 44.3545 29.1349C44.2571 29.1514 44.1639 29.187 44.0803 29.2396C43.9966 29.2922 43.9242 29.3608 43.8671 29.4415C43.8101 29.5222 43.7696 29.6133 43.7479 29.7097C43.7262 29.8062 43.7237 29.9059 43.7407 30.0032C43.8515 30.663 43.9072 31.3309 43.9072 32C43.9164 34.6417 43.0381 37.21 41.4132 39.2929C40.3008 40.7305 38.874 41.8943 37.2422 42.695C35.6103 43.4957 33.8168 43.9121 31.9991 43.9121C30.1814 43.9122 28.3878 43.496 26.7559 42.6955C25.124 41.8949 23.697 40.7313 22.5846 39.2937C21.6239 38.0567 20.9167 36.6424 20.5035 35.1316C20.0902 33.6209 19.9791 32.0435 20.1763 30.4898C20.3736 28.936 20.8754 27.4364 21.653 26.0769C22.4306 24.7174 23.4688 23.5246 24.7081 22.5668C25.9474 21.6091 27.3634 20.9053 28.8751 20.4956C30.3868 20.0859 31.9644 19.9784 33.5177 20.1793C35.071 20.3802 36.5694 20.8856 37.9271 21.6664C39.2848 22.4472 40.4751 23.4882 41.4299 24.7297C41.8883 25.3231 42.2897 25.9583 42.6289 26.627C42.7216 26.7996 42.8781 26.929 43.0649 26.9877C43.2518 27.0464 43.4542 27.0297 43.6289 26.9412C43.8036 26.8526 43.9367 26.6992 43.9998 26.5138C44.0628 26.3283 44.0509 26.1256 43.9664 25.9489C43.8624 25.7435 43.7517 25.5411 43.6368 25.341L55.7361 27.7785C55.8576 27.803 55.9833 27.797 56.1019 27.761C56.2206 27.7251 56.3284 27.6602 56.4159 27.5724C56.5033 27.4845 56.5676 27.3763 56.6031 27.2575C56.6385 27.1387 56.6439 27.013 56.6188 26.8916C55.9559 23.6695 54.6607 20.6108 52.8081 17.8925L54.1753 14.3389C58.1732 19.3572 60.3496 25.5838 60.3484 32ZM21.5779 40.4352C22.9508 42.1332 24.7176 43.4701 26.7247 44.3299V55.0486C22.5019 54.0791 18.6261 51.9695 15.5194 48.9496C12.4126 45.9296 10.1941 42.1151 9.10544 37.9215L21.5779 40.4352ZM37.2722 55.0486V44.3306C39.2797 43.4701 41.0469 42.1325 42.4202 40.4341L54.8914 37.9216C53.8027 42.1152 51.5842 45.9297 48.4775 48.9496C45.3708 51.9696 41.495 54.0791 37.2722 55.0486Z" fill="#CF171C"/>
<path d="M54.5062 12.3932C49.9122 7.11949 43.6122 3.62636 36.7056 2.52344C29.799 1.42052 22.7244 2.77785 16.7164 6.35856C10.7084 9.93927 6.14852 15.516 3.83251 22.1155C1.51649 28.715 1.59141 35.9182 4.0442 42.4681C6.49698 49.0181 11.1719 54.4987 17.253 57.9537C23.3342 61.4087 30.4355 62.6185 37.3177 61.3722C44.1998 60.1259 50.4258 56.5025 54.9091 51.1343C59.3925 45.7661 61.8484 38.9941 61.8484 32C61.8477 24.7924 59.2399 17.8284 54.5062 12.3932ZM31.9984 3.64999C35.9724 3.65084 39.9017 4.48699 43.5317 6.10421C47.1617 7.72142 50.4112 10.0836 53.0694 13.0375L51.7551 16.4541C49.4027 13.4641 46.4024 11.0471 42.9802 9.38509C39.558 7.72312 35.8032 6.8596 31.9988 6.8596C28.1944 6.8596 24.4396 7.72312 21.0174 9.38509C17.5952 11.0471 14.5949 13.4641 12.2426 16.4541L10.9281 13.0375C13.5861 10.0834 16.8354 7.72111 20.4653 6.10388C24.0952 4.48665 28.0246 3.6506 31.9984 3.64999ZM54.8916 26.0785L42.4207 23.566C41.164 22.0124 39.5758 20.7595 37.7725 19.8988C35.9692 19.0381 33.9962 18.5914 31.998 18.5914C29.9998 18.5914 28.0268 19.0381 26.2235 19.8988C24.4202 20.7595 22.832 22.0124 21.5753 23.566L9.10531 26.0785C9.81126 23.3333 11.0099 20.7392 12.6428 18.4224C14.8238 15.314 17.7214 12.7767 21.0904 11.0249C24.4594 9.27323 28.2007 8.3587 31.9979 8.3587C35.7951 8.3587 39.5365 9.27323 42.9055 11.0249C46.2745 12.7767 49.1721 15.314 51.3531 18.4224C52.9863 20.7392 54.1853 23.3333 54.8916 26.0785ZM60.3484 32C60.3484 37.6071 58.6857 43.0882 55.5705 47.7503C52.4554 52.4124 48.0277 56.0461 42.8475 58.1918C37.6672 60.3375 31.967 60.8989 26.4677 59.8051C20.9683 58.7112 15.9169 56.0111 11.9521 52.0464C7.02634 47.1208 4.08653 40.5542 3.69357 33.5994C3.30061 26.6446 5.48202 19.7885 9.82156 14.3395L11.1884 17.893C9.33582 20.6113 8.0406 23.67 7.37769 26.8921C7.35263 27.0135 7.35804 27.1392 7.39345 27.258C7.42886 27.3768 7.49316 27.485 7.58059 27.5728C7.66803 27.6607 7.77588 27.7255 7.8945 27.7615C8.01312 27.7974 8.1388 27.8035 8.26031 27.779L20.3581 25.3415C19.1991 27.3694 18.5895 29.6646 18.5895 32.0004C18.5895 34.3361 19.1991 36.6313 20.3581 38.6592L8.26094 36.221C8.13943 36.1965 8.01374 36.2025 7.89512 36.2385C7.7765 36.2744 7.66864 36.3392 7.58119 36.4271C7.49374 36.5149 7.42943 36.6231 7.394 36.7418C7.35858 36.8606 7.35314 36.9863 7.37819 37.1077C8.39247 41.9827 10.8302 46.4471 14.3829 49.936C17.9356 53.4249 22.4434 55.7813 27.3359 56.7071C27.4443 56.7274 27.5558 56.7236 27.6625 56.6959C27.7692 56.6683 27.8685 56.6174 27.9533 56.547C28.0381 56.4766 28.1063 56.3883 28.1532 56.2885C28.2 56.1887 28.2242 56.0798 28.2242 55.9696V44.8671C30.6882 45.5891 33.3077 45.5891 35.7717 44.8671V55.97C35.7716 56.0802 35.7959 56.1891 35.8427 56.2889C35.8895 56.3887 35.9578 56.477 36.0426 56.5474C36.1274 56.6178 36.2267 56.6686 36.3334 56.6963C36.4401 56.724 36.5516 56.7278 36.6599 56.7075C41.5526 55.7819 46.0607 53.4255 49.6136 49.9366C53.1664 46.4477 55.6043 41.9832 56.6187 37.1081C56.6437 36.9867 56.6383 36.861 56.6029 36.7423C56.5675 36.6235 56.5032 36.5153 56.4157 36.4275C56.3283 36.3397 56.2204 36.2749 56.1018 36.2389C55.9832 36.2029 55.8576 36.1969 55.7361 36.2214L43.6383 38.6589C44.8038 36.6337 45.414 34.3366 45.4072 32C45.4073 31.2472 45.3445 30.4956 45.2197 29.7532C45.2037 29.6557 45.1686 29.5623 45.1165 29.4784C45.0643 29.3945 44.996 29.3217 44.9156 29.2643C44.8352 29.2068 44.7443 29.1658 44.648 29.1436C44.5517 29.1214 44.452 29.1185 44.3545 29.1349C44.2571 29.1514 44.1639 29.187 44.0803 29.2396C43.9966 29.2922 43.9242 29.3608 43.8671 29.4415C43.8101 29.5222 43.7696 29.6133 43.7479 29.7097C43.7262 29.8062 43.7237 29.9059 43.7407 30.0032C43.8515 30.663 43.9072 31.3309 43.9072 32C43.9164 34.6417 43.0381 37.21 41.4132 39.2929C40.3008 40.7305 38.874 41.8943 37.2422 42.695C35.6103 43.4957 33.8168 43.9121 31.9991 43.9121C30.1814 43.9122 28.3878 43.496 26.7559 42.6955C25.124 41.8949 23.697 40.7313 22.5846 39.2937C21.6239 38.0567 20.9167 36.6424 20.5035 35.1316C20.0902 33.6209 19.9791 32.0435 20.1763 30.4898C20.3736 28.936 20.8754 27.4364 21.653 26.0769C22.4306 24.7174 23.4688 23.5246 24.7081 22.5668C25.9474 21.6091 27.3634 20.9053 28.8751 20.4956C30.3868 20.0859 31.9644 19.9784 33.5177 20.1793C35.071 20.3802 36.5694 20.8856 37.9271 21.6664C39.2848 22.4472 40.4751 23.4882 41.4299 24.7297C41.8883 25.3231 42.2897 25.9583 42.6289 26.627C42.7216 26.7996 42.8781 26.929 43.0649 26.9877C43.2518 27.0464 43.4542 27.0297 43.6289 26.9412C43.8036 26.8526 43.9367 26.6992 43.9998 26.5138C44.0628 26.3283 44.0509 26.1256 43.9664 25.9489C43.8624 25.7435 43.7517 25.5411 43.6368 25.341L55.7361 27.7785C55.8576 27.803 55.9833 27.797 56.1019 27.761C56.2206 27.7251 56.3284 27.6602 56.4159 27.5724C56.5033 27.4845 56.5676 27.3763 56.6031 27.2575C56.6385 27.1387 56.6439 27.013 56.6188 26.8916C55.9559 23.6695 54.6607 20.6108 52.8081 17.8925L54.1753 14.3389C58.1732 19.3572 60.3496 25.5838 60.3484 32ZM21.5779 40.4352C22.9508 42.1332 24.7176 43.4701 26.7247 44.3299V55.0486C22.5019 54.0791 18.6261 51.9695 15.5194 48.9496C12.4126 45.9296 10.1941 42.1151 9.10544 37.9215L21.5779 40.4352ZM37.2722 55.0486V44.3306C39.2797 43.4701 41.0469 42.1325 42.4202 40.4341L54.8914 37.9216C53.8027 42.1152 51.5842 45.9297 48.4775 48.9496C45.3708 51.9696 41.495 54.0791 37.2722 55.0486Z" stroke="#CF171C" mask="url(#path-4-outside-1_2137_21804)"/>
</svg>
