<svg width="64" height="59" viewBox="0 0 64 59" fill="none" xmlns="http://www.w3.org/2000/svg">
<mask id="mask0_2137_21884" style="mask-type:luminance" maskUnits="userSpaceOnUse" x="0" y="0" width="64" height="59">
<path d="M0 58.9948H64V0H0V58.9948Z" fill="white"/>
</mask>
<g mask="url(#mask0_2137_21884)">
<path d="M39.0199 15.4193C39.3362 15.7356 39.6525 15.8937 39.9688 15.8937C40.2851 15.8937 40.6013 15.7356 40.9176 15.4193C41.392 14.9448 41.392 14.2333 40.9176 13.7588C40.4431 13.0472 39.4943 13.0472 39.0199 13.7588C38.5455 14.2333 38.5455 14.9448 39.0199 15.4193Z" fill="#CF171C"/>
<path fill-rule="evenodd" clip-rule="evenodd" d="M63.6901 31.5493C63.9274 32.0237 64.1645 32.4982 63.9273 32.9726C63.6901 33.447 63.2157 33.6842 62.7412 33.6842H53.7272C52.5411 38.6656 50.169 42.9355 46.6108 46.4936C45.0294 48.0751 43.2898 49.4193 41.3921 50.5263L45.1875 57.1682C45.4247 57.4054 45.4247 57.8798 45.1875 58.3543C44.9503 58.8287 44.7131 59.0659 44.2387 59.0659H37.8339C37.3595 59.0659 36.8851 58.8287 36.6479 58.3543L34.0386 53.61C31.8246 54.2426 29.5315 54.5588 27.1594 54.5588C24.9454 54.5588 22.7314 54.2426 20.5175 53.61L17.908 58.3543C17.6708 58.8287 17.1964 59.0659 16.722 59.0659H10.3174C9.84294 59.0659 9.36851 58.8287 9.1313 58.3543C9.1313 57.8798 8.89409 57.4054 9.1313 57.1682L12.9266 50.5263C11.1871 49.4193 9.52666 48.0751 7.94524 46.4936C2.72657 41.275 0.117188 34.633 0.117188 27.2794C0.117188 19.9258 2.72657 13.0467 7.94524 8.06528C13.1639 2.84661 20.043 0 27.1594 0C34.513 0 41.3922 2.84661 46.6108 8.06528C50.169 11.6235 52.5411 15.8933 53.7272 20.8747H62.7412C63.2157 20.8747 63.6901 21.1119 63.9273 21.5863C64.1645 22.0608 63.9274 22.5352 63.6901 23.0096L59.1831 27.2794L63.6901 31.5493ZM59.8947 23.2469H51.1178L48.5085 25.8562H57.0481L59.8947 23.2469ZM18.3825 52.8984C17.2755 52.5821 16.3266 52.1868 15.5359 51.7123L12.6895 56.4566H16.2477L18.3825 52.8984ZM39.7316 51.7123C38.7828 52.1868 37.8339 52.5821 36.885 52.8984L38.7828 56.4566H42.341L39.7316 51.7123ZM51.5922 33.9214H50.8806C50.5643 33.9214 50.3272 33.7632 50.169 33.447L46.848 30.126C46.1363 34.3958 44.2387 37.954 41.3921 41.0378C37.5967 44.596 32.8525 46.7309 27.6338 46.7309C22.6524 46.7309 17.6709 44.596 14.1127 41.0378C10.5545 37.2424 8.41955 32.4981 8.41955 27.2794C8.41955 22.298 10.5545 17.3165 14.1127 13.7584C17.1965 10.6746 20.9919 8.77686 25.2617 8.30243C29.2943 7.82801 33.3269 8.5397 37.1223 10.4374C37.5968 10.9118 37.834 11.6234 37.5968 12.3351C37.1224 12.8095 36.4106 13.0467 35.699 12.8095C29.2942 9.25134 21.2291 10.2001 15.7732 15.656C12.6895 18.7398 11.029 23.0096 11.029 27.2794C11.029 31.7865 12.6895 36.0563 15.7732 39.14C19.0942 42.461 23.364 44.1215 27.6338 44.1215C32.1409 44.1215 36.4107 42.461 39.4945 39.14C42.341 36.2935 44.0014 32.4981 44.4759 28.7027H38.7828C38.5456 31.0748 37.5967 33.447 35.699 35.3447C33.5641 37.4796 30.7176 38.6657 27.6338 38.6657C24.7873 38.6657 21.9408 37.4796 19.8059 35.3447C17.6709 33.2098 16.4848 30.3632 16.4848 27.2794C16.4848 24.4329 17.6709 21.5864 19.8059 19.4514C21.9408 17.3165 24.7873 16.1305 27.6338 16.1305C30.7176 16.1305 33.5641 17.3165 35.699 19.4514C37.5967 21.3491 38.5456 23.7212 38.7828 26.0934H44.4759C44.2386 23.7212 43.5271 21.3491 42.341 19.2142C42.1038 18.7398 42.3409 18.0282 42.8153 17.5538C43.527 17.3166 44.2386 17.5537 44.4759 18.0282C45.5828 20.084 46.3736 22.298 46.848 24.6701L50.169 21.3491C50.3272 21.0328 50.5643 20.8747 50.8806 20.8747H51.5922C50.4062 16.8421 48.2712 13.0467 45.1875 9.96295C40.4432 5.2187 34.2758 2.60935 27.6338 2.60935C21.2291 2.60935 14.8244 5.2187 10.3174 9.96295C5.57312 14.47 2.96369 20.8747 2.96369 27.2794C2.96369 33.9214 5.57312 40.0889 10.3174 44.8332C11.8988 46.5728 13.7174 47.996 15.7732 49.103C17.3546 49.8937 18.9361 50.5262 20.5175 51.0007C20.6756 51.0007 20.7546 51.0797 20.7546 51.2379C22.9686 51.8705 25.2617 52.1867 27.6338 52.1867C30.006 52.1867 32.3781 51.8705 34.7502 51.2379C34.7502 51.0797 34.7502 51.0007 34.7502 51.0007C36.4898 50.5262 38.1502 49.8937 39.7316 49.103C41.7874 47.996 43.606 46.5728 45.1875 44.8332C48.2712 41.7494 50.4062 37.954 51.5922 33.9214ZM31.9036 26.0934H36.4107C36.1735 24.1957 35.2246 22.5352 33.8013 21.112C32.1408 19.4515 30.006 18.7398 27.6338 18.7398C25.4989 18.7398 23.1267 19.4515 21.4662 21.112C19.8057 22.7724 18.857 25.1445 18.857 27.2794C18.857 29.6515 19.8057 32.0237 21.4662 33.6842C23.1267 35.1075 25.4989 36.0563 27.6338 36.0563C30.006 36.0563 32.1408 35.1075 33.8013 33.6842C35.2246 32.2609 36.1735 30.6004 36.4107 28.7027H31.9036C32.0618 29.019 32.0618 29.3353 31.9036 29.6515C31.6664 30.126 31.192 30.3632 30.7176 30.3632C30.5594 30.3632 30.3222 30.2841 30.006 30.126L27.1594 28.4655C26.685 28.2283 26.4478 27.7538 26.4478 27.2794C26.4478 27.0422 26.685 26.5678 27.1594 26.3306L30.006 24.6701C30.7176 24.1957 31.4292 24.4329 31.9036 25.1445C32.0618 25.4608 32.0618 25.7771 31.9036 26.0934ZM60.132 31.3121L57.5225 28.7027H48.7457L51.5922 31.3121H60.132Z" fill="#CF171C"/>
</g>
</svg>
