<svg width="70" height="70" viewBox="0 0 70 70" fill="none" xmlns="http://www.w3.org/2000/svg">
<path d="M12.0688 27.3219C11.105 27.3268 10.1826 27.7143 9.50454 28.3993C8.82648 29.0842 8.44829 30.0105 8.45317 30.9743C8.45805 31.938 8.84559 32.8604 9.53054 33.5385C10.2155 34.2165 11.1418 34.5947 12.1055 34.5898H12.1329C14.1386 34.5898 15.723 32.9355 15.723 30.9307C15.7215 30.4534 15.6257 29.981 15.441 29.5409C15.2562 29.1007 14.9863 28.7015 14.6467 28.3661C14.307 28.0306 13.9044 27.7657 13.462 27.5865C13.0196 27.4073 12.5461 27.3174 12.0688 27.3219ZM12.1189 32.6897C11.8922 32.6937 11.6668 32.6527 11.456 32.5691C11.2452 32.4855 11.053 32.3609 10.8906 32.2025C10.7282 32.0441 10.5989 31.8552 10.51 31.6465C10.4211 31.4378 10.3745 31.2136 10.3728 30.9868C10.3711 30.7599 10.4144 30.535 10.5002 30.3251C10.586 30.1151 10.7125 29.9242 10.8725 29.7635C11.0326 29.6027 11.2229 29.4753 11.4324 29.3885C11.642 29.3018 11.8667 29.2575 12.0935 29.2581H12.1064C12.3334 29.2545 12.5589 29.296 12.7698 29.3803C12.9807 29.4645 13.1728 29.5897 13.3349 29.7488C13.497 29.9078 13.626 30.0974 13.7143 30.3066C13.8026 30.5158 13.8485 30.7405 13.8493 30.9675C13.8502 31.1946 13.8059 31.4196 13.7191 31.6295C13.6324 31.8393 13.5048 32.0299 13.3439 32.1901C13.1829 32.3503 12.9918 32.4769 12.7815 32.5627C12.5712 32.6485 12.346 32.6916 12.1189 32.6897Z" fill="#CF171C"/>
<path d="M26.2311 27.6172H26.2235C26.0976 27.6181 25.9731 27.6439 25.8571 27.693C25.7412 27.7421 25.6361 27.8136 25.5478 27.9035C25.4595 27.9933 25.3899 28.0997 25.3428 28.2165C25.2957 28.3333 25.2722 28.4583 25.2735 28.5842L25.2917 31.0483C25.2939 31.3002 25.3959 31.5409 25.5753 31.7177C25.7547 31.8945 25.9968 31.993 26.2487 31.9916H26.256C26.3814 31.9919 26.5056 31.9673 26.6214 31.9192C26.7373 31.8711 26.8424 31.8005 26.9308 31.7115C27.0191 31.6225 27.089 31.5168 27.1362 31.4006C27.1834 31.2844 27.2071 31.16 27.2059 31.0346L27.1877 28.5652C27.1855 28.3129 27.0838 28.0718 26.9046 27.8942C26.7254 27.7166 26.4833 27.6171 26.2311 27.6172Z" fill="#CF171C"/>
<path d="M21.6565 27.6172H21.6492C21.3931 27.6229 21.1496 27.7296 20.9717 27.9139C20.7938 28.0983 20.6959 28.3454 20.6993 28.6016L20.7175 31.0573C20.7187 31.1816 20.7445 31.3045 20.7933 31.4188C20.8421 31.5331 20.913 31.6367 21.0019 31.7236C21.0908 31.8105 21.196 31.879 21.3114 31.9251C21.4268 31.9713 21.5502 31.9942 21.6745 31.9926H21.6818C21.8062 31.9947 21.9299 31.972 22.0454 31.9256C22.1609 31.8793 22.266 31.8103 22.3545 31.7228C22.443 31.6353 22.5131 31.5309 22.5607 31.4159C22.6083 31.3009 22.6325 31.1775 22.6317 31.0531L22.6134 28.5742C22.6116 28.321 22.5102 28.0786 22.3312 27.8995C22.1521 27.7204 21.9097 27.619 21.6565 27.6172Z" fill="#CF171C"/>
<path d="M67.9044 39.331L64.1868 38.9726C63.7789 37.4102 63.1493 35.9142 62.3172 34.5302L64.6824 31.675C64.8338 31.4923 64.9119 31.2598 64.9015 31.0228C64.8911 30.7857 64.7931 30.561 64.6264 30.3922L62.6872 28.4281L62.9817 26.0672C62.9868 26.0256 62.9892 25.9836 62.9889 25.9417C62.988 24.4131 62.4333 22.9366 61.4276 21.7854C61.1773 21.5022 60.8994 21.2447 60.5978 21.0168L63.8583 20.9917C63.9878 20.9907 64.1158 20.9634 64.2345 20.9114C64.3532 20.8595 64.4601 20.7841 64.5487 20.6896C64.6374 20.5952 64.7059 20.4837 64.7502 20.362C64.7945 20.2402 64.8137 20.1108 64.8065 19.9814C64.7435 19.1905 64.5828 18.4104 64.3279 17.659C63.7644 16.0088 62.0203 14.957 59.8824 14.9681C58.6071 14.9775 56.298 14.9863 55.234 14.99L53.1167 11.1836C51.6346 8.57227 49.4808 5.60547 45.9404 5.60547H45.8939L20.1459 5.76953C17.2384 5.791 14.6737 7.80801 12.9216 11.4734L10.771 15.3444C9.70934 15.35 7.37337 15.3595 6.08151 15.3691C3.9446 15.3848 2.21524 16.465 1.67589 18.1236C1.43191 18.8783 1.28257 19.6605 1.23128 20.452C1.22595 20.5829 1.24698 20.7135 1.29313 20.836C1.33929 20.9586 1.40961 21.0706 1.49993 21.1654C1.58877 21.2587 1.69537 21.3332 1.81345 21.3846C1.93153 21.4361 2.05871 21.4633 2.18749 21.4648H2.19583L5.39505 21.4281C4.00544 22.5248 3.12114 24.3199 3.13632 26.3874C3.13668 26.4268 3.13951 26.4662 3.14479 26.5053L4.7444 38.4326C4.7667 39.2542 5.07352 40.0426 5.61247 40.6631C6.15142 41.2836 6.88906 41.6978 7.69944 41.835L7.72761 45.643C7.73022 45.9357 7.79047 46.2251 7.90494 46.4945C8.0194 46.7639 8.18582 47.0082 8.3947 47.2133C8.60358 47.4184 8.85082 47.5803 9.1223 47.6898C9.39378 47.7993 9.68418 47.8543 9.9769 47.8516H9.99413L13.9212 47.835C14.2163 47.8342 14.5084 47.775 14.7806 47.661C15.0527 47.547 15.2997 47.3803 15.5073 47.1705C15.7148 46.9607 15.8789 46.712 15.99 46.4386C16.1012 46.1653 16.1572 45.8726 16.155 45.5775L16.1055 41.8223L26.3867 41.7453V46.2171C26.3915 46.4571 26.4845 46.687 26.648 46.8627C26.8116 47.0385 27.0341 47.1478 27.2732 47.1697L31.0014 47.5281C31.4113 49.0907 32.0427 50.5866 32.8763 51.9704L30.5145 54.8257C30.3627 55.0094 30.2849 55.2431 30.2963 55.4812C30.3077 55.7192 30.4075 55.9444 30.5762 56.1128L34.7625 60.2984C34.931 60.4671 35.1564 60.5667 35.3946 60.5779C35.6327 60.5891 35.8664 60.511 36.05 60.3589L38.9115 57.9893C40.2955 58.8181 41.7888 59.449 43.3479 59.8635L43.7062 63.5549C43.7301 63.7891 43.8415 64.0057 44.0181 64.1614C44.1947 64.317 44.4236 64.4003 44.6589 64.3945H50.5925C50.8277 64.4003 51.0565 64.3171 51.2331 64.1616C51.4096 64.0061 51.5211 63.7897 51.5451 63.5556L51.9035 59.8514C53.4656 59.4456 54.9615 58.8182 56.3458 57.9883L59.2011 60.3561C59.3845 60.5083 59.618 60.5866 59.856 60.5758C60.0941 60.5649 60.3195 60.4656 60.4882 60.2973L64.6738 56.1125C64.8422 55.944 64.9417 55.7188 64.9529 55.4809C64.9641 55.2429 64.8861 55.0094 64.7343 54.8259L62.3647 51.9646C63.1936 50.5804 63.8246 49.0869 64.2391 47.5277L67.9049 47.17C68.1415 47.1469 68.361 47.0366 68.5207 46.8606C68.6805 46.6845 68.7689 46.4553 68.769 46.2176V40.284C68.7691 40.0461 68.6806 39.8167 68.5208 39.6405C68.3609 39.4643 68.1412 39.354 67.9044 39.331ZM59.8951 16.8829C61.1716 16.8692 62.227 17.4342 62.5155 18.2785C62.6054 18.5435 62.6804 18.8134 62.7402 19.0868L57.5165 19.1278L56.2874 16.9014C57.4411 16.8964 58.9505 16.8898 59.8951 16.8829ZM14.6095 12.3625C14.6192 12.3452 14.6282 12.3275 14.6368 12.3096C15.4593 10.5811 17.2706 7.70437 20.1603 7.68305L45.9081 7.51953H45.9405C47.9594 7.51953 49.6098 8.88207 51.4466 12.1189L55.7929 19.9786L51.2181 20.0059C51.0182 18.4778 50.2667 17.0755 49.105 16.0629C47.9432 15.0503 46.4514 14.4972 44.9103 14.5079C43.3692 14.5185 41.8852 15.0921 40.7375 16.1207C39.5899 17.1493 38.8578 18.5619 38.6791 20.0926L10.2065 20.3018L14.6095 12.3625ZM49.2835 20.0134L40.6138 20.0704C40.7872 19.051 41.3138 18.1252 42.1015 17.4552C42.8891 16.7852 43.8875 16.4138 44.9215 16.4062H44.9549C45.9837 16.409 46.9792 16.7709 47.7695 17.4295C48.5598 18.0881 49.0953 19.002 49.2835 20.0134ZM3.2837 19.5234C3.33944 19.2498 3.41037 18.9794 3.49616 18.7137C3.77206 17.8653 4.81659 17.2889 6.0956 17.2796C7.04251 17.2726 8.55065 17.2639 9.70606 17.2575L8.47409 19.4783L3.2837 19.5234ZM14.144 45.8335C14.113 45.865 14.0762 45.89 14.0355 45.9072C13.9948 45.9244 13.9512 45.9334 13.907 45.9337L9.98046 45.9624C9.89156 45.9616 9.80629 45.927 9.74202 45.8656C9.71051 45.8347 9.68544 45.7978 9.66824 45.7571C9.65104 45.7165 9.64206 45.6728 9.64181 45.6287L9.61446 41.8741L14.214 41.8389L14.2413 45.5947C14.2416 45.6389 14.2331 45.6828 14.2164 45.7237C14.1997 45.7646 14.1751 45.8018 14.144 45.8332V45.8335ZM26.5443 39.8073L8.29882 39.9219H8.28665C8.07502 39.9243 7.865 39.885 7.66857 39.8062C7.47214 39.7274 7.29315 39.6107 7.14185 39.4627C6.99054 39.3148 6.86988 39.1384 6.78675 38.9438C6.70362 38.7491 6.65966 38.54 6.65737 38.3284C6.65701 38.2922 6.65418 38.2561 6.6489 38.2203L5.05011 26.3047C5.05804 23.8387 6.73175 22.3527 8.41995 22.2391C8.47081 22.2474 8.52208 22.285 8.57444 22.285H8.58169L57.3766 21.8996C57.3841 21.8996 57.3914 21.8749 57.3989 21.8749H57.4061C57.8971 21.8744 58.3824 21.9799 58.8289 22.1841C59.2754 22.3882 59.6726 22.6863 59.9934 23.0579C60.6745 23.8489 61.0567 24.8536 61.0735 25.8973L60.9741 26.6942L60.4931 26.2067C60.325 26.0363 60.0991 25.9352 59.8601 25.9232C59.621 25.9112 59.3862 25.9892 59.2018 26.1419L56.3404 28.5113C54.9564 27.6825 53.4632 27.0516 51.9042 26.6371L51.5458 22.8979C51.5238 22.6589 51.4145 22.4363 51.2387 22.2729C51.0629 22.1094 50.833 22.0164 50.593 22.0117H44.6594C44.4194 22.0164 44.1896 22.1094 44.0139 22.2729C43.8381 22.4365 43.7288 22.659 43.7069 22.8981L43.3486 26.6261C41.7859 27.036 40.29 27.6674 38.9062 28.5011L36.0509 26.1391C35.8672 25.9873 35.6335 25.9094 35.3954 25.9208C35.1573 25.9322 34.9321 26.0321 34.7637 26.2008L31.768 29.1972L31.7632 28.5529C31.762 28.4286 31.7362 28.3057 31.6874 28.1913C31.6386 28.0769 31.5678 27.9733 31.4789 27.8864C31.39 27.7995 31.2848 27.731 31.1693 27.6848C31.0539 27.6386 30.9305 27.6156 30.8061 27.6172H30.7989C30.6739 27.6163 30.5499 27.6403 30.4343 27.6877C30.3186 27.7352 30.2135 27.8052 30.1252 27.8936C30.0368 27.982 29.9668 28.0871 29.9194 28.2028C29.872 28.3184 29.8481 28.4424 29.849 28.5674L29.8672 31.0308C29.8692 31.2722 29.9628 31.5038 30.129 31.6789C30.2951 31.854 30.5216 31.9595 30.7625 31.9741L32.8871 34.538C32.0584 35.9217 31.4275 37.4147 31.0129 38.9735L27.2951 39.3314C27.1402 39.3418 26.9903 39.3907 26.8591 39.4738C26.728 39.5569 26.6197 39.6714 26.5441 39.807L26.5443 39.8073ZM66.8555 45.3496L63.3749 45.6892C63.1731 45.7089 62.9828 45.7922 62.8314 45.927C62.68 46.0618 62.5753 46.2412 62.5324 46.4394C62.1297 48.2509 61.4025 49.9746 60.3859 51.5271C60.2756 51.698 60.2227 51.8997 60.2348 52.1027C60.2468 52.3058 60.3233 52.4997 60.4531 52.6564L62.7055 55.3762L59.7524 58.3293L57.0326 56.077C56.8741 55.9456 56.6774 55.8689 56.4718 55.8582C56.2662 55.8475 56.0626 55.9034 55.8913 56.0176C54.3469 57.0396 52.6256 57.765 50.8156 58.1567C50.6192 58.1939 50.44 58.2935 50.3048 58.4408C50.1695 58.5881 50.0855 58.7751 50.0653 58.974L49.7238 62.4805H45.5282L45.1877 58.9743C45.1678 58.7739 45.0842 58.5851 44.9492 58.4356C44.8141 58.2861 44.6347 58.1839 44.4373 58.1439C42.6261 57.7433 40.9024 57.0182 39.3496 56.0034C39.1783 55.8936 38.9765 55.8413 38.7734 55.854C38.5704 55.8667 38.3767 55.9437 38.2204 56.074L35.5005 58.3279L32.5474 55.3748L34.7997 52.6554C34.931 52.4969 35.0076 52.3002 35.0183 52.0947C35.029 51.8891 34.9731 51.6855 34.8589 51.5143C33.837 49.9698 33.1116 48.2487 32.7198 46.4387C32.6722 46.2389 32.5631 46.0591 32.408 45.9245C32.2529 45.7899 32.0594 45.7073 31.8549 45.6884L28.3008 45.3484V41.1523L31.8546 40.8119C32.0579 40.7927 32.2499 40.7098 32.4033 40.575C32.5567 40.4403 32.6636 40.2606 32.7089 40.0615C33.1137 38.2497 33.8429 36.5261 34.8612 34.9739C34.9719 34.8032 35.0253 34.6017 35.0136 34.3987C35.002 34.1956 34.9261 34.0015 34.7967 33.8446L32.5458 31.1247L35.4998 28.1716L38.2205 30.4239C38.3791 30.5552 38.5758 30.6319 38.7815 30.6426C38.9871 30.6533 39.1907 30.5973 39.362 30.4831C40.9065 29.4612 42.6278 28.7358 44.4378 28.344C44.6376 28.2965 44.8175 28.1875 44.9521 28.0323C45.0867 27.8772 45.1693 27.6838 45.1881 27.4792L45.5282 23.9258H49.7238L50.0643 27.4794C50.0835 27.6826 50.1664 27.8747 50.3011 28.0281C50.4358 28.1815 50.6156 28.2884 50.8147 28.3336C52.6265 28.7384 54.3501 29.4675 55.9024 30.4858C56.073 30.5965 56.2745 30.6499 56.4776 30.6382C56.6806 30.6266 56.8747 30.5506 57.0317 30.4213L59.747 28.1739L62.6555 31.1202L60.3996 33.8446C60.2682 34.0032 60.1915 34.1999 60.1809 34.4055C60.1702 34.6112 60.2262 34.8147 60.3404 34.9861C61.3623 36.5306 62.0877 38.2518 62.4795 40.0619C62.5224 40.2602 62.6272 40.4398 62.7789 40.5747C62.9305 40.7095 63.1211 40.7927 63.3231 40.8122L66.8555 41.1523V45.3496Z" fill="#CF171C"/>
<path d="M47.6279 30.7401C45.1535 30.7401 42.7347 31.4738 40.6773 32.8485C38.6199 34.2232 37.0164 36.1771 36.0695 38.4632C35.1226 40.7493 34.8748 43.2648 35.3576 45.6916C35.8404 48.1185 37.032 50.3476 38.7817 52.0973C40.5314 53.8469 42.7607 55.0383 45.1875 55.521C47.6144 56.0036 50.1299 55.7558 52.4159 54.8088C54.7019 53.8617 56.6558 52.2581 58.0303 50.2006C59.4049 48.1432 60.1385 45.7243 60.1384 43.2499C60.1344 39.9332 58.8151 36.7535 56.4697 34.4083C54.1244 32.0631 50.9446 30.7439 47.6279 30.7401ZM47.6279 53.8471C45.5321 53.8471 43.4834 53.2257 41.7408 52.0613C39.9982 50.897 38.64 49.242 37.8379 47.3058C37.0359 45.3695 36.826 43.2389 37.2348 41.1834C37.6437 39.1278 38.6529 37.2397 40.1349 35.7577C41.6168 34.2758 43.5049 33.2665 45.5604 32.8577C47.616 32.4488 49.7466 32.6586 51.6829 33.4606C53.6191 34.2627 55.2741 35.6208 56.4385 37.3634C57.6028 39.106 58.2243 41.1548 58.2243 43.2506C58.2211 46.0599 57.1037 48.7533 55.1172 50.7399C53.1307 52.7264 50.4373 53.8439 47.6279 53.8471Z" fill="#CF171C"/>
<path d="M52.064 39.344L46.1327 45.1349L43.1386 42.2111C43.0489 42.1222 42.9425 42.0519 42.8255 42.0043C42.7086 41.9567 42.5833 41.9328 42.457 41.9338C42.3307 41.9348 42.2059 41.9609 42.0897 42.0104C41.9735 42.0599 41.8683 42.1319 41.7801 42.2222C41.6918 42.3126 41.6224 42.4195 41.5757 42.5369C41.529 42.6542 41.5059 42.7796 41.5079 42.9059C41.5099 43.0322 41.5369 43.1568 41.5873 43.2726C41.6377 43.3884 41.7105 43.4931 41.8015 43.5806L45.4649 47.1572C45.6436 47.3317 45.8836 47.4294 46.1334 47.4294C46.3833 47.4294 46.6232 47.3317 46.802 47.1572L53.4019 40.7136C53.5836 40.5363 53.6873 40.2941 53.6903 40.0403C53.6934 39.7865 53.5955 39.5418 53.4181 39.3602C53.2408 39.1786 52.9986 39.0748 52.7448 39.0718C52.491 39.0687 52.2463 39.1667 52.0647 39.344H52.064Z" fill="#CF171C"/>
</svg>
