<svg width="64" height="64" viewBox="0 0 64 64" fill="none" xmlns="http://www.w3.org/2000/svg">
<path d="M37.0853 35.3368C36.7267 35.4622 36.462 35.7701 36.3909 36.1445C36.3197 36.5189 36.453 36.9029 36.7405 37.1519C37.028 37.401 37.426 37.4771 37.7846 37.3518C46.611 34.2814 51.9384 25.2627 50.3874 16.0165C48.8364 6.77042 40.8603 0 31.5188 0C22.1773 0 14.2012 6.77042 12.6502 16.0165C11.0991 25.2627 16.4265 34.2814 25.253 37.3518C25.8077 37.5453 26.4136 37.2509 26.6064 36.6942C26.7992 36.1375 26.5059 35.5293 25.9512 35.3358C24.1139 34.6922 22.4006 33.736 20.8863 32.5091V31.3475C20.882 28.02 22.9232 25.0348 26.0182 23.8424C29.3105 26.1836 33.7165 26.1836 37.0088 23.8424C40.1037 25.0348 42.145 28.02 42.1406 31.3475V32.5134C40.629 33.7381 38.9191 34.6932 37.0853 35.3368ZM24.0745 15.9982C24.0745 11.8744 27.405 8.53148 31.5135 8.53148C35.6219 8.53148 38.9525 11.8744 38.9525 15.9982C38.9525 20.1219 35.6219 23.4648 31.5135 23.4648C27.407 23.4601 24.0792 20.1199 24.0745 15.9982ZM38.7399 22.2627C42.0812 18.3894 41.8033 12.5652 38.1086 9.03011C34.4139 5.49503 28.6046 5.49503 24.9099 9.03011C21.2152 12.5652 20.9373 18.3894 24.2785 22.2627C21.1493 23.8685 19.0736 26.9884 18.7949 30.5048C12.7368 23.6519 13.1503 13.2204 19.7316 6.87221C26.313 0.523966 36.714 0.523966 43.2953 6.87221C49.8767 13.2204 50.2902 23.6519 44.2321 30.5048C43.9524 26.9863 41.873 23.8657 38.7399 22.2627Z" fill="#CF171C"/>
<path d="M22.3721 63.5832C23.0219 64.0645 23.8884 64.1312 24.6038 63.7549L31.5189 60.1485L38.4329 63.756C39.1499 64.1301 40.0163 64.0638 40.6684 63.5848C41.3206 63.1058 41.6457 62.297 41.5073 61.4979L40.1938 53.8904L45.7518 48.5133C46.3357 47.9483 46.5483 47.099 46.2999 46.3241C46.0515 45.5491 45.3854 44.9837 44.5828 44.8664L36.8675 43.7539L33.4243 36.8067C33.0668 36.0792 32.327 35.6203 31.5189 35.6248C30.7131 35.6218 29.9758 36.079 29.6177 36.8035L26.1553 43.7539L18.457 44.8653C17.654 44.9823 16.9873 45.548 16.7389 46.3233C16.4904 47.0987 16.7035 47.9484 17.288 48.5133L22.8482 53.8904L21.5336 61.4979C21.3931 62.2967 21.7185 63.106 22.3721 63.5832ZM18.7588 46.9773L27.0076 45.7859C27.3523 45.7362 27.6508 45.5202 27.8068 45.2077L31.5178 37.7581L35.2129 45.2056C35.3685 45.5192 35.6676 45.7361 36.0131 45.7859L44.2789 46.9773L38.3128 52.7469C38.059 52.9926 37.9432 53.3486 38.0035 53.6973L39.4138 61.8648L32.0098 58.0024C31.7027 57.8422 31.3371 57.8422 31.03 58.0024L23.625 61.8648L25.0352 53.6995C25.0956 53.3508 24.9798 52.9947 24.726 52.7491L18.7588 46.9773Z" fill="#CF171C"/>
<path d="M4.62528 47.1683L3.58701 53.1939C3.4868 53.7557 3.63935 54.3332 4.0037 54.7713C4.36805 55.2095 4.90686 55.4634 5.47546 55.4648C5.7859 55.4643 6.09169 55.389 6.36707 55.2451L11.8518 52.38L17.3332 55.2515C17.67 55.4276 18.0748 55.4099 18.3951 55.2052C18.7154 55.0005 18.9025 54.6398 18.886 54.2591C18.8696 53.8783 18.652 53.5353 18.3152 53.3592L12.3427 50.2339C12.035 50.073 11.6685 50.073 11.3608 50.2339L5.75283 53.1662L6.81554 46.9795C6.87592 46.6308 6.76007 46.2748 6.50629 46.0291L1.99294 41.6558L8.23852 40.7555C8.5834 40.7056 8.882 40.4892 9.03768 40.1763L11.8518 34.5294L14.6552 40.1752C14.811 40.4891 15.1106 40.706 15.4565 40.7555L22.1293 41.7155C22.7103 41.7989 23.2487 41.3937 23.3317 40.8104C23.4148 40.2272 23.0111 39.6869 22.43 39.6035L16.3088 38.7235L13.5702 33.2067C13.2457 32.5504 12.5775 32.1366 11.8475 32.14H11.8411C11.1191 32.1386 10.4594 32.55 10.1408 33.2003L7.38835 38.7235L1.28517 39.6024C0.554511 39.7002 -0.0551683 40.2107 -0.282063 40.9146C-0.508957 41.6185 -0.312693 42.3907 0.222451 42.8995L4.62528 47.1683Z" fill="#CF171C"/>
<path d="M63.2985 40.9108C63.0766 40.2105 62.4725 39.7013 61.7469 39.6031L55.6363 38.7231L52.8902 33.201C52.5727 32.5489 51.913 32.1351 51.1899 32.1343H51.1835C50.4532 32.1304 49.7844 32.5443 49.4598 33.201L46.7222 38.7167L40.5999 39.5967C40.224 39.6506 39.9054 39.9017 39.764 40.2554C39.6226 40.6091 39.6799 41.0117 39.9143 41.3114C40.1488 41.6112 40.5248 41.7626 40.9007 41.7087L47.5745 40.7487C47.9204 40.6992 48.22 40.4823 48.3758 40.1684L51.1729 34.529L53.9816 40.1759C54.1373 40.4888 54.4359 40.7052 54.7808 40.7551L61.0232 41.6543L56.5098 46.0276C56.2561 46.2733 56.1402 46.6294 56.2006 46.978L57.2686 53.1647L51.6607 50.2292C51.353 50.0684 50.9864 50.0684 50.6787 50.2292L44.7063 53.3546C44.3695 53.5306 44.1519 53.8737 44.1354 54.2544C44.1189 54.6352 44.3061 54.9958 44.6264 55.2006C44.9467 55.4053 45.3514 55.4229 45.6882 55.2468L51.1729 52.3796L56.6565 55.2511C57.3056 55.5896 58.0898 55.5288 58.6794 55.0944C59.269 54.6599 59.5617 53.9271 59.4344 53.2042L58.3993 47.1679L62.8054 42.9012C63.3386 42.3889 63.5305 41.6142 63.2985 40.9108Z" fill="#CF171C"/>
<path d="M25.665 50.28C25.7162 50.2797 25.7673 50.2758 25.818 50.2682L29.8149 49.6912C30.1595 49.6415 30.4581 49.4255 30.614 49.113L32.4632 45.4021C32.7273 44.8749 32.5155 44.2325 31.9903 43.9674C31.465 43.7023 30.825 43.9149 30.5609 44.4421L28.9668 47.6538L25.5183 48.152C24.9659 48.231 24.5685 48.7253 24.6082 49.2839C24.6479 49.8425 25.1113 50.2752 25.6692 50.2746L25.665 50.28Z" fill="#CF171C"/>
</svg>
