<svg width="47" height="47" viewBox="0 0 47 47" fill="none" xmlns="http://www.w3.org/2000/svg">
<g clip-path="url(#clip0_298_23808)">
<path d="M23.2666 0.429688C35.8646 0.429688 46.0742 10.5981 46.0742 23.1367C46.074 35.6752 35.8644 45.8428 23.2666 45.8428C10.6688 45.8427 0.459169 35.6751 0.458984 23.1367C0.458984 10.5981 10.6687 0.429745 23.2666 0.429688Z" stroke="white" stroke-width="0.860019"/>
<path d="M46.4706 20.9069C46.4706 22.5138 46.4706 24.1249 46.4706 25.7319C46.3396 26.304 46.1918 26.8761 46.0819 27.4524C43.6145 40.2447 31.4846 48.3803 18.7167 45.81C2.23924 42.491 -5.28968 23.1995 4.63903 9.71307C5.17983 8.97691 5.88541 8.36695 6.51493 7.6981C6.6966 7.97994 6.87828 8.26179 7.05573 8.54363C7.19093 8.91381 7.24585 9.33447 7.46977 9.64576C8.65277 11.2905 8.34435 13.1835 8.5556 15.1017C8.18802 14.9124 7.95987 14.7947 7.58807 14.6054C8.03592 15.3247 8.55137 15.8379 8.69079 16.4394C9.06682 18.08 9.27807 19.7627 9.56537 21.4916C9.16822 21.2013 8.81332 20.9447 8.488 20.7092C9.04147 21.601 9.68789 22.4339 10.1019 23.3677C10.5413 24.3605 10.7695 25.45 11.1328 26.6531C10.6639 26.3418 10.3301 26.1189 9.99209 25.8959C9.92027 25.9758 9.84844 26.0516 9.77662 26.1315C11.6187 27.0485 11.9736 28.9541 12.9749 30.4643C12.8482 30.0478 12.7214 29.6314 12.5398 29.0256C14.272 30.0226 15.8395 30.9228 17.4069 31.823C17.4196 31.4907 17.3393 31.2846 17.1915 31.2005C15.6747 30.3465 14.1452 29.5178 12.6243 28.6723C12.4595 28.5797 12.2694 28.4367 12.2102 28.2726C11.7962 27.1369 11.4117 25.9885 11.0188 24.8443C12.7383 25.9632 14.8635 26.3671 15.9155 28.2516C15.9366 28.1801 15.9873 28.1086 15.9747 28.0581C15.8648 27.709 15.7507 27.3598 15.624 27.0149C12.9073 19.6407 12.1384 12.0183 12.713 4.22764C12.8397 2.4819 13.0383 2.32625 14.9776 1.90559C14.9522 2.39356 14.9395 2.86049 14.9015 3.32322C14.2171 11.2695 15.0832 19.0181 17.9351 26.5017C18.0787 26.8803 18.3914 27.2 18.6237 27.5491C19.0631 28.6428 19.4983 29.7323 20.0011 30.9901C20.5926 30.4475 21.0024 30.0731 21.4122 29.6945C21.8558 29.3075 22.2995 28.9205 22.798 28.4872C23.1233 29.1266 23.4191 29.6987 23.7148 30.275C23.7909 29.9763 23.7402 29.7239 23.643 29.4968C22.9839 27.974 22.0967 26.4806 23.1402 24.7559C22.8698 25.0924 22.6037 25.429 22.1854 25.9464C21.8812 23.7211 20.0771 21.8239 21.9023 19.708C21.5812 20.0697 21.2643 20.4273 20.8207 20.9279C20.5461 19.342 20.2546 17.9328 20.0814 16.5152C20.0391 16.1618 20.3729 15.7622 20.5292 15.3836C20.563 15.3037 20.5968 15.2195 20.6644 15.0513C20.3602 15.1396 20.1405 15.2069 19.7898 15.3079C20.0222 13.2803 18.666 11.1938 20.5165 9.42281C20.2081 9.62052 19.8997 9.82244 19.3842 10.1548C19.811 8.3375 18.9575 6.57493 20.263 5.06055C20.0433 5.06055 19.8659 5.06055 19.6208 5.06055C19.718 3.89953 19.7603 2.75954 19.925 1.64478C20.0433 0.845527 20.5926 0.328113 21.4249 0.260807C22.0502 0.210328 22.6797 0.252394 23.3515 0.252394C23.3008 1.06427 23.1909 1.76257 23.2205 2.45666C23.4106 7.33212 23.512 12.2202 23.8838 17.0831C24.1373 20.3852 24.9063 23.6285 26.3132 26.6699C26.5414 27.1663 26.8456 27.629 27.1117 28.1086C26.8794 27.1284 26.4442 26.2619 26.1104 25.3617C24.8894 22.0637 24.3359 18.6227 24.2768 15.1312C24.2049 10.5165 24.3021 5.89767 24.3317 1.28301C24.3359 0.614163 24.412 -0.0378623 25.4048 0.365973C25.4048 0.55527 25.4175 0.719328 25.4048 0.883386C24.9866 5.53169 24.9992 10.1758 25.4429 14.8199C25.7893 18.4586 26.3259 22.0721 27.6948 25.4837C28.1722 26.6741 28.8524 27.8352 29.6678 28.8237C30.6269 29.9889 31.9536 29.9258 33.0098 28.8405C33.4492 28.3904 33.8844 27.8772 34.1294 27.3093C34.7463 25.9043 35.3758 24.4867 35.7772 23.0144C37.2094 17.7771 37.577 12.4095 37.5432 7.00401C37.539 6.44032 37.5432 5.87243 37.5432 5.06476C41.671 8.40902 44.3328 12.3254 45.6425 17.1209C45.9805 18.3661 46.196 19.6449 46.4706 20.9069ZM40.7458 8.78341C40.7035 9.36392 40.6739 9.65417 40.6655 9.94022C40.5218 15.3457 39.8965 20.6881 38.3417 25.8875C37.4376 28.9163 36.2968 31.8483 34.1759 34.2797C33.107 35.5038 31.8437 36.4167 30.1199 36.4209C25.6457 36.4293 21.1756 36.4082 16.7014 36.4503C15.7972 36.4587 15.0747 36.2021 14.3987 35.6468C12.6074 34.1745 11.2131 32.3867 10.0977 30.3802C7.04728 24.9074 5.89386 18.9213 5.31503 12.7797C5.23476 11.9173 5.15871 11.0508 5.06576 10.0075C-0.00422303 16.7507 -0.633746 25.8118 2.86877 32.9462C2.97439 33.1607 3.31239 33.3921 3.54476 33.3879C4.93901 33.3795 6.33748 33.3038 7.82045 33.2491C7.09375 32.4666 6.43888 31.8483 5.89808 31.1458C5.69951 30.8892 5.77133 30.4264 5.72063 30.0605C6.0882 30.0605 6.5445 29.9258 6.81068 30.0899C7.46132 30.4895 8.0655 30.9859 8.62319 31.5159C10.3047 33.1103 11.3568 35.344 13.727 36.24C13.689 36.3199 13.6509 36.3998 13.6171 36.4798C10.816 36.4798 8.0148 36.4798 5.16293 36.4798C5.40798 37.4136 5.97835 37.5609 6.72195 37.5566C10.9258 37.5398 15.1339 37.5482 19.3378 37.5482C26.2034 37.5482 33.0647 37.5398 39.9303 37.5566C40.6993 37.5566 41.295 37.422 41.5485 36.4377C38.722 36.4377 35.9926 36.4377 33.2633 36.4377C34.9322 35.4323 36.0898 34.0273 37.2517 32.5886C37.9784 31.6884 38.9163 30.9396 39.8374 30.2203C40.1331 29.9889 40.6782 30.0815 41.1133 30.0268C41.0204 30.4811 41.0415 31.0154 40.8007 31.3729C40.3655 32.0292 39.7698 32.576 39.191 33.2322C40.2895 33.2911 41.4471 33.3122 42.5921 33.4342C43.4075 33.5225 43.7835 33.1902 44.0835 32.4666C47.2353 24.8863 46.6185 17.6383 42.1907 10.7184C41.8062 10.1127 41.3372 9.57004 40.7458 8.78341Z" fill="white"/>
<path d="M18.6237 27.5491C18.0618 26.5942 19.1729 26.3334 19.3969 25.7024L19.3588 25.7402C19.9334 25.1934 20.5122 24.6465 21.1544 24.0366C21.6319 25.2943 22.1093 26.489 22.5149 27.7047C22.5825 27.9066 22.3712 28.2263 22.2318 28.4619C21.9825 28.8826 21.6952 29.2822 21.4164 29.6945C21.0023 30.073 20.5925 30.4474 20.001 30.9901C19.4983 29.7323 19.0589 28.6428 18.6237 27.5491Z" fill="white"/>
<path d="M6.51514 7.70227C7.03058 7.07969 7.55026 6.45711 8.06571 5.83453C8.13753 5.86819 8.20936 5.90184 8.28118 5.93129C8.28118 7.2732 8.28118 8.61511 8.28118 10.1421C7.79531 9.51111 7.42351 9.03156 7.05593 8.55201C6.87848 8.26596 6.69681 7.98411 6.51514 7.70227Z" fill="white"/>
<path d="M32.642 24.1376C32.904 23.7716 33.0561 23.5612 33.2124 23.3383C33.2377 23.3804 33.2927 23.435 33.28 23.4561C33.1363 23.7548 33.0011 24.066 32.8279 24.3479C31.4844 26.5353 29.8535 26.5143 28.5818 24.2638C27.2721 21.9501 26.7482 19.3883 26.3341 16.8054C25.5187 11.686 25.5145 6.53708 25.9285 1.37977C25.9539 1.08951 26.0299 0.803464 26.0764 0.538447C27.7199 0.399629 27.6988 0.387009 28.8269 3.34005C28.3368 2.89415 27.9438 2.545 27.5594 2.19165C27.1918 1.85932 26.8242 1.5228 26.444 1.17785C25.7215 2.51976 25.8567 3.17599 26.9594 4.04676C28.0283 4.89229 28.9452 5.80934 29.1015 7.29427C29.2789 9.01057 28.5522 10.1926 27.1707 11.0844C25.9496 11.8753 25.8609 12.1151 26.1947 13.8019C27.1157 13.0363 28.003 12.3001 28.8902 11.564C28.9621 11.6061 29.0381 11.6481 29.1099 11.6902C29.0212 11.93 28.9705 12.1866 28.8395 12.4011C28.3368 13.2298 27.8889 14.1132 27.2678 14.8536C26.2538 16.0566 26.4271 17.2555 27.0735 18.69C28.0833 16.7928 29.0381 14.9966 29.993 13.2004C30.1451 13.2214 30.2929 13.2424 30.445 13.2635C31.3745 16.7718 31.7759 20.4021 32.642 24.1376Z" fill="white"/>
<path d="M35.5194 11.2022C35.7306 9.20825 35.7306 9.21245 34.0702 8.53519C33.5632 8.32907 33.0604 8.10612 32.6126 7.71069C33.6266 7.71069 34.6406 7.71069 35.9419 7.71069C35.6377 11.2737 35.3419 14.7652 35.0462 18.2609C34.9152 18.2651 34.7842 18.2693 34.649 18.2735C34.0913 16.6455 33.5252 15.0218 32.9844 13.3854C32.6379 12.338 32.3084 11.2821 32.0338 10.2136C31.9619 9.93599 32.1352 9.59526 32.1943 9.27976C32.4901 9.37231 32.8196 9.40596 33.0731 9.56581C33.8674 10.0622 34.6237 10.5964 35.5194 11.2022Z" fill="white"/>
<path d="M17.534 15.6192C16.9721 15.8926 16.4144 16.166 15.6792 16.5236C15.5229 14.9209 15.3624 13.3812 15.2356 11.8416C15.2229 11.686 15.375 11.4672 15.5145 11.3579C16.5707 10.546 17.6481 9.75513 18.8564 8.85492C18.9663 10.6722 19.0846 12.3422 19.1437 14.0164C19.1522 14.2057 18.8564 14.4203 18.6832 14.6012C18.3917 14.9082 18.0875 15.2027 17.7875 15.5014C17.703 15.5434 17.6185 15.5813 17.534 15.6192Z" fill="white"/>
<path d="M13.5448 21.7145C12.3069 20.991 11.2337 20.3726 10.1775 19.729C9.99581 19.6196 9.78034 19.4093 9.75499 19.22C9.46769 17.3565 9.21842 15.4845 8.96069 13.6168C9.04519 13.5831 9.12547 13.5537 9.20997 13.52C10.2155 14.2856 11.2253 15.047 12.2182 15.8295C12.3872 15.9641 12.535 16.1912 12.5773 16.4016C12.9026 18.1094 13.2026 19.8173 13.5448 21.7145Z" fill="white"/>
<path d="M17.5342 15.6191C17.6187 15.5813 17.7032 15.5434 17.7877 15.5055C18.2186 15.2573 18.6538 15.0049 19.1946 14.6895C19.3974 15.9809 19.6044 17.2134 19.7734 18.446C19.7946 18.6016 19.6467 18.8246 19.5157 18.9508C18.6242 19.8047 17.7159 20.6376 16.7019 21.5799C16.4146 20.1412 16.1019 18.6731 15.8526 17.1966C15.8231 17.0325 16.1188 16.7843 16.3047 16.6203C16.7019 16.2753 17.1244 15.9556 17.5342 15.6191Z" fill="white"/>
<path d="M15.1295 11.198C15.1295 9.65417 15.1084 8.39639 15.1507 7.14282C15.1591 6.89463 15.3619 6.58334 15.5732 6.42769C16.6674 5.61161 17.7955 4.83759 18.9236 4.04254C18.9236 5.42652 18.9405 6.76843 18.9067 8.10613C18.9025 8.29122 18.6912 8.51417 18.518 8.64878C17.4871 9.43963 16.4435 10.2136 15.1295 11.198Z" fill="white"/>
<path d="M19.3547 25.7444L19.3927 25.7066C19.0209 25.8875 18.6534 26.0726 18.1421 26.3207C17.7619 25.0714 17.3647 23.7842 16.993 22.4843C16.9507 22.3329 17.0225 22.0721 17.1366 21.9627C18.0576 21.0919 18.9998 20.2464 19.9378 19.3882C20.2546 20.5577 20.6476 21.8491 20.9222 23.1616C20.9856 23.456 20.6687 23.8557 20.4701 24.1712C20.1279 24.7138 19.7307 25.2228 19.3547 25.7444Z" fill="white"/>
<path d="M9.823 19.9604C11.2215 20.7723 12.2988 21.3822 13.3593 22.0258C13.5706 22.1562 13.786 22.3876 13.8579 22.6148C14.2804 23.9062 14.6606 25.2144 15.1127 26.7036C13.672 25.8286 12.3876 25.0546 11.1074 24.268C10.9764 24.188 10.8285 24.045 10.7905 23.902C10.4779 22.6821 10.1863 21.4537 9.823 19.9604Z" fill="white"/>
<path d="M15.1169 6.28049C15.231 4.79135 15.2395 3.58405 15.4634 2.41882C15.5437 1.99816 16.076 1.53122 16.5154 1.34613C17.3858 0.980155 18.3322 0.795064 19.3969 0.492188C19.3166 1.47654 19.2786 2.25055 19.1772 3.01616C19.1476 3.24752 18.9955 3.52936 18.8138 3.66397C17.6815 4.48847 16.5323 5.28352 15.1169 6.28049Z" fill="white"/>
<path d="M12.4303 15.535C11.26 14.6432 10.246 13.886 9.25732 13.0993C9.10099 12.9731 8.97002 12.7165 8.96579 12.5188C8.94044 11.2947 8.95312 10.0664 8.95312 8.60248C10.0389 9.43539 10.9853 10.1463 11.9106 10.8867C12.0416 10.9918 12.1007 11.2316 12.1176 11.4167C12.2317 12.7123 12.3204 14.0038 12.4303 15.535Z" fill="white"/>
<path d="M12.1052 10.5501C11.0447 9.74247 10.1744 9.11989 9.35053 8.43421C9.13083 8.25333 8.96605 7.89577 8.94493 7.60972C8.90268 6.97872 8.86888 6.31829 9.02098 5.71674C9.13083 5.29187 9.4984 4.87121 9.86175 4.59778C9.99695 4.49682 10.4701 4.78287 10.7617 4.94693C11.8728 5.56109 12.3038 6.46972 12.1221 7.75274C12.008 8.59406 12.1052 9.46483 12.1052 10.5501Z" fill="white"/>
<path d="M35.6753 6.15006C34.8852 6.22158 34.15 6.26785 33.4233 6.36039C32.4938 6.48239 32.046 6.02387 32.1136 5.17834C32.1896 4.22764 32.4347 3.28536 32.6037 2.34308C35.2316 2.84787 35.9499 3.73967 35.6753 6.15006Z" fill="white"/>
<path d="M30.8886 3.51251C32.2152 4.84601 32.2025 10.3188 30.9266 11.5345C29.638 10.4366 29.5788 5.01007 30.8886 3.51251ZM30.8337 5.37184C30.0267 6.43611 30.0309 8.80864 30.7956 9.78037C31.5815 8.9096 31.628 6.57493 30.8337 5.37184Z" fill="white"/>
<path d="M33.5715 22.4465C32.8955 19.2663 32.2153 16.0903 31.5393 12.9101C31.6069 12.8933 31.6703 12.8722 31.7379 12.8554C32.3294 14.7526 32.9124 16.654 33.5208 18.547C33.7109 19.1401 34.1292 19.7038 34.163 20.3011C34.2053 21.0162 33.9475 21.7482 33.8208 22.4717C33.7363 22.4633 33.6518 22.4549 33.5715 22.4465Z" fill="white"/>
<path d="M10.3723 4.15613C11.0779 3.73968 11.6356 3.41156 12.3581 2.98669C12.2862 3.92477 12.2271 4.66513 12.1553 5.60741C11.5131 5.09 11.0145 4.68196 10.3723 4.15613Z" fill="white"/>
<path d="M39.5544 24.8022C40.7586 23.7169 41.9204 22.5811 43.1879 21.5757C43.7921 21.1003 44.5906 21.0246 45.1314 21.8281C45.575 22.4885 45.3553 23.3256 44.4258 23.7169C42.9429 24.3436 41.3796 24.7811 39.8502 25.2985C39.7488 25.1303 39.6516 24.9662 39.5544 24.8022Z" fill="white"/>
<path d="M6.86922 25.3028C5.33555 24.7811 3.76808 24.3395 2.28511 23.7043C1.35984 23.3088 1.16126 22.4843 1.60911 21.8113C2.15413 20.9952 2.89351 21.1887 3.56528 21.5715C5.0229 22.396 6.04112 23.6706 7.03822 24.9536C6.98329 25.0714 6.92837 25.185 6.86922 25.3028Z" fill="white"/>
<path d="M8.6782 29.7786C7.80786 29.0845 6.89949 28.4325 6.08406 27.6795C5.66157 27.2925 5.50947 26.6321 6.12631 26.325C6.44319 26.1693 7.20791 26.3208 7.39803 26.5942C8.03178 27.4986 8.49653 28.5166 9.02888 29.4926C8.91058 29.5851 8.7965 29.6819 8.6782 29.7786Z" fill="white"/>
<path d="M37.6956 29.5051C38.1983 28.5544 38.6631 27.5785 39.225 26.6615C39.5419 26.1399 40.0911 25.8538 40.6615 26.3376C41.253 26.8382 40.9741 27.4145 40.539 27.8057C39.7531 28.5082 38.887 29.1223 38.0589 29.7744C37.9364 29.6818 37.8181 29.5935 37.6956 29.5051Z" fill="white"/>
</g>
<defs>
<clipPath id="clip0_298_23808">
<rect width="46.441" height="46.441" fill="white" transform="translate(0.0292969)"/>
</clipPath>
</defs>
</svg>
