<svg width="47" height="46" viewBox="0 0 47 46" fill="none" xmlns="http://www.w3.org/2000/svg">
<mask id="mask0_298_21361" style="mask-type:luminance" maskUnits="userSpaceOnUse" x="0" y="0" width="47" height="46">
<path d="M23.5407 45.3586C35.9966 45.3586 46.0941 35.2611 46.0941 22.8052C46.0941 10.3493 35.9966 0.25177 23.5407 0.25177C11.0848 0.25177 0.987305 10.3493 0.987305 22.8052C0.987305 35.2611 11.0848 45.3586 23.5407 45.3586Z" fill="white"/>
</mask>
<g mask="url(#mask0_298_21361)">
<path d="M0.545654 -0.231567V22.7309V45.6934H46.4707V-0.231567H0.545654ZM32.0815 1.97444C32.1637 1.97444 32.9318 2.32539 33.7861 2.75456C34.6405 3.18373 35.928 3.96586 36.6439 4.4953C37.3599 5.02273 38.4769 5.95728 39.1227 6.57295C39.7684 7.18662 40.8413 8.41196 41.5031 9.29436C42.1669 10.1768 42.9691 11.4181 43.288 12.0519C43.6049 12.6856 43.8636 13.2491 43.8636 13.3053C43.8636 13.3614 43.4344 13.191 42.911 12.9303C42.3875 12.6675 41.2364 12.2123 40.354 11.9155C39.4716 11.6187 37.5323 11.0612 36.0423 10.6741C34.5522 10.2871 32.4766 9.70147 31.4297 9.37057C30.3829 9.04167 29.0332 8.52828 28.4316 8.23147C27.8299 7.93265 27.1661 7.46338 26.9596 7.18863C26.6126 6.72938 26.6066 6.63713 26.8833 6.08563C27.0498 5.75473 27.5311 5.15309 27.9543 4.74999C28.3774 4.34689 29.4443 3.55674 30.3267 2.99522C31.2091 2.43369 31.9993 1.97444 32.0815 1.97444ZM37.3197 16.3415C37.0951 15.9966 36.3812 15.4972 35.5409 15.0901C34.2073 14.4484 34.1712 14.4143 34.839 14.4083C35.2261 14.4063 36.0302 14.6529 36.6279 14.9578C37.2255 15.2626 37.9334 15.782 38.1981 16.1129C38.527 16.522 38.6614 16.9071 38.6153 17.3162C38.5631 17.7875 38.4408 17.9299 38.0477 17.974C37.6045 18.0241 37.5544 17.966 37.6206 17.4726C37.6647 17.1517 37.5363 16.6704 37.3197 16.3415ZM33.1324 13.7705C32.7974 13.8046 31.8288 13.556 30.9284 13.203C30.0459 12.8561 29.2337 12.4891 29.1234 12.3848C28.9951 12.2624 29.1034 12.1963 29.4243 12.2003C29.699 12.2023 30.782 12.5412 31.8288 12.9543C33.4251 13.584 33.6357 13.7164 33.1324 13.7705ZM27.4689 10.997C28.8687 11.7651 28.8968 11.7952 28.221 11.7932C27.7958 11.7932 27.0237 11.5164 26.2657 11.0953C25.5758 10.7102 25.0122 10.3512 25.0122 10.2971C25.0122 10.2429 25.2369 10.1968 25.5136 10.1968C25.7884 10.1968 26.6688 10.5558 27.4689 10.997ZM24.9621 4.58153C24.7696 4.58153 24.5951 4.53942 24.5751 4.48527C24.555 4.43313 24.8919 4.21253 25.3271 3.99393C25.7603 3.77534 26.2055 3.59485 26.3158 3.59485C26.4261 3.59485 26.2456 3.81545 25.9147 4.08618C25.5838 4.35692 25.1546 4.57953 24.9621 4.58153ZM27.2183 3.01326C27.493 2.89695 27.856 2.80069 28.0204 2.79668C28.1849 2.79467 28.0726 2.92502 27.7698 3.08546C27.4669 3.2459 27.1059 3.34417 26.9676 3.30005C26.8292 3.25793 26.9415 3.12958 27.2183 3.01326ZM28.4717 18.0702C28.1688 18.3189 27.4008 18.726 25.6139 19.4219L25.6119 20.9762C25.6099 21.8305 25.5437 22.8653 25.3131 24.0224L28.3193 24.1348L26.8613 24.7364C25.5678 25.2698 25.3913 25.4062 25.3091 25.9397C25.2589 26.2706 25.1205 27.1289 25.0042 27.8449C24.8859 28.5608 24.6071 29.8262 24.3825 30.6525C24.1579 31.4807 23.6505 32.8344 23.2535 33.6607C22.8564 34.4889 22.1645 35.5338 21.7173 35.983C21.25 36.4523 20.6223 36.8594 20.2493 36.9356C19.8903 37.0098 19.5975 37.1602 19.5975 37.2705C19.5975 37.3808 20.2974 38.2051 21.1517 39.1015C22.0061 39.9999 23.3377 41.2473 24.1098 41.875C24.8819 42.5007 26.0852 43.4152 28.0525 44.791L27.2844 44.9294C26.8613 45.0056 25.7041 45.1339 22.9065 45.3585L21.7754 43.9728C21.1537 43.2087 20.159 41.9091 19.5654 41.0809C18.9718 40.2526 18.2178 39.0112 17.2912 37.0599L10.974 37.07L9.91716 36.0171C9.33558 35.4375 8.53139 34.3325 8.12829 33.5604C7.7272 32.7883 7.20177 31.569 6.96112 30.853C6.72046 30.1371 6.34544 28.647 6.13086 27.544C5.91427 26.441 5.71974 25.5145 5.69768 25.4844C5.67762 25.4543 4.75712 25.8775 3.65412 26.425C2.55111 26.9725 1.58248 27.3575 1.50226 27.2813C1.42204 27.2051 1.24957 26.1502 1.11721 24.9369C0.932708 23.2604 0.930702 22.2256 1.10317 20.6252C1.22952 19.466 1.52031 17.7975 1.74893 16.9151C1.97755 16.0327 2.69952 14.2278 3.35129 12.9042C4.00306 11.5806 4.98173 9.91204 5.52521 9.19409C6.07069 8.47613 7.17971 7.25682 7.99192 6.4807C8.80413 5.7066 10.0555 4.67378 10.7735 4.18646C11.4894 3.69913 12.9795 2.87288 14.0825 2.34946C15.1855 1.82403 16.8099 1.20835 17.6923 0.97973C18.5747 0.751107 19.8823 0.48037 20.6002 0.378092C21.3162 0.275814 22.9406 0.225677 24.2101 0.265786C25.5417 0.307901 27.3005 0.516469 28.3714 0.757124C29.4243 0.991762 30.1823 1.25849 30.1262 1.3728C30.07 1.4831 29.8895 1.57335 29.7251 1.57335C29.5606 1.57335 28.4536 1.8882 27.2684 2.27325C26.0832 2.65629 24.4808 3.29403 23.7087 3.6871C22.9366 4.08017 21.9339 4.68983 20.6544 5.68454L21.4806 6.41051C22.2728 7.10841 22.3129 7.12044 22.5054 6.72737C22.6157 6.50276 22.7962 6.28818 22.9065 6.25208C23.0168 6.21598 23.1291 6.591 23.1572 7.08836C23.1853 7.58972 23.1191 7.99081 23.0068 7.99081C22.8965 7.99081 22.8504 8.08106 22.9065 8.19136C22.9627 8.30166 23.1652 8.39592 23.3577 8.39993C23.5503 8.40394 24.0697 8.72281 25.3131 9.80575L24.7114 9.79573C24.3805 9.78971 23.9413 9.62927 23.7368 9.43875C23.3718 9.10384 23.3718 9.11387 23.7047 9.896C23.8912 10.3372 24.2522 11.5104 24.9661 14.308L26.6647 15.2105C27.5993 15.7058 28.5158 16.2473 28.7023 16.4137C28.8888 16.5802 29.0372 16.9171 29.0312 17.1658C29.0272 17.4145 28.7745 17.8216 28.4717 18.0702ZM24.0757 5.38973C23.8731 5.61434 23.5723 5.79885 23.4079 5.79885C23.1672 5.79885 23.1833 5.71662 23.4881 5.38973C23.6967 5.16512 23.9975 4.98263 24.1539 4.98263C24.3765 4.98263 24.3585 5.07488 24.0757 5.38973ZM33.7179 21.4715C31.3836 22.6868 31.0126 22.8192 29.9357 22.8252C29.2799 22.8292 28.8286 22.757 28.9329 22.6668C29.0372 22.5765 29.7552 22.2456 30.5273 21.9308C31.2994 21.6159 32.7894 20.932 33.8363 20.4066C34.8831 19.8832 35.9219 19.3156 36.1425 19.1452C36.3631 18.9727 36.8144 18.8343 37.7469 18.8363L37.027 19.4801C36.6299 19.8351 35.1418 20.7295 33.7179 21.4715ZM45.847 25.338C45.7246 26.3307 45.4098 27.909 45.1471 28.8476C44.8823 29.7861 44.1724 31.5449 43.5688 32.7582C42.9631 33.9715 41.8802 35.7083 41.1602 36.6187C40.4422 37.5292 39.7624 38.2732 39.6521 38.2732C39.5418 38.2732 39.1768 37.8902 38.8419 37.4209C38.507 36.9516 38.0919 36.2076 37.9194 35.7664C37.7008 35.2009 37.6326 34.519 37.6928 33.4601C37.765 32.1686 37.9033 31.7134 38.6554 30.2514C39.4175 28.7674 39.9248 28.1517 42.5761 25.4884C44.2506 23.8059 45.7226 22.4301 45.845 22.4301C45.9693 22.4301 46.0696 22.6788 46.0696 22.9816C46.0696 23.2844 45.9693 24.3453 45.847 25.338Z" fill="white"/>
</g>
<mask id="mask1_298_21361" style="mask-type:luminance" maskUnits="userSpaceOnUse" x="0" y="0" width="47" height="46">
<path d="M23.5407 45.3586C35.9966 45.3586 46.0941 35.2611 46.0941 22.8052C46.0941 10.3493 35.9966 0.25177 23.5407 0.25177C11.0848 0.25177 0.987305 10.3493 0.987305 22.8052C0.987305 35.2611 11.0848 45.3586 23.5407 45.3586Z" fill="white"/>
</mask>
<g mask="url(#mask1_298_21361)">
<path d="M24.8202 16.6143C24.6858 15.4551 24.3589 13.6502 24.0942 12.6033C23.8315 11.5545 23.262 9.97619 22.8308 9.09378C22.3936 8.19734 21.7278 7.20264 21.3247 6.83764C20.9256 6.47867 20.2618 6.09562 19.8487 5.98733C19.4355 5.87703 18.6013 5.80082 17.9936 5.81887C17.386 5.83692 16.5296 5.88305 16.0884 5.92115C15.6472 5.95925 14.5422 6.07958 13.6317 6.18988C12.7213 6.29818 11.6163 6.56691 11.1751 6.78751C10.7339 7.00811 9.98783 7.57164 9.51855 8.04092C9.04927 8.5102 8.31327 9.57108 7.8841 10.3973C7.45493 11.2256 6.88338 12.7598 6.61264 13.8066C6.21356 15.3488 6.10125 16.3816 6.01903 19.2214C5.94482 21.7843 6.00499 23.3807 6.23562 25.1375C6.4121 26.4611 6.74099 28.266 6.96961 29.1484C7.19824 30.0308 7.78784 31.587 8.27717 32.6078C8.9109 33.9254 9.48847 34.7817 10.2726 35.5658L11.3756 36.6688L20.332 36.5686C21.3949 35.7503 21.9965 35.0284 22.3535 34.4368C22.7125 33.8452 23.2419 32.684 23.5307 31.8557C23.8195 31.0275 24.2326 29.4933 24.4472 28.4465C24.7199 27.1229 24.8743 25.348 24.9526 22.6306C25.0248 20.1138 24.9766 17.9699 24.8202 16.6143ZM11.4257 33.5403C10.7359 33.1653 10.1723 32.9487 10.1723 33.059C10.1723 33.1693 10.3528 33.6205 10.5734 34.0617C10.794 34.5029 10.9525 34.906 10.9244 34.9582C10.8963 35.0103 10.5634 34.4007 10.1804 33.6045C9.79932 32.8083 9.03323 31.6672 7.46496 29.9826L9.1696 31.2541L8.76249 30.101C8.51382 29.4011 8.02047 28.5949 7.50908 28.0494C7.04382 27.554 6.88939 27.3334 7.16414 27.556C7.4409 27.7807 7.79987 28.0634 7.96633 28.1858C8.23305 28.3803 8.23506 28.2439 7.98839 26.9725C7.77781 25.8855 7.53716 25.32 6.27974 23.7336L7.76779 25.1375L7.63743 24.0345C7.56724 23.4268 7.24637 22.39 6.9275 21.7282C6.60663 21.0664 6.4883 20.7054 6.66278 20.926C6.83725 21.1466 7.10799 21.5076 7.26241 21.7282C7.51911 22.0952 7.54518 22.039 7.55521 21.0764C7.56122 20.3424 7.41081 19.7047 7.05585 18.9707C6.77508 18.3911 6.68885 18.0983 6.86332 18.3189C7.0378 18.5395 7.29851 18.9005 7.4429 19.1211C7.67955 19.4821 7.71765 19.4079 7.83597 18.369C7.94828 17.3803 7.89413 17.0715 7.46496 16.2132C7.19021 15.6617 7.00972 15.2104 7.06387 15.2104C7.11802 15.2104 7.36268 15.5494 8.04655 16.7145L8.2872 15.6115C8.51783 14.5567 8.50178 14.4584 7.94627 13.3554C7.6274 12.7217 7.38675 12.1982 7.41483 12.1942C7.4429 12.1902 7.72968 12.5733 8.63615 13.9069L8.92092 13.0044C9.17161 12.2103 9.1676 11.9937 8.88884 11.1995C8.71637 10.7022 8.59403 10.273 8.62011 10.2449C8.64618 10.2168 8.8026 10.4695 8.96906 10.8044C9.13551 11.1414 9.316 11.4121 9.37015 11.4081C9.42429 11.4041 9.61481 11.017 9.79129 10.5477C10.062 9.82979 10.0701 9.61721 9.84745 9.19406C9.70305 8.91931 9.58473 8.55833 9.58674 8.39187C9.58674 8.22542 9.74116 8.38586 10.2726 9.40062L10.5233 8.6967C10.6617 8.30765 10.8161 8.01284 10.8682 8.04092C10.9204 8.069 10.784 8.56434 10.5674 9.14392C10.1844 10.1627 10.1844 10.2329 10.5233 11.3038C10.7158 11.9115 10.9424 12.4088 11.0247 12.4068C11.1069 12.4048 11.2252 12.0639 11.2834 11.6507C11.3475 11.2115 11.2653 10.5237 11.0848 9.99624C10.9144 9.49889 10.8221 9.04766 10.8783 8.99351C10.9364 8.93936 11.1329 9.29834 11.6504 10.6982L11.9712 9.7957C12.27 8.9534 12.268 8.8431 11.9331 8.14119C11.7366 7.72807 11.5762 7.2989 11.5762 7.1886C11.5762 7.0783 11.6383 6.98805 11.7165 6.98805C11.7927 6.98805 12.0053 7.3711 12.1898 7.84037C12.5187 8.67866 12.5147 8.72277 11.9271 10.4976C11.5982 11.4903 11.1129 13.3173 10.8502 14.5587C10.5875 15.8 10.2806 17.8757 10.1663 19.1712C10.0239 20.7936 10.0239 22.3398 10.1663 24.1347C10.2806 25.5686 10.5955 27.6443 10.8642 28.7473C11.1329 29.8503 11.6524 31.5329 12.6792 34.2202L11.4257 33.5403ZM16.8024 33.0089C16.4915 33.6486 16.4394 33.9615 16.5898 34.2623C16.7001 34.4829 16.7683 34.7095 16.7402 34.7637C16.7121 34.8198 16.4193 34.3184 15.4868 32.4313L14.7347 33.2475C13.9987 34.0437 13.9787 34.0517 13.7982 33.6105C13.6979 33.3618 13.351 32.5276 13.0261 31.7555C12.7032 30.9834 12.2961 29.8563 12.1196 29.2486C11.9452 28.641 11.6443 27.3334 11.4538 26.3407C11.2132 25.0973 11.1049 23.5692 11.1089 21.4274C11.1109 19.5021 11.2352 17.5929 11.4358 16.4137C11.6143 15.3669 11.9933 13.6963 12.2781 12.7036C12.5628 11.7109 13.0181 10.289 13.2888 9.54501C13.5596 8.80099 13.8263 8.19133 13.8824 8.19133C13.9386 8.19133 13.9386 8.32569 13.8824 8.49215C13.8102 8.70874 14.103 8.63253 14.9353 8.2194C15.569 7.90455 16.2228 7.68796 16.3893 7.7401C16.5597 7.79224 16.0383 8.12715 15.186 8.5102C14.3597 8.88321 13.6257 9.30235 13.5555 9.44073C13.4853 9.58111 13.373 9.89797 13.3049 10.1467C13.1845 10.5838 13.2166 10.5798 14.458 9.95413C15.2662 9.54902 15.8017 9.13791 15.912 8.83909C16.0283 8.53025 16.4675 8.20737 17.1914 7.90054C17.7991 7.64384 18.3847 7.42725 18.495 7.41923C18.6053 7.4092 18.1541 7.70801 17.4923 8.07902C16.654 8.55031 16.2128 8.94137 15.7876 9.99624L16.3893 9.69542C16.7202 9.52897 17.0591 9.3946 17.1413 9.39661C17.2235 9.39661 16.9307 9.6132 16.4895 9.87591C15.9079 10.2229 15.6212 10.5658 15.4447 11.1273C15.3123 11.5525 15.2441 11.9476 15.2943 12.0017C15.3464 12.0558 15.6352 11.8774 15.938 11.6026C16.2408 11.3299 16.1586 11.4642 15.7555 11.9034C15.3524 12.3446 14.9233 13.0425 14.8029 13.4557C14.6305 14.0473 14.6385 14.1796 14.835 14.0773C14.9734 14.0052 15.2642 13.8026 15.4848 13.6261C15.7034 13.4496 15.545 13.6883 15.1338 14.1576C14.7207 14.6268 14.3858 15.1683 14.3858 15.3608C14.3878 15.5534 14.3236 16.0287 14.097 17.1156L15.2863 16.3395L14.6385 17.0274C14.089 17.611 13.9887 17.8717 13.9747 19.7227L14.6224 19.1211C15.202 18.5856 15.19 18.6117 14.5262 19.3718C13.8804 20.1118 13.7822 20.3564 13.7822 21.2268C13.7822 21.9648 13.8483 22.1954 14.0328 22.0992C14.1712 22.027 14.5061 21.7803 14.7789 21.5477C15.0516 21.3171 14.9273 21.5336 14.5021 22.029C13.8544 22.7851 13.7521 23.0277 13.8584 23.5331C13.9306 23.864 13.9847 24.4055 13.9747 25.338L15.4667 23.9342L14.825 24.6862C14.4379 25.1395 14.1832 25.6569 14.1853 25.9898C14.1873 26.2926 14.2534 26.8782 14.4841 28.0353L15.4567 27.1429L15.0195 27.895C14.7809 28.3081 14.6244 28.7593 14.6746 28.8977C14.7247 29.0361 14.8671 29.5555 15.2161 30.9533L15.6031 30.3015C15.8137 29.9425 16.0323 29.6497 16.0884 29.6497C16.1446 29.6497 16.0082 30.0107 15.7876 30.4519C15.4026 31.22 15.4006 31.2942 15.7214 32.2067C15.9039 32.7301 16.1305 33.2495 16.2248 33.3598C16.3391 33.4942 16.3953 33.4942 16.3973 33.3598C16.3973 33.2495 16.5818 32.9347 16.8064 32.6579C17.2135 32.1586 17.2135 32.1606 16.8024 33.0089ZM18.509 33.059C18.2102 32.7843 17.6988 32.0162 17.3739 31.3544C17.0491 30.6926 16.6078 29.2928 16.3973 28.2459C16.1867 27.1991 15.9099 24.9429 15.7816 23.2323C15.6533 21.5216 15.6071 19.3557 15.6773 18.4192C15.7495 17.4826 15.946 15.9464 16.1165 15.0099C16.287 14.0733 16.646 12.7197 16.9167 12.0017C17.1874 11.2837 17.6326 10.3592 17.9034 9.94611C18.1761 9.53298 18.4228 9.19406 18.4489 9.19406C18.4769 9.19406 18.2543 9.71347 17.9535 10.3472C17.6527 10.9809 17.2275 12.2684 17.0069 13.205C16.7863 14.1415 16.5016 15.9464 16.3692 17.2159C16.2228 18.6478 16.1767 20.9661 16.2489 23.3325C16.3171 25.5867 16.4915 27.7165 16.674 28.5467C16.8445 29.3188 17.1393 30.3577 17.3298 30.853C17.5203 31.3484 17.9856 32.1626 18.3646 32.6579C18.9362 33.406 18.9603 33.4741 18.509 33.059ZM23.1958 25.1876C23.0795 26.2625 22.8067 27.909 22.5881 28.8476C22.3695 29.7861 21.9444 31.0014 21.6456 31.5489C21.3467 32.0964 20.8574 32.684 20.5606 32.8525C20.0592 33.1352 19.975 33.1292 19.4576 32.7502C19.1488 32.5236 18.6454 31.8477 18.3406 31.2461C18.0357 30.6424 17.5885 29.2486 17.3459 28.1456C16.9588 26.3889 16.9027 25.5325 16.8966 21.2268C16.8926 17.2219 16.9588 15.9805 17.2596 14.5085C17.4642 13.5158 17.8171 12.2063 18.0438 11.6006C18.2724 10.995 18.7517 10.2048 19.1087 9.84583C19.4656 9.48685 19.8808 9.19406 20.0292 9.19205C20.1776 9.19205 20.5024 9.32642 20.7511 9.49287C20.9998 9.65932 21.429 10.2469 21.7037 10.7984C21.9805 11.3499 22.3816 12.5452 22.5961 13.4557C22.8107 14.3661 23.0815 15.9906 23.1978 17.0655C23.3141 18.1404 23.4084 19.9674 23.4084 21.1265C23.4084 22.2857 23.3121 24.1127 23.1958 25.1876Z" fill="white"/>
</g>
<mask id="mask2_298_21361" style="mask-type:luminance" maskUnits="userSpaceOnUse" x="0" y="0" width="47" height="46">
<path d="M23.5407 45.3586C35.9966 45.3586 46.0941 35.2611 46.0941 22.8052C46.0941 10.3493 35.9966 0.25177 23.5407 0.25177C11.0848 0.25177 0.987305 10.3493 0.987305 22.8052C0.987305 35.2611 11.0848 45.3586 23.5407 45.3586Z" fill="white"/>
</mask>
<g mask="url(#mask2_298_21361)">
<path d="M14.1832 10.3794C13.2407 10.8607 13.0501 11.0572 12.8697 11.723L12.6591 12.5031C14.6766 11.6328 15.0376 11.354 15.186 10.9489C15.2963 10.6461 15.3183 10.4014 15.2361 10.4054C15.1539 10.4114 15.202 10.2751 15.3424 10.1046C15.4828 9.93615 15.5289 9.79978 15.4427 9.80579C15.3564 9.80981 14.7909 10.0685 14.1832 10.3794ZM9.69301 11.7511C9.38016 12.7719 9.38417 12.83 9.82136 13.7104C10.07 14.2078 10.3408 14.6149 10.423 14.6129C10.5052 14.6109 10.6195 14.2699 10.6757 13.8568C10.7379 13.4036 10.6255 12.6275 10.3969 11.9015L10.0179 10.6982L9.69301 11.7511ZM18.9362 11.5505C18.7617 11.7431 18.4388 12.3086 18.2202 12.804C18.0016 13.2993 17.765 14.0674 17.6928 14.5086C17.5965 15.0882 17.6186 15.2266 17.767 15.01C17.9314 14.7713 18.1179 15.022 18.6674 16.2132L19.3613 17.7173C19.5318 16.6304 19.6301 15.3429 19.6902 14.1576C19.7504 12.9203 19.8928 11.9376 20.0191 11.8514C20.1435 11.7691 20.2999 11.8072 20.3701 11.9356C20.4423 12.0639 20.4784 13.1469 20.4543 14.3421C20.4182 16.1932 20.4423 16.3957 20.6248 15.7119C20.7411 15.2707 20.9256 14.5487 21.0339 14.1075C21.1883 13.4778 21.2745 13.3695 21.429 13.6061C21.5753 13.8267 21.5914 13.7726 21.4891 13.4056C21.4129 13.1308 21.2384 12.6796 21.1021 12.4029C20.9657 12.1281 20.705 11.7431 20.5265 11.5505C20.346 11.358 19.985 11.1996 19.7263 11.1996C19.4676 11.1996 19.1106 11.358 18.9362 11.5505ZM13.4412 12.5653C12.5468 13.0286 12.3863 13.203 12.2981 13.8067C12.2399 14.1937 12.2339 14.5307 12.2861 14.5587C12.3362 14.5868 12.8275 14.3843 13.379 14.1075C14.0449 13.7746 14.4119 13.4537 14.472 13.1549C14.5201 12.9062 14.6004 12.5453 14.6485 12.3527C14.6966 12.1602 14.6786 12.0078 14.6084 12.0138C14.5402 12.0198 14.0148 12.2685 13.4412 12.5653ZM8.97906 14.6089C8.74242 15.6798 8.75245 15.7339 9.30395 16.486C9.79528 17.1598 9.88754 17.212 10.0059 16.8871C10.0821 16.6825 10.1442 16.2433 10.1482 15.9124C10.1503 15.5815 9.94369 14.9037 9.68699 14.4083L9.22172 13.5059L8.97906 14.6089ZM13.1143 14.5287C12.5989 14.7934 12.1377 15.0781 12.0915 15.1604C12.0434 15.2426 11.9311 15.8282 11.8409 16.4619C11.7486 17.0936 11.7205 17.611 11.7747 17.609C11.8308 17.607 12.3041 17.2942 12.8275 16.9111C13.6718 16.2935 13.8022 16.0949 13.9666 15.1804C14.0689 14.6129 14.1291 14.1256 14.101 14.0975C14.0749 14.0694 13.6297 14.2639 13.1143 14.5287ZM21.0499 17.1378C20.6929 18.6138 20.4443 19.9594 20.4984 20.1239C20.5686 20.3324 20.8774 20.4247 21.5011 20.4247H22.4036C22.4036 18.714 22.3053 17.5188 22.183 16.6645C22.0607 15.8101 21.9022 14.9618 21.832 14.7813C21.7558 14.5888 21.433 15.5615 21.0499 17.1378ZM17.3097 16.6645C17.2034 17.3323 17.2636 17.4827 17.8412 18.0021C18.2002 18.323 18.517 18.5717 18.5431 18.5536C18.5712 18.5356 18.3325 17.9339 18.0116 17.216L17.4301 15.9124L17.3097 16.6645ZM8.47369 17.4165C8.33732 18.684 8.35136 18.7361 8.94497 19.3217C9.28189 19.6526 9.59273 19.8792 9.63685 19.8231C9.68097 19.7689 9.7632 19.2716 9.81935 18.7201C9.9116 17.8116 9.85946 17.6411 9.26785 16.9151L8.61407 16.113L8.47369 17.4165ZM12.5327 17.4687C11.6784 18.0703 11.6042 18.1926 11.53 19.1212C11.4859 19.6727 11.4538 20.1439 11.4618 20.17C11.4678 20.1961 11.899 19.9253 12.4204 19.5684C13.2086 19.0289 13.3891 18.7862 13.4974 18.1184C13.5676 17.6772 13.5876 17.2039 13.5415 17.0676C13.4833 16.9011 13.1524 17.0335 12.5327 17.4687ZM16.9688 21.0364L16.9889 23.6334C17.6647 23.09 18.0698 22.729 18.3265 22.4803C18.6835 22.1354 18.7878 21.8225 18.7737 21.1487C18.7577 20.3866 18.6333 20.1459 17.8532 19.3538L16.9508 18.4373L16.9688 21.0364ZM19.6 19.1593C19.4676 19.3999 19.3734 19.807 19.3914 20.0617C19.4095 20.3184 19.4636 20.4127 19.5097 20.2763C19.5559 20.1379 19.6842 20.0256 19.7945 20.0256C19.9048 20.0256 20.0412 20.2502 20.0953 20.527C20.1515 20.8017 20.1274 21.3011 20.0452 21.634C19.963 21.9669 19.8266 22.2376 19.7444 22.2356C19.6621 22.2336 19.5599 22.0732 19.5177 21.8807C19.4756 21.6861 19.4315 21.8004 19.4195 22.1313C19.4095 22.4622 19.4857 22.8673 19.5879 23.0338C19.7444 23.2805 19.8246 23.2865 20.0372 23.0739C20.2056 22.9034 20.2959 22.2437 20.2959 21.1687C20.2959 20.2643 20.1936 19.3438 20.0693 19.1232C19.8446 18.7261 19.8406 18.7261 19.6 19.1593ZM8.16284 20.3264C8.16284 21.3352 8.21899 21.4715 8.81462 21.9268L9.46639 22.4241C9.65891 20.4046 9.62282 20.2843 9.0653 19.783C8.7344 19.4841 8.39548 19.2355 8.31325 19.2315C8.23103 19.2274 8.16284 19.7188 8.16284 20.3264ZM12.1758 20.0457C11.2773 20.6473 11.2753 20.6513 11.3234 21.7403C11.3495 22.3419 11.4398 22.8292 11.522 22.8252C11.6042 22.8212 12.0193 22.5284 12.4425 22.1735C13.1183 21.6059 13.2226 21.4014 13.3008 20.4768C13.349 19.8973 13.3189 19.428 13.2326 19.432C13.1464 19.438 12.6711 19.7128 12.1758 20.0457ZM20.7952 21.1788C20.7932 21.261 21.086 21.4395 21.447 21.5778C21.806 21.7142 22.169 21.8265 22.2512 21.8285C22.3334 21.8285 22.4016 21.65 22.4016 21.4294C22.4016 21.0945 22.2672 21.0283 21.5994 21.0283C21.1582 21.0283 20.7952 21.0945 20.7952 21.1788ZM8.1849 22.8653C8.1468 23.8741 8.1849 23.9683 8.85473 24.4878C9.2478 24.7906 9.61279 25.0393 9.66694 25.0393C9.72309 25.0393 9.78125 24.5961 9.7993 24.0526C9.82938 23.1281 9.78125 23.0278 9.0292 22.4322L8.22702 21.7964L8.1849 22.8653ZM12.3282 22.5886C11.6323 23.096 11.5801 23.2043 11.5761 24.1849C11.5741 24.7645 11.6162 25.3742 11.6704 25.5386C11.7526 25.7833 11.9231 25.7372 12.5829 25.2879L13.3931 24.7364C13.379 22.6387 13.3088 22.0331 13.2246 22.0371C13.1424 22.0411 12.7393 22.2898 12.3282 22.5886ZM20.3961 22.2797C20.3961 22.4181 20.727 23.5231 21.1321 24.7364C21.7358 26.5494 21.8922 26.8542 22.0065 26.4411C22.0827 26.1663 22.197 25.304 22.2632 24.5239L22.3815 23.108C21.1522 22.2717 20.705 22.0291 20.5947 22.0291C20.4844 22.0291 20.3941 22.1434 20.3961 22.2797ZM17.9214 23.9042C17.406 24.3474 17.1854 24.7023 17.1854 25.0874C17.1854 25.3922 17.2536 25.6409 17.3358 25.6429C17.42 25.6429 17.8031 25.1456 18.1881 24.5359C18.5752 23.9242 18.8379 23.3908 18.7737 23.3487C18.7095 23.3045 18.3265 23.5552 17.9214 23.9042ZM18.4208 25.7853L17.5745 27.3435C18.1861 29.365 18.5952 30.1993 18.878 30.5021C19.1608 30.807 19.5318 31.0536 19.7023 31.0536C19.8727 31.0536 20.2558 30.819 20.5546 30.5322C20.8955 30.2033 21.0158 29.9607 20.8774 29.8804C20.7571 29.8082 20.4403 28.5408 20.1755 27.0608C19.9108 25.5827 19.596 24.3394 19.4796 24.2992C19.3613 24.2591 18.884 24.927 18.4208 25.7853ZM8.24105 25.2378C8.30723 25.679 8.41152 26.3789 8.47168 26.792C8.55992 27.4077 8.72437 27.6263 9.37414 27.9953C9.80932 28.244 10.2084 28.4245 10.2606 28.3964C10.3107 28.3703 10.2425 27.7466 10.1101 27.0106C9.89155 25.8134 9.78325 25.6108 9.06329 25.0493C8.62209 24.7043 8.23103 24.4256 8.19092 24.4296C8.15081 24.4336 8.17487 24.7966 8.24105 25.2378ZM20.4102 24.7364C20.4002 24.8467 20.5967 25.9136 20.8454 27.1049C21.2785 29.1866 21.3066 29.2467 21.5192 28.609C21.6415 28.244 21.6736 27.9011 21.5894 27.8449C21.5072 27.7908 21.2124 27.0227 20.9336 26.1403C20.6548 25.2579 20.4202 24.6261 20.4102 24.7364ZM12.7734 25.4664C12.4986 25.693 12.1597 25.9397 12.0213 26.0099C11.8208 26.1142 11.8208 26.3929 12.0213 27.4037L12.272 28.6671C13.732 27.1811 13.7621 27.0929 13.6658 26.0901C13.6117 25.5125 13.5014 25.0413 13.4212 25.0453C13.3409 25.0473 13.0501 25.2378 12.7734 25.4664ZM13.0943 28.1858L12.3382 28.9479C12.8315 30.5803 13.0421 31.0536 13.1243 31.0536C13.2086 31.0536 13.5234 30.7388 13.8263 30.3517C14.3677 29.6638 14.3737 29.6298 14.115 28.5368L13.8523 27.4237L13.0943 28.1858ZM8.7705 28.2921C8.76648 28.4325 8.85473 28.8857 8.96503 29.2989C9.12346 29.9025 9.37213 30.1772 10.2164 30.6886L11.2693 31.3244C11.0086 30.4159 10.806 29.8584 10.6496 29.4994C10.4731 29.0923 10.07 28.6972 9.57067 28.4425C9.00513 28.1537 8.77451 28.1116 8.7705 28.2921ZM13.8202 30.7388C13.3409 31.2702 13.2066 31.571 13.3008 31.906C13.369 32.1546 13.5575 32.6279 13.716 32.9588L14.0067 33.5605C15.3544 32.1566 15.3544 32.1566 15.0536 31.3545C14.8871 30.9132 14.6886 30.4339 14.6104 30.2875C14.5061 30.093 14.2915 30.2174 13.8202 30.7388ZM9.36612 30.7107C9.38216 30.8451 9.50048 31.2542 9.63084 31.6212C9.8013 32.1065 10.1763 32.4735 11.0186 32.9749C11.6523 33.3519 12.1718 33.5705 12.1718 33.4602C12.1718 33.3499 12.0033 32.9207 11.7947 32.5076C11.5541 32.0283 11.0407 31.5229 10.3769 31.1118C9.80331 30.7588 9.34807 30.5783 9.36612 30.7107Z" fill="white"/>
</g>
</svg>
