<svg width="33" height="33" viewBox="0 0 34 34" fill="none" xmlns="http://www.w3.org/2000/svg">
<path d="M29.7188 2.62998H28.1408V0H25.5108V2.62998H8.15294V0H5.52296V2.62998H3.94497C1.76971 2.62998 0 4.39969 0 6.57495V29.7188C0 31.894 1.76971 33.6637 3.94497 33.6637H29.7188C31.894 33.6637 33.6637 31.894 33.6637 29.7188V6.57495C33.6637 4.39969 31.894 2.62998 29.7188 2.62998ZM31.0338 29.7188C31.0338 30.4439 30.4439 31.0338 29.7188 31.0338H3.94497C3.21988 31.0338 2.62998 30.4439 2.62998 29.7188V12.3609H31.0338V29.7188ZM31.0338 9.73092H2.62998V6.57495C2.62998 5.84986 3.21988 5.25996 3.94497 5.25996H5.52296V7.88994H8.15294V5.25996H25.5108V7.88994H28.1408V5.25996H29.7188C30.4439 5.25996 31.0338 5.84986 31.0338 6.57495V9.73092Z" fill="#F52618"/>
<path d="M7.62705 15.1226H4.99707V17.7525H7.62705V15.1226Z" fill="#F52618"/>
<path d="M12.8868 15.1226H10.2568V17.7525H12.8868V15.1226Z" fill="#F52618"/>
<path d="M18.1468 15.1226H15.5168V17.7525H18.1468V15.1226Z" fill="#F52618"/>
<path d="M23.4068 15.1226H20.7769V17.7525H23.4068V15.1226Z" fill="#F52618"/>
<path d="M28.6668 15.1226H26.0369V17.7525H28.6668V15.1226Z" fill="#F52618"/>
<path d="M7.62705 20.3818H4.99707V23.0118H7.62705V20.3818Z" fill="#F52618"/>
<path d="M12.8868 20.3818H10.2568V23.0118H12.8868V20.3818Z" fill="#F52618"/>
<path d="M18.1468 20.3818H15.5168V23.0118H18.1468V20.3818Z" fill="#F52618"/>
<path d="M23.4068 20.3818H20.7769V23.0118H23.4068V20.3818Z" fill="#F52618"/>
<path d="M7.62705 25.6421H4.99707V28.2721H7.62705V25.6421Z" fill="#F52618"/>
<path d="M12.8868 25.6421H10.2568V28.2721H12.8868V25.6421Z" fill="#F52618"/>
<path d="M18.1468 25.6421H15.5168V28.2721H18.1468V25.6421Z" fill="#F52618"/>
<path d="M23.4068 25.6421H20.7769V28.2721H23.4068V25.6421Z" fill="#F52618"/>
<path d="M28.6668 20.3818H26.0369V23.0118H28.6668V20.3818Z" fill="#F52618"/>
</svg>
