<svg width="22" height="22" viewBox="0 0 22 22" fill="none" xmlns="http://www.w3.org/2000/svg">
<path d="M11 22C17.0751 22 22 17.0751 22 11C22 4.92487 17.0751 0 11 0C4.92487 0 0 4.92487 0 11C0 17.0751 4.92487 22 11 22Z" fill="#F0F0F0"/>
<path d="M2.27387 4.3027C1.40981 5.42689 0.758277 6.72261 0.378906 8.13022H6.1014L2.27387 4.3027ZM21.621 8.13022C21.2416 6.72265 20.5901 5.42693 19.7261 4.30274L15.8986 8.13022H21.621ZM0.378906 13.8693C0.75832 15.2769 1.40986 16.5726 2.27387 17.6968L6.10127 13.8693H0.378906ZM17.697 2.27367C16.5728 1.40961 15.2771 0.758076 13.8695 0.378662V6.10111L17.697 2.27367ZM4.30294 19.7258C5.42713 20.5898 6.72286 21.2414 8.13042 21.6208V15.8984L4.30294 19.7258ZM8.13038 0.378662C6.72281 0.758076 5.42709 1.40961 4.30294 2.27363L8.13038 6.10107V0.378662ZM13.8695 21.6208C15.2771 21.2414 16.5728 20.5898 17.697 19.7258L13.8695 15.8984V21.6208ZM15.8986 13.8693L19.7261 17.6968C20.5901 16.5727 21.2416 15.2769 21.621 13.8693H15.8986Z" fill="#0052B4"/>
<path d="M21.9069 9.56523H12.4348V0.0931133C11.9591 0.0311268 11.4798 2.38995e-05 11 0C10.5136 0 10.0349 0.0319688 9.56523 0.0931133V9.56519H0.0931133C0.0311268 10.0409 2.38995e-05 10.5202 0 11C0 11.4864 0.0319688 11.9651 0.0931133 12.4348H9.56519V21.9069C10.5177 22.031 11.4823 22.031 12.4348 21.9069V12.4348H21.9069C21.9689 11.9591 22 11.4798 22 11C22 10.5137 21.968 10.0349 21.9069 9.56523Z" fill="#D80027"/>
<path d="M13.8695 13.8698L18.7781 18.7784C19.0038 18.5524 19.2195 18.3168 19.4247 18.0722L15.2223 13.8697H13.8695V13.8698ZM8.13037 13.8698H8.13028L3.22175 18.7783C3.44767 19.004 3.68329 19.2197 3.92794 19.4249L8.13037 15.2224V13.8698ZM8.13037 8.13065V8.13057L3.22179 3.22195C2.99614 3.44787 2.7804 3.68349 2.5752 3.92814L6.77767 8.13061H8.13037V8.13065ZM13.8695 8.13065L18.7782 3.22199C18.5522 2.99634 18.3166 2.78062 18.072 2.57544L13.8695 6.77791V8.13065Z" fill="#D80027"/>
</svg>
