<svg width="32" height="32" viewBox="0 0 32 32" fill="none" xmlns="http://www.w3.org/2000/svg">
<path d="M20.6465 18.1082C20.2743 17.736 19.6653 17.736 19.327 18.1082L17.1955 20.2059C16.2144 21.187 14.0152 20.5104 12.2559 18.751C10.4966 16.9917 9.81991 14.7587 10.8011 13.8114L12.8987 11.7137C13.2709 11.3416 13.2709 10.7326 12.8987 10.3943L8.06059 5.52229C7.68843 5.15012 7.07943 5.15012 6.7411 5.52229L5.32011 6.94328C2.47813 9.75142 4.37278 16.2474 9.58308 21.4238C14.7595 26.6003 21.2555 28.5288 24.0975 25.6868L25.5185 24.2658C25.8906 23.8937 25.8906 23.2847 25.5185 22.9463L20.6465 18.1082Z" stroke="white" stroke-width="1.5" stroke-miterlimit="1" stroke-linecap="round" stroke-linejoin="round"/>
<path d="M15.4365 4C21.831 4 27.0074 9.17646 27.0074 15.5709" stroke="white" stroke-width="1.5" stroke-miterlimit="10" stroke-linecap="round" stroke-linejoin="round"/>
<path d="M15.4365 7.82288C19.6995 7.82288 23.1843 11.3077 23.1843 15.5707" stroke="white" stroke-width="1.5" stroke-miterlimit="10" stroke-linecap="round" stroke-linejoin="round"/>
</svg>
