<svg width="54" height="54" viewBox="0 0 54 54" fill="none" xmlns="http://www.w3.org/2000/svg">
<path d="M40.4751 32.9226C38.4597 32.9226 36.8201 34.5627 36.8201 36.5776C36.8201 38.593 38.4597 40.2326 40.4751 40.2326C42.49 40.2326 44.1301 38.593 44.1301 36.5776C44.1301 34.5627 42.49 32.9226 40.4751 32.9226ZM40.4751 37.6526C39.8821 37.6526 39.4001 37.1705 39.4001 36.5776C39.4001 35.9847 39.8821 35.5026 40.4751 35.5026C41.068 35.5026 41.5501 35.9847 41.5501 36.5776C41.5501 37.1705 41.068 37.6526 40.4751 37.6526Z" fill="white"/>
<path d="M40.125 17.7296H33.81C33.3349 17.7296 32.95 18.1149 32.95 18.5896V35.3596C32.95 35.8343 33.3349 36.2196 33.81 36.2196H34.7221C35.1478 36.2196 35.5249 35.913 35.5799 35.4908C35.9175 32.9047 37.9802 31.3009 40.4755 31.3009C42.9707 31.3009 45.0335 32.9048 45.371 35.4908C45.426 35.9131 45.8027 36.2196 46.2288 36.2196H47.14C47.6147 36.2196 48 35.8343 48 35.3596V26.9746C48 26.7725 47.929 26.5773 47.7996 26.4229L40.7846 18.0379C40.7038 17.9414 40.603 17.8638 40.489 17.8105C40.375 17.7573 40.2508 17.7296 40.125 17.7296ZM34.67 24.6096V20.3096C34.67 19.8349 35.0549 19.4496 35.53 19.4496H39.3183C39.5733 19.4496 39.8154 19.5631 39.9788 19.7592L43.562 24.0592C44.0285 24.6194 43.6304 25.4696 42.9011 25.4696H35.53C35.0549 25.4696 34.67 25.0848 34.67 24.6096ZM5.86 36.22H8.06207C8.48778 36.22 8.86488 35.9134 8.91989 35.4912C9.25743 32.9052 11.3202 31.3013 13.8154 31.3013C16.3107 31.3013 18.3734 32.9052 18.711 35.4912C18.766 35.9135 19.1427 36.22 19.5688 36.22H30.37C30.8448 36.22 31.23 35.8347 31.23 35.36V13.86C31.23 13.3853 30.8447 13 30.37 13H5.86C5.38482 13 5 13.3853 5 13.86V35.36C5 35.8348 5.38482 36.22 5.86 36.22Z" fill="white"/>
<path d="M13.815 32.9226C11.7996 32.9226 10.16 34.5627 10.16 36.5776C10.16 38.593 11.7996 40.2326 13.815 40.2326C15.8299 40.2326 17.47 38.593 17.47 36.5776C17.47 34.5627 15.8299 32.9226 13.815 32.9226ZM13.815 37.6526C13.222 37.6526 12.74 37.1705 12.74 36.5776C12.74 35.9847 13.222 35.5026 13.815 35.5026C14.4079 35.5026 14.89 35.9847 14.89 36.5776C14.89 37.1705 14.4079 37.6526 13.815 37.6526Z" fill="white"/>
</svg>
