<svg width="54" height="54" viewBox="0 0 54 54" fill="none" xmlns="http://www.w3.org/2000/svg">
<path opacity="0.97" fill-rule="evenodd" clip-rule="evenodd" d="M28.0447 8.9759C26.6862 9.50415 24.8124 10.3967 23.8807 10.9588C22.9491 11.5209 21.5567 12.5722 20.7838 13.2956C20.0109 14.0164 19.0011 15.1926 18.5379 15.9082C18.072 16.6238 17.4891 17.9119 17.2393 18.7707C16.927 19.8532 16.8359 20.7718 16.9426 21.7632C17.0285 22.5491 17.4448 23.8971 17.8716 24.7558C18.2958 25.6145 19.2666 26.9703 20.0265 27.7666C20.7864 28.5628 21.9367 29.6688 22.5795 30.2205C23.3264 30.8606 23.4669 31.0532 22.9699 30.7513C22.5405 30.4911 21.4865 29.7833 20.6277 29.1796C19.7688 28.5759 18.6654 27.626 18.1735 27.0692C17.6843 26.5123 16.9816 25.4142 16.6121 24.6257C16.0473 23.4182 15.9432 22.8249 15.9432 20.8394C15.9432 18.651 16.0109 18.3439 16.8983 16.5458C17.45 15.4242 18.5457 13.8447 19.5008 12.7934L21.1481 10.9822C19.1312 12.1402 18.0772 12.796 17.5047 13.1889C16.9322 13.5792 15.7532 14.6435 14.884 15.5543C14.0122 16.4651 12.9998 17.735 12.6277 18.3803C12.2581 19.0257 11.7663 20.1967 11.5399 20.9826C11.3108 21.7684 11.1235 23.145 11.1261 24.0402C11.1287 25.0837 11.3343 26.2026 11.7012 27.1628C12.0829 28.1604 12.7552 29.1579 13.7181 30.1554C14.7695 31.2483 15.9042 32.042 17.8951 33.0777C19.3993 33.861 20.5678 34.5063 20.4975 34.5115C20.4273 34.5167 19.722 34.3034 18.9361 34.0353C18.1501 33.7673 16.8593 33.2208 16.0733 32.8201C15.2874 32.4193 13.9654 31.4383 13.1378 30.6368C12.2581 29.7833 11.3967 28.6409 11.061 27.8785C10.5822 26.7907 10.4911 26.1089 10.4963 23.7149C10.5015 21.4093 10.6134 20.574 11.0662 19.4212C11.3759 18.6354 11.9771 17.4644 12.4039 16.819C12.8307 16.1737 13.1274 15.6194 13.0649 15.583C13.0024 15.5465 12.4247 15.9577 11.7845 16.4937C11.1417 17.0298 10.0877 18.1722 9.44228 19.0309C8.79426 19.8896 8.01873 21.2376 7.71424 22.0235C7.41235 22.8093 7.10526 24.2744 7.0324 25.2762C6.94131 26.5852 7.0376 27.574 7.38113 28.7892C7.64137 29.7208 8.27897 31.1234 8.79426 31.9119C9.31215 32.7004 10.3688 33.9104 11.1469 34.6052C11.925 35.3 13.3798 36.2602 14.3817 36.739C15.3837 37.2178 16.9061 37.7929 17.7649 38.0193C18.6238 38.2431 20.9373 38.7167 22.9048 39.0732C24.8723 39.4271 27.4487 40.0751 28.6302 40.5097C29.895 40.9755 31.8443 42.0189 33.3719 43.0468C34.8007 44.007 36.0577 44.8215 36.1696 44.858C36.2815 44.8944 36.3726 42.961 36.3752 40.5643C36.3752 38.1677 36.245 35.503 36.0863 34.6442C35.9301 33.7855 35.5762 32.6431 35.3055 32.1071C35.0323 31.571 34.4311 30.7513 33.9653 30.2855C33.4994 29.8197 31.8313 28.5602 30.2594 27.4881C28.6875 26.4134 26.9594 25.0967 26.4207 24.5606C25.882 24.0246 25.1872 23.0878 24.8775 22.4788C24.4819 21.7086 24.2763 20.7406 24.1982 19.2911C24.1071 17.6179 24.1956 16.9023 24.6459 15.648C24.9529 14.7893 25.7103 13.3841 26.327 12.5253C26.9438 11.6666 28.1956 10.2926 29.1117 9.47553C30.0277 8.65583 30.72 7.99226 30.6471 8.00007C30.5743 8.01048 29.4032 8.44765 28.0447 8.9759ZM28.6016 19.3562L26.1865 22.674C28.1306 24.6179 29.4578 25.6926 30.3869 26.3171C31.3186 26.9417 32.4897 27.7536 32.9893 28.1179L33.9002 28.7814C36.422 24.9562 37.2131 23.845 37.2834 23.845C37.3563 23.845 37.4083 28.5576 37.3979 34.319C37.3901 40.0803 37.4213 44.8085 37.463 44.8268C37.5072 44.845 39.394 44.9048 41.6529 44.9569C45.5931 45.0479 45.7674 45.0323 45.8663 44.5327C45.921 44.2465 46.2255 42.8985 46.5404 41.5401C47.0114 39.5078 47.0791 38.6751 46.9281 36.8561C46.8266 35.6409 46.4024 30.7227 45.986 25.9268C45.5671 21.1309 45.2261 16.9465 45.2235 16.6238L45.2209 16.0383H31.0193L28.6016 19.3562ZM14.1892 39.1201C13.6244 39.945 13.4891 40.4993 13.3616 42.5134L13.208 44.9204L22.9673 44.9386L25.9601 40.4966C24.547 40.4966 23.2301 40.3223 22.1215 40.1063C21.0102 39.8929 19.1078 39.4297 17.8925 39.081C16.6745 38.7323 15.4956 38.3758 15.2718 38.29C14.9959 38.1833 14.6498 38.4487 14.1892 39.1201Z" fill="white"/>
</svg>
