<svg width="35" height="36" viewBox="0 0 35 36" fill="none" xmlns="http://www.w3.org/2000/svg">
<path d="M34.3479 32.8214L26.1333 24.6084C28.5142 21.75 29.7015 18.0837 29.4481 14.3722C29.1947 10.6606 27.5201 7.18969 24.7728 4.68137C22.0255 2.17304 18.4169 0.820456 14.6977 0.904981C10.9785 0.989506 7.43504 2.50463 4.80449 5.13518C2.17395 7.76573 0.658817 11.3092 0.574292 15.0284C0.489768 18.7476 1.84235 22.3562 4.35068 25.1035C6.85901 27.8508 10.3299 29.5254 14.0415 29.7788C17.753 30.0322 21.4193 28.8449 24.2778 26.464L32.4907 34.6786C32.6127 34.8006 32.7574 34.8973 32.9168 34.9633C33.0761 35.0293 33.2469 35.0632 33.4193 35.0632C33.5918 35.0632 33.7625 35.0293 33.9219 34.9633C34.0812 34.8973 34.226 34.8006 34.3479 34.6786C34.4699 34.5567 34.5666 34.4119 34.6326 34.2526C34.6986 34.0932 34.7326 33.9225 34.7326 33.75C34.7326 33.5776 34.6986 33.4068 34.6326 33.2475C34.5666 33.0881 34.4699 32.9434 34.3479 32.8214ZM3.23182 15.375C3.23182 13.0387 3.92461 10.7549 5.22259 8.81234C6.52056 6.86978 8.36542 5.35574 10.5239 4.46168C12.6823 3.56762 15.0574 3.33369 17.3488 3.78948C19.6402 4.24527 21.745 5.3703 23.397 7.02231C25.049 8.67432 26.1741 10.7791 26.6299 13.0705C27.0856 15.3619 26.8517 17.737 25.9577 19.8955C25.0636 22.0539 23.5496 23.8988 21.607 25.1967C19.6644 26.4947 17.3806 27.1875 15.0443 27.1875C11.9125 27.184 8.90998 25.9384 6.69546 23.7239C4.48094 21.5094 3.23529 18.5068 3.23182 15.375Z" fill="white"/>
</svg>
