<svg width="54" height="54" viewBox="0 0 54 54" fill="none" xmlns="http://www.w3.org/2000/svg">
<path d="M49.6876 20.8612C49.5807 20.5498 49.2015 20.3076 48.885 20.3076H44.7731C44.4567 20.3076 44.0774 20.5498 43.9704 20.8612C43.8657 21.166 43.7875 21.4379 43.7355 21.6937L40.9888 14.0949C40.5358 12.8419 39.336 12 38.0037 12H16.9964C15.664 12 14.4645 12.8419 14.0112 14.0951L11.2645 21.6946C11.2124 21.4386 11.1341 21.1663 11.0294 20.8612C10.9224 20.5498 10.5431 20.3076 10.2267 20.3076H6.11484C5.79842 20.3076 5.41917 20.5498 5.31222 20.8612C4.89579 22.0736 4.89602 22.7677 5.31233 23.9802C5.41929 24.2916 5.79854 24.5338 6.11496 24.5338H10.2268C10.2307 24.5338 10.2348 24.5328 10.2388 24.5327L10.1768 24.7045C9.33835 24.9831 8.73299 25.7724 8.73299 26.7044V40.6334C8.73298 40.7664 8.75918 40.8982 8.8101 41.0212C8.86102 41.1441 8.93566 41.2558 9.02976 41.3499C9.12386 41.444 9.23558 41.5187 9.35853 41.5696C9.48148 41.6205 9.61326 41.6467 9.74634 41.6467H14.8464C15.1151 41.6467 15.3729 41.5399 15.5629 41.3499C15.753 41.1599 15.8597 40.9021 15.8597 40.6334V35.7004H39.1404V40.6334C39.1404 40.9021 39.2471 41.1599 39.4372 41.3499C39.6272 41.5399 39.8849 41.6467 40.1537 41.6467H45.2537C45.3868 41.6467 45.5186 41.6205 45.6415 41.5696C45.7645 41.5187 45.8762 41.444 45.9703 41.3499C46.0644 41.2558 46.1391 41.1441 46.19 41.0212C46.2409 40.8982 46.2671 40.7664 46.2671 40.6334V26.7044C46.2671 25.7726 45.6619 24.9834 44.8239 24.7046L44.7617 24.5327C44.7655 24.5328 44.7695 24.5337 44.7732 24.5337H48.8851C49.2017 24.5337 49.5808 24.2915 49.6877 23.9801C50.1041 22.7677 50.1038 22.0736 49.6876 20.8612ZM17.3845 15.7291H37.6129L40.8179 24.596H14.1795L17.3845 15.7291ZM17.9487 30.8424H13.6821C12.7667 30.8424 12.0247 30.1005 12.0247 29.1851C12.0247 28.2698 12.7665 27.5277 13.6821 27.5277H17.9487C18.864 27.5277 19.606 28.2697 19.606 29.1851C19.6061 30.1005 18.864 30.8424 17.9487 30.8424ZM41.3177 30.8424H37.0511C36.1358 30.8424 35.3937 30.1005 35.3937 29.1851C35.3937 28.2698 36.1358 27.5277 37.0511 27.5277H41.3177C42.2331 27.5277 42.975 28.2697 42.975 29.1851C42.975 30.1005 42.2331 30.8424 41.3177 30.8424Z" fill="white"/>
</svg>
