<svg width="54" height="54" viewBox="0 0 54 54" fill="none" xmlns="http://www.w3.org/2000/svg">
<path d="M43.9453 23.7237C43.1331 23.7237 42.3434 23.8212 41.5865 24.0039L37.5877 14.4066L41.0567 13.2504C41.8855 12.974 42.3335 12.0781 42.0571 11.2492C41.7808 10.4204 40.8854 9.97209 40.056 10.2487L34.8643 11.9838C34.0578 12.3199 33.6764 13.2461 34.0124 14.0526L35.0064 16.4382L21.1402 20.0433L19.7159 16.7206H21.9164C22.7901 16.7206 23.4984 16.0123 23.4984 15.1386C23.4984 14.2649 22.7901 13.5566 21.9164 13.5566H15.1382C14.2645 13.5566 13.5562 14.2649 13.5562 15.1386C13.5562 16.0123 14.2645 16.7206 15.1382 16.7206H16.2734L18.3798 21.6348L15.3136 25.2121C13.7827 24.2688 11.9812 23.7237 10.0548 23.7237C4.51058 23.7237 0 28.2342 0 33.7784C0 39.3226 4.51058 43.833 10.0547 43.833C15.0606 43.833 19.2234 40.1556 19.9844 35.3604H25.3053C25.5545 35.3604 25.8002 35.3015 26.0223 35.1886C26.2445 35.0756 26.4368 34.9118 26.5836 34.7104L36.7883 20.7152L38.667 25.224C35.8026 26.9978 33.8904 30.1687 33.8904 33.7783C33.8904 39.3225 38.4009 43.8329 43.945 43.8329C49.4892 43.8329 54 39.3226 54 33.7784C54 28.2342 49.4894 23.7237 43.9453 23.7237ZM10.0547 40.6691C6.25525 40.6691 3.16406 37.5779 3.16406 33.7784C3.16406 29.9789 6.25525 26.8878 10.0547 26.8878C11.1552 26.887 12.2397 27.1516 13.2162 27.6591L8.85347 32.7489C8.65652 32.9786 8.52957 33.26 8.48769 33.5597C8.44582 33.8593 8.49076 34.1647 8.6172 34.4396C8.74363 34.7145 8.94626 34.9474 9.20104 35.1106C9.45582 35.2738 9.75207 35.3606 10.0547 35.3605H16.7598C16.0429 38.3996 13.3097 40.6691 10.0547 40.6691ZM13.4944 32.1964L19.769 24.876L22.9062 32.1964H13.4944ZM25.6647 30.6005L22.4008 22.9847L33.2805 20.1559L25.6647 30.6005ZM43.9453 40.6691C40.1458 40.6691 37.0548 37.5779 37.0548 33.7785C37.0548 31.4866 38.1806 29.4536 39.9072 28.2003L42.4849 34.3869C42.8209 35.1935 43.7473 35.5748 44.5537 35.2388C45.3602 34.9027 45.7416 33.9766 45.4056 33.17L42.8264 26.9801C43.1962 26.919 43.5704 26.8881 43.9452 26.8878C47.7448 26.8878 50.8358 29.979 50.8358 33.7784C50.8358 37.5778 47.7448 40.6691 43.9453 40.6691Z" fill="white"/>
</svg>
