<svg width="54" height="54" viewBox="0 0 54 54" fill="none" xmlns="http://www.w3.org/2000/svg">
<path fill-rule="evenodd" clip-rule="evenodd" d="M30.8622 10.0375C28.9656 9.95229 28.9656 12.8437 30.8622 12.7561H32.8896L34.4016 16.6093H27.918C25.9494 16.6093 24.4122 18.0115 23.9214 19.8397C23.6022 21.0301 22.7214 20.9863 21.381 20.9863H19.032C17.6976 20.9863 17.0352 20.4055 15.9474 19.7587C14.988 19.1899 14.367 18.9559 12.9258 18.9559H6.954C6.64892 18.9553 6.34672 19.0149 6.06475 19.1314C5.78278 19.2478 5.52659 19.4189 5.3109 19.6346C5.0952 19.8504 4.92425 20.1066 4.80784 20.3886C4.69144 20.6706 4.63189 20.9728 4.6326 21.2779V23.2675C4.6326 24.0331 5.0196 24.7051 5.5638 25.1239C5.1726 25.3831 4.7916 25.6645 4.4262 25.9645C4.0386 26.2861 3.6762 26.6395 3.3198 26.9953C1.62 28.6951 3.9948 30.8983 5.2824 29.4955C7.2294 27.3775 9.8478 26.1397 12.7224 26.1397C15.3504 26.1397 17.8746 27.1831 19.7346 29.0431C20.9682 30.2797 21.8184 31.8169 22.284 33.4741C22.3968 33.8743 22.4712 34.3453 22.5366 34.7167L13.4598 34.7857C11.8326 34.7983 11.8326 37.4389 13.4376 37.4389H16.5252C15.9564 38.9887 14.472 40.1011 12.7224 40.1011C11.6484 40.1008 10.6184 39.674 9.85897 38.9145C9.09951 38.1551 8.67272 37.1251 8.6724 36.0511C8.67319 34.9773 9.10016 33.9477 9.85953 33.1884C10.6189 32.4291 11.6486 32.0023 12.7224 32.0017C13.7322 32.0017 14.6472 32.3791 15.3564 32.9923H20.0004C19.6065 32.0478 19.0321 31.1892 18.3096 30.4645C17.576 29.7305 16.705 29.1483 15.7463 28.751C14.7877 28.3537 13.7601 28.1492 12.7224 28.1491C8.3604 28.1491 4.8228 31.6897 4.8228 36.0511C4.8228 40.4137 8.3604 43.9507 12.7224 43.9507C16.6098 43.9507 19.8372 41.1385 20.4972 37.4389H27.7146C31.8522 37.4389 32.499 36.4081 33.6924 33.4987L37.4418 24.3589L42.1512 36.3511C42.8166 38.0425 45.351 37.0447 44.6856 35.3545L43.3638 32.0017C44.4367 32.0031 45.4652 32.4304 46.2232 33.1897C46.9813 33.949 47.4069 34.9782 47.4066 36.0511C47.4064 37.1251 46.9798 38.155 46.2204 38.9145C45.4611 39.674 44.4312 40.1008 43.3572 40.1011C42.7057 40.1011 42.0637 39.944 41.4859 39.643C40.9081 39.3419 40.4114 38.9059 40.0381 38.3719C39.6648 37.838 39.4258 37.2218 39.3415 36.5757C39.2572 35.9297 39.33 35.2728 39.5538 34.6609L37.869 30.3829C37.1059 31.1165 36.4989 31.9968 36.0844 32.9708C35.67 33.9448 35.4565 34.9925 35.457 36.0511C35.457 40.4137 38.9946 43.9507 43.3566 43.9507C47.7186 43.9507 51.2592 40.4137 51.2592 36.0511C51.2592 33.9583 50.4252 31.9483 48.9438 30.4645C47.4616 28.9831 45.4522 28.1504 43.3566 28.1491C42.8598 28.1491 42.372 28.2025 41.8998 28.2901L39.7752 22.8907H40.7976C41.8344 22.8907 42.453 22.5907 42.453 21.6121V17.8861C42.453 16.9087 41.8338 16.6087 40.7976 16.6087H40.1688C39.7093 16.6082 39.2554 16.7098 38.8398 16.906C38.4243 17.1022 38.0574 17.3882 37.7658 17.7433L35.082 10.8967C34.8294 10.2523 34.3224 10.0375 33.8136 10.0375H30.8622Z" fill="white"/>
</svg>
