<svg width="54" height="54" viewBox="0 0 54 54" fill="none" xmlns="http://www.w3.org/2000/svg">
<path d="M26.9264 30.3552H26.8922C24.9854 30.3552 23.4396 31.901 23.4396 33.8079V46.5475C23.4396 48.4543 24.9854 50.0001 26.8922 50.0001H26.9264C28.8332 50.0001 30.379 48.4543 30.379 46.5475V33.8079C30.379 31.901 28.8332 30.3552 26.9264 30.3552Z" fill="white"/>
<path d="M40.8456 7.89556H36.4128C36.0588 7.20647 35.3428 6.7339 34.5144 6.7339H32.4598C31.7886 6.7339 31.1651 6.41136 30.7528 5.88129C29.8624 4.73671 28.4717 4 26.9093 4C25.3469 4 23.9562 4.73671 23.0659 5.88129C22.6535 6.41136 22.0309 6.7339 21.3589 6.7339H19.3042C18.4758 6.7339 17.7598 7.20647 17.4058 7.89556H12.973C12.4357 7.89556 12 8.33129 12 8.86855C12 9.4058 12.4357 9.84154 12.973 9.84154H17.4058C17.7598 10.5306 18.4758 11.0032 19.3042 11.0032H21.3589C22.03 11.0032 22.6535 11.3257 23.0659 11.8558C23.9562 13.0004 25.3469 13.7371 26.9093 13.7371C28.4717 13.7371 29.8624 13.0004 30.7528 11.8558C31.1651 11.3257 31.7877 11.0032 32.4598 11.0032H34.5144C35.3428 11.0032 36.0588 10.5306 36.4128 9.84154H40.8456C41.3829 9.84154 41.8186 9.4058 41.8186 8.86855C41.8186 8.33129 41.3829 7.89556 40.8456 7.89556ZM26.9093 11.5656C25.4089 11.5656 24.1934 10.35 24.1934 8.84968C24.1934 7.34932 25.4089 6.13375 26.9093 6.13375C28.4097 6.13375 29.6252 7.34932 29.6252 8.84968C29.6252 10.35 28.4097 11.5656 26.9093 11.5656ZM38.0533 20.5283C37.5897 18.1367 35.4039 15.8232 33.0186 15.295C31.5703 14.994 29.6001 14.6993 26.9093 14.6939C24.2194 14.6984 22.2492 14.994 20.8 15.295C18.4147 15.8232 16.2289 18.1358 15.7653 20.5283C15.4742 21.9864 15.1139 26.0509 15.1436 28.7398C15.1139 31.4288 15.4742 35.4942 15.7653 36.9514C16.2289 39.3439 18.4147 41.6564 20.8 42.1847C21.128 42.253 21.4846 42.3204 21.8683 42.3851V33.8249C21.8683 31.0461 24.1296 28.7848 26.9084 28.7848C29.6872 28.7848 31.9485 31.0461 31.9485 33.8249V42.3851C32.3322 42.3204 32.6889 42.253 33.0168 42.1847C35.4021 41.6564 37.5879 39.3439 38.0515 36.9514C38.3426 35.4942 38.7029 31.4288 38.6732 28.7398C38.7029 26.0509 38.3426 21.9855 38.0515 20.5283H38.0533ZM21.2286 24.5972C21.1648 24.9251 20.8656 25.2423 20.5377 25.3151C20.3391 25.3564 20.0687 25.3968 19.6995 25.3977C19.3302 25.3977 19.0607 25.3564 18.8612 25.3151C18.5342 25.2423 18.2341 24.9251 18.1704 24.5972C18.1308 24.3969 18.085 23.5802 18.085 22.476C18.085 21.3719 18.1299 20.5543 18.1704 20.3549C18.2341 20.0269 18.5333 19.7098 18.8612 19.637C19.0598 19.5957 19.3302 19.5553 19.6995 19.5544C20.0687 19.5544 20.3382 19.5957 20.5377 19.637C20.8647 19.7098 21.1648 20.0269 21.2286 20.3549C21.2681 20.5552 21.3139 21.4348 21.3139 22.476C21.3139 23.5811 21.269 24.3978 21.2286 24.5972ZM35.6465 24.5972C35.5827 24.9251 35.2835 25.2423 34.9556 25.3151C34.757 25.3564 34.4866 25.3968 34.1173 25.3977C33.7481 25.3977 33.4786 25.3564 33.2791 25.3151C32.9521 25.2423 32.652 24.9251 32.5882 24.5972C32.5487 24.3969 32.5029 23.5802 32.5029 22.476C32.5029 21.3719 32.5478 20.5543 32.5882 20.3549C32.652 20.0269 32.9512 19.7098 33.2791 19.637C33.4777 19.5957 33.7481 19.5553 34.1173 19.5544C34.4866 19.5544 34.7561 19.5957 34.9556 19.637C35.2826 19.7098 35.5827 20.0269 35.6465 20.3549C35.686 20.5552 35.7318 21.4348 35.7318 22.476C35.7318 23.5811 35.6869 24.3978 35.6465 24.5972Z" fill="white"/>
</svg>
