<?xml version="1.0" standalone="no"?>
<!DOCTYPE svg PUBLIC "-//W3C//DTD SVG 20010904//EN"
 "http://www.w3.org/TR/2001/REC-SVG-20010904/DTD/svg10.dtd">
<svg version="1.0" xmlns="http://www.w3.org/2000/svg"
 width="1920.000000pt" height="1080.000000pt" viewBox="0 0 1920.000000 1080.000000"
 preserveAspectRatio="xMidYMid meet">

<g transform="translate(0.000000,1080.000000) scale(0.100000,-0.100000)"
fill="#000000" stroke="none">
<path d="M0 9657 l0 -1143 73 -28 c146 -57 487 -187 551 -212 27 -10 44 -20
39 -21 -10 -4 -135 40 -208 72 -16 7 -95 34 -175 60 -80 25 -167 55 -195 65
-27 10 -58 20 -67 24 -17 5 -18 -204 -18 -4234 l0 -4240 9600 0 9600 0 0 2855
c0 2542 -2 2855 -15 2855 -19 0 -55 20 -76 43 -21 22 -36 22 -44 -3 -3 -11
-10 -20 -14 -20 -4 0 -24 -23 -46 -51 -39 -51 -64 -67 -120 -76 -16 -2 -44 -8
-61 -14 -35 -11 -82 -6 -140 14 -22 7 -49 12 -60 11 -10 -2 -38 -6 -61 -10
-29 -4 -43 -3 -43 4 0 6 -6 9 -14 6 -9 -3 -12 -12 -9 -21 4 -11 2 -14 -6 -9
-8 6 -11 -3 -9 -30 1 -21 -3 -39 -9 -41 -6 -2 -30 -21 -54 -43 -44 -39 -44
-39 -56 -17 -39 75 -36 256 7 369 60 160 194 294 364 362 85 34 94 36 211 36
95 0 138 -5 187 -20 34 -11 64 -20 66 -20 1 0 2 580 2 1289 l0 1290 -29 20
c-16 12 -35 21 -41 21 -7 0 -24 12 -37 26 -17 19 -28 23 -35 16 -8 -8 -18 -6
-37 6 -31 20 -55 42 -45 42 3 0 1 6 -5 14 -7 8 -21 12 -32 9 -15 -4 -22 0 -26
15 -3 12 -29 37 -59 57 -29 20 -56 40 -59 45 -4 6 84 -48 193 -120 110 -71
203 -130 206 -130 3 0 6 455 6 1010 l0 1010 -9600 0 -9600 0 0 -1143z m18470
-236 c49 -25 152 -162 131 -175 -5 -3 -21 19 -36 49 -14 30 -41 66 -58 79 -32
24 -95 41 -131 37 -10 -2 -54 -38 -97 -82 -44 -43 -86 -79 -95 -79 -25 0 -74
-56 -74 -84 0 -14 -5 -26 -11 -26 -8 0 -10 17 -6 55 11 106 92 210 187 240 55
18 141 12 190 -14z m-82 -107 c29 -20 28 -30 -5 -60 -19 -17 -34 -23 -49 -20
-13 4 -26 2 -29 -4 -10 -16 -45 -12 -45 6 0 18 17 52 38 77 19 21 60 22 90 1z
m-4940 -291 c-4 -22 -22 -20 -26 1 -2 10 3 16 13 16 10 0 15 -7 13 -17z m-282
-335 c5 -16 1 -26 -15 -39 -39 -31 -82 1 -66 50 12 38 68 30 81 -11z m3351 6
c-3 -3 -12 -4 -19 -1 -8 3 -5 6 6 6 11 1 17 -2 13 -5z m-100 -30 c-3 -3 -12
-4 -19 -1 -8 3 -5 6 6 6 11 1 17 -2 13 -5z m-70 -20 c-3 -3 -12 -4 -19 -1 -8
3 -5 6 6 6 11 1 17 -2 13 -5z m-40 -10 c-3 -3 -12 -4 -19 -1 -8 3 -5 6 6 6 11
1 17 -2 13 -5z m-54 -11 c-7 -2 -21 -2 -30 0 -10 3 -4 5 12 5 17 0 24 -2 18
-5z m-83 -14 c-24 -10 -167 -32 -295 -45 -33 -4 -66 -11 -72 -17 -9 -6 -13 -6
-13 1 0 18 35 32 82 33 24 0 95 9 158 19 63 10 126 18 140 18 l25 1 -25 -10z
m-317 -66 c-7 -2 -19 -2 -25 0 -7 3 -2 5 12 5 14 0 19 -2 13 -5z m1145 -54 c3
-28 -16 -43 -42 -33 -38 14 -27 67 13 62 20 -2 27 -9 29 -29z m-3668 -84 c27
-14 61 -42 77 -62 15 -21 32 -41 37 -44 5 -4 -9 -10 -30 -13 -29 -5 -51 -2
-84 13 -69 32 -81 29 -74 -18 5 -32 2 -42 -16 -59 -13 -12 -36 -23 -51 -27
-16 -3 -42 -8 -59 -11 -16 -3 -30 -11 -30 -18 0 -11 -258 -264 -490 -482 -36
-33 -143 -134 -239 -225 -96 -90 -204 -191 -240 -224 -111 -102 -251 -248
-251 -262 0 -22 16 -15 28 12 11 25 13 25 41 11 16 -9 31 -21 33 -27 3 -9 9
-9 23 0 11 6 63 20 115 30 110 23 282 64 458 110 68 18 125 31 128 29 4 -5
-305 -89 -551 -151 -163 -40 -235 -73 -235 -105 1 -16 1 -16 14 0 7 10 25 22
41 28 34 13 45 2 45 -46 0 -45 -36 -54 -79 -20 -7 6 -28 9 -45 8 -36 -4 -60
17 -70 61 -6 24 -9 27 -22 16 -8 -7 -22 -26 -31 -43 -18 -36 -31 -46 -57 -46
-26 0 -134 -48 -173 -77 l-32 -24 -8 28 c-5 15 -8 56 -7 89 1 104 72 195 177
230 62 20 117 15 192 -20 l57 -26 19 24 c10 13 85 86 166 162 160 149 382 359
696 658 191 183 198 190 191 220 -14 61 -7 144 16 191 56 116 206 168 320 110z
m114 -151 c12 -4 16 -20 16 -54 0 -62 -14 -102 -34 -94 -8 3 -12 12 -9 19 2 8
-2 24 -11 37 -9 12 -16 33 -16 45 0 13 -6 23 -12 23 -16 1 22 30 38 30 7 0 19
-3 28 -6z m-12606 -59 c73 -27 130 -50 128 -52 -9 -9 -286 91 -286 103 0 3 6
4 13 1 7 -3 72 -26 145 -52z m177 -65 c13 -6 15 -9 5 -9 -8 0 -22 4 -30 9 -18
12 -2 12 25 0z m50 -28 c-3 -3 -11 0 -18 7 -9 10 -8 11 6 5 10 -3 15 -9 12
-12z m565 -3 c24 -11 53 -27 62 -36 16 -15 21 -15 55 0 100 42 148 51 258 51
91 -1 124 -5 191 -27 194 -64 333 -201 390 -384 24 -74 26 -95 22 -186 -4 -88
-10 -112 -38 -177 -19 -41 -35 -76 -36 -78 -1 -2 -31 18 -68 43 l-66 47 3 98
c3 91 2 97 -15 87 -15 -10 -28 -1 -86 61 -38 39 -76 72 -85 72 -9 0 -17 5 -17
11 0 5 -4 8 -9 5 -4 -3 -17 5 -29 17 -15 17 -20 34 -18 74 0 28 4 55 9 59 4 4
7 15 7 25 0 13 11 20 38 24 69 12 76 15 61 30 -8 7 -32 23 -54 36 -48 26 -159
34 -181 11 -17 -16 -18 -28 -4 -37 6 -3 10 -15 10 -26 0 -10 5 -19 10 -19 6 0
10 -8 10 -18 0 -10 6 -26 14 -37 19 -27 35 -110 25 -127 -5 -7 -6 -27 -3 -45
9 -50 -13 -130 -47 -173 -40 -50 -103 -73 -209 -79 -30 -2 -32 -4 -15 -12 20
-9 -40 -7 -127 6 -42 6 -46 1 -20 -29 16 -20 16 -20 -2 -6 -20 16 -40 22 -74
22 -35 0 -38 -9 -13 -43 25 -34 20 -48 -20 -53 -13 -2 -32 -6 -41 -10 -42 -14
-49 -15 -42 -5 3 6 -8 42 -25 79 -24 52 -35 94 -43 167 -7 67 -15 102 -26 111
-14 10 -10 16 9 14 4 -1 25 45 49 100 47 116 63 140 139 221 34 36 48 57 38
57 -8 0 -22 6 -29 13 -73 70 -141 61 -204 -25 -20 -29 -39 -46 -46 -42 -7 4
-8 3 -4 -4 4 -7 1 -12 -6 -12 -20 0 -39 -55 -24 -71 8 -9 8 -10 -1 -5 -7 4
-13 4 -13 -1 0 -4 -11 -21 -25 -37 -17 -20 -22 -33 -15 -40 14 -14 13 -29 -2
-20 -8 5 -9 2 -5 -10 4 -10 7 -23 7 -29 0 -7 4 -6 10 3 8 12 10 9 10 -13 0
-15 8 -40 17 -55 17 -26 17 -26 0 -13 -10 8 -30 35 -45 60 -22 38 -27 57 -27
121 0 63 5 85 27 127 19 37 23 54 15 62 -8 8 -5 11 12 11 13 0 37 10 54 23 84
60 219 76 307 36z m-505 -9 c13 -6 15 -9 5 -9 -8 0 -22 4 -30 9 -18 12 -2 12
25 0z m11952 -45 c-23 -22 -33 -18 -12 5 10 11 20 18 23 16 2 -3 -3 -12 -11
-21z m-11860 9 c-3 -3 -12 -4 -19 -1 -8 3 -5 6 6 6 11 1 17 -2 13 -5z m12083
-94 c-1 -13 -40 47 -40 61 0 35 15 27 27 -13 7 -24 13 -45 13 -48z m-125 40
c26 0 45 5 48 13 2 6 8 0 12 -15 4 -16 11 -26 16 -23 13 9 26 -25 39 -105 6
-41 18 -97 25 -125 7 -27 16 -72 19 -100 10 -77 -19 -37 -32 45 -22 147 -47
270 -54 270 -5 0 -8 -4 -8 -10 0 -16 -52 -11 -97 10 -24 10 -43 26 -43 34 0
16 23 28 28 15 2 -5 23 -9 47 -9z m-982 -11 c28 -44 -25 -95 -72 -69 -24 12
-29 58 -9 78 17 17 68 11 81 -9z m-10838 -59 c-26 -11 -35 -12 -35 -2 0 4 12
8 28 9 23 1 24 1 7 -7z m13926 -170 c35 -19 18 -80 -22 -80 -19 0 -49 25 -49
41 0 10 36 49 46 49 3 0 14 -5 25 -10z m-1701 -135 c27 -24 95 -144 86 -152
-3 -4 -6 -2 -6 4 0 6 -10 23 -22 38 l-21 27 -18 -23 -18 -24 6 23 c4 15 1 22
-10 22 -8 0 -18 7 -21 15 -3 9 -22 23 -41 31 -30 12 -43 12 -76 2 -49 -14 -58
-31 -36 -68 9 -15 16 -43 15 -63 -1 -33 -3 -34 -22 -24 -11 7 -27 20 -34 30
-16 21 -34 23 -26 2 4 -9 0 -15 -10 -15 -9 0 -18 -12 -22 -27 -4 -16 -13 -35
-20 -44 -7 -8 -15 -24 -18 -35 -2 -10 -7 -29 -11 -42 -7 -21 -9 -22 -26 -6
-61 55 -39 203 42 284 l34 33 12 -44 c14 -48 66 -119 79 -106 4 4 -2 35 -14
70 -40 111 -35 116 99 114 61 -2 82 -6 99 -22z m-12193 -117 c-3 -8 -6 -5 -6
6 -1 11 2 17 5 13 3 -3 4 -12 1 -19z m3641 -30 c15 -15 16 -45 2 -53 -6 -3
-19 -3 -30 0 -22 7 -28 50 -7 58 19 8 22 8 35 -5z m13190 -18 c25 -15 32 -27
32 -50 0 -58 -25 -87 -110 -129 -67 -33 -82 -37 -102 -27 -36 18 -34 57 7 131
52 93 105 116 173 75z m-16841 -12 c-3 -8 -6 -5 -6 6 -1 11 2 17 5 13 3 -3 4
-12 1 -19z m12323 -32 c0 -12 -5 -7 -19 24 -11 24 -11 24 3 6 9 -11 16 -24 16
-30z m3240 -31 c19 -19 32 -35 29 -35 -3 0 -20 16 -39 35 -19 19 -32 35 -29
35 3 0 20 -16 39 -35z m-15583 -7 c-3 -8 -6 -5 -6 6 -1 11 2 17 5 13 3 -3 4
-12 1 -19z m12352 -19 c9 -26 8 -30 -4 -25 -8 3 -15 1 -15 -4 0 -5 -7 -7 -16
-3 -13 5 -13 7 -2 14 10 7 10 9 1 9 -7 0 -13 9 -13 20 0 33 36 25 49 -11z
m3292 -26 c13 -16 12 -17 -3 -4 -10 7 -18 15 -18 17 0 8 8 3 21 -13z m-14532
-60 c47 -52 65 -83 42 -68 -6 3 -14 -1 -18 -10 -5 -8 -24 -26 -43 -39 l-34
-23 -63 40 c-35 21 -60 43 -57 49 3 5 13 7 21 4 8 -3 12 -2 9 3 -3 4 4 17 15
27 12 10 27 31 35 46 8 16 21 28 28 28 8 0 37 -26 65 -57z m14591 12 c13 -14
21 -25 18 -25 -2 0 -15 11 -28 25 -13 14 -21 25 -18 25 2 0 15 -11 28 -25z
m-3400 -31 c0 -39 -120 -114 -181 -114 -28 0 -76 22 -61 27 10 4 8 9 -7 20
-12 8 -21 25 -21 37 0 20 6 24 46 30 26 3 73 6 105 6 33 0 59 4 59 8 0 5 14 7
30 4 17 -2 30 -10 30 -18z m-11538 -29 c40 -8 82 -19 93 -24 11 -5 32 -13 48
-20 31 -12 35 -27 10 -34 -10 -3 2 -3 27 -2 33 2 53 -2 70 -15 25 -19 25 -19
5 -34 -11 -9 -54 -30 -95 -47 -79 -33 -241 -59 -292 -46 -25 7 -27 10 -16 27
7 11 19 20 27 20 12 0 12 3 3 12 -9 9 -16 8 -30 -5 -23 -21 -64 -22 -102 -2
-19 10 -27 20 -24 30 4 8 10 15 15 15 4 0 6 -7 3 -15 -8 -19 3 -19 21 -1 17
17 8 26 -48 50 -21 8 -50 25 -64 36 l-25 20 28 11 c106 42 218 50 346 24z
m-496 -82 c-7 -7 -56 44 -56 58 0 6 14 -3 30 -21 17 -18 28 -35 26 -37z
m11649 -8 c-37 -173 -94 -368 -95 -328 0 12 85 353 95 382 12 32 12 1 0 -54z
m-378 49 c-3 -3 -12 -4 -19 -1 -8 3 -5 6 6 6 11 1 17 -2 13 -5z m-11487 -7 c0
-2 -10 -12 -22 -23 l-23 -19 19 23 c18 21 26 27 26 19z m11395 -17 c-11 -5
-27 -9 -35 -9 -9 0 -8 4 5 9 11 5 27 9 35 9 9 0 8 -4 -5 -9z m-58 -16 c-3 -3
-12 -4 -19 -1 -8 3 -5 6 6 6 11 1 17 -2 13 -5z m-10050 -126 c203 -228 216
-243 112 -138 -96 98 -237 260 -226 260 3 0 54 -55 114 -122z m-1327 108 c0
-2 -8 -10 -17 -17 -16 -13 -17 -12 -4 4 13 16 21 21 21 13z m430 -40 c0 -34
-16 -41 -45 -22 -37 24 -32 46 10 46 30 0 35 -3 35 -24z m-460 0 c0 -2 -8 -10
-17 -17 -16 -13 -17 -12 -4 4 13 16 21 21 21 13z m426 -84 c-8 -15 -78 -180
-157 -367 -78 -187 -177 -424 -220 -527 -44 -103 -79 -192 -79 -198 0 -6 -4
-9 -9 -6 -10 6 -24 -30 -22 -54 2 -13 1 -13 -9 0 -9 12 -10 9 -6 -15 5 -24 4
-27 -5 -15 -9 12 -10 10 -5 -9 3 -15 -2 -34 -13 -50 -10 -14 -28 -46 -40 -69
-12 -24 -25 -41 -28 -38 -9 9 20 80 99 240 45 92 227 513 414 958 43 103 82
184 86 182 4 -3 2 -17 -6 -32z m3505 27 c39 -13 94 -62 115 -101 15 -28 19
-98 7 -98 -5 0 -17 12 -28 26 -80 102 -95 110 -95 53 0 -16 -5 -29 -12 -29 -7
0 -25 -7 -40 -14 -16 -8 -49 -18 -74 -22 -25 -3 -48 -13 -51 -20 -3 -8 -11
-14 -18 -14 -7 0 -18 -7 -25 -15 -22 -27 -30 -16 -30 40 0 140 125 236 251
194z m-3984 -61 c-3 -7 -5 -2 -5 12 0 14 2 19 5 13 2 -7 2 -19 0 -25z m16218
4 c-3 -3 -11 0 -18 7 -9 10 -8 11 6 5 10 -3 15 -9 12 -12z m-16294 -30 c-6
-11 -21 -29 -34 -39 -13 -10 -30 -32 -38 -48 -9 -17 -21 -29 -28 -27 -7 1 -10
-2 -7 -7 8 -12 -142 -157 -157 -153 -7 2 -9 1 -5 -3 7 -7 -29 -51 -94 -114
-75 -74 -230 -247 -237 -264 -11 -28 -179 -233 -250 -305 -37 -38 -59 -67 -53
-71 7 -4 8 -12 2 -21 -6 -8 -10 -10 -10 -5 0 6 -25 -37 -56 -94 -30 -57 -68
-118 -83 -135 -16 -17 -43 -47 -61 -66 -30 -33 -31 -34 -14 -5 10 17 24 37 31
46 20 24 70 152 78 200 4 24 16 67 26 94 20 53 24 75 12 75 -14 0 -116 -103
-158 -157 -21 -29 -40 -51 -42 -49 -7 7 177 271 202 288 5 4 6 8 1 8 -5 0 -18
-7 -28 -17 -20 -18 -25 -4 -6 15 9 9 9 12 0 12 -7 0 -12 4 -12 9 0 6 15 7 34
4 31 -5 44 2 128 65 154 117 309 256 592 531 148 144 271 260 273 257 3 -2 0
-13 -6 -24z m16382 -20 c26 -19 47 -36 47 -39 0 -7 -53 27 -90 59 -42 36 -23
27 43 -20z m-2342 14 c65 -14 166 -59 223 -99 22 -16 30 -17 36 -7 6 10 36 14
107 14 79 -1 107 -5 147 -23 43 -19 54 -20 85 -10 19 7 67 12 106 13 93 1 141
-23 172 -85 12 -24 20 -46 18 -48 -2 -1 -19 9 -37 23 -54 41 -101 56 -160 52
-29 -2 -59 1 -66 7 -7 5 -15 7 -18 5 -3 -3 18 -22 45 -42 28 -21 65 -56 83
-78 l32 -41 -44 29 c-25 16 -63 43 -85 60 -88 71 -195 106 -310 102 l-60 -2
52 -54 c29 -29 69 -80 89 -113 35 -57 59 -76 33 -27 -12 22 -11 23 8 5 23 -20
61 -91 68 -125 8 -45 16 -61 33 -65 9 -3 3 -5 -14 -6 -17 0 -33 -3 -36 -6 -3
-3 -1 -28 5 -55 5 -28 7 -53 4 -56 -3 -3 -37 0 -75 6 l-70 13 -8 60 c-5 33
-14 62 -20 64 -6 2 -31 -16 -55 -41 -55 -55 -125 -91 -207 -106 -75 -13 -108
-8 -158 26 -32 22 -37 23 -48 9 -7 -10 -33 -17 -81 -19 -38 -3 -77 -7 -85 -9
-25 -9 -74 -19 -104 -23 -16 -2 -35 -9 -42 -15 -8 -6 -14 -7 -14 -3 0 10 -63
10 -79 0 -12 -8 -63 3 -57 13 2 3 -10 7 -27 8 l-32 3 30 -26 30 -26 -40 23
c-29 17 -36 19 -27 7 8 -10 10 -23 6 -30 -12 -20 -12 -52 0 -61 6 -4 -1 -5
-16 -1 -24 5 -28 3 -29 -17 0 -13 -3 -18 -6 -11 -2 6 -12 12 -20 12 -14 0 -14
-2 -1 -17 45 -53 32 -55 -24 -5 l-42 37 22 -38 c12 -21 22 -43 22 -50 0 -6 22
-57 49 -113 58 -117 100 -161 216 -221 41 -21 72 -39 70 -41 -6 -7 -139 67
-189 106 -54 41 -135 149 -171 229 -13 28 -32 88 -41 134 -26 131 -5 304 45
362 13 16 13 19 1 27 -8 6 -25 10 -38 10 l-23 0 23 30 c23 32 55 39 64 15 4
-8 10 -12 15 -9 11 7 55 106 51 117 -1 5 2 6 7 3 5 -4 15 0 23 7 84 83 228
165 333 191 78 19 222 19 306 2z m-12570 -23 c13 -16 12 -17 -3 -4 -10 7 -18
15 -18 17 0 8 8 3 21 -13z m6489 -17 c20 -26 8 -61 -22 -64 -22 -3 -29 2 -34
22 -11 44 29 74 56 42z m-6445 -16 c10 -11 16 -20 13 -20 -3 0 -13 9 -23 20
-10 11 -16 20 -13 20 3 0 13 -9 23 -20z m14985 -46 c0 -3 -13 4 -30 16 -16 12
-30 24 -30 26 0 3 14 -4 30 -16 17 -12 30 -24 30 -26z m-14929 -1 c13 -16 12
-17 -3 -4 -10 7 -18 15 -18 17 0 8 8 3 21 -13z m-1591 1 c0 -4 -40 -48 -89
-98 -75 -77 -230 -246 -470 -511 -68 -75 -46 -43 34 50 114 133 512 563 523
565 1 0 2 -3 2 -6z m3945 -14 c-3 -5 -12 -10 -18 -10 -7 0 -6 4 3 10 19 12 23
12 15 0z m6851 -20 c31 0 35 -9 18 -42 -11 -21 -19 -27 -26 -20 -6 6 -17 8
-24 5 -8 -3 -14 1 -14 8 0 7 3 10 6 6 3 -3 12 0 19 6 10 10 7 18 -19 40 -22
20 -24 24 -6 13 13 -9 34 -16 46 -16z m5755 13 c13 -16 12 -17 -3 -4 -17 13
-22 21 -14 21 2 0 10 -8 17 -17z m-14861 -60 c0 -7 -56 35 -71 54 -8 9 5 2 29
-17 23 -18 42 -35 42 -37z m2511 27 c10 -6 19 -15 19 -20 0 -17 -25 -11 -38
10 -14 22 -9 25 19 10z m5760 -2 c55 -16 112 -68 143 -131 33 -68 34 -88 2
-58 -17 16 -31 21 -46 16 -27 -8 -64 15 -82 52 -7 16 -23 29 -36 31 -19 3 -22
-1 -22 -29 0 -44 -62 -104 -92 -88 -15 8 -24 7 -39 -7 -10 -9 -22 -15 -25 -11
-10 10 -53 -44 -47 -59 3 -8 0 -14 -6 -14 -18 0 -31 37 -31 91 0 95 55 172
147 205 47 16 85 17 134 2z m2852 0 c9 -5 17 -18 17 -28 0 -18 -7 -20 -61 -20
l-61 0 7 -30 c8 -35 -5 -39 -32 -12 -10 11 -26 22 -35 25 -12 4 -18 17 -18 38
0 27 2 30 15 19 12 -10 21 -9 48 4 33 17 89 19 120 4z m-8633 -39 c7 -11 9
-23 6 -26 -7 -7 -46 26 -46 39 0 17 30 7 40 -13z m6544 -20 c31 -12 56 -25 56
-28 0 -13 -75 -79 -110 -96 -19 -10 -62 -20 -96 -23 l-62 -5 2 47 c1 39 3 44
13 29 12 -16 15 -15 33 5 12 12 25 22 30 22 6 0 10 10 10 23 0 51 37 59 124
26z m-6588 -10 c18 -20 18 -21 -1 -32 -63 -38 -155 -50 -155 -21 0 35 20 54
58 54 20 0 44 5 52 10 21 14 24 13 46 -11z m6364 -69 c0 -11 -2 -20 -4 -20 -2
0 -6 9 -9 20 -3 11 -1 20 4 20 5 0 9 -9 9 -20z m-56 -15 c-4 -8 -14 -15 -23
-15 -14 1 -13 3 3 15 25 19 27 19 20 0z m-7669 -55 c16 -6 37 -18 46 -26 26
-23 185 -75 235 -76 l46 -1 -28 -22 -27 -22 43 -66 c38 -57 47 -66 67 -61 40
10 25 -11 -32 -47 -37 -22 -57 -43 -61 -59 -12 -54 -28 -81 -59 -100 -65 -40
-167 -13 -227 61 -17 21 -35 36 -39 33 -5 -3 -9 3 -9 12 0 10 -3 14 -7 11 -3
-4 -12 1 -20 11 -12 16 -13 16 -6 -2 5 -16 3 -18 -11 -13 -9 4 -15 3 -11 -2 3
-5 1 -12 -4 -16 -5 -3 -8 -14 -6 -25 2 -11 -1 -20 -6 -20 -6 0 -7 -5 -3 -12 4
-7 3 -8 -5 -4 -7 4 -19 -2 -30 -15 -16 -21 -22 -22 -45 -11 -26 12 -32 6 -26
-23 1 -5 -9 -1 -22 10 -48 43 -62 48 -28 10 19 -22 39 -43 45 -47 5 -4 7 -10
3 -13 -3 -3 -60 48 -127 115 l-121 120 0 50 c0 98 65 185 178 237 29 14 74 28
100 32 53 7 152 -2 197 -19z m7281 -11 c3 -6 1 -16 -5 -22 -9 -9 -14 -8 -21 3
-5 8 -10 12 -11 8 -1 -5 -2 -11 -3 -15 -1 -5 -12 -24 -25 -43 l-23 -35 5 30
c11 61 25 85 51 85 14 0 28 -5 32 -11z m6745 -36 c13 -16 12 -17 -3 -4 -17 13
-22 21 -14 21 2 0 10 -8 17 -17z m-3587 -15 c-8 -13 -74 -41 -81 -34 -3 2 9
12 26 21 17 8 31 20 31 25 0 5 7 7 15 4 8 -4 12 -11 9 -16z m49 15 c-7 -2 -19
-2 -25 0 -7 3 -2 5 12 5 14 0 19 -2 13 -5z m-2816 -45 c-3 -7 -5 -2 -5 12 0
14 2 19 5 13 2 -7 2 -19 0 -25z m6801 -26 c2 -7 -2 -12 -8 -12 -12 0 -40 24
-40 34 0 10 44 -11 48 -22z m-7483 -21 c38 -42 73 -58 81 -36 3 7 1 23 -6 34
-6 12 -7 21 -2 21 5 0 15 -11 22 -25 11 -20 11 -27 0 -40 -21 -25 -50 -17 -92
25 l-40 39 -31 -22 c-36 -25 -123 -93 -249 -196 -49 -39 -88 -69 -88 -66 0 2
68 61 152 132 83 70 163 138 177 150 14 12 29 23 34 23 4 0 23 -17 42 -39z
m7150 -21 c11 -18 -12 -10 -30 10 -14 15 -20 17 -26 8 -4 -7 -12 -9 -16 -4 -4
5 -2 11 5 13 6 3 9 10 5 16 -4 6 8 1 25 -11 17 -13 34 -27 37 -32z m-2103 -35
c16 -14 26 -25 22 -25 -4 0 5 -15 21 -32 17 -18 3 -8 -30 22 -33 30 -62 56
-64 58 -2 1 1 2 8 2 7 0 26 -11 43 -25z m-6542 -90 c19 -23 8 -50 -20 -50 -16
0 -26 6 -28 18 -4 18 14 47 28 47 4 0 13 -7 20 -15z m1903 -17 c-10 -53 -22
-68 -23 -27 0 28 14 59 27 59 1 0 0 -15 -4 -32z m-6407 -4 c-3 -9 -6 -22 -6
-30 0 -8 -13 -28 -30 -44 -34 -33 -40 -76 -12 -83 14 -4 14 -5 -3 -6 -26 -1
-167 37 -178 48 -16 16 97 88 188 119 43 14 48 14 41 -4z m10793 -9 c12 -12
11 -26 -8 -101 l-22 -87 23 -24 c22 -25 22 -24 -27 3 -28 16 -68 38 -89 49
-24 12 -33 21 -24 25 7 3 14 14 15 25 1 11 5 42 9 69 5 36 3 50 -7 58 -9 6 9
7 51 3 36 -4 71 -13 79 -20z m485 13 c-5 -8 -2 -9 9 -5 17 6 40 -11 57 -44 13
-23 -5 -26 -34 -4 -11 8 -29 12 -43 9 -14 -4 -23 -2 -23 6 0 18 20 50 31 50 6
0 7 -5 3 -12z m161 -19 c45 -24 80 -57 71 -67 -15 -14 -88 24 -108 56 -23 38
-17 40 37 11z m-11336 -40 c50 -21 86 -59 97 -103 3 -14 10 -29 15 -32 16 -9
11 -134 -5 -140 -17 -7 -76 22 -76 38 0 6 14 33 31 61 33 55 32 82 -4 73 -12
-3 -27 -2 -33 2 -16 10 -34 48 -34 71 0 14 -9 23 -25 27 -14 3 -25 10 -25 15
0 13 5 12 59 -12z m-1424 -154 c76 -73 79 -83 8 -24 -35 30 -78 30 -69 0 6
-18 -10 -49 -20 -39 -3 4 -6 28 -6 53 1 56 -11 91 -46 130 -35 39 21 -12 133
-120z m-3535 95 c0 -5 -4 -10 -10 -10 -5 0 -10 5 -10 10 0 6 5 10 10 10 6 0
10 -4 10 -10z m10440 6 c0 -2 -8 -10 -17 -17 -16 -13 -17 -12 -4 4 13 16 21
21 21 13z m-9981 -23 c-60 -72 -79 -93 -79 -86 0 10 79 103 87 103 4 0 0 -8
-8 -17z m15308 1 c-3 -3 -12 -4 -19 -1 -8 3 -5 6 6 6 11 1 17 -2 13 -5z
m-11110 -57 c2 -3 -8 -31 -22 -63 l-26 -59 -16 29 c-9 18 -13 42 -10 63 5 29
4 33 -8 23 -8 -7 -15 -9 -15 -5 0 19 35 32 63 24 16 -5 32 -10 34 -12z m10886
-55 c15 -6 27 -17 27 -23 0 -23 -104 -141 -178 -200 -133 -107 -251 -145 -421
-136 -53 2 -105 8 -116 13 -19 8 -19 8 5 15 l25 7 -27 1 c-16 1 -28 6 -28 12
0 8 8 9 23 3 32 -12 178 -9 248 6 33 7 85 28 116 47 61 36 139 73 156 73 15 0
57 41 57 55 0 6 11 22 25 35 28 26 33 45 10 36 -24 -9 -17 11 12 33 l26 21
-24 27 -24 27 30 -20 c17 -11 42 -25 58 -32z m731 32 c3 -8 2 -12 -4 -9 -6 3
-10 10 -10 16 0 14 7 11 14 -7z m20 -40 c3 -8 2 -12 -4 -9 -6 3 -10 10 -10 16
0 14 7 11 14 -7z m99 -142 c60 -81 116 -143 92 -102 -5 8 -23 33 -40 55 -41
51 -59 85 -45 85 5 0 10 -4 10 -9 0 -5 19 -33 43 -61 23 -29 53 -68 67 -86 14
-18 63 -79 109 -134 46 -56 74 -97 63 -91 -12 6 -38 31 -58 56 -21 24 -41 42
-45 39 -12 -7 -279 305 -279 325 0 26 22 5 83 -77z m-12 66 c11 -21 11 -22 -4
-9 -10 7 -17 17 -17 22 0 15 9 10 21 -13z m273 -70 c19 -37 37 -62 39 -55 5
14 8 8 30 -73 9 -30 25 -87 36 -127 19 -64 28 -120 14 -85 -2 6 -11 12 -19 12
-8 0 -16 6 -19 13 -2 6 -36 97 -74 201 -39 104 -71 194 -71 200 0 20 29 -19
64 -86z m-16409 72 c3 -5 1 -10 -4 -10 -6 0 -11 5 -11 10 0 6 2 10 4 10 3 0 8
-4 11 -10z m-154 -43 c-8 -8 -11 -7 -11 4 0 20 13 34 18 19 3 -7 -1 -17 -7
-23z m4909 13 c8 -15 8 -30 -1 -55 -7 -19 -16 -35 -20 -35 -13 0 -21 41 -14
76 7 39 19 43 35 14z m-140 -45 c15 -18 50 -20 50 -3 0 25 32 -20 41 -58 35
-145 37 -163 19 -152 -9 6 -25 36 -36 66 l-19 57 -45 -3 c-62 -4 -100 11 -100
41 0 53 60 88 90 52z m5988 3 c20 -20 14 -45 -22 -82 -38 -41 -51 -44 -66 -16
-13 24 -7 49 21 84 22 28 48 33 67 14z m-10814 -38 c-10 -16 -20 -28 -22 -26
-4 5 28 56 35 56 2 0 -4 -13 -13 -30z m856 12 c0 -10 -3 -22 -7 -26 -5 -4 -8
-11 -8 -14 -1 -4 -4 -18 -8 -32 -30 -101 -30 -100 -56 -101 -21 0 -15 -5 28
-25 58 -26 59 -27 29 -104 -20 -54 -24 -57 -75 -64 -69 -9 -80 -19 -54 -45 28
-28 34 -27 76 10 20 18 38 30 40 27 2 -2 -18 -23 -44 -46 -35 -29 -51 -37 -54
-28 -3 7 -17 14 -31 14 -28 0 -35 -15 -11 -24 8 -4 15 -11 15 -17 0 -6 -11 0
-25 13 -37 35 -69 141 -62 206 5 50 11 66 48 135 18 33 74 82 130 114 52 30
69 31 69 7z m6550 9 c0 -6 -4 -12 -9 -16 -5 -3 -12 -18 -16 -34 -8 -38 -31
-47 -46 -19 -9 17 -9 23 0 26 6 2 11 10 11 17 0 15 27 34 48 35 6 0 12 -4 12
-9z m-6447 -26 c-3 -9 -8 -14 -10 -11 -3 3 -2 9 2 15 9 16 15 13 8 -4z m89 -2
c10 -9 18 -23 18 -32 0 -13 -4 -12 -18 5 -9 12 -26 26 -37 32 -19 11 -19 11
-1 12 11 0 28 -7 38 -17z m5411 3 c45 -19 123 -106 136 -152 6 -22 11 -56 11
-76 0 -33 -3 -38 -22 -38 -13 0 -29 4 -36 8 -14 9 -52 80 -52 97 0 17 -40 50
-89 74 -51 24 -51 24 -51 12 0 -5 9 -11 19 -14 28 -7 54 -52 47 -82 -10 -40
-103 -75 -121 -45 -6 10 -34 8 -76 -5 -14 -5 -19 -3 -15 3 3 6 1 14 -6 18 -7
4 -10 3 -5 -1 4 -5 -5 -15 -20 -22 -16 -7 -21 -11 -12 -9 34 9 38 -10 4 -23
-33 -12 -37 -11 -54 11 -17 21 -18 25 -4 40 8 9 20 36 27 60 9 29 22 48 41 58
21 12 29 12 32 3 3 -7 9 -13 14 -13 5 0 0 19 -12 42 -17 34 -18 40 -5 29 14
-12 19 -11 34 2 10 9 29 20 42 26 37 14 136 13 173 -3z m11119 -31 c64 -22 85
-35 121 -75 41 -46 94 -156 81 -169 -3 -3 -13 4 -22 16 -10 11 -30 37 -45 57
-40 52 -142 123 -202 142 -47 15 -54 15 -110 -3 -50 -16 -62 -25 -70 -49 -5
-16 -20 -40 -32 -53 -21 -23 -21 -25 -5 -37 9 -7 19 -11 23 -9 10 7 7 -29 -3
-42 -8 -10 -20 -4 -50 21 -36 31 -42 33 -81 25 -82 -18 -97 -36 -81 -94 5 -19
13 -20 117 -19 l112 2 -100 -8 c-55 -4 -122 -11 -149 -15 -40 -6 -48 -5 -43 6
3 8 16 39 29 70 47 110 97 186 138 204 21 9 43 28 49 42 l12 26 117 -6 c91 -4
134 -11 194 -32z m-16374 -260 l5 -70 -44 36 c-81 67 -92 112 -52 206 l16 38
34 -70 c26 -52 36 -88 41 -140z m2688 157 c-4 -3 -14 2 -24 12 -16 18 -16 18
6 6 13 -6 21 -14 18 -18z m5884 -37 c-7 -9 -32 -30 -54 -47 -35 -26 -34 -24 9
15 52 48 67 58 45 32z m-3143 -47 c-3 -8 -6 -5 -6 6 -1 11 2 17 5 13 3 -3 4
-12 1 -19z m3372 -87 c164 -97 653 -351 678 -351 6 0 26 20 44 45 74 102 201
180 328 200 50 8 61 -2 60 -50 -1 -29 -1 -29 -8 -5 -8 27 -21 28 -76 8 -52
-18 -155 -70 -166 -85 -6 -7 -24 -13 -39 -13 -22 0 -39 -13 -74 -52 -25 -29
-46 -61 -46 -70 0 -10 -4 -18 -8 -18 -12 0 -44 -89 -52 -145 l-7 -50 -2 46 c0
25 6 68 14 95 17 57 18 67 7 60 -5 -3 -18 3 -29 13 -11 11 -98 59 -194 109
-96 49 -194 101 -219 114 -25 14 -103 56 -175 93 -142 75 -185 101 -185 116 0
21 39 5 149 -60z m7611 39 c0 -6 10 -14 22 -19 17 -6 4 -10 -51 -15 -40 -4
-75 -5 -79 -2 -3 3 4 6 16 6 12 0 26 9 32 20 11 21 60 29 60 10z m-11050 -25
c43 -22 38 -48 -21 -110 -62 -66 -118 -91 -186 -81 -26 3 -51 10 -56 15 -11
11 39 61 61 61 8 0 37 12 65 26 36 18 61 24 81 20 29 -6 29 -6 11 15 -15 16
-16 22 -6 28 9 6 10 11 2 15 -16 10 -13 26 4 26 9 0 29 -7 45 -15z m-2700 -37
c-81 -73 -166 -142 -135 -110 34 36 167 151 175 151 3 0 -15 -18 -40 -41z
m2276 32 c15 -6 24 -13 21 -16 -3 -3 -14 -1 -25 5 -15 8 -22 8 -25 -2 -3 -7
-6 -5 -6 6 -1 20 -1 20 35 7z m10444 1 c0 -5 7 -12 16 -15 8 -3 12 -2 9 4 -9
14 6 12 35 -5 14 -8 36 -14 48 -15 15 0 26 -7 29 -20 4 -14 11 -18 27 -14 17
4 24 -1 33 -27 7 -18 10 -36 7 -40 -10 -16 -46 -9 -51 10 -2 10 -17 24 -31 31
-22 11 -24 14 -9 17 26 7 20 20 -14 32 -43 15 -57 14 -34 -2 10 -8 15 -19 11
-25 -3 -6 5 -23 19 -38 26 -28 34 -50 13 -38 -10 6 -10 4 0 -7 6 -7 12 -20 12
-28 -1 -12 -6 -10 -20 8 -15 17 -17 27 -10 36 8 10 -2 24 -41 58 -28 25 -58
43 -65 40 -8 -3 -14 0 -14 7 0 6 5 8 11 4 8 -4 9 0 4 15 -4 12 -2 21 4 21 6 0
11 -4 11 -9z m-15434 -92 c21 -22 24 -31 15 -47 -14 -26 -61 -63 -71 -57 -19
12 -71 85 -56 79 9 -3 16 -10 16 -16 0 -14 43 1 58 20 10 13 7 21 -20 50 l-33
35 33 -19 c18 -10 44 -31 58 -45z m5111 -31 c-3 -7 -5 -2 -5 12 0 14 2 19 5
13 2 -7 2 -19 0 -25z m10399 -5 c-7 -7 -26 7 -26 19 0 6 6 6 15 -2 9 -7 13
-15 11 -17z m-16 -42 c-1 -10 -6 -7 -15 9 -19 33 -18 50 0 26 8 -11 15 -27 15
-35z m-5397 24 c57 -17 65 -21 87 -49 14 -18 14 -19 -9 -7 -13 7 -33 15 -45
17 -78 14 -92 18 -98 28 -20 30 -7 32 65 11z m-10483 -10 c-7 -9 -15 -13 -19
-10 -3 3 1 10 9 15 21 14 24 12 10 -5z m140 -26 c0 -6 -4 -7 -10 -4 -5 3 -10
11 -10 16 0 6 5 7 10 4 6 -3 10 -11 10 -16z m5347 -1 c-3 -8 -6 -5 -6 6 -1 11
2 17 5 13 3 -3 4 -12 1 -19z m-2567 -2 c0 -2 -8 -10 -17 -17 -16 -13 -17 -12
-4 4 13 16 21 21 21 13z m-2970 -59 l-34 -32 30 36 c16 20 31 34 33 32 3 -2
-10 -18 -29 -36z m193 -8 c-6 -6 -7 3 -4 23 4 28 6 29 9 9 2 -13 0 -27 -5 -32z
m5332 11 c-4 -17 -9 -30 -11 -27 -2 2 -1 18 2 36 4 17 9 30 11 27 3 -2 2 -19
-2 -36z m5210 -10 c3 -5 1 -10 -4 -10 -6 0 -11 4 -11 10 0 5 -11 12 -25 16
-14 3 -25 10 -25 15 0 11 56 -16 65 -31z m-6984 -62 c73 -82 75 -86 21 -33
-35 33 -65 59 -67 58 -3 -2 -5 0 -6 5 -2 16 -20 42 -30 42 -6 0 -7 -6 -3 -12
4 -7 3 -9 -1 -5 -12 10 -15 37 -5 37 4 0 45 -42 91 -92z m7078 2 l-2 -89 46
-47 c26 -26 63 -80 82 -120 31 -63 36 -84 37 -144 0 -39 -1 -73 -3 -74 -2 -2
-28 5 -56 16 -58 21 -60 25 -67 121 -2 32 -11 67 -20 80 -16 21 -17 19 -12
-45 4 -52 2 -71 -10 -83 -19 -19 -31 -19 -41 -1 -4 7 -18 19 -31 25 -31 16
-82 98 -75 119 13 37 46 62 82 62 l36 1 -24 19 c-13 11 -31 20 -40 20 -9 0
-22 5 -28 11 -17 17 -153 25 -153 9 0 -7 -6 -10 -14 -7 -8 3 -20 -1 -27 -9
-10 -12 -6 -21 23 -52 48 -49 58 -72 58 -126 0 -61 -33 -110 -85 -126 -22 -7
-49 -22 -61 -34 -75 -75 -106 -90 -132 -64 -15 15 -16 1 -1 -41 12 -35 35 -51
72 -51 14 0 30 -6 36 -14 11 -13 15 -12 32 2 47 40 212 57 281 27 33 -13 36
-13 55 8 11 12 28 34 37 49 l17 26 24 -24 c13 -13 34 -24 47 -24 22 1 22 1 -5
22 -35 26 -52 65 -36 84 9 11 17 10 48 -6 58 -29 65 -42 44 -84 -9 -20 -19
-36 -22 -36 -3 0 -39 -31 -78 -69 -143 -136 -281 -150 -455 -48 -57 33 -134
110 -161 162 -19 34 -22 57 -22 145 0 92 3 111 25 155 27 54 164 200 179 190
5 -3 12 -19 16 -35 4 -17 10 -30 15 -30 5 0 16 -3 24 -6 14 -5 16 2 14 52 l-3
58 58 9 c70 10 147 -4 212 -39 25 -13 48 -24 51 -24 2 0 4 38 4 85 0 47 3 85
6 85 3 0 4 -40 3 -90z m-10656 20 c8 0 7 -4 -1 -12 -9 -9 -16 -8 -30 6 -16 18
-16 19 1 12 10 -3 24 -6 30 -6z m-213 -3 c0 -2 -10 -12 -22 -23 l-23 -19 19
23 c18 21 26 27 26 19z m5530 -84 c-11 -17 -11 -17 -6 0 3 10 7 26 7 35 1 15
2 15 6 0 2 -10 -1 -25 -7 -35z m10241 -37 c-12 -25 -21 -49 -21 -54 0 -4 -7
-17 -16 -28 -15 -19 -15 -18 -9 3 8 29 -12 39 -36 17 -18 -16 -19 -16 -13 -1
9 23 -9 21 -31 -3 -17 -19 -12 -26 18 -21 9 1 9 -3 -3 -33 -7 -20 -6 -24 5
-20 25 10 -3 -52 -31 -71 -27 -18 -46 -12 -37 10 3 8 1 15 -5 15 -6 0 -15 13
-20 29 -10 27 -6 33 55 100 36 40 68 69 71 66 3 -3 14 3 26 12 18 17 18 15 -3
-19 -12 -21 -19 -38 -15 -38 11 0 44 42 62 80 11 24 18 30 20 18 2 -9 -6 -37
-17 -62z m140 5 c17 9 22 5 35 -26 11 -26 12 -41 4 -56 -6 -11 -15 -17 -21
-14 -5 4 -9 -1 -9 -9 0 -9 -4 -16 -10 -16 -15 0 -12 -36 5 -50 9 -8 13 -21 9
-36 -4 -17 -2 -24 9 -24 12 0 13 -8 3 -57 -11 -57 -13 -59 -65 -85 -67 -34
-104 -35 -156 -3 -24 15 -33 25 -22 25 11 0 17 8 17 21 0 19 -4 21 -36 16 -31
-5 -35 -4 -29 11 3 9 9 30 12 45 7 35 92 130 142 158 40 22 71 64 71 96 0 28
14 39 18 14 3 -17 7 -19 23 -10z m-8426 -10 c47 -21 97 -76 93 -100 -5 -25
-106 -16 -135 12 -13 11 -23 16 -23 10 0 -6 -16 -14 -35 -17 -19 -4 -34 -10
-34 -14 3 -21 -3 -30 -26 -36 -14 -4 -25 -13 -25 -21 0 -33 -17 -12 -18 23 -1
25 -8 41 -22 51 -29 20 -25 36 17 63 81 51 142 59 208 29z m-7085 -12 c16 -30
8 -31 -13 -3 -10 13 -13 24 -8 24 6 0 15 -9 21 -21z m17978 -34 c-3 -3 -23 -8
-44 -10 -33 -4 -34 -3 -9 3 22 6 29 13 27 27 -3 19 -3 19 14 3 10 -10 15 -20
12 -23z m-5042 -72 c19 -20 18 -57 -3 -75 -29 -24 -53 -29 -95 -17 -28 7 -44
7 -51 0 -12 -12 -37 4 -37 23 0 63 57 142 105 148 25 2 33 -2 48 -31 10 -19
25 -41 33 -48z m-12906 47 c0 -5 -2 -10 -4 -10 -3 0 -8 5 -11 10 -3 6 -1 10 4
10 6 0 11 -4 11 -10z m17853 3 c-7 -2 -19 -2 -25 0 -7 3 -2 5 12 5 14 0 19 -2
13 -5z m-10085 -40 c34 -30 33 -74 -4 -108 -31 -29 -61 -25 -91 12 -26 33 -23
58 13 91 30 27 55 28 82 5z m-951 -54 c9 -19 10 -35 2 -63 -10 -36 -9 -40 21
-67 34 -31 41 -34 56 -21 5 5 29 17 53 26 39 15 46 15 66 2 13 -9 30 -29 38
-46 14 -27 14 -31 -1 -39 -38 -20 -108 -23 -148 -6 -80 33 -144 115 -144 185
0 26 3 50 7 54 13 13 38 1 50 -25z m361 -46 c2 -18 -6 -54 -18 -80 -20 -45
-22 -47 -36 -29 -8 12 -14 43 -14 77 0 46 3 58 18 62 35 10 47 2 50 -30z
m2359 -15 c-3 -8 -6 -5 -6 6 -1 11 2 17 5 13 3 -3 4 -12 1 -19z m6888 3 c-3
-5 -31 -27 -63 -48 -31 -21 -102 -69 -157 -106 -70 -48 -87 -56 -57 -30 23 21
42 45 42 53 0 11 2 12 8 3 6 -9 39 8 118 62 113 78 119 81 109 66z m-9325
-101 c8 -19 25 -53 39 -75 28 -44 53 -95 46 -95 -3 0 -21 26 -41 58 -21 31
-46 70 -56 85 -11 16 -21 44 -23 64 -3 30 -2 32 9 16 7 -10 19 -34 26 -53z
m4999 46 c35 -19 63 -61 59 -89 -2 -18 -8 -21 -33 -19 -16 2 -39 12 -50 22
-48 43 -98 32 -141 -33 -15 -23 -28 -58 -30 -81 -2 -23 -12 -59 -23 -81 -25
-50 -26 -42 -2 44 20 71 19 79 -14 97 -45 26 -12 103 59 138 39 20 138 20 175
2z m-9201 -75 c-2 -22 -12 -35 -45 -55 l-43 -26 0 24 c0 27 53 86 76 86 10 0
14 -9 12 -29z m10102 -7 c11 -12 11 -17 -1 -29 -25 -24 -86 -23 -96 1 -14 36
71 61 97 28z m-3407 -24 c3 -11 1 -18 -3 -15 -5 3 -11 1 -15 -4 -3 -6 -20 -20
-38 -32 l-32 -22 33 34 c17 19 32 40 32 47 0 20 17 14 23 -8z m-9538 -60 c10
-11 13 -20 7 -20 -6 0 -16 9 -22 20 -6 11 -9 20 -7 20 2 0 12 -9 22 -20z m768
-96 c47 -38 83 -71 81 -73 -2 -3 -19 9 -37 25 -17 17 -48 42 -67 56 -47 35
-111 93 -83 76 12 -8 60 -45 106 -84z m15277 92 c0 -3 -19 -17 -42 -33 -61
-41 -68 -45 -68 -39 0 4 24 22 53 41 56 37 57 37 57 31z m-6600 -10 c0 -17
-655 -547 -900 -728 -52 -39 -131 -101 -175 -138 -112 -94 -292 -232 -350
-269 -38 -24 -45 -32 -31 -37 11 -4 34 5 64 26 36 26 49 30 61 21 9 -6 45 -25
81 -42 36 -18 72 -35 80 -40 59 -33 110 -49 172 -55 86 -8 118 -22 138 -60 13
-24 123 -118 176 -150 11 -7 -15 -3 -56 7 -90 22 -113 23 -164 5 -35 -12 -43
-12 -70 3 -21 12 -34 30 -41 54 -17 60 -78 123 -157 163 -81 41 -158 67 -158
53 0 -5 6 -9 13 -9 22 0 55 -42 72 -90 21 -59 28 -159 12 -178 -9 -12 -2 -23
38 -59 28 -25 37 -36 21 -24 -34 25 -42 22 -41 -15 1 -19 15 -39 46 -66 50
-44 36 -40 -34 11 -38 28 -44 37 -37 52 13 24 13 72 0 64 -5 -3 -10 -14 -10
-24 0 -11 -9 -29 -19 -42 -18 -22 -21 -23 -33 -7 -7 10 -31 21 -53 26 -41 8
-59 29 -69 82 -4 19 -17 31 -48 44 -59 26 -104 71 -135 136 -33 70 -36 96 -16
127 15 23 22 25 67 20 l51 -6 -35 16 c-61 27 -65 29 -77 53 -6 13 -18 27 -26
32 -17 9 -67 -7 -79 -25 -5 -9 -8 -8 -8 3 0 9 -6 4 -14 -10 -8 -17 -10 -29 -3
-38 5 -7 7 -15 4 -19 -4 -3 7 -30 24 -60 26 -46 31 -64 32 -131 2 -67 -1 -83
-22 -113 -41 -60 -67 -73 -147 -74 -40 0 -70 -3 -67 -7 2 -5 -1 -8 -6 -8 -6 0
-11 -8 -11 -17 0 -13 -3 -14 -12 -5 -17 17 -33 15 -18 -3 15 -18 6 -19 -23 -3
-12 7 -29 13 -37 14 -8 2 -16 8 -18 13 -2 6 -9 11 -16 11 -7 0 -18 10 -24 23
-8 16 -11 17 -11 6 -1 -9 18 -33 40 -53 41 -35 39 -47 -4 -24 -12 6 -4 -7 19
-31 36 -35 83 -113 84 -138 1 -12 87 -73 125 -89 19 -8 54 -13 77 -12 l43 1
-38 4 c-30 3 -37 8 -33 21 3 12 -14 31 -57 62 -34 25 -63 53 -65 63 -3 15 6
17 88 17 101 0 166 -19 156 -45 -3 -8 -1 -15 4 -15 6 0 10 -10 10 -22 0 -19 2
-20 10 -8 8 13 10 13 10 -2 0 -14 6 -16 33 -12 l32 5 -22 -19 c-45 -40 -21
-44 38 -7 22 14 39 31 38 38 -4 32 4 46 32 58 20 8 37 25 46 46 9 22 18 31 26
27 7 -4 1 5 -13 21 -28 31 -26 30 68 -29 l54 -34 -44 -42 c-107 -104 -215
-152 -348 -153 -103 0 -154 19 -281 105 -90 61 -122 98 -161 183 -29 66 -32
220 -4 310 38 125 190 264 339 309 9 3 17 13 17 22 0 10 -5 14 -14 11 -15 -6
-46 32 -46 57 0 8 -4 16 -8 18 -18 7 -94 160 -85 169 8 8 126 -168 167 -250 8
-16 25 -20 105 -23 108 -5 170 -28 254 -92 l48 -37 88 68 c173 133 416 329
495 399 45 39 158 129 251 199 150 113 302 234 469 372 52 43 56 46 56 39z
m6696 -124 c-11 -10 -12 3 -7 58 l6 55 3 -54 c2 -29 1 -56 -2 -59z m-16081 78
c10 -11 16 -20 13 -20 -3 0 -13 9 -23 20 -10 11 -16 20 -13 20 3 0 13 -9 23
-20z m6741 -26 c40 -42 42 -54 12 -88 -35 -39 -72 -43 -99 -12 -30 35 -48 88
-38 114 7 18 16 22 50 22 35 0 47 -6 75 -36z m370 -17 l15 -32 -25 30 c-26 30
-34 51 -16 40 6 -3 17 -21 26 -38z m8909 -25 c-3 -3 -10 -1 -16 5 -6 6 -18 9
-25 6 -8 -3 -14 -1 -14 4 0 19 13 22 36 6 14 -9 22 -18 19 -21z m-15060 8 c10
-11 16 -20 13 -20 -3 0 -13 9 -23 20 -10 11 -16 20 -13 20 3 0 13 -9 23 -20z
m309 -22 c28 -11 52 -21 54 -23 2 -1 -21 -26 -50 -55 l-53 -52 41 5 40 5 17
-81 c9 -44 16 -82 14 -84 -2 -1 -18 8 -36 21 -18 13 -48 27 -67 31 -19 3 -38
13 -41 21 -3 7 -13 14 -22 14 -20 0 -43 -43 -35 -64 6 -17 -42 -57 -61 -50 -7
3 -26 23 -41 45 -21 31 -32 38 -48 34 -19 -6 -19 -4 4 16 l25 21 -57 54 c-58
53 -65 75 -30 89 12 5 33 -11 74 -54 54 -57 59 -60 85 -50 l28 10 -63 61 c-34
33 -62 63 -62 68 0 4 10 10 23 13 12 3 45 13 72 21 58 18 116 13 189 -16z
m7131 1 c-6 -33 -15 -36 -15 -6 0 15 4 27 9 27 6 0 8 -10 6 -21z m7600 0 c11
-16 1 -19 -13 -3 -7 8 -8 14 -3 14 5 0 13 -5 16 -11z m90 -38 c9 -22 -2 -25
-30 -7 -34 23 -35 49 0 33 13 -7 27 -18 30 -26z m-11584 -78 c84 -39 168 -109
211 -175 46 -72 88 -201 87 -269 -2 -113 -19 -130 -101 -99 -48 18 -56 24 -52
43 13 81 15 116 6 147 l-10 35 -1 -42 c-2 -65 -8 -73 -56 -73 -36 0 -50 6 -79
34 -20 18 -36 43 -36 55 0 11 -3 20 -7 20 -33 -5 -42 11 -49 87 -6 71 8 86 79
88 56 1 57 1 34 19 -33 26 -118 69 -125 63 -3 -3 -11 -1 -18 5 -8 7 -26 8 -46
3 -18 -4 -37 -7 -42 -6 -4 2 -13 -1 -20 -6 -6 -4 -24 -9 -41 -11 -40 -4 -42
-7 -19 -33 10 -12 14 -18 7 -15 -6 4 -14 3 -18 -3 -3 -5 1 -10 10 -10 8 0 18
-6 21 -13 2 -7 22 -23 43 -36 48 -30 69 -64 82 -134 12 -67 -2 -142 -34 -176
-12 -12 -57 -43 -100 -68 -42 -25 -75 -49 -71 -54 3 -5 3 -9 1 -9 -12 0 -125
56 -146 72 -34 26 -38 14 -7 -22 43 -52 32 -74 -16 -32 -16 14 -18 13 -18 -1
0 -32 142 -168 158 -152 4 3 -1 11 -11 16 -9 6 -17 15 -17 21 0 6 -8 17 -17
24 -23 17 0 19 26 2 15 -9 26 -9 47 1 47 21 181 25 249 8 33 -8 78 -13 100
-11 22 3 58 5 80 5 l40 1 -28 20 c-36 26 -34 41 9 82 22 21 33 39 29 46 -9 15
23 6 78 -21 48 -25 48 -48 -2 -119 -51 -74 -133 -136 -217 -164 -48 -16 -73
-31 -82 -47 l-14 -24 5 23 c5 20 2 23 -15 18 -40 -10 -166 13 -220 40 -134 67
-236 182 -270 302 -20 73 -24 137 -8 147 6 3 10 23 10 43 1 91 42 191 113 270
26 28 38 28 99 -3 27 -14 56 -25 64 -25 26 0 14 29 -23 56 -21 16 -42 31 -47
35 -11 9 21 26 86 44 35 10 85 14 149 12 82 -3 106 -8 160 -34z m-3172 -10 c6
-21 11 -44 11 -52 0 -8 15 3 34 25 34 38 35 39 50 19 25 -32 58 -145 51 -174
-5 -26 -3 -28 42 -38 l48 -10 -52 -2 c-46 -1 -53 -4 -53 -22 0 -11 -5 -30 -11
-41 -10 -19 -12 -19 -32 13 -29 47 -74 160 -92 230 -9 32 -18 65 -21 74 -3 8
-1 15 4 15 6 0 16 -17 21 -37z m-409 -39 c22 -15 40 -30 40 -34 0 -11 -82 -50
-103 -50 -10 0 -17 8 -17 19 0 21 27 91 35 91 3 0 23 -12 45 -26z m13288 -49
c29 -14 52 -30 52 -35 0 -14 -46 -60 -60 -60 -5 0 -10 7 -10 15 0 35 -105 51
-117 18 -8 -23 -23 -32 -39 -26 -20 7 -57 71 -49 84 23 37 150 39 223 4z
m1218 -40 c-11 -8 -22 -12 -25 -9 -6 6 19 24 34 24 6 -1 1 -7 -9 -15z m-14501
-5 c-3 -5 -11 -10 -16 -10 -6 0 -7 5 -4 10 3 6 11 10 16 10 6 0 7 -4 4 -10z
m6396 -58 c20 -31 49 -79 64 -107 15 -27 36 -63 47 -78 14 -20 17 -32 10 -39
-7 -7 -14 -2 -23 15 -8 13 -26 47 -41 75 -15 28 -32 53 -38 57 -5 3 -10 15
-10 25 0 10 -3 20 -7 22 -11 4 -53 88 -45 88 4 0 23 -26 43 -58z m6645 13 c36
-40 42 -44 76 -40 20 3 40 1 43 -5 10 -17 15 -54 9 -72 -6 -20 -25 -25 -21 -5
2 6 -1 3 -6 -8 -13 -28 -74 -58 -94 -46 -11 6 -30 -1 -65 -22 -26 -17 -51 -28
-54 -24 -22 22 -31 164 -13 200 18 35 51 67 70 67 9 0 34 -20 55 -45z m-12591
-67 c20 -40 43 -80 51 -89 17 -19 19 -38 2 -21 -8 8 -15 8 -24 2 -8 -8 -21 0
-43 25 -37 42 -41 64 -8 42 l23 -15 -23 47 c-21 42 -30 81 -18 81 2 0 21 -33
40 -72z m12954 28 c12 -18 21 -41 21 -51 0 -17 -55 -75 -71 -75 -19 0 -8 64
16 96 15 19 21 35 15 39 -10 6 -14 25 -6 25 2 0 14 -15 25 -34z m-11611 -33
c-10 -2 -26 -2 -35 0 -10 3 -2 5 17 5 19 0 27 -2 18 -5z m-1563 -33 c10 -11
14 -20 9 -20 -5 0 -15 9 -22 20 -7 11 -11 20 -9 20 2 0 12 -9 22 -20z m-35
-10 c0 -5 -5 -10 -11 -10 -5 0 -7 5 -4 10 3 6 8 10 11 10 2 0 4 -4 4 -10z
m15904 -6 c31 -12 15 -22 -56 -39 -40 -9 -83 -21 -96 -26 -16 -6 -29 -5 -47 7
-51 33 1 62 117 63 36 1 73 -2 82 -5z m-15869 -24 c-3 -5 -1 -10 6 -10 7 0 10
-3 6 -6 -10 -10 -39 5 -32 16 3 5 11 10 16 10 6 0 7 -4 4 -10z m-56 -16 c-10
-13 -10 -17 0 -24 9 -5 10 -10 2 -14 -14 -9 -25 18 -17 39 3 8 11 15 17 15 8
0 8 -5 -2 -16z m16080 -11 c24 -21 33 -37 33 -61 1 -42 -5 -47 -35 -27 -17 11
-27 30 -34 65 -6 28 -7 50 -4 50 4 0 22 -12 40 -27z m-15864 -25 c35 -36 36
-38 10 -21 -36 25 -72 63 -59 63 6 0 28 -19 49 -42z m7392 4 c-10 -10 -17 -24
-17 -31 0 -6 -7 -26 -16 -42 -12 -25 -18 -28 -30 -19 -7 7 -11 17 -7 23 4 6 0
8 -10 4 -29 -11 -19 1 36 42 58 45 68 49 44 23z m-7756 -9 c13 -16 12 -17 -3
-4 -17 13 -22 21 -14 21 2 0 10 -8 17 -17z m229 7 c10 -5 28 -26 40 -47 12
-21 16 -32 9 -25 -20 19 -26 14 -21 -19 4 -29 3 -31 -19 -24 -45 14 -70 46
-67 87 2 40 19 49 58 28z m4367 -25 c-7 -17 -34 -31 -44 -22 -3 4 2 18 12 33
18 28 43 20 32 -11z m11200 -7 c13 -12 23 -30 23 -40 0 -10 5 -18 10 -18 6 0
10 -9 10 -19 0 -30 11 -51 26 -51 7 0 20 -10 28 -21 l14 -21 14 21 c9 15 23
21 50 21 21 0 38 -5 38 -11 0 -5 14 -15 30 -20 31 -11 36 -29 24 -75 -6 -22
-52 -54 -79 -54 -20 0 -65 39 -65 56 0 11 -138 -54 -167 -78 -7 -6 -13 -22
-13 -37 l0 -26 -20 25 c-58 75 -47 253 21 339 13 16 26 30 28 30 3 1 15 -9 28
-21z m-15716 -24 c17 -8 28 -18 25 -21 -3 -3 -20 4 -38 16 -39 24 -30 28 13 5z
m13155 -14 c29 0 12 -28 -40 -67 -41 -30 -52 -43 -43 -52 6 -6 15 -11 20 -11
30 0 214 -186 247 -249 11 -21 10 -26 -6 -38 -11 -8 -19 -19 -20 -26 -4 -54
-57 -65 -96 -18 -14 15 -30 44 -37 62 -7 19 -17 42 -22 52 -7 13 -6 23 2 33 9
11 8 14 -5 14 -18 0 -22 25 -6 35 17 10 -6 32 -39 38 -16 3 -36 13 -44 22 -9
8 -19 15 -23 15 -9 0 -85 -34 -126 -56 -14 -8 -34 -14 -44 -14 -16 0 -16 1 -1
18 22 24 22 38 0 21 -10 -8 -14 -9 -10 -2 10 17 -11 27 -28 13 -10 -8 -15 -8
-20 0 -7 11 -95 7 -115 -5 -11 -7 -24 37 -24 84 0 21 7 38 18 47 36 26 187 30
290 8 20 -5 27 -3 22 4 -20 33 54 86 108 77 16 -3 35 -5 42 -5z m-13089 -16
c-3 -3 -12 -4 -19 -1 -8 3 -5 6 6 6 11 1 17 -2 13 -5z m11682 -20 c10 -9 -45
-3 -59 6 -11 7 -5 8 20 4 19 -4 37 -8 39 -10z m626 -8 c26 -26 25 -46 -3 -78
-20 -23 -38 -23 -55 2 -17 24 -16 47 4 78 18 28 24 28 54 -2z m-560 -12 l30
-14 -35 5 c-19 3 -39 10 -44 15 -15 15 14 12 49 -6z m3253 -294 c0 -160 3
-294 7 -298 4 -4 6 16 5 43 -1 28 0 64 1 80 2 17 6 -50 9 -148 l5 -178 54 -19
c29 -9 62 -27 73 -38 l21 -20 -22 -30 c-12 -17 -35 -38 -52 -46 -33 -17 -29
-21 -64 69 -5 14 -9 16 -12 7 -7 -19 26 -102 41 -102 22 0 66 -25 66 -37 0
-26 39 -5 104 56 55 51 48 38 -31 -57 -69 -81 -70 -108 -4 -53 62 52 75 53 68
2 -17 -132 -138 -239 -279 -249 -58 -4 -75 -1 -122 22 -66 32 -127 97 -151
160 -14 37 -15 49 -6 59 10 9 18 5 37 -18 13 -16 24 -33 24 -37 0 -4 5 -19 11
-35 9 -23 12 -25 19 -12 18 32 28 98 16 107 -19 15 -147 60 -209 73 -31 7 -55
14 -53 17 3 2 36 -3 75 -12 38 -9 72 -16 74 -16 3 0 12 17 21 38 30 69 64 112
88 112 14 0 16 4 9 18 -26 50 -71 153 -71 162 0 5 -23 58 -51 117 -63 132
-132 288 -146 328 -13 38 -15 77 -2 70 5 -4 9 -19 9 -35 0 -41 10 -65 21 -48
6 9 8 7 8 -7 -1 -28 26 -97 34 -88 4 3 7 -3 7 -14 0 -11 9 -32 20 -46 11 -14
20 -32 20 -40 0 -9 6 -22 13 -29 6 -7 17 -24 24 -38 6 -14 26 -56 43 -95 31
-68 102 -217 105 -223 1 -1 15 4 31 13 16 8 44 15 62 15 l33 0 -2 228 c-4 366
0 562 10 562 6 0 10 -114 9 -290z m-2427 223 c0 -16 2 -45 4 -66 3 -32 1 -39
-18 -47 -12 -5 -17 -9 -12 -9 18 -2 -76 -51 -97 -51 -10 0 -16 -4 -13 -10 3
-5 3 -10 0 -10 -10 0 -115 64 -115 70 1 8 137 103 183 127 55 29 67 28 68 -4z
m-1073 -15 c-16 -10 -114 -11 -104 0 18 18 71 29 94 19 17 -8 19 -13 10 -19z
m432 12 c0 -5 -7 -7 -15 -4 -8 4 -15 8 -15 10 0 2 7 4 15 4 8 0 15 -4 15 -10z
m2610 -60 c0 -5 -4 -10 -10 -10 -5 0 -10 5 -10 10 0 6 5 10 10 10 6 0 10 -4
10 -10z m1635 -22 c-17 -86 -41 -134 -95 -189 -39 -39 -70 -61 -105 -72 -50
-17 -165 -29 -165 -17 0 3 26 31 58 62 56 56 58 56 108 52 45 -3 53 -1 79 26
23 24 27 34 21 61 -5 25 -1 38 16 56 12 13 30 23 40 23 10 0 21 7 24 15 11 29
26 15 19 -17z m-5604 -19 c-5 -13 -10 -19 -10 -12 -1 15 10 45 15 40 3 -2 0
-15 -5 -28z m1794 -93 c63 -25 78 -42 48 -53 -29 -10 -53 -35 -53 -55 0 -10
-8 -18 -17 -19 -73 -4 -113 5 -113 28 0 14 35 89 52 111 14 16 15 16 83 -12z
m3486 -13 c-12 -23 -121 -127 -121 -117 0 8 120 134 128 134 1 0 -2 -8 -7 -17z
m-15794 -70 c-2 -16 -4 -5 -4 22 0 28 2 40 4 28 2 -13 2 -35 0 -50z m5810 41
c8 -20 -21 -49 -41 -41 -19 8 -21 43 -3 50 23 10 38 7 44 -9z m7167 -11 c4
-10 16 -34 26 -53 30 -52 26 -96 -7 -113 -35 -17 -53 -12 -77 19 -16 23 -17
32 -6 87 7 34 17 65 23 69 20 13 34 9 41 -9z m2586 13 c0 -2 -8 -10 -17 -17
-16 -13 -17 -12 -4 4 13 16 21 21 21 13z m-2050 -143 c-15 -3 -110 33 -110 42
0 2 28 -6 63 -18 34 -12 55 -23 47 -24z m-241 -68 c8 -52 11 -112 8 -133 l-6
-37 92 -18 c96 -18 340 -87 333 -94 -10 -11 -384 64 -413 82 -18 12 -22 12
-26 0 -5 -11 -21 -9 -87 13 -57 19 -75 28 -62 33 14 5 19 19 21 55 1 26 4 51
7 56 3 4 7 18 9 30 7 32 76 108 99 108 8 0 17 -34 25 -95z m-1109 65 c0 -5 7
-10 15 -10 8 0 15 -4 15 -10 0 -5 14 -10 31 -10 l30 0 -6 -67 c-4 -38 -8 -77
-9 -89 -1 -11 -13 -31 -27 -45 -24 -24 -28 -26 -63 -28 -13 -1 -16 -6 -12 -18
4 -10 4 -14 0 -10 -4 4 -14 1 -23 -6 -14 -11 -14 -10 -2 6 9 12 10 17 2 17 -7
0 -9 5 -6 10 4 6 11 7 17 4 7 -5 9 15 6 62 -3 38 -1 81 3 97 5 18 3 31 -5 39
-10 10 -10 17 1 40 14 27 33 38 33 18z m1500 -39 c52 -16 133 -43 180 -61 47
-17 114 -40 150 -50 64 -19 351 -118 400 -138 l25 -11 -25 0 c-14 -1 -41 4
-60 10 -19 5 -58 16 -86 24 -27 8 -113 38 -190 68 -76 30 -222 82 -324 117
-102 34 -189 66 -195 72 -11 12 -15 12 125 -31z m-4730 -346 c-6 -148 -14
-299 -19 -335 -8 -62 -8 -60 -9 48 -2 146 16 600 25 632 13 45 14 -62 3 -345z
m-8905 224 c4 -5 8 -20 10 -32 6 -48 28 -116 35 -112 5 3 7 24 4 47 -4 50 12
40 32 -19 10 -29 10 -39 1 -46 -7 -5 -4 -6 8 -1 42 15 187 3 270 -23 270 -85
467 -334 467 -592 0 -76 -20 -191 -33 -191 -5 0 -9 -8 -9 -18 0 -48 -115 -192
-209 -262 -65 -49 -67 -51 -90 -127 -55 -190 -206 -346 -390 -403 -47 -15 -88
-20 -160 -19 l-96 2 80 8 c87 9 166 37 233 81 24 15 49 28 56 28 27 0 165 140
189 193 28 58 42 108 30 106 -22 -4 -24 3 -7 22 19 21 19 22 -1 15 -80 -24
-228 -33 -300 -17 -24 5 -12 9 55 18 82 11 224 54 286 86 41 21 196 149 202
166 3 9 0 11 -8 6 -10 -6 -11 -3 -6 11 5 10 12 33 16 49 13 56 32 77 64 71 27
-6 28 -5 14 11 -9 10 -13 24 -11 30 3 7 -16 32 -40 57 l-45 44 20 31 20 32
-25 37 c-15 20 -33 54 -42 75 -8 20 -18 37 -22 37 -10 0 -32 -32 -49 -70 -39
-89 -142 -130 -273 -109 -59 9 -90 30 -122 82 -24 38 -44 51 -32 20 4 -11 3
-14 -5 -9 -7 4 -12 1 -12 -7 0 -10 -20 -13 -91 -12 -65 0 -93 -3 -96 -12 -3
-7 -9 -11 -13 -8 -4 2 -20 -7 -34 -20 -30 -27 -42 -31 -48 -14 -2 7 -16 13
-30 13 -15 1 -31 6 -35 10 -5 5 -2 6 6 1 9 -5 12 -4 7 3 -5 9 -14 7 -32 -5
-24 -15 -27 -15 -64 6 -29 16 -38 18 -34 7 3 -8 12 -17 20 -20 8 -3 14 -10 14
-16 0 -6 -12 -2 -26 9 -33 26 -53 27 -30 2 15 -16 15 -19 1 -24 -8 -4 -15 -15
-15 -26 0 -11 -6 -22 -12 -25 -10 -5 -10 -7 0 -12 6 -3 9 -10 6 -16 -3 -5 3
-12 15 -15 27 -7 27 -19 -1 -26 -15 -4 -30 1 -45 15 -13 12 -23 16 -23 10 0
-6 16 -22 36 -36 23 -15 31 -26 22 -29 -8 -3 10 -27 52 -66 35 -34 59 -61 52
-61 -6 0 -12 5 -12 10 0 6 -8 5 -20 -2 -11 -7 -20 -18 -20 -25 0 -22 -48 -15
-60 8 -7 11 -15 18 -18 14 -4 -4 7 -19 24 -33 17 -15 36 -37 43 -49 12 -24 33
-32 28 -11 -1 6 13 21 31 34 l33 23 35 -21 c31 -18 34 -18 34 -3 0 15 11 17
98 13 92 -3 103 -6 189 -48 51 -25 94 -51 98 -59 12 -29 -29 -51 -128 -66 -21
-3 -35 -10 -32 -16 12 -18 -4 -8 -94 61 -90 69 -108 80 -96 60 4 -6 -3 -26
-15 -45 l-21 -34 23 -14 c13 -8 36 -22 52 -30 l30 -15 -50 -6 c-96 -13 -147
-16 -157 -9 -6 4 -27 7 -46 8 -20 1 -64 16 -98 33 -34 16 -63 26 -65 20 -3 -8
-12 -11 -47 -17 -3 -1 4 -8 15 -17 18 -14 18 -15 -4 -4 -24 12 -45 5 -27 -8 6
-4 11 -16 12 -27 1 -17 -2 -16 -21 8 -17 21 -25 24 -34 15 -7 -7 -12 -22 -12
-34 0 -28 39 -134 57 -155 8 -9 16 -27 18 -39 2 -13 13 -33 23 -44 11 -12 22
-28 26 -36 4 -8 -16 10 -44 40 -49 54 -130 196 -130 229 0 10 26 32 65 54 35
20 67 37 70 37 3 0 46 23 95 51 79 45 89 53 78 68 -20 24 -30 30 -47 24 -14
-4 -14 -3 -1 6 12 9 10 11 -12 11 -14 0 -29 5 -31 10 -3 6 -4 5 -3 -2 5 -23
-71 -70 -132 -81 -36 -7 -36 -7 5 53 24 33 23 33 -12 -5 -20 -22 -41 -46 -48
-54 -8 -10 -12 -11 -15 -3 -4 13 22 46 97 127 25 28 52 63 59 78 6 15 18 30
26 33 13 5 12 12 -4 52 -10 26 -30 70 -45 97 -21 38 -22 44 -6 25 11 -14 23
-32 26 -40 3 -8 15 -21 27 -29 l22 -14 -19 29 c-38 58 -15 219 46 323 87 144
231 264 381 314 15 5 17 15 12 64 -5 50 -3 61 15 80 12 13 17 25 11 28 -13 8
-13 25 -1 25 6 0 13 -5 16 -11z m10210 1 c-3 -6 1 -13 10 -16 9 -4 13 -13 11
-23 -6 -19 -23 -192 -30 -309 -6 -90 7 -104 18 -20 4 29 11 57 16 63 5 6 12
42 15 80 6 64 15 102 15 61 0 -10 5 -14 11 -10 8 4 9 -1 4 -16 -4 -13 -21 -75
-37 -139 -26 -103 -31 -142 -40 -354 -5 -131 -7 -245 -4 -253 6 -16 27 -19 23
-3 -2 12 70 42 87 36 6 -2 -10 -10 -36 -17 -54 -16 -55 -29 -5 -71 33 -27 53
-60 27 -44 -6 4 -7 -1 -3 -11 5 -14 3 -16 -11 -11 -9 4 -15 3 -12 -1 2 -4 -9
-15 -26 -25 -29 -17 -30 -17 -17 -1 12 16 10 15 -18 -1 -18 -11 -33 -25 -33
-31 0 -7 -7 -14 -15 -18 -8 -3 -15 -14 -15 -25 0 -22 -107 -124 -124 -118 -7
3 -12 -4 -12 -14 0 -27 15 -23 65 16 45 36 60 40 96 26 29 -12 49 2 79 54 15
25 31 45 36 45 6 0 10 6 10 14 0 26 30 27 42 1 17 -37 -5 -98 -55 -152 -54
-59 -103 -83 -169 -83 -71 0 -153 48 -186 108 -15 27 -31 42 -43 42 -11 0 -19
7 -19 16 0 8 5 12 10 9 6 -3 10 0 10 8 0 23 -67 30 -328 32 -236 2 -243 1
-266 -20 -13 -12 -36 -27 -52 -33 -16 -7 -43 -32 -59 -57 -23 -35 -36 -45 -58
-45 -15 0 -44 -9 -64 -20 -48 -26 -124 -27 -139 -2 -6 9 -11 55 -12 102 l-2
85 50 -53 c59 -62 71 -96 44 -117 -16 -12 -17 -14 -3 -15 18 0 246 210 241
223 -2 8 22 37 32 37 3 0 3 -7 -1 -15 -4 -12 4 -10 33 7 26 15 39 18 42 10 2
-7 14 -12 27 -12 13 0 25 -5 27 -11 2 -7 41 -13 98 -16 52 -2 136 -9 185 -15
50 -5 108 -12 130 -14 22 -3 48 -6 58 -8 13 -3 17 3 17 25 0 41 22 80 65 118
22 19 35 38 31 46 -11 31 3 13 32 -39 17 -29 38 -56 46 -59 14 -6 15 0 10 36
-4 23 -11 50 -15 59 -12 23 -11 76 2 118 5 19 12 85 14 145 4 107 30 252 90
500 13 55 27 124 30 153 4 28 11 52 17 52 5 0 6 -5 3 -10z m2982 -150 c30 0
29 -11 -8 -80 -70 -131 -180 -232 -308 -282 -86 -33 -238 -37 -333 -8 -91 28
-160 62 -218 109 -53 42 -110 100 -110 112 0 16 18 18 36 3 16 -14 17 -15 2
-10 -15 5 -16 3 -5 -14 7 -12 18 -18 28 -15 19 6 41 -16 37 -36 -2 -8 2 -13 7
-12 6 1 22 -8 35 -19 14 -11 19 -17 13 -13 -7 3 -13 4 -13 1 0 -3 21 -17 46
-32 33 -20 61 -28 98 -28 34 -1 51 -5 51 -13 0 -17 19 -18 23 -1 1 7 -22 28
-52 46 -64 38 -92 71 -75 87 8 7 13 6 16 -2 3 -7 13 -13 24 -13 11 0 32 -12
47 -27 20 -20 38 -27 72 -29 25 -2 68 -6 95 -10 28 -4 54 -7 59 -5 16 4 56 -9
56 -19 0 -5 -9 -12 -21 -15 -11 -4 -18 -9 -16 -11 2 -3 23 3 45 11 48 19 222
198 222 227 0 25 28 91 43 100 8 5 7 8 -5 8 -10 0 -18 4 -18 9 0 4 23 2 52 -5
29 -8 63 -14 75 -14z m-1038 -24 c-3 -3 -11 5 -18 17 -13 21 -12 21 5 5 10
-10 16 -20 13 -22z m2338 -2 c-3 -3 -12 -4 -19 -1 -8 3 -5 6 6 6 11 1 17 -2
13 -5z m153 -52 c13 -14 13 -15 0 -5 -8 6 -39 16 -67 24 -29 7 -53 16 -53 20
0 12 104 -22 120 -39z m-7825 17 c15 -14 47 -11 39 4 -5 7 0 6 11 -3 16 -13
16 -15 2 -18 -10 -2 -17 -7 -17 -12 0 -5 -20 3 -45 17 -25 13 -45 27 -45 30 0
6 43 -8 55 -18z m6528 14 c-7 -2 -19 -2 -25 0 -7 3 -2 5 12 5 14 0 19 -2 13
-5z m44 -9 c-3 -3 -12 -4 -19 -1 -8 3 -5 6 6 6 11 1 17 -2 13 -5z m-1207 -25
c0 -6 -4 -7 -10 -4 -5 3 -10 11 -10 16 0 6 5 7 10 4 6 -3 10 -11 10 -16z
m2490 -19 c-11 -11 -20 -27 -20 -36 0 -8 -5 -12 -10 -9 -11 7 25 65 41 65 5 0
0 -9 -11 -20z m-35 -59 c3 -5 1 -12 -4 -15 -5 -3 -11 1 -15 9 -6 16 9 21 19 6z
m-338 -17 c-3 -3 -12 -4 -19 -1 -8 3 -5 6 6 6 11 1 17 -2 13 -5z m304 -11 c13
-16 12 -17 -3 -4 -10 7 -18 15 -18 17 0 8 8 3 21 -13z m-236 -3 c13 -5 14 -9
5 -9 -8 0 -24 4 -35 9 -13 5 -14 9 -5 9 8 0 24 -4 35 -9z m-2790 -10 c-3 -5
-12 -10 -18 -10 -7 0 -6 4 3 10 19 12 23 12 15 0z m2858 -7 c-7 -2 -19 -2 -25
0 -7 3 -2 5 12 5 14 0 19 -2 13 -5z m-2938 -31 c-29 -17 -125 -60 -155 -68 -8
-2 26 16 75 40 92 46 134 60 80 28z m-215 -96 c0 -8 -383 -186 -400 -186 -12
1 35 24 185 92 88 39 169 78 180 85 19 13 35 17 35 9z m-6952 -108 c-17 -47
-68 -72 -68 -32 0 20 42 61 62 61 13 0 14 -5 6 -29z m3357 -81 c26 -25 -34 16
-65 43 l-35 32 45 -33 c25 -18 50 -37 55 -42z m3155 -17 c-8 -5 -19 -10 -25
-10 -5 0 -3 5 5 10 8 5 20 10 25 10 6 0 3 -5 -5 -10z m-982 -25 c-3 -3 -9 2
-12 12 -6 14 -5 15 5 6 7 -7 10 -15 7 -18z m-5339 2 c28 -34 -17 -100 -69
-100 -44 0 -56 15 -41 51 11 27 31 42 71 55 24 8 27 8 39 -6z m3232 -4 c13
-17 13 -17 -6 -3 -11 8 -22 16 -24 17 -2 2 0 3 6 3 6 0 17 -8 24 -17z m147
-101 c50 -35 92 -66 92 -69 0 -3 -12 3 -27 12 -48 31 -183 128 -183 132 0 6
12 -2 118 -75z m797 40 c-3 -3 -11 0 -18 7 -9 10 -8 11 6 5 10 -3 15 -9 12
-12z m120 -61 c17 -12 27 -21 23 -21 -9 0 -128 71 -128 76 0 6 68 -30 105 -55z
m-9376 -38 c-18 -25 -27 -43 -21 -39 18 11 15 -3 -9 -40 -22 -36 -37 -47 -19
-15 14 27 12 41 -2 17 -6 -11 -12 -31 -14 -45 -1 -14 -7 -27 -13 -29 -5 -2
-20 -37 -33 -78 -20 -68 -27 -77 -57 -90 -46 -19 -52 -17 -15 6 25 16 35 33
49 86 21 76 61 158 113 227 46 61 63 61 21 0z m4085 -40 c0 -24 -10 -56 -25
-79 -13 -21 -31 -56 -40 -77 l-15 -39 -27 35 c-47 62 -30 130 44 181 48 33 64
28 63 -21z m5423 11 c-6 -6 -47 9 -47 17 0 5 11 3 25 -3 14 -6 24 -13 22 -14z
m-5208 -18 c17 -18 22 -32 17 -50 -8 -33 -17 -33 -49 4 -51 56 -19 100 32 46z
m5116 -183 c-4 -62 -11 -113 -16 -113 -5 0 -9 5 -9 11 0 6 -5 7 -12 2 -7 -4
-20 -8 -28 -8 -8 0 -14 -6 -12 -14 2 -8 -2 -17 -8 -21 -8 -5 4 -23 34 -53 25
-24 46 -53 47 -63 0 -11 3 -14 6 -6 8 19 17 14 36 -18 22 -36 34 -38 39 -7 3
19 10 22 53 25 28 1 46 -1 40 -5 -5 -5 -18 -25 -27 -46 -25 -54 -92 -123 -145
-148 -109 -53 -268 13 -316 131 -26 62 -31 129 -12 150 13 14 14 23 6 39 -15
27 -14 29 14 23 19 -3 25 0 25 13 0 9 13 29 28 45 27 26 28 31 26 116 0 49 1
67 2 39 6 -72 46 -265 56 -265 4 0 8 38 8 84 l0 85 45 7 c25 3 61 3 80 0 l35
-7 2 108 c1 59 3 86 6 58 2 -27 1 -101 -3 -162z m-6426 177 c22 -11 49 -31 60
-46 60 -76 -20 -187 -111 -155 -45 16 -67 39 -78 82 -16 60 28 134 83 138 4 1
25 -8 46 -19z m5641 -6 c0 -2 -9 0 -20 6 -11 6 -20 13 -20 16 0 2 9 0 20 -6
11 -6 20 -13 20 -16z m86 -62 c-4 -3 -14 2 -24 12 -16 18 -16 18 6 6 13 -6 21
-14 18 -18z m949 8 c3 -6 -1 -7 -9 -4 -18 7 -21 14 -7 14 6 0 13 -4 16 -10z
m-5392 -129 c4 0 7 -10 7 -21 0 -51 -131 -82 -138 -33 -5 35 67 65 131 54z
m4762 -79 c-3 -3 -11 0 -18 7 -9 10 -8 11 6 5 10 -3 15 -9 12 -12z m-9285 -32
c-19 -11 -39 -19 -45 -19 -5 0 6 8 25 19 19 11 40 19 45 19 6 0 -6 -8 -25 -19z
m10052 -58 c-2 -7 -8 -9 -11 -4 -3 5 -13 12 -21 15 -8 3 -3 5 11 4 18 -1 25
-6 21 -15z m246 11 c-16 -2 -40 -2 -55 0 -16 2 -3 4 27 4 30 0 43 -2 28 -4z
m-4323 -9 c21 -9 55 -76 55 -111 0 -66 -60 -98 -127 -67 -47 22 -62 41 -63 76
-1 71 72 126 135 102z m7118 -398 c43 -33 5 -92 -43 -66 -24 13 -26 37 -3 62
19 21 22 22 46 4z m-9619 -170 c34 6 36 5 36 -19 0 -17 -10 -33 -30 -47 -24
-17 -30 -18 -30 -6 0 8 -22 41 -50 73 -132 155 -134 158 -48 75 83 -80 88 -83
122 -76z m184 -81 c18 -19 39 -49 48 -66 20 -40 29 -127 16 -159 -10 -23 -11
-23 -11 -4 -1 12 -8 24 -16 28 -8 3 -15 12 -15 21 0 8 -8 15 -18 15 -17 0 -18
5 -10 56 10 66 5 78 -33 70 -41 -8 -69 22 -69 74 l0 40 38 -19 c22 -11 53 -36
70 -56z m-303 35 l20 -25 -22 19 c-13 11 -23 24 -23 29 0 6 1 8 3 6 1 -2 11
-15 22 -29z m-43 -53 c-12 -13 -22 -33 -22 -46 0 -14 -4 -20 -12 -16 -7 4 -2
-3 12 -15 l25 -21 -25 12 c-53 25 -53 30 -13 71 39 40 72 54 35 15z m12338
-72 c0 -7 -6 -18 -14 -24 -11 -9 -18 -8 -30 4 -9 9 -16 18 -16 20 0 2 7 11 16
20 12 12 19 13 30 4 8 -6 14 -17 14 -24z m-12190 -42 c0 -5 -4 -15 -10 -23
-11 -18 -25 -7 -17 15 6 15 27 21 27 8z m-197 -27 c15 -11 15 -15 3 -25 -14
-12 -18 -9 -29 22 -8 20 1 21 26 3z"/>
<path d="M13435 8171 c-3 -5 -1 -12 5 -16 5 -3 10 1 10 9 0 18 -6 21 -15 7z"/>
<path d="M2280 7896 c0 -2 7 -7 16 -10 8 -3 12 -2 9 4 -6 10 -25 14 -25 6z"/>
<path d="M2368 7270 c-20 -19 -23 -30 -8 -30 9 0 35 39 28 45 -2 1 -11 -5 -20
-15z"/>
<path d="M15721 6529 c-1 -9 7 -23 17 -30 15 -12 16 -12 6 1 -6 8 -14 22 -17
30 -5 13 -6 12 -6 -1z"/>
<path d="M3948 6398 c-27 -25 -28 -32 -7 -30 4 1 5 -8 2 -19 -5 -17 -3 -18 20
-10 15 6 44 19 66 31 22 11 57 20 77 20 49 0 38 9 -17 16 -24 3 -48 9 -54 14
-19 16 -57 6 -87 -22z"/>
<path d="M6380 5721 c0 -6 4 -11 9 -11 5 0 12 -10 14 -22 4 -22 4 -22 6 -2 0
12 -6 27 -14 34 -10 9 -15 9 -15 1z"/>
<path d="M6270 5580 c0 -5 5 -10 11 -10 5 0 7 5 4 10 -3 6 -8 10 -11 10 -2 0
-4 -4 -4 -10z"/>
<path d="M11760 4700 c0 -5 5 -10 11 -10 5 0 7 5 4 10 -3 6 -8 10 -11 10 -2 0
-4 -4 -4 -10z"/>
<path d="M11790 4680 c0 -5 5 -10 11 -10 5 0 7 5 4 10 -3 6 -8 10 -11 10 -2 0
-4 -4 -4 -10z"/>
<path d="M9455 3150 c-3 -5 -2 -10 4 -10 5 0 13 5 16 10 3 6 2 10 -4 10 -5 0
-13 -4 -16 -10z"/>
<path d="M9440 3111 c0 -5 5 -13 10 -16 6 -3 10 -2 10 4 0 5 -4 13 -10 16 -5
3 -10 2 -10 -4z"/>
<path d="M9100 2830 c-13 -8 -12 -10 3 -10 9 0 17 5 17 10 0 12 -1 12 -20 0z"/>
<path d="M2743 4232 c6 -13 13 -19 15 -13 2 6 14 8 27 5 13 -3 26 0 30 6 5 9
1 10 -15 5 -14 -4 -20 -3 -16 3 3 5 -7 12 -23 14 -27 4 -28 3 -18 -20z"/>
<path d="M2260 4336 c0 -20 19 -31 32 -18 7 7 3 14 -11 21 -17 10 -21 9 -21
-3z"/>
<path d="M2510 3976 c0 -9 5 -16 10 -16 6 0 10 4 10 9 0 6 -4 13 -10 16 -5 3
-10 -1 -10 -9z"/>
<path d="M17459 3248 c0 -29 -2 -62 -3 -74 -1 -11 1 -29 5 -40 4 -11 8 21 8
74 1 50 -1 92 -4 92 -3 0 -5 -24 -6 -52z"/>
<path d="M17470 3080 c0 -11 5 -20 10 -20 6 0 10 9 10 20 0 11 -4 20 -10 20
-5 0 -10 -9 -10 -20z"/>
<path d="M17316 2995 c4 -8 11 -15 16 -15 6 0 5 6 -2 15 -7 8 -14 15 -16 15
-2 0 -1 -7 2 -15z"/>
<path d="M2446 2970 c11 -14 31 -36 43 -50 12 -14 54 -72 93 -130 39 -58 73
-107 75 -110 15 -15 -84 164 -114 207 -13 17 -23 34 -23 38 0 3 -14 20 -30 38
-22 23 -29 26 -24 12 7 -20 7 -20 -17 0 l-24 20 21 -25z"/>
<path d="M12682 2785 c0 -16 2 -22 5 -12 2 9 2 23 0 30 -3 6 -5 -1 -5 -18z"/>
<path d="M12677 2743 c-4 -3 -7 -29 -7 -56 0 -28 -3 -47 -7 -43 -4 4 -15 -44
-24 -106 -9 -62 -20 -130 -24 -151 -7 -37 -7 -38 13 -26 11 7 19 16 16 20 -2
5 0 36 5 71 6 35 11 88 13 120 2 31 6 54 10 52 3 -2 8 25 10 61 1 36 3 65 2
65 0 0 -4 -3 -7 -7z"/>
<path d="M12678 2373 c7 -3 16 -2 19 1 4 3 -2 6 -13 5 -11 0 -14 -3 -6 -6z"/>
<path d="M11490 1959 c0 -5 5 -7 10 -4 6 3 10 8 10 11 0 2 -4 4 -10 4 -5 0
-10 -5 -10 -11z"/>
<path d="M11127 2065 c-4 -8 -2 -17 3 -20 4 -3 10 0 12 7 3 7 12 9 22 5 9 -4
14 -11 11 -17 -3 -5 -1 -10 4 -10 16 0 13 16 -5 34 -19 20 -40 20 -47 1z"/>
<path d="M19022 6068 c-23 -23 -14 -65 18 -88 l30 -21 40 32 c22 18 40 35 40
39 0 4 -10 16 -23 28 -26 24 -85 30 -105 10z"/>
</g>
</svg>
