<svg width="71" height="70" viewBox="0 0 71 70" fill="none" xmlns="http://www.w3.org/2000/svg">
<rect x="0.449219" width="70" height="70" rx="35" fill="white" fill-opacity="0.5"/>
<rect x="6.44922" y="6" width="58" height="58" rx="29" fill="white"/>
<path fill-rule="evenodd" clip-rule="evenodd" d="M43.7308 37.2672C42.4936 36.0256 40.4867 36.0245 39.2484 37.2672L39.2445 37.2711C38.6016 37.9163 37.5597 37.917 36.9171 37.2722C35.8131 36.1642 34.38 34.726 33.276 33.618C32.6334 32.9731 32.6341 31.9274 33.277 31.2822L33.2809 31.2783C34.5192 30.0356 34.5181 28.0215 33.2809 26.7799C32.7208 26.2177 32.0909 25.5856 31.5019 24.9945C30.7883 24.2767 29.8183 23.8742 28.8082 23.874C27.7973 23.8746 26.8284 24.2771 26.1138 24.9942L24.8646 26.2479C23.2967 27.8214 22.8619 30.2036 23.7718 32.232L23.7744 32.2393C26.5592 38.1217 32.2193 43.8068 38.2954 46.7185L38.299 46.7206C40.3196 47.6567 42.7009 47.2326 44.2732 45.6603C44.6872 45.2844 45.1072 44.8644 45.5101 44.46C46.2247 43.7429 46.6257 42.7705 46.6263 41.7559C46.6261 40.7422 46.225 39.7688 45.5098 39.0526C44.9208 38.4614 44.2909 37.8293 43.7308 37.2672ZM42.6538 38.348L44.4328 40.1334C44.8619 40.564 45.102 41.1475 45.1018 41.7558C45.1023 42.3647 44.8607 42.948 44.4321 43.3782C44.0432 43.7684 43.6379 44.1766 43.2309 44.5455L43.2029 44.5722C42.0831 45.696 40.385 46.0002 38.9465 45.3354C33.1783 42.57 27.8018 37.1758 25.1586 31.5982C24.5119 30.15 24.8236 28.4513 25.9426 27.3297L27.1918 26.0761C27.6204 25.6459 28.2016 25.4034 28.8084 25.4039C29.4145 25.4038 29.9959 25.6447 30.425 26.0753L32.204 27.8607C32.8465 28.5055 32.8458 29.5512 32.2029 30.1965L32.199 30.2004C30.9608 31.4431 30.961 33.458 32.199 34.6988L35.8401 38.353C37.0766 39.5954 39.0843 39.5957 40.3225 38.353L40.3264 38.3491C40.9693 37.7038 42.0105 37.7039 42.6538 38.348Z" fill="#0E273D"/>
<path fill-rule="evenodd" clip-rule="evenodd" d="M37.8118 30.7707C39.0745 30.7707 40.0993 31.7992 40.0993 33.0664C40.0993 33.4888 40.4409 33.8316 40.8618 33.8316C41.2827 33.8316 41.6243 33.4888 41.6243 33.0664C41.6243 30.9544 39.9163 29.2402 37.8118 29.2402C37.3909 29.2402 37.0493 29.5831 37.0493 30.0055C37.0493 30.4279 37.3909 30.7707 37.8118 30.7707Z" fill="#0E273D"/>
<path fill-rule="evenodd" clip-rule="evenodd" d="M37.8118 26.1799C41.5999 26.1799 44.6743 29.2653 44.6743 33.067C44.6743 33.4894 45.0159 33.8322 45.4368 33.8322C45.8577 33.8322 46.1993 33.4894 46.1993 33.067C46.1993 28.4205 42.4417 24.6494 37.8118 24.6494C37.3909 24.6494 37.0493 24.9922 37.0493 25.4147C37.0493 25.8371 37.3909 26.1799 37.8118 26.1799Z" fill="#0E273D"/>
<path fill-rule="evenodd" clip-rule="evenodd" d="M37.8118 21.5881C44.1238 21.5881 49.2493 26.732 49.2493 33.0666C49.2493 33.489 49.5909 33.8318 50.0118 33.8318C50.4327 33.8318 50.7743 33.489 50.7743 33.0666C50.7743 25.8872 44.9656 20.0576 37.8118 20.0576C37.3909 20.0576 37.0493 20.4004 37.0493 20.8229C37.0493 21.2453 37.3909 21.5881 37.8118 21.5881Z" fill="#0E273D"/>
</svg>
