<svg width="82" height="82" viewBox="0 0 82 82" fill="none" xmlns="http://www.w3.org/2000/svg">
<foreignObject x="-16.5" y="-16.5" width="115" height="115"><div xmlns="http://www.w3.org/1999/xhtml" style="backdrop-filter:blur(8.25px);clip-path:url(#bgblur_0_2396_22927_clip_path);height:100%;width:100%"></div></foreignObject><g data-figma-bg-blur-radius="16.5">
<path d="M41 0.5C63.3675 0.5 81.5 18.6325 81.5 41C81.5 63.3675 63.3675 81.5 41 81.5C18.6325 81.5 0.5 63.3675 0.5 41C0.5 18.6325 18.6325 0.5 41 0.5Z" fill="white" fill-opacity="0.13"/>
<path d="M41 0.5C63.3675 0.5 81.5 18.6325 81.5 41C81.5 63.3675 63.3675 81.5 41 81.5C18.6325 81.5 0.5 63.3675 0.5 41C0.5 18.6325 18.6325 0.5 41 0.5Z" stroke="#FFDD00"/>
</g>
<path d="M41 77C60.8823 77 77 60.8823 77 41C77 21.1177 60.8823 5 41 5C21.1177 5 5 21.1177 5 41C5 60.8823 21.1177 77 41 77Z" fill="url(#paint0_linear_2396_22927)"/>
<g clip-path="url(#clip1_2396_22927)">
<path d="M40.8151 41.687C46.1494 41.687 50.4892 37.3481 50.4892 32.0149C50.4863 29.4501 49.4661 26.9911 47.6525 25.1775C45.8389 23.3639 43.3799 22.3437 40.8151 22.3408C35.4819 22.3408 31.143 26.6806 31.143 32.0149C31.1472 34.4551 32.07 36.8043 33.7278 38.595L32.7273 42.3273C32.6682 42.5476 32.6759 42.7805 32.7492 42.9966C32.8225 43.2126 32.9583 43.402 33.1393 43.5409C33.3203 43.6797 33.5384 43.7618 33.766 43.7767C33.9937 43.7915 34.2206 43.7385 34.4181 43.6244L38.331 41.3635C39.1414 41.5788 39.9765 41.6875 40.8151 41.687ZM37.6055 39.1192L35.6765 40.234L36.1277 38.5511C36.1819 38.3488 36.18 38.1355 36.1222 37.9342C36.0644 37.7329 35.9528 37.5511 35.7995 37.4084C35.0549 36.7218 34.4614 35.8878 34.0568 34.9592C33.6522 34.0307 33.4453 33.0282 33.4495 32.0153C33.45 30.4605 33.9427 28.9458 34.8569 27.6883C35.7711 26.4307 37.06 25.4948 38.5388 25.0146C40.0175 24.5345 41.6103 24.5347 43.089 25.0154C44.5676 25.496 45.8561 26.4324 46.7699 27.6903C47.6837 28.9482 48.1759 30.463 48.1759 32.0178C48.1759 33.5726 47.6838 35.0875 46.77 36.3454C45.8562 37.6033 44.5677 38.5397 43.0891 39.0204C41.6105 39.5011 40.0177 39.5014 38.5389 39.0213C38.3852 38.9712 38.2226 38.954 38.0618 38.9709C37.901 38.9877 37.7456 39.0382 37.6055 39.119V39.1192ZM59.8671 32.8386C59.8796 32.3667 59.8926 31.8787 59.8701 31.3707C59.8092 29.9513 59.1999 28.611 58.1706 27.6318C57.1412 26.6527 55.7721 26.1112 54.3514 26.1214C52.0714 20.905 46.8624 17.25 40.8151 17.25C34.7677 17.25 29.5609 20.9049 27.2807 26.1213C25.8604 26.1112 24.4916 26.6525 23.4624 27.6313C22.4331 28.61 21.8237 29.9499 21.7623 31.3689C21.7397 31.8788 21.7527 32.3668 21.7653 32.8388C21.7786 33.3374 21.7923 33.8531 21.7667 34.4325C21.7056 35.8852 22.2231 37.3028 23.2057 38.3745C24.1883 39.4462 25.5558 40.0844 27.0083 40.1493C27.0944 40.1533 27.1802 40.1553 27.2658 40.1553C27.9898 40.1558 28.7065 40.0109 29.3735 39.7294C29.6522 39.6127 29.8738 39.391 29.9905 39.1123C30.1072 38.8336 30.1096 38.5202 29.9973 38.2397C29.9833 38.1853 29.962 38.133 29.934 38.0843C28.9008 36.2283 28.3585 34.1392 28.3586 32.0149C28.3586 25.1453 33.9466 19.5564 40.8151 19.5564C47.6835 19.5564 53.2737 25.1456 53.2737 32.0149C53.2817 34.9227 52.2692 37.7411 50.4125 39.979C48.5558 42.2168 45.9727 43.7322 43.1134 44.261C42.8122 43.5793 42.2823 43.0242 41.6152 42.6917C40.9482 42.3593 40.186 42.2703 39.4603 42.4402C38.7346 42.6101 38.0911 43.0282 37.641 43.6222C37.1909 44.2162 36.9625 44.9488 36.9952 45.6934C37.0279 46.438 37.3198 47.1477 37.8203 47.7C38.3208 48.2522 38.9985 48.6122 39.7363 48.7178C40.4741 48.8233 41.2255 48.6678 41.8608 48.2781C42.4961 47.8884 42.9753 47.289 43.2155 46.5834C45.2466 46.2475 47.1853 45.4911 48.9073 44.3628C50.6293 43.2344 52.0967 41.759 53.2157 40.0309C53.5933 40.1134 53.9786 40.1551 54.3651 40.1554C54.4498 40.1554 54.5348 40.1535 54.62 40.1496C55.3399 40.1186 56.0467 39.9461 56.7 39.6419C57.3532 39.3377 57.9402 38.9078 58.4273 38.3768C58.9144 37.8458 59.2921 37.224 59.5389 36.547C59.7857 35.8699 59.8967 35.1509 59.8655 34.431C59.84 33.8534 59.8538 33.3373 59.8671 32.8386ZM27.1109 37.8452C26.2689 37.8081 25.476 37.4385 24.9061 36.8175C24.3362 36.1966 24.0358 35.3749 24.0708 34.5328C24.1 33.8733 24.0845 33.2912 24.0708 32.7774C24.0588 32.3258 24.0478 31.8992 24.0666 31.4694C24.0964 30.7845 24.3465 30.1276 24.7797 29.5964C25.2129 29.0651 25.8061 28.688 26.471 28.521C25.7441 31.5097 25.9671 34.6506 27.1091 37.5066L27.1077 37.5071C27.1526 37.6215 27.1989 37.7354 27.2468 37.8487C27.2018 37.8485 27.1565 37.8473 27.1109 37.8452ZM40.1896 46.4436C40.0134 46.4436 39.8412 46.3914 39.6946 46.2935C39.5481 46.1956 39.4339 46.0565 39.3665 45.8937C39.299 45.7309 39.2813 45.5518 39.3157 45.379C39.35 45.2062 39.4348 45.0474 39.5594 44.9228C39.684 44.7981 39.8427 44.7133 40.0155 44.6788C40.1883 44.6444 40.3675 44.662 40.5303 44.7294C40.6931 44.7968 40.8323 44.9109 40.9302 45.0574C41.0282 45.2039 41.0805 45.3761 41.0805 45.5523V45.554C41.0799 45.79 40.9858 46.0161 40.8189 46.1829C40.6519 46.3496 40.4256 46.4434 40.1896 46.4436ZM57.5613 34.5312C57.5793 34.9487 57.5148 35.3657 57.3715 35.7583C57.2283 36.1509 57.009 36.5114 56.7263 36.8191C56.4437 37.1269 56.1031 37.376 55.7241 37.5521C55.3451 37.7282 54.9351 37.8278 54.5176 37.8454C54.4733 37.8475 54.4291 37.8486 54.385 37.8488C54.3869 37.8445 54.3872 37.8397 54.3859 37.8352C55.6449 34.8961 55.917 31.6279 55.1613 28.5211C55.8264 28.6881 56.4198 29.0655 56.8531 29.597C57.2864 30.1286 57.5363 30.7859 57.5657 31.4711C57.5847 31.8992 57.5734 32.3257 57.5614 32.7773C57.5477 33.291 57.5322 33.8732 57.5613 34.5312ZM38.1207 31.9019C38.1244 31.9395 38.1262 31.9772 38.1261 32.0149C38.1262 32.0529 38.1244 32.0909 38.1207 32.1287C38.1169 32.1656 38.1107 32.2033 38.1038 32.2402C38.0969 32.2771 38.0869 32.314 38.0761 32.3501C38.0654 32.3863 38.0523 32.4216 38.0377 32.4562C38.0231 32.4908 38.0069 32.5254 37.9892 32.5585C37.9716 32.5915 37.9523 32.6238 37.9316 32.6554C37.911 32.6868 37.8887 32.7171 37.8647 32.7461C37.8409 32.7761 37.8147 32.8037 37.7886 32.8306C37.7617 32.8574 37.7335 32.8828 37.704 32.9067C37.6748 32.9306 37.644 32.9529 37.6133 32.9744C37.5818 32.9944 37.5495 33.0144 37.5157 33.0321C37.4827 33.0498 37.4489 33.0657 37.4142 33.0797C37.3795 33.0944 37.3441 33.1072 37.3081 33.1182C37.2719 33.1289 37.235 33.1382 37.1981 33.1458C37.1613 33.1534 37.1241 33.159 37.0867 33.1628C37.011 33.1699 36.9348 33.1699 36.8591 33.1628C36.8217 33.159 36.7845 33.1534 36.7476 33.1458C36.7107 33.1382 36.6738 33.1289 36.6377 33.1182C36.6017 33.1072 36.5663 33.0944 36.5316 33.0797C36.4969 33.0657 36.463 33.0498 36.4301 33.0321C36.3963 33.0144 36.364 32.9944 36.3325 32.9744C36.3017 32.9529 36.271 32.9306 36.2417 32.9067C36.2123 32.8828 36.1841 32.8574 36.1572 32.8306C36.131 32.8037 36.1049 32.7761 36.0811 32.7461C36.0571 32.7171 36.0347 32.6868 36.0142 32.6554C35.9937 32.6238 35.9745 32.5915 35.9565 32.5585C35.9388 32.5254 35.9227 32.4908 35.9081 32.4562C35.8935 32.4216 35.8812 32.3863 35.8696 32.3501C35.8581 32.314 35.8497 32.2771 35.842 32.2402C35.8267 32.1661 35.8192 32.0906 35.8197 32.0149C35.8197 31.9773 35.822 31.9396 35.8251 31.9019C35.8281 31.8643 35.8351 31.8266 35.842 31.7897C35.8489 31.7528 35.8589 31.7166 35.8696 31.6805C35.8804 31.6444 35.8935 31.609 35.9081 31.5744C35.9227 31.5398 35.9388 31.5052 35.9565 31.4722C35.992 31.4056 36.0337 31.3425 36.0811 31.2838C36.1049 31.2546 36.131 31.2261 36.1572 31.2C36.1841 31.1732 36.2123 31.1478 36.2417 31.1239C36.271 31.1001 36.3017 31.077 36.3325 31.0562C36.364 31.0354 36.3966 31.0161 36.4301 30.9986C36.4632 30.9809 36.497 30.9648 36.5316 30.9501C36.5662 30.9363 36.6023 30.9232 36.6377 30.9125C36.6738 30.9014 36.7105 30.8921 36.7476 30.8848C36.8963 30.8546 37.0495 30.8546 37.1981 30.8848C37.2352 30.8921 37.2719 30.9014 37.3081 30.9125C37.3434 30.9232 37.3796 30.9363 37.4142 30.9501C37.4488 30.964 37.4826 30.9809 37.5157 30.9986C37.5492 31.0161 37.5817 31.0354 37.6133 31.0562C37.644 31.077 37.6748 31.1001 37.704 31.1239C37.7335 31.1478 37.7617 31.1732 37.7886 31.2C37.8147 31.2261 37.8409 31.2546 37.8647 31.2838C37.912 31.3425 37.9537 31.4056 37.9892 31.4722C38.0069 31.5052 38.0231 31.5398 38.0377 31.5744C38.0523 31.609 38.0646 31.6444 38.0761 31.6805C38.0876 31.7166 38.0961 31.7535 38.1038 31.7897C38.1115 31.8258 38.1169 31.8639 38.1207 31.9016V31.9019ZM39.6629 32.0149C39.6628 31.8636 39.6925 31.7136 39.7504 31.5737C39.8082 31.4338 39.893 31.3067 40 31.1996C40.107 31.0925 40.2341 31.0076 40.3739 30.9496C40.5138 30.8916 40.6637 30.8618 40.8151 30.8617H40.8172C41.0452 30.8619 41.2681 30.9298 41.4576 31.0566C41.6471 31.1835 41.7947 31.3636 41.8819 31.5744C41.969 31.7851 41.9917 32.0169 41.947 32.2406C41.9024 32.4642 41.7925 32.6696 41.6312 32.8308C41.4699 32.9919 41.2644 33.1017 41.0407 33.1461C40.817 33.1905 40.5852 33.1676 40.3746 33.0803C40.1639 32.9929 39.9839 32.8451 39.8572 32.6555C39.7305 32.4659 39.6629 32.243 39.6629 32.0149ZM43.5116 32.1284C43.5078 32.0906 43.506 32.0526 43.5062 32.0146C43.506 31.9769 43.5078 31.9392 43.5116 31.9016C43.5154 31.8639 43.5215 31.8263 43.5285 31.7894C43.5354 31.7525 43.5454 31.7163 43.5561 31.6802C43.567 31.6442 43.5798 31.6087 43.5946 31.5741C43.6084 31.5395 43.6253 31.5049 43.6422 31.4719C43.6784 31.4055 43.7203 31.3425 43.7676 31.2835C43.7914 31.2543 43.8175 31.2258 43.8437 31.1997C43.8706 31.1729 43.8988 31.1475 43.9282 31.1236C43.9572 31.0993 43.9875 31.0767 44.019 31.0559C44.0505 31.0354 44.0828 31.0162 44.1158 30.9983C44.1489 30.9806 44.1835 30.9644 44.2181 30.9498C44.2527 30.9352 44.2888 30.9229 44.3242 30.9122C44.3603 30.901 44.397 30.8918 44.4341 30.8845C44.5454 30.8619 44.6594 30.8562 44.7724 30.8676C44.8101 30.8713 44.8475 30.8769 44.8846 30.8845C44.9215 30.8917 44.9579 30.901 44.9938 30.9122C45.0299 30.9229 45.0661 30.936 45.1007 30.9498C45.1353 30.9637 45.1691 30.9806 45.2021 30.9983C45.2356 31.0158 45.2682 31.0351 45.2998 31.0559C45.3305 31.0767 45.3613 31.0998 45.3905 31.1236C45.4199 31.1473 45.4479 31.1727 45.4743 31.1997C45.5012 31.2258 45.5266 31.2543 45.5512 31.2835C45.5743 31.3127 45.5973 31.3435 45.6181 31.375C45.6389 31.4063 45.6582 31.4386 45.6757 31.4719C45.6934 31.5049 45.7096 31.5395 45.7242 31.5741C45.7387 31.6088 45.7512 31.6442 45.7618 31.6802C45.7733 31.716 45.7826 31.7524 45.7895 31.7894C45.7975 31.8264 45.8031 31.8639 45.8064 31.9016C45.8104 31.9392 45.8124 31.9769 45.8126 32.0146C45.8124 32.0526 45.8104 32.0906 45.8064 32.1284C45.8031 32.1659 45.7974 32.2031 45.7895 32.2399C45.7826 32.2771 45.7733 32.3138 45.7618 32.3498C45.7511 32.3858 45.7385 32.4212 45.7242 32.4559C45.7096 32.4905 45.6934 32.5251 45.6757 32.5582C45.658 32.5912 45.6388 32.6235 45.6181 32.655C45.5973 32.6866 45.5743 32.7173 45.5512 32.7458C45.5266 32.7757 45.5012 32.8034 45.4743 32.8303C45.4479 32.8573 45.4199 32.8827 45.3905 32.9064C45.3613 32.9303 45.3305 32.9526 45.2998 32.9733C45.2682 32.9944 45.2357 33.0139 45.2021 33.0318C45.1692 33.0495 45.1353 33.0654 45.1007 33.0794C45.0658 33.0942 45.0301 33.107 44.9938 33.1179C44.9584 33.1286 44.9215 33.1379 44.8846 33.1455C44.8105 33.1606 44.735 33.1681 44.6594 33.1678C44.6214 33.168 44.5834 33.1662 44.5456 33.1625C44.5082 33.1587 44.471 33.1531 44.4341 33.1455C44.3972 33.1379 44.3603 33.1286 44.3242 33.1179C44.2882 33.1069 44.2528 33.094 44.2181 33.0794C44.1832 33.0654 44.149 33.0495 44.1158 33.0318C44.0828 33.0141 44.0505 32.9941 44.019 32.9733C43.9875 32.9528 43.9572 32.9305 43.9282 32.9064C43.8988 32.8825 43.8706 32.8571 43.8437 32.8303C43.8175 32.8034 43.7914 32.7757 43.7676 32.7458C43.7436 32.7168 43.7212 32.6865 43.7007 32.655C43.6799 32.6235 43.6599 32.5912 43.6422 32.5582C43.6246 32.5251 43.6084 32.4905 43.5946 32.4559C43.58 32.4212 43.5671 32.3858 43.5561 32.3498C43.5454 32.3137 43.5362 32.2768 43.5285 32.2399C43.5208 32.203 43.5154 32.1653 43.5116 32.1284Z" fill="white"/>
</g>
<path d="M58.7493 59.8034L61.6113 56.7624L62.5463 57.6423L59.6844 60.6834L58.7493 59.8034ZM61.4532 62.1833L64.7017 58.7315L65.6542 59.6279L61.3366 64.2157L55.2195 58.4589L59.4219 53.9934L60.3745 54.8898L57.2411 58.2193L61.4532 62.1833ZM65.2899 63.5694C65.1528 63.7151 64.9884 63.7965 64.7965 63.8136C64.61 63.8249 64.4382 63.7566 64.2809 63.6085C64.1236 63.4605 64.042 63.2904 64.0362 63.0981C64.0358 62.9 64.1042 62.7282 64.2413 62.5825C64.3783 62.4369 64.543 62.3612 64.7352 62.3553C64.933 62.3437 65.1105 62.4118 65.2678 62.5599C65.4251 62.7079 65.501 62.8782 65.4955 63.0708C65.4955 63.2576 65.427 63.4238 65.2899 63.5694ZM55.2641 57.4134L55.1689 55.1157L56.1065 54.1195L58.4057 54.0752L57.5586 54.9753L55.4352 55.218L56.2247 54.3791L56.1112 56.5133L55.2641 57.4134Z" fill="white"/>
<path d="M52.9597 59.6305L54.327 58.8794L58.3715 66.2416L57.0042 66.9927L52.9597 59.6305ZM53.1969 69.0843L51.8297 69.8354L47.7852 62.4732L49.1524 61.7221L53.1969 69.0843ZM55.376 63.7797L51.3479 65.9926L50.7065 64.8252L54.7347 62.6123L55.376 63.7797Z" fill="white"/>
<path d="M36.2739 71.4427L36.3647 63.0432L37.6486 63.0571L42.8464 69.5816L42.2104 69.5747L42.2803 63.1071L43.8282 63.1238L43.7375 71.5233L42.4536 71.5095L37.2557 64.9849L37.8917 64.9918L37.8218 71.4594L36.2739 71.4427Z" fill="white"/>
<path d="M30.3167 64.5032L34.2511 65.903L33.8208 67.1127L29.8863 65.713L30.3167 64.5032ZM29.2231 67.9352L33.6889 69.524L33.2505 70.7563L27.3149 68.6447L30.1304 60.7306L35.9077 62.7859L35.4693 64.0182L31.1618 62.4858L29.2231 67.9352ZM31.1059 60.3516L33.1719 59.3417L34.4608 59.8002L35.4247 61.8881L34.2602 61.4738L33.1852 59.6266L34.2705 60.0127L32.2704 60.7659L31.1059 60.3516Z" fill="white"/>
<path d="M22.8003 65.9869L27.4293 58.9774L28.731 59.8371L24.102 66.8465L22.8003 65.9869Z" fill="white"/>
<path d="M16.6821 59.9861L22.7345 54.1613L23.8163 55.2853L18.715 60.1948L21.7605 63.3593L20.8094 64.2746L16.6821 59.9861Z" fill="white"/>
<defs>
<clipPath id="bgblur_0_2396_22927_clip_path" transform="translate(16.5 16.5)"><path d="M41 0.5C63.3675 0.5 81.5 18.6325 81.5 41C81.5 63.3675 63.3675 81.5 41 81.5C18.6325 81.5 0.5 63.3675 0.5 41C0.5 18.6325 18.6325 0.5 41 0.5Z"/>
</clipPath><linearGradient id="paint0_linear_2396_22927" x1="41" y1="5" x2="41" y2="77" gradientUnits="userSpaceOnUse">
<stop stop-color="#ED1C24"/>
<stop offset="1" stop-color="#871015"/>
</linearGradient>
<clipPath id="clip1_2396_22927">
<rect width="42" height="42" fill="white" transform="translate(20 12)"/>
</clipPath>
</defs>
</svg>
