<svg width="108" height="108" viewBox="0 0 108 108" fill="none" xmlns="http://www.w3.org/2000/svg">
<g filter="url(#filter0_di_252_13568)">
<g clip-path="url(#clip0_252_13568)">
<rect x="13" y="1" width="82" height="82" rx="41" fill="url(#paint0_radial_252_13568)" fill-opacity="0.1" style="mix-blend-mode:plus-lighter" shape-rendering="crispEdges"/>
<path d="M54 1.5C76.3675 1.5 94.5 19.6325 94.5 42C94.5 64.3675 76.3675 82.5 54 82.5C31.6325 82.5 13.5 64.3675 13.5 42C13.5 19.6325 31.6325 1.5 54 1.5Z" fill="white" stroke="#DC1A21"/>
<path d="M40.5 36.207L34.707 42L40.5 47.793V36.207Z" stroke="#D01920"/>
<path d="M68.5 36.207L74.293 42L68.5 47.793V36.207Z" stroke="#D01920"/>
<path d="M59.793 28.5L54 22.707L48.207 28.5H59.793Z" stroke="#D01920"/>
<path d="M59.793 56.5L54 62.293L48.207 56.5H59.793Z" stroke="#D01920"/>
</g>
<rect x="13.1511" y="1.15114" width="81.6977" height="81.6977" rx="40.8489" stroke="url(#paint1_linear_252_13568)" stroke-opacity="0.3" stroke-width="0.302285" style="mix-blend-mode:plus-lighter" shape-rendering="crispEdges"/>
<rect x="13.1511" y="1.15114" width="81.6977" height="81.6977" rx="40.8489" stroke="white" stroke-opacity="0.1" stroke-width="0.302285" shape-rendering="crispEdges"/>
</g>
<defs>
<filter id="filter0_di_252_13568" x="0.75747" y="0.848856" width="106.485" height="106.485" filterUnits="userSpaceOnUse" color-interpolation-filters="sRGB">
<feFlood flood-opacity="0" result="BackgroundImageFix"/>
<feColorMatrix in="SourceAlpha" type="matrix" values="0 0 0 0 0 0 0 0 0 0 0 0 0 0 0 0 0 0 127 0" result="hardAlpha"/>
<feMorphology radius="2.8717" operator="erode" in="SourceAlpha" result="effect1_dropShadow_252_13568"/>
<feOffset dy="12.0914"/>
<feGaussianBlur stdDeviation="7.55712"/>
<feComposite in2="hardAlpha" operator="out"/>
<feColorMatrix type="matrix" values="0 0 0 0 0 0 0 0 0 0 0 0 0 0 0 0 0 0 0.25 0"/>
<feBlend mode="overlay" in2="BackgroundImageFix" result="effect1_dropShadow_252_13568"/>
<feBlend mode="normal" in="SourceGraphic" in2="effect1_dropShadow_252_13568" result="shape"/>
<feColorMatrix in="SourceAlpha" type="matrix" values="0 0 0 0 0 0 0 0 0 0 0 0 0 0 0 0 0 0 127 0" result="hardAlpha"/>
<feOffset/>
<feGaussianBlur stdDeviation="2.93216"/>
<feComposite in2="hardAlpha" operator="arithmetic" k2="-1" k3="1"/>
<feColorMatrix type="matrix" values="0 0 0 0 1 0 0 0 0 1 0 0 0 0 1 0 0 0 0.1 0"/>
<feBlend mode="plus-lighter" in2="shape" result="effect2_innerShadow_252_13568"/>
</filter>
<radialGradient id="paint0_radial_252_13568" cx="0" cy="0" r="1" gradientUnits="userSpaceOnUse" gradientTransform="translate(23.948 14.4462) rotate(43.4958) scale(64.6554)">
<stop stop-color="white"/>
<stop offset="1" stop-color="white" stop-opacity="0"/>
</radialGradient>
<linearGradient id="paint1_linear_252_13568" x1="22.405" y1="13.8584" x2="95" y2="88.4373" gradientUnits="userSpaceOnUse">
<stop stop-color="white"/>
<stop offset="1" stop-color="white" stop-opacity="0"/>
</linearGradient>
<clipPath id="clip0_252_13568">
<rect x="13" y="1" width="82" height="82" rx="41" fill="white"/>
</clipPath>
</defs>
</svg>
