<svg width="74" height="74" viewBox="0 0 74 74" fill="none" xmlns="http://www.w3.org/2000/svg">
<foreignObject x="-16.5" y="-16.5" width="107" height="107"><div xmlns="http://www.w3.org/1999/xhtml" style="backdrop-filter:blur(8.25px);clip-path:url(#bgblur_0_4278_20870_clip_path);height:100%;width:100%"></div></foreignObject><g data-figma-bg-blur-radius="16.5">
<path d="M37 0.5C57.1584 0.5 73.5 16.8416 73.5 37C73.5 57.1584 57.1584 73.5 37 73.5C16.8416 73.5 0.5 57.1584 0.5 37C0.5 16.8416 16.8416 0.5 37 0.5Z" fill="white" fill-opacity="0.13"/>
<path d="M37 0.5C57.1584 0.5 73.5 16.8416 73.5 37C73.5 57.1584 57.1584 73.5 37 73.5C16.8416 73.5 0.5 57.1584 0.5 37C0.5 16.8416 16.8416 0.5 37 0.5Z" stroke="url(#paint0_linear_4278_20870)"/>
</g>
<g clip-path="url(#clip1_4278_20870)">
<path d="M36.9995 69.4873C54.942 69.4873 69.4873 54.942 69.4873 36.9995C69.4873 19.057 54.942 4.51172 36.9995 4.51172C19.057 4.51172 4.51172 19.057 4.51172 36.9995C4.51172 54.942 19.057 69.4873 36.9995 69.4873Z" fill="url(#paint1_linear_4278_20870)"/>
<path d="M5.6597 37.5351L13.2804 36.4331L13.4489 37.598L8.27203 43.2258L8.1886 42.6488L14.0566 41.8002L14.2596 43.2046L6.63891 44.3066L6.47046 43.1418L11.6473 37.5139L11.7308 38.0909L5.86279 38.9395L5.6597 37.5351ZM9.48681 51.1459L16.476 47.9147L17.0761 49.2127L10.0869 52.4439L9.48681 51.1459ZM7.21573 46.2335L14.205 43.0023L14.805 44.3003L7.81581 47.5315L7.21573 46.2335ZM10.7604 46.0368L11.8687 45.5245L13.6366 49.3486L12.5284 49.861L10.7604 46.0368ZM10.4698 53.3079L18.5692 50.9213L19.4864 51.9896L15.9082 59.6427L14.9337 58.5076L18.2584 51.7245L18.631 52.1585L11.4299 54.4263L10.4698 53.3079ZM12.8608 53.3573L13.9629 52.9186L16.6714 56.0735L16.0708 57.0965L12.8608 53.3573ZM19.3316 50.8468L19.2282 48.4129L20.2815 49.6398L20.1054 51.7482L19.3316 50.8468ZM19.1151 61.9957L22.8547 55.2647L25.624 56.8033C26.2202 57.1345 26.6764 57.5138 26.9926 57.9412C27.3153 58.3721 27.4923 58.8312 27.5236 59.3184C27.5549 59.8056 27.4335 60.296 27.1592 60.7896C26.885 61.2832 26.5328 61.6454 26.1025 61.8761C25.6723 62.1069 25.189 62.1991 24.6527 62.1528C24.1228 62.1101 23.5597 61.9231 22.9635 61.5919L20.8866 60.4379L21.7702 60.1612L20.3651 62.6902L19.1151 61.9957ZM21.6954 60.2959L21.4742 59.3802L23.4935 60.5021C24.0448 60.8084 24.5224 60.9227 24.9262 60.8451C25.3401 60.7646 25.6645 60.5128 25.8996 60.0897C26.1382 59.6602 26.1806 59.2517 26.0267 58.8643C25.8793 58.4803 25.5299 58.1352 24.9786 57.829L22.9594 56.7071L23.859 56.4015L21.6954 60.2959ZM31.3386 66.8116L33.1386 59.325L34.529 59.6592L32.7289 67.1459L31.3386 66.8116ZM26.0765 65.5464L27.8765 58.0598L29.2669 58.3941L27.4669 65.8807L26.0765 65.5464ZM28.1207 62.6439L28.4061 61.4567L32.5024 62.4416L32.2169 63.6288L28.1207 62.6439ZM33.6421 67.381L36.7815 59.5426L38.1883 59.4836L41.9837 67.0313L40.4891 67.0939L37.22 60.2839L37.7915 60.2599L35.1148 67.3192L33.6421 67.381ZM35.161 65.5337L35.4987 64.3966L39.6531 64.2224L40.0847 65.3273L35.161 65.5337ZM35.3595 58.9747L36.7691 57.4072L38.022 57.3547L39.5578 58.7987L38.4258 58.8461L36.8782 57.6449L37.9332 57.6007L36.4915 58.9272L35.3595 58.9747ZM42.8853 66.7084L40.4558 59.4017L41.5727 59.0303L48.0257 63.1328L47.4725 63.3168L45.6018 57.6906L46.9483 57.2429L49.3778 64.5496L48.2609 64.921L41.8079 60.8185L42.3611 60.6345L44.2318 66.2607L42.8853 66.7084ZM53.7687 62.0926L48.8826 56.1415L51.331 54.1312C51.8581 53.6984 52.3785 53.4135 52.8922 53.2764C53.4115 53.1346 53.9035 53.1387 54.3681 53.2886C54.8328 53.4384 55.2442 53.7316 55.6026 54.168C55.9609 54.6044 56.1683 55.0651 56.2249 55.55C56.2814 56.0349 56.1896 56.5183 55.9495 57.0001C55.715 57.4772 55.3342 57.9322 54.8071 58.365L52.9708 59.8727L53.0381 58.9492L54.8739 61.1852L53.7687 62.0926ZM53.1358 59.0683L52.203 58.9375L53.9883 57.4717C54.4757 57.0715 54.7575 56.6693 54.8337 56.2652C54.9109 55.8507 54.796 55.4565 54.4888 55.0824C54.1771 54.7026 53.8127 54.5131 53.3958 54.5138C52.9846 54.5099 52.5352 54.708 52.0478 55.1082L50.2625 56.5741L50.3089 55.6251L53.1358 59.0683ZM62.7461 52.4987L56.4505 48.0652L57.2739 46.8961L63.5695 51.3296L62.7461 52.4987ZM59.63 56.9236L53.3344 52.4901L54.1578 51.3209L60.4533 55.7544L59.63 56.9236ZM57.6856 53.9533L56.6873 53.2503L59.113 49.8057L60.1113 50.5087L57.6856 53.9533ZM65.7144 46.1483C65.5241 46.7187 65.2551 47.2127 64.9072 47.63C64.5593 48.0474 64.1592 48.3778 63.707 48.6213C63.2478 48.8624 62.7596 49.005 62.2425 49.049C61.7184 49.0907 61.185 49.021 60.6424 48.8401C60.0998 48.6592 59.6349 48.3959 59.2476 48.0503C58.8534 47.7024 58.5485 47.2954 58.3329 46.8293C58.1103 46.3608 57.9852 45.8553 57.9574 45.3126C57.9296 44.77 58.0097 44.2169 58.1976 43.6534C58.3878 43.0829 58.6557 42.5925 59.0013 42.1821C59.3492 41.7647 59.7527 41.4354 60.2119 41.1943C60.6641 40.9509 61.1523 40.8083 61.6764 40.7666C62.1935 40.7226 62.7234 40.7911 63.2661 40.972C63.8087 41.153 64.2771 41.4174 64.6713 41.7653C65.0655 42.1132 65.3704 42.5202 65.586 42.9863C65.8016 43.4525 65.9233 43.9569 65.9511 44.4995C65.9812 45.0352 65.9023 45.5848 65.7144 46.1483ZM64.5213 45.762C64.6442 45.3933 64.6953 45.0316 64.6745 44.6768C64.6536 44.322 64.5667 43.9915 64.4137 43.6854C64.2537 43.3769 64.0415 43.1091 63.7772 42.8818C63.5082 42.6452 63.1859 42.4643 62.8102 42.339C62.4346 42.2137 62.0716 42.1662 61.7215 42.1963C61.3667 42.2171 61.0362 42.304 60.7301 42.4571C60.417 42.6078 60.1456 42.8188 59.916 43.0901C59.6864 43.3614 59.5101 43.6814 59.3872 44.0501C59.2642 44.4188 59.2132 44.7805 59.234 45.1353C59.2572 45.4832 59.3476 45.8148 59.5052 46.1302C59.6583 46.4364 59.8693 46.7077 60.1382 46.9443C60.4026 47.1716 60.7226 47.3478 61.0982 47.4731C61.467 47.5961 61.8287 47.6471 62.1835 47.6263C62.5407 47.5985 62.8758 47.5092 63.1888 47.3585C63.495 47.2055 63.7628 46.9934 63.9924 46.7221C64.2221 46.4508 64.3983 46.1308 64.5213 45.762ZM57.0425 45.483L56.3957 43.7019L56.7854 42.5332L58.3717 41.4967L58.0099 42.582L56.6566 43.6845L56.9837 42.7036L57.4044 44.3977L57.0425 45.483ZM57.1299 42.0219L56.3056 40.4251L56.7719 39.0268L57.4639 41.0201L57.1299 42.0219ZM67.1764 40.7413L59.5264 39.8654L59.6891 38.4447L67.3391 39.3206L67.1764 40.7413Z" fill="white"/>
<g clip-path="url(#clip2_4278_20870)">
<path d="M43.6443 29.7793H39.3524C38.1778 29.7793 37.2227 30.7639 37.2227 31.9747V35.3675C37.2227 36.5783 38.1778 37.5629 39.3524 37.5629H43.6443C44.8189 37.5629 45.7741 36.5783 45.7741 35.3675V31.9747C45.7741 30.7639 44.8189 29.7793 43.6443 29.7793ZM44.2251 35.3675C44.2251 35.7002 43.9605 35.9663 43.6443 35.9663H39.3524C39.0297 35.9663 38.7716 35.6935 38.7716 35.3675V31.9747C38.7716 31.642 39.0362 31.3759 39.3524 31.3759H43.6443C43.967 31.3759 44.2251 31.6487 44.2251 31.9747V35.3675Z" fill="white"/>
<path d="M52.7924 23.6126C52.7924 23.4729 52.7601 23.3398 52.6891 23.22L47.9907 14.7046C47.8552 14.4585 47.597 14.2988 47.3195 14.2988H26.6735C26.396 14.2988 26.1378 14.4518 26.0023 14.7046L21.3103 23.22C21.2458 23.3398 21.207 23.4729 21.207 23.6126C21.207 25.5219 22.3236 27.1584 23.9177 27.8836V41.9273C23.9177 42.3664 24.2662 42.7257 24.6921 42.7257H49.3008C49.7268 42.7257 50.0753 42.3664 50.0753 41.9273V27.9834C50.0753 27.9501 50.0753 27.9235 50.0689 27.8969C51.6694 27.1717 52.7924 25.5285 52.7924 23.6126ZM27.1253 15.9021H46.8677L50.54 22.5614H23.4594L27.1253 15.9021ZM43.6859 24.1514C43.4407 25.5884 42.2209 26.6794 40.7559 26.6794C39.2908 26.6794 38.0711 25.5884 37.8258 24.1514H43.6859ZM36.1801 24.1514C35.9348 25.5884 34.715 26.6794 33.25 26.6794C31.785 26.6794 30.5652 25.5884 30.3135 24.1514H36.1801ZM22.8076 24.1514H28.6742C28.4289 25.5884 27.2027 26.6794 25.7377 26.6794C24.2726 26.6861 23.0528 25.5884 22.8076 24.1514ZM34.2181 41.129H29.7649V32.5138C29.7649 31.8885 30.2554 31.3762 30.8685 31.3762H33.1209C33.7276 31.3762 34.2245 31.8818 34.2245 32.5138V41.129H34.2181ZM48.5264 41.129H35.767V32.5138C35.767 31.0103 34.5795 29.7796 33.1145 29.7796H30.8621C29.4035 29.7796 28.2095 31.0037 28.2095 32.5138V41.1357H25.4666V28.2761C25.557 28.2827 25.6473 28.2827 25.7377 28.2827C27.2995 28.2827 28.6806 27.4644 29.4938 26.2204C30.307 27.4644 31.6882 28.2827 33.25 28.2827C34.8118 28.2827 36.1865 27.4644 37.0062 26.2204C37.8194 27.4644 39.2005 28.2827 40.7559 28.2827C42.3177 28.2827 43.6924 27.4644 44.5056 26.2204C45.3188 27.4644 46.6999 28.2827 48.2618 28.2827C48.3521 28.2827 48.436 28.2761 48.5264 28.2761V41.129ZM48.2618 26.6861C46.7967 26.6861 45.5769 25.595 45.3317 24.1581H51.1983C50.9466 25.5884 49.7268 26.6861 48.2618 26.6861Z" fill="white"/>
</g>
</g>
<defs>
<clipPath id="bgblur_0_4278_20870_clip_path" transform="translate(16.5 16.5)"><path d="M37 0.5C57.1584 0.5 73.5 16.8416 73.5 37C73.5 57.1584 57.1584 73.5 37 73.5C16.8416 73.5 0.5 57.1584 0.5 37C0.5 16.8416 16.8416 0.5 37 0.5Z"/>
</clipPath><linearGradient id="paint0_linear_4278_20870" x1="37" y1="0" x2="37" y2="74" gradientUnits="userSpaceOnUse">
<stop stop-color="#21A474"/>
<stop offset="1" stop-color="#00754A"/>
</linearGradient>
<linearGradient id="paint1_linear_4278_20870" x1="36.9995" y1="4.51172" x2="36.9995" y2="69.4873" gradientUnits="userSpaceOnUse">
<stop stop-color="#21A474"/>
<stop offset="1" stop-color="#00754A"/>
</linearGradient>
<clipPath id="clip1_4278_20870">
<rect width="64.9756" height="64.9756" fill="white" transform="translate(4.51172 4.51172)"/>
</clipPath>
<clipPath id="clip2_4278_20870">
<rect width="37.9024" height="37.9024" fill="white" transform="translate(18.0469 9.56055)"/>
</clipPath>
</defs>
</svg>
