<svg width="21" height="20" viewBox="0 0 21 20" fill="none" xmlns="http://www.w3.org/2000/svg">
<path d="M19.9282 17.8746C18.5004 15.4062 16.3001 13.6362 13.7322 12.7971C15.0024 12.041 15.9892 10.8888 16.5412 9.51755C17.0932 8.14629 17.1797 6.63175 16.7876 5.20652C16.3955 3.78129 15.5464 2.52418 14.3707 1.62824C13.1949 0.732298 11.7576 0.24707 10.2794 0.24707C8.80124 0.24707 7.36393 0.732298 6.1882 1.62824C5.01248 2.52418 4.16336 3.78129 3.77125 5.20652C3.37913 6.63175 3.4657 8.14629 4.01767 9.51755C4.56963 10.8888 5.55646 12.041 6.82662 12.7971C4.2588 13.6352 2.05849 15.4052 0.630679 17.8746C0.578318 17.96 0.543588 18.055 0.528537 18.154C0.513486 18.253 0.518419 18.3541 0.543045 18.4511C0.567671 18.5482 0.611492 18.6394 0.671921 18.7192C0.73235 18.7991 0.808164 18.8661 0.894889 18.9162C0.981615 18.9663 1.0775 18.9985 1.17687 19.0109C1.27625 19.0234 1.37711 19.0158 1.47351 18.9886C1.56991 18.9614 1.65989 18.9152 1.73814 18.8527C1.81639 18.7902 1.88132 18.7126 1.92912 18.6246C3.69537 15.5721 6.81724 13.7496 10.2794 13.7496C13.7416 13.7496 16.8635 15.5721 18.6297 18.6246C18.6775 18.7126 18.7425 18.7902 18.8207 18.8527C18.899 18.9152 18.9889 18.9614 19.0853 18.9886C19.1817 19.0158 19.2826 19.0234 19.382 19.0109C19.4814 18.9985 19.5772 18.9663 19.664 18.9162C19.7507 18.8661 19.8265 18.7991 19.8869 18.7192C19.9474 18.6394 19.9912 18.5482 20.0158 18.4511C20.0404 18.3541 20.0454 18.253 20.0303 18.154C20.0153 18.055 19.9805 17.96 19.9282 17.8746ZM5.02943 6.99962C5.02943 5.96127 5.33734 4.94624 5.91421 4.08288C6.49109 3.21952 7.31103 2.54661 8.27034 2.14925C9.22965 1.75189 10.2853 1.64793 11.3037 1.8505C12.3221 2.05307 13.2575 2.55308 13.9917 3.28731C14.726 4.02154 15.226 4.957 15.4286 5.9754C15.6311 6.9938 15.5272 8.0494 15.1298 9.00871C14.7324 9.96802 14.0595 10.788 13.1962 11.3648C12.3328 11.9417 11.3178 12.2496 10.2794 12.2496C8.8875 12.2481 7.55301 11.6945 6.56876 10.7103C5.58452 9.72604 5.03092 8.39155 5.02943 6.99962Z" fill="white"/>
</svg>
