<svg width="113" height="100" viewBox="0 0 113 100" fill="none" xmlns="http://www.w3.org/2000/svg">
<path d="M56.1625 0.00133743C37.934 0.16348 23.2914 15.0294 23.454 33.2064C23.6166 51.3834 38.5332 65.9847 56.7617 65.8226C74.9816 65.6605 89.6328 50.7946 89.4616 32.609C89.299 14.4405 74.391 -0.160805 56.1625 0.00133743Z" fill="url(#paint0_radial_2356_1237)"/>
<path d="M78.1394 54.1484C72.688 59.6869 65.1313 63.1431 56.7359 63.2199C48.3405 63.2967 40.7153 59.977 35.1697 54.5324C29.6156 49.0964 26.1411 41.5525 26.0726 33.1894C25.9956 24.8177 29.3247 17.2141 34.7761 11.6756C40.2275 6.13718 47.7928 2.68101 56.1882 2.60421C64.5835 2.5274 72.2001 5.85558 77.7542 11.2916C83.3083 16.7277 86.7743 24.2715 86.8513 32.6347C86.9198 41.0063 83.5908 48.61 78.1394 54.1484Z" fill="url(#paint1_linear_2356_1237)"/>
<path d="M75.8531 38.4972C73.8077 37.7718 73.4654 35.3909 74.886 34.6826C76.2981 33.9743 78.4205 32.7028 78.0097 28.0433C77.6332 25.8842 76.7431 24.7151 74.3811 22.0611C72.9862 20.4994 72.2074 19.2961 72.0961 18.1953C72.0961 18.1839 72.0961 18.1697 72.0961 18.1526C72.0562 17.6918 72.1361 17.2338 72.3358 16.7787C72.3871 16.6478 72.4441 16.5283 72.5069 16.4202C72.9348 15.7546 73.4996 15.6693 73.4996 15.6693C73.4996 15.6693 73.4996 15.6721 73.4996 15.6778C74.1586 15.5156 74.6207 15.9765 75.1855 16.5227C75.8616 17.1798 77.6246 17.376 78.506 16.2922C78.9425 15.8314 79.1993 15.0975 79.0966 14.0052C78.4804 14.5087 77.1711 15.0122 75.5964 14.6196C74.501 14.3551 72.661 14.3551 71.7282 15.7717C71.2917 16.3861 71.0264 17.2907 71.0949 18.5878C71.1976 19.8423 72.216 21.4296 75.0144 24.3311C75.4252 25.0821 77.3679 26.8229 76.5549 30.8765C76.418 31.38 76.0841 32.2249 75.408 32.643C74.9887 32.8734 74.4496 32.9417 73.7478 32.6857C71.3431 30.3474 68.0568 28.8967 64.4196 28.9308C63.5867 28.9422 62.7765 29.0304 61.9892 29.1953C61.9892 29.1669 61.9921 29.1356 61.9978 29.1015C61.9721 27.0875 61.2532 25.2442 60.0722 23.7849C60.0437 23.7565 60.0208 23.7252 60.0037 23.6911L62.3058 24.7919C62.3058 24.7919 62.4 20.8237 58.6773 17.5382C59.2506 17.8369 60.0294 18.2891 60.6712 18.8268C58.8912 14.1076 54.287 13.2115 53.4996 13.0835C53.7906 13.0409 54.3469 12.947 55.4423 12.7678C55.254 12.6767 55.0686 12.5886 54.886 12.5032C53.7678 11.957 52.6952 11.5673 51.6682 11.3341C45.2925 9.68706 41.9378 12.9555 41.9378 12.9555C41.0906 13.0494 38.7029 13.203 38.5403 14.3807C36.7774 14.6879 35.9044 14.6452 35.1941 15.0719C35.0173 14.9638 34.8205 14.9069 34.6037 14.9012C33.9789 14.9097 33.474 15.4218 33.4825 16.0448C33.4882 16.278 33.5567 16.4857 33.6879 16.6677C33.705 16.7019 33.7279 16.7388 33.7564 16.7787C33.6965 17.2395 33.6965 17.5638 33.8763 17.8198C33.9276 17.9108 33.9989 17.9933 34.0902 18.0673C34.3641 18.5708 34.5609 18.9633 34.5951 19.3047C34.6065 19.2933 34.6179 19.2847 34.6293 19.2791C34.635 19.3132 34.6407 19.3473 34.6464 19.3815C35.2711 18.9633 36.0072 18.2124 36.8459 19.2449C37.0855 19.5294 37.2908 19.8195 37.462 20.1154C37.7444 20.6274 37.8814 21.1395 37.7017 21.5917C37.5219 22.1208 37.0426 22.4963 36.4521 22.5048C36.0071 22.5048 35.6221 22.2915 35.3653 21.9587C35.2969 21.8449 35.2426 21.7226 35.2027 21.5917C35.197 21.6031 35.1913 21.6117 35.1856 21.6173C35.1741 21.5889 35.1628 21.5576 35.1514 21.5235C34.9032 21.8819 34.2185 22.9913 34.7919 23.5631C34.7919 23.5687 34.7919 23.5716 34.7919 23.5716C34.8033 23.5829 34.8148 23.5915 34.8262 23.5972C34.8319 23.6085 34.8375 23.6199 34.8432 23.6313C34.8432 23.637 34.8461 23.6399 34.8518 23.6399C34.8575 23.6512 34.8661 23.6654 34.8775 23.6825V23.674C35.2369 24.058 36.0243 24.3994 37.7188 24.442C38.1125 24.4506 38.335 24.5615 38.4633 24.7151C38.5746 24.9199 38.5403 25.193 38.4462 25.4576C37.9413 25.6965 35.7504 26.8827 35.8274 29.7074C35.8274 29.7074 36.1955 28.7345 36.9571 28.4017C36.1013 30.245 35.9815 32.1139 37.7786 35.5274C37.907 35.0581 38.1038 34.418 38.2835 33.8207C38.3263 34.2303 38.7286 37.2427 39.961 40.3234C40.3033 41.4414 40.6028 43.353 39.824 46.3654C39.2078 48.7378 39.0709 49.3607 38.8056 49.4205C38.6686 49.4375 38.5061 49.3266 38.2494 49.2413C37.8557 49.1218 37.2309 48.7719 36.5548 48.6439C36.532 48.6382 36.5092 48.6354 36.4864 48.6354C36.3666 48.6126 36.2467 48.6012 36.1269 48.6012C36.1155 48.6012 36.1099 48.6012 36.1099 48.6012C35.973 48.6012 35.8417 48.6126 35.7161 48.6354C35.7104 48.6411 35.7047 48.6439 35.699 48.6439C35.6876 48.6439 35.6763 48.6468 35.6649 48.6524C35.6363 48.6581 35.605 48.6638 35.5707 48.6695C35.5194 48.6809 35.468 48.6979 35.4166 48.7207C34.5694 49.0023 33.9618 49.796 33.9704 50.7262C33.979 51.3662 34.2784 51.938 34.7405 52.3135L37.4449 52.2878L40.1064 52.2708C40.1121 52.2708 40.1178 52.2736 40.1235 52.2793L42.0662 52.2622C42.0719 52.2565 42.0776 52.2509 42.0833 52.2452H42.1005C42.4599 51.955 42.6909 51.5198 42.6909 51.0248C42.6852 50.8655 42.6567 50.7148 42.6054 50.5726C42.5711 50.3848 42.5226 50.1771 42.4598 49.9496C41.8779 47.8503 44.0602 46.9542 44.625 44.6245C45.1813 42.2948 45.3097 40.204 45.6862 40.204C45.9515 40.1954 47.3208 40.3917 48.2109 41.3902C48.6217 41.851 48.9211 42.4825 48.9724 43.3359C49.1436 46.0838 49.426 48.8231 49.2035 49.1133C49.1921 49.136 49.1751 49.1588 49.1522 49.1815C48.9982 49.3266 48.6473 49.3949 47.2694 48.8999C47.1724 48.8715 47.0697 48.8516 46.9613 48.8402C46.7502 48.7662 46.5306 48.7292 46.3024 48.7292C46.0057 48.7349 45.7319 48.7918 45.4808 48.8999C44.7192 49.2242 44.1886 49.9837 44.1971 50.8542C44.1971 51.3918 44.4282 51.8697 44.7706 52.2366L52.2074 52.1684C52.5754 51.8868 52.8065 51.443 52.7979 50.9395C52.7979 50.9395 52.7979 50.9366 52.7979 50.931C52.7922 50.7034 52.7437 50.4929 52.6524 50.2995C52.5897 50.1003 52.4956 49.9183 52.37 49.7533C52.1133 49.4205 52.0533 49.0877 52.0961 48.7292C52.1731 48.1404 52.5326 47.5174 52.7294 46.8347C53.0289 45.768 53.7992 41.7486 53.8163 41.6035L54.5694 41.6547C55.7333 41.9335 56.9399 42.07 58.1894 42.0643C58.5374 42.0587 58.8798 42.0444 59.2164 42.0217C59.5074 42.2606 63.29 45.3669 63.2215 46.9798C63.153 48.661 62.1004 49.796 60.9793 49.6765C60.7739 49.6594 60.6142 49.6225 60.5001 49.5656C60.4659 49.5485 60.4317 49.5314 60.3974 49.5143C60.1977 49.2299 59.941 49.008 59.6272 48.8487C59.6101 48.8373 59.5929 48.8288 59.5758 48.8231C59.4503 48.7605 59.3162 48.7093 59.1736 48.6695C58.9967 48.624 58.8141 48.6012 58.6259 48.6012C58.1637 48.6098 57.7359 48.7634 57.3936 49.0279C57.1939 49.1588 57.0341 49.3238 56.9143 49.5229C56.6832 49.8557 56.5463 50.2739 56.5549 50.7176C56.5663 51.1329 56.6861 51.5027 56.9143 51.827C56.977 51.9351 57.0541 52.0347 57.1454 52.1257L64.7877 52.0574C65.1557 51.7673 65.3867 51.3321 65.3781 50.8286C65.3781 50.6693 65.3525 50.5156 65.3011 50.3677C65.284 50.2084 65.2555 50.0434 65.2156 49.8728C64.8989 48.6951 67.1239 47.3126 66.9699 44.5221C66.8501 42.1924 66.833 41.8083 66.8245 41.7401C66.8359 41.7457 66.8472 41.7486 66.8586 41.7486C68.613 42.4142 70.5129 42.7812 72.4983 42.7641C72.7151 42.7584 72.9291 42.7499 73.1402 42.7385C73.1573 42.7613 73.1744 42.784 73.1916 42.8068C73.628 43.8223 74.5779 45.0938 73.919 47.0822C73.3456 48.7805 73.0461 49.4888 72.2673 49.3181C72.1475 49.2896 72.022 49.2413 71.8907 49.173C71.5655 49.0109 71.1805 48.8487 70.7697 48.7036L70.7611 48.7122C70.7497 48.7008 70.7383 48.6951 70.7269 48.6951C70.5899 48.6325 70.4473 48.587 70.299 48.5586C70.1677 48.5301 70.0308 48.5131 69.8882 48.5074C69.8654 48.5074 69.8397 48.5074 69.8112 48.5074H69.8026H69.7941C68.6387 48.5159 67.7059 49.4546 67.7144 50.6152C67.723 51.1614 67.9456 51.6393 68.305 52.0148L68.3306 52.0062C68.3363 52.0176 68.342 52.0233 68.3477 52.0233L75.2541 51.9636C75.4195 51.8327 75.5536 51.6762 75.6563 51.4942L75.6734 51.4857C75.8873 51.059 76.1783 50.3336 76.4008 49.1986C76.8201 47.1675 78.4547 43.9588 79.0452 41.7913C79.6528 39.6237 77.8984 39.2311 75.8531 38.4972Z" fill="url(#paint2_radial_2356_1237)"/>
<path fill-rule="evenodd" clip-rule="evenodd" d="M15.5202 87.49C47.6924 87.6266 79.8705 87.7632 112.054 87.8997C110 89.2879 107.949 90.6817 105.901 92.0812H16.744C10.9331 92.0044 6.68837 90.9548 3.68452 88.7701C-0.825528 85.5017 -1.41603 77.5311 3.14537 73.0935C7.28743 69.0741 14.2194 69.5434 19.4911 69.5093C21.4708 69.4922 23.4534 69.4752 25.4388 69.4581C24.4033 70.8577 23.3593 72.3767 22.3238 73.7677C17.6683 73.4519 12.7303 73.4775 9.78636 74.8088C4.00973 77.4116 3.6674 84.6141 10.3084 86.5343C11.943 87.0036 13.5005 87.2426 15.5202 87.49ZM17.8736 86.4063L27.2617 69.5947L33.3294 69.7141V86.2953L28.6652 86.4063L25.8582 82.0967H28.4427L28.5539 77.1641L23.2737 86.4063H17.8736ZM103.017 86.3038H98.156L98.2929 69.6032H104.6L112.919 86.2185L105.422 86.2612L103.282 82.2673L105.696 82.2247L103.017 77.5055V86.3038ZM82.3408 86.4063H77.1804V69.5264H82.3408V86.4063ZM88.7337 86.4063H83.9668V69.5178H88.1431L92.4307 76.1486V69.5178H97.0263V86.4063H92.4564L88.7337 80.646V86.4063ZM63.7272 86.4063H58.4813V69.5178H63.8898L67.0648 75.9182L70.3512 69.5178H75.6485V86.4063H70.4538L70.2485 80.1083L67.4329 85.1347L63.7786 79.895L63.7272 86.4063ZM46.6112 82.3185V69.5264H51.2668V82.1052C51.2668 82.3954 51.4979 82.6258 51.7803 82.6258C52.0627 82.6258 52.2938 82.3954 52.2938 82.1052V69.5264H57.5142V82.3185C57.5142 84.4349 56.0507 86.1758 54.245 86.1758H49.8805C48.0747 86.1758 46.6112 84.4349 46.6112 82.3185ZM34.4418 72.9399C35.0751 70.3541 37.7794 69.0314 40.4067 69.0143C41.6562 69.0058 45.0965 70.0384 45.5758 72.3767C44.8569 73.3609 44.138 74.348 43.4191 75.3379C42.4179 74.0152 41.4765 72.5473 39.4226 73.3239C38.738 73.9554 39.0204 74.7661 40.2784 75.8499C40.8005 76.3619 41.4508 76.8825 42.0242 77.3348C44.0952 78.9989 46.8852 81.7639 44.1124 84.8617C42.7146 86.119 41.0885 86.6338 39.2343 86.4063C37.0606 86.1503 36.0165 84.8104 34.4247 83.4109C35.3033 82.3812 36.1791 81.3486 37.0521 80.3131C37.6853 81.1409 38.4897 81.9772 39.4482 82.438C39.8761 82.6428 40.2955 82.8221 40.6721 82.3954C41.2797 81.7212 40.6977 81.047 40.2013 80.6118C39.8704 80.3216 39.5453 80.0343 39.2258 79.7499C38.37 78.9818 37.5313 78.2138 36.7097 77.4458C34.7585 75.8158 34.091 74.4077 34.4418 72.9399Z" fill="url(#paint3_radial_2356_1237)"/>
<path d="M26.5093 96.1948H25.1914V95.1451H29.3077V96.1948H27.9899V99.3523H26.5093V96.1948Z" fill="url(#paint4_radial_2356_1237)"/>
<path d="M29.9214 99.3523V95.1451H31.402V96.6727H33.0279V95.1451H34.5086V99.3523H33.0279V97.7565H31.402V99.3523H29.9214Z" fill="url(#paint5_radial_2356_1237)"/>
<path d="M35.4072 99.3523V95.1451H38.5652V96.0326H36.8877V96.7751H38.4282V97.6626H36.8877V98.4648H38.5908V99.3523H35.4072Z" fill="url(#paint6_radial_2356_1237)"/>
<path d="M42.4424 96.1948H41.1245V95.1451H45.2408V96.1948H43.923V99.3523H42.4424V96.1948Z" fill="url(#paint7_radial_2356_1237)"/>
<path fill-rule="evenodd" clip-rule="evenodd" d="M45.8579 99.3523V95.1451H48.2712C48.7276 95.1451 49.0957 95.2305 49.3752 95.4011C49.7232 95.606 49.8972 95.9217 49.8972 96.3484C49.8972 96.7978 49.6719 97.1221 49.2211 97.3213C49.3638 97.3838 49.4893 97.4919 49.5977 97.6455C49.6776 97.7593 49.7832 97.9585 49.9144 98.2429L50.4107 99.3523H48.9559L48.6905 98.7294C48.5479 98.388 48.4338 98.1547 48.3482 98.0296C48.1599 97.7394 47.9574 97.5943 47.7406 97.5943H47.3384V99.3523H45.8579ZM47.3384 96.9458H47.7406C48.2484 96.9458 48.5023 96.7552 48.5023 96.374C48.5023 96.0042 48.2598 95.8193 47.7749 95.8193H47.3384V96.9458Z" fill="url(#paint8_radial_2356_1237)"/>
<path d="M55.2878 95.1451V97.4237C55.2878 98.0836 55.0768 98.5871 54.6546 98.9342C54.2666 99.2527 53.7332 99.412 53.0542 99.412C52.3867 99.412 51.8533 99.2755 51.4539 99.0024C50.9918 98.6781 50.7607 98.2031 50.7607 97.5773V95.1451H52.2413V97.3895C52.2413 97.6512 52.3011 97.8589 52.4209 98.0125C52.5579 98.1832 52.7548 98.2685 53.0115 98.2685C53.2796 98.2685 53.4822 98.1718 53.6191 97.9784C53.7446 97.8191 53.8073 97.5972 53.8073 97.3127V95.1451H55.2878Z" fill="url(#paint9_radial_2356_1237)"/>
<path d="M56.0498 99.3523V95.1451H59.2163V96.0326H57.5303V96.7751H59.0708V97.6626H57.5303V98.4648H59.2419V99.3523H56.0498Z" fill="url(#paint10_radial_2356_1237)"/>
<path d="M65.8579 97.9184V99.0364C65.4243 99.2867 64.8993 99.4118 64.2832 99.4118C63.4787 99.4118 62.8654 99.1729 62.4432 98.695C62.0895 98.3081 61.9126 97.8331 61.9126 97.2699C61.9126 96.5815 62.1523 96.0381 62.6315 95.6399C63.0823 95.2701 63.6585 95.0852 64.3603 95.0852C64.9194 95.0852 65.4072 95.1791 65.8236 95.3668V96.5957C65.4129 96.3397 65.0049 96.2117 64.5998 96.2117C64.2461 96.2117 63.9608 96.2941 63.744 96.4591C63.5101 96.6412 63.3932 96.9029 63.3932 97.2442C63.3932 97.5856 63.513 97.8473 63.7526 98.0294C63.9694 98.2001 64.2546 98.2854 64.6084 98.2854C65.002 98.2854 65.4186 98.1631 65.8579 97.9184Z" fill="url(#paint11_radial_2356_1237)"/>
<path fill-rule="evenodd" clip-rule="evenodd" d="M66.5947 97.2442C66.5947 96.5729 66.8115 96.0438 67.2451 95.657C67.6616 95.2758 68.2093 95.0852 68.8882 95.0852C69.5671 95.0852 70.1177 95.2758 70.5399 95.657C70.9735 96.0495 71.1904 96.5786 71.1904 97.2442C71.1904 97.9156 70.9735 98.4475 70.5399 98.84C70.1177 99.2212 69.5671 99.4118 68.8882 99.4118C68.2093 99.4118 67.6616 99.2212 67.2451 98.84C66.8115 98.4475 66.5947 97.9156 66.5947 97.2442ZM68.0752 97.2442C68.0752 97.5173 68.1437 97.7364 68.2806 97.9014C68.4233 98.0834 68.6258 98.1744 68.8882 98.1744C69.1564 98.1744 69.3617 98.0834 69.5044 97.9014C69.6413 97.7364 69.7098 97.5173 69.7098 97.2442C69.7098 96.9768 69.6413 96.7607 69.5044 96.5957C69.3617 96.4137 69.1564 96.3226 68.8882 96.3226C68.6258 96.3226 68.4233 96.4137 68.2806 96.5957C68.1437 96.7607 68.0752 96.9768 68.0752 97.2442Z" fill="url(#paint12_radial_2356_1237)"/>
<path d="M73.354 97.0908L73.3882 99.3523H71.9077V95.1451H73.2342L74.5008 96.8434L75.7588 95.1451H77.0853V99.3523H75.6047L75.6475 97.0908L75.6304 97.0823L74.5008 98.6269L73.3711 97.0823L73.354 97.0908Z" fill="url(#paint13_radial_2356_1237)"/>
<path fill-rule="evenodd" clip-rule="evenodd" d="M77.9595 99.3523V95.1451H80.1418C80.6211 95.1451 81.009 95.2418 81.3057 95.4353C81.648 95.6742 81.8191 96.0184 81.8191 96.4679C81.8191 96.9401 81.6394 97.2985 81.28 97.5431C80.9662 97.748 80.5612 97.8503 80.0648 97.8503H79.4401V99.3523H77.9595ZM79.4487 97.0652H79.808C80.2416 97.0652 80.4584 96.8718 80.4584 96.485C80.4584 96.1095 80.2416 95.9217 79.808 95.9217H79.4487V97.0652Z" fill="url(#paint14_radial_2356_1237)"/>
<path fill-rule="evenodd" clip-rule="evenodd" d="M81.8701 99.3523L83.7957 95.1451H85.3446L87.2701 99.3523H85.8068L85.5244 98.6696H83.616L83.3421 99.3523H81.8701ZM83.9155 97.9101H85.2163L84.5659 96.2374L83.9155 97.9101Z" fill="url(#paint15_radial_2356_1237)"/>
<path d="M87.8091 99.3523V95.1451H89.0758L91.2152 97.3042L91.1296 95.1451H92.6272V99.3523H91.3692L89.2297 97.1932L89.3067 99.3523H87.8091Z" fill="url(#paint16_radial_2356_1237)"/>
<path d="M93.5425 99.3523V95.1451H95.023V99.3523H93.5425Z" fill="url(#paint17_radial_2356_1237)"/>
<path fill-rule="evenodd" clip-rule="evenodd" d="M95.7593 97.2442C95.7593 96.5729 95.9761 96.0438 96.4097 95.657C96.8262 95.2758 97.3739 95.0852 98.0529 95.0852C98.7318 95.0852 99.2823 95.2758 99.7045 95.657C100.138 96.0495 100.355 96.5786 100.355 97.2442C100.355 97.9156 100.138 98.4475 99.7045 98.84C99.2823 99.2212 98.7318 99.4118 98.0529 99.4118C97.3739 99.4118 96.8262 99.2212 96.4097 98.84C95.9761 98.4475 95.7593 97.9156 95.7593 97.2442ZM97.2398 97.2442C97.2398 97.5173 97.3082 97.7364 97.4452 97.9014C97.5878 98.0834 97.7904 98.1744 98.0529 98.1744C98.321 98.1744 98.5264 98.0834 98.669 97.9014C98.8059 97.7364 98.8744 97.5173 98.8744 97.2442C98.8744 96.9768 98.8059 96.7607 98.669 96.5957C98.5264 96.4137 98.321 96.3226 98.0529 96.3226C97.7904 96.3226 97.5878 96.4137 97.4452 96.5957C97.3082 96.7607 97.2398 96.9768 97.2398 97.2442Z" fill="url(#paint18_radial_2356_1237)"/>
<path d="M101.1 99.3523V95.1451H102.358L104.497 97.3042L104.42 95.1451H105.918V99.3523H104.651L102.512 97.1932L102.597 99.3523H101.1Z" fill="url(#paint19_radial_2356_1237)"/>
<defs>
<radialGradient id="paint0_radial_2356_1237" cx="0" cy="0" r="1" gradientTransform="matrix(119.787 -1.07526 1.0783 119.449 16.3637 -3.10839)" gradientUnits="userSpaceOnUse">
<stop offset="0.522" stop-color="#9D0621"/>
<stop offset="1" stop-color="#8A011C"/>
</radialGradient>
<linearGradient id="paint1_linear_2356_1237" x1="91.2964" y1="8.33125" x2="149.523" y2="82.7777" gradientUnits="userSpaceOnUse">
<stop offset="0.028" stop-color="#FFDC00"/>
<stop offset="0.198" stop-color="#E3C01F"/>
<stop offset="0.472" stop-color="#E2BF1F"/>
<stop offset="0.687" stop-color="#DBB724"/>
</linearGradient>
<radialGradient id="paint2_radial_2356_1237" cx="0" cy="0" r="1" gradientTransform="matrix(45.4908 -0.407916 0.409071 45.3623 48.5394 23.2294)" gradientUnits="userSpaceOnUse">
<stop offset="0.073" stop-color="#EB2028"/>
<stop offset="0.321" stop-color="#D0232C"/>
<stop offset="0.77" stop-color="#9D0621"/>
<stop offset="1" stop-color="#8A011C"/>
</radialGradient>
<radialGradient id="paint3_radial_2356_1237" cx="0" cy="0" r="1" gradientUnits="userSpaceOnUse" gradientTransform="translate(55.2925 82.6309) scale(104.96 104.664)">
<stop offset="0.073" stop-color="#EB2028"/>
<stop offset="0.321" stop-color="#D0232C"/>
<stop offset="0.77" stop-color="#9D0621"/>
<stop offset="1" stop-color="#8A011C"/>
</radialGradient>
<radialGradient id="paint4_radial_2356_1237" cx="0" cy="0" r="1" gradientUnits="userSpaceOnUse" gradientTransform="translate(63.0437 81.1096) scale(110.795 110.484)">
<stop offset="0.073" stop-color="#EB2028"/>
<stop offset="0.321" stop-color="#D0232C"/>
<stop offset="0.77" stop-color="#9D0621"/>
<stop offset="1" stop-color="#8A011C"/>
</radialGradient>
<radialGradient id="paint5_radial_2356_1237" cx="0" cy="0" r="1" gradientUnits="userSpaceOnUse" gradientTransform="translate(63.0508 81.1096) scale(110.819 110.504)">
<stop offset="0.073" stop-color="#EB2028"/>
<stop offset="0.321" stop-color="#D0232C"/>
<stop offset="0.77" stop-color="#9D0621"/>
<stop offset="1" stop-color="#8A011C"/>
</radialGradient>
<radialGradient id="paint6_radial_2356_1237" cx="0" cy="0" r="1" gradientUnits="userSpaceOnUse" gradientTransform="translate(63.0407 81.1096) scale(110.79 110.478)">
<stop offset="0.073" stop-color="#EB2028"/>
<stop offset="0.321" stop-color="#D0232C"/>
<stop offset="0.77" stop-color="#9D0621"/>
<stop offset="1" stop-color="#8A011C"/>
</radialGradient>
<radialGradient id="paint7_radial_2356_1237" cx="0" cy="0" r="1" gradientUnits="userSpaceOnUse" gradientTransform="translate(63.0446 81.1096) scale(110.797 110.485)">
<stop offset="0.073" stop-color="#EB2028"/>
<stop offset="0.321" stop-color="#D0232C"/>
<stop offset="0.77" stop-color="#9D0621"/>
<stop offset="1" stop-color="#8A011C"/>
</radialGradient>
<radialGradient id="paint8_radial_2356_1237" cx="0" cy="0" r="1" gradientUnits="userSpaceOnUse" gradientTransform="translate(63.0447 81.1096) scale(110.796 110.484)">
<stop offset="0.073" stop-color="#EB2028"/>
<stop offset="0.321" stop-color="#D0232C"/>
<stop offset="0.77" stop-color="#9D0621"/>
<stop offset="1" stop-color="#8A011C"/>
</radialGradient>
<radialGradient id="paint9_radial_2356_1237" cx="0" cy="0" r="1" gradientUnits="userSpaceOnUse" gradientTransform="translate(63.0447 81.1096) scale(110.797 110.485)">
<stop offset="0.073" stop-color="#EB2028"/>
<stop offset="0.321" stop-color="#D0232C"/>
<stop offset="0.77" stop-color="#9D0621"/>
<stop offset="1" stop-color="#8A011C"/>
</radialGradient>
<radialGradient id="paint10_radial_2356_1237" cx="0" cy="0" r="1" gradientUnits="userSpaceOnUse" gradientTransform="translate(63.0459 81.1096) scale(110.799 110.487)">
<stop offset="0.073" stop-color="#EB2028"/>
<stop offset="0.321" stop-color="#D0232C"/>
<stop offset="0.77" stop-color="#9D0621"/>
<stop offset="1" stop-color="#8A011C"/>
</radialGradient>
<radialGradient id="paint11_radial_2356_1237" cx="0" cy="0" r="1" gradientUnits="userSpaceOnUse" gradientTransform="translate(63.0483 81.1094) scale(110.805 110.49)">
<stop offset="0.073" stop-color="#EB2028"/>
<stop offset="0.321" stop-color="#D0232C"/>
<stop offset="0.77" stop-color="#9D0621"/>
<stop offset="1" stop-color="#8A011C"/>
</radialGradient>
<radialGradient id="paint12_radial_2356_1237" cx="0" cy="0" r="1" gradientUnits="userSpaceOnUse" gradientTransform="translate(63.05 81.1094) scale(110.802 110.489)">
<stop offset="0.073" stop-color="#EB2028"/>
<stop offset="0.321" stop-color="#D0232C"/>
<stop offset="0.77" stop-color="#9D0621"/>
<stop offset="1" stop-color="#8A011C"/>
</radialGradient>
<radialGradient id="paint13_radial_2356_1237" cx="0" cy="0" r="1" gradientUnits="userSpaceOnUse" gradientTransform="translate(63.0467 81.1096) scale(110.81 110.496)">
<stop offset="0.073" stop-color="#EB2028"/>
<stop offset="0.321" stop-color="#D0232C"/>
<stop offset="0.77" stop-color="#9D0621"/>
<stop offset="1" stop-color="#8A011C"/>
</radialGradient>
<radialGradient id="paint14_radial_2356_1237" cx="0" cy="0" r="1" gradientUnits="userSpaceOnUse" gradientTransform="translate(63.0471 81.1096) scale(110.813 110.5)">
<stop offset="0.073" stop-color="#EB2028"/>
<stop offset="0.321" stop-color="#D0232C"/>
<stop offset="0.77" stop-color="#9D0621"/>
<stop offset="1" stop-color="#8A011C"/>
</radialGradient>
<radialGradient id="paint15_radial_2356_1237" cx="0" cy="0" r="1" gradientUnits="userSpaceOnUse" gradientTransform="translate(63.0453 81.1096) scale(110.817 110.505)">
<stop offset="0.073" stop-color="#EB2028"/>
<stop offset="0.321" stop-color="#D0232C"/>
<stop offset="0.77" stop-color="#9D0621"/>
<stop offset="1" stop-color="#8A011C"/>
</radialGradient>
<radialGradient id="paint16_radial_2356_1237" cx="0" cy="0" r="1" gradientUnits="userSpaceOnUse" gradientTransform="translate(63.05 81.1096) scale(110.804 110.49)">
<stop offset="0.073" stop-color="#EB2028"/>
<stop offset="0.321" stop-color="#D0232C"/>
<stop offset="0.77" stop-color="#9D0621"/>
<stop offset="1" stop-color="#8A011C"/>
</radialGradient>
<radialGradient id="paint17_radial_2356_1237" cx="0" cy="0" r="1" gradientUnits="userSpaceOnUse" gradientTransform="translate(94.281 97.247) scale(1.58235 1.5779)">
<stop offset="0.073" stop-color="#EB2028"/>
<stop offset="0.321" stop-color="#D0232C"/>
<stop offset="0.77" stop-color="#9D0621"/>
<stop offset="1" stop-color="#8A011C"/>
</radialGradient>
<radialGradient id="paint18_radial_2356_1237" cx="0" cy="0" r="1" gradientUnits="userSpaceOnUse" gradientTransform="translate(63.0524 81.1094) scale(110.8 110.487)">
<stop offset="0.073" stop-color="#EB2028"/>
<stop offset="0.321" stop-color="#D0232C"/>
<stop offset="0.77" stop-color="#9D0621"/>
<stop offset="1" stop-color="#8A011C"/>
</radialGradient>
<radialGradient id="paint19_radial_2356_1237" cx="0" cy="0" r="1" gradientUnits="userSpaceOnUse" gradientTransform="translate(63.0517 81.1096) scale(110.804 110.49)">
<stop offset="0.073" stop-color="#EB2028"/>
<stop offset="0.321" stop-color="#D0232C"/>
<stop offset="0.77" stop-color="#9D0621"/>
<stop offset="1" stop-color="#8A011C"/>
</radialGradient>
</defs>
</svg>
