<svg xmlns="http://www.w3.org/2000/svg" width="56.083" height="59.535" viewBox="0 0 56.083 59.535">
  <g id="Group_356" data-name="Group 356" transform="translate(-349.186 -301.549)">
    <circle id="Ellipse_2" data-name="Ellipse 2" cx="28.042" cy="28.042" r="28.042" transform="translate(349.186 361.083) rotate(-90)" fill="#ff0101"/>
    <g id="Group_350" data-name="Group 350" transform="translate(353.151 301.549)">
      <path id="Path_2506" data-name="Path 2506" d="M2858.22-205.736a25.892,25.892,0,0,0,1.233-2.527,27.34,27.34,0,0,0,1.992-12.949c-.154-2.01-.39-6.911-3.205-7.106-1.821-.126-3.629,1.493-4.839,2.636a78.438,78.438,0,0,0-7.673,8.839l-.13-.052a21.052,21.052,0,0,0-15.739,0l-.129.052a78.388,78.388,0,0,0-7.673-8.839c-1.21-1.143-3.019-2.763-4.839-2.636-2.814.2-3.051,5.1-3.2,7.106A27.331,27.331,0,0,0,2816-208.264a26.006,26.006,0,0,0,1.234,2.527c-4.675,8.924-6.033,18.24,3.742,25.3,10.525,7.606,16.748,7.068,16.748,7.068s6.223.538,16.748-7.068C2864.252-187.5,2862.894-196.813,2858.22-205.736Z" transform="translate(-2813.653 228.326)" fill="#ffa600"/>
      <path id="Path_2507" data-name="Path 2507" d="M2838.17-165.972s-1.5,2.65.768,4.149,8.527,2.651,8.182,1.536S2841.589-166.088,2838.17-165.972Z" transform="translate(-2827.769 191.7)"/>
      <path id="Path_2508" data-name="Path 2508" d="M2842.363-178.9h-.005c-1.255.066-2.673,1.112-2.494,2.49.269,2.075,3.149,2.3,5.031,1.844a1.463,1.463,0,0,0,.8-2.176A3.662,3.662,0,0,0,2842.363-178.9Z" transform="translate(-2829.04 199.293)" fill="#fff"/>
      <path id="Path_2509" data-name="Path 2509" d="M2847.639-142.116c.436-.487-1.829-3.885-2.092-4.261a13.091,13.091,0,0,0-5.068-4.417,6.615,6.615,0,0,0-6.076.5,13.557,13.557,0,0,0-6.034,7.044,10.136,10.136,0,0,0-.4,1.132c-3.688-4.12-9.441-4.973-14.188-4.822.353,4.247,2.468,8.264,7.273,11.736,10.525,7.606,16.748,7.068,16.748,7.068s6.223.538,16.748-7.068c4.805-3.472,6.92-7.489,7.274-11.736C2857.081-147.089,2851.328-146.236,2847.639-142.116Z" transform="translate(-2813.73 183.095)" fill="#fff"/>
      <path id="Path_2510" data-name="Path 2510" d="M2892.387-165.972s1.5,2.65-.768,4.149-8.527,2.651-8.182,1.536S2888.969-166.088,2892.387-165.972Z" transform="translate(-2854.637 191.7)"/>
      <path id="Path_2511" data-name="Path 2511" d="M2893.059-178.9h0c1.256.066,2.674,1.112,2.495,2.49-.269,2.075-3.15,2.3-5.032,1.844a1.462,1.462,0,0,1-.8-2.176A3.661,3.661,0,0,1,2893.059-178.9Z" transform="translate(-2858.23 199.293)" fill="#fff"/>
      <path id="Path_2512" data-name="Path 2512" d="M2906.246-203.021a25.133,25.133,0,0,0,1.614-15.02c-.9-4.527-10.261,7.721-10.261,7.721A24.981,24.981,0,0,1,2906.246-203.021Z" transform="translate(-2862.963 222.874)" fill="#ff8300"/>
      <path id="Path_2513" data-name="Path 2513" d="M2907.859-218.041c.133.668.235,1.323.31,1.964-1.511.037-5.062.8-8.109,7.2a21.87,21.87,0,0,0-2.462-1.443S2906.958-222.568,2907.859-218.041Z" transform="translate(-2862.963 222.874)" fill="#ff9501"/>
      <path id="Path_2514" data-name="Path 2514" d="M2822.471-203.021a25.133,25.133,0,0,1-1.613-15.02c.9-4.527,10.261,7.721,10.261,7.721A24.981,24.981,0,0,0,2822.471-203.021Z" transform="translate(-2817.602 222.874)" fill="#ff8300"/>
      <g id="Group_349" data-name="Group 349" transform="translate(17.536 36.982)">
        <path id="Path_2515" data-name="Path 2515" d="M2865.923-113.772s0,.427.188.581.717.307.836.068.205-.262.205-.262.61-.164.766.211.275.717.514.717.359-.342.515-.717.766-.211.766-.211.085.024.2.262.649.085.837-.068.188-.581.188-.581h-5.019Z" transform="translate(-2861.893 124.054)"/>
        <path id="Path_2516" data-name="Path 2516" d="M2869.131-130.322H2867.3a.364.364,0,0,0-.393.307h-2.322a.96.96,0,0,1-.9-.841h-.357v-2.131a3.516,3.516,0,0,0,2.881-3.458v-.947a1.3,1.3,0,0,0-1.3-1.3h-4.43a1.3,1.3,0,0,0-1.3,1.3v.947a3.516,3.516,0,0,0,2.881,3.458v2.131h-.356a.96.96,0,0,1-.9.841h-2.322a.364.364,0,0,0-.393-.307h-1.827s-.273.051.068.392.529.478.581.854,0,.7.307.7.307.017.427.478.564,1.827.854,1.9,0-2.885,0-2.885-.037-.461.613-.324a33.027,33.027,0,0,0,3.587.239,33.019,33.019,0,0,0,3.587-.239c.65-.137.613.324.613.324s-.29,2.954,0,2.885.734-1.434.854-1.9.12-.478.427-.478.256-.325.307-.7.239-.512.58-.854S2869.131-130.322,2869.131-130.322Z" transform="translate(-2856.154 138.692)"/>
      </g>
      <path id="Path_2517" data-name="Path 2517" d="M2821.1-218.041c-.133.668-.235,1.323-.31,1.964,1.511.037,5.061.8,8.108,7.2a21.923,21.923,0,0,1,2.463-1.443S2822-222.568,2821.1-218.041Z" transform="translate(-2817.846 222.874)" fill="#ff9501"/>
    </g>
  </g>
</svg>
