<svg xmlns="http://www.w3.org/2000/svg" width="56.083" height="56.083" viewBox="0 0 56.083 56.083">
  <g id="Group_363" data-name="Group 363" transform="translate(13389.268 3404.156)">
    <g id="Group_353" data-name="Group 353" transform="translate(-13389.268 -3404.156)">
      <circle id="Ellipse_3" data-name="Ellipse 3" cx="28.041" cy="28.041" r="28.041" transform="translate(0 56.083) rotate(-90)" fill="#c1ad57"/>
      <g id="Group_352" data-name="Group 352" transform="translate(3.486 3.149)">
        <path id="Path_2518" data-name="Path 2518" d="M3252.777-143.578a.052.052,0,0,0,.036.018Z" transform="translate(-3240.718 181.864)" fill="none"/>
        <path id="Path_2519" data-name="Path 2519" d="M3318.349-197.791c.426.291.658-.134.75-.763A3.479,3.479,0,0,1,3318.349-197.791Z" transform="translate(-3280.815 215.482)" fill="#c99b3c"/>
        <path id="Path_2520" data-name="Path 2520" d="M3316.389-212.39c-.256.028-.475-.249-.612-.637-.209.471-.708,1.693-.888,2.3.8-.159.976-.577,1.616-.8-.171-.239-.307-.433.007-.669a7.529,7.529,0,0,0,.847-.788,1.571,1.571,0,0,1-.031-.67C3317-213.035,3316.807-212.436,3316.389-212.39Z" transform="translate(-3278.699 224.713)" fill="#c99b3c"/>
        <path id="Path_2521" data-name="Path 2521" d="M3319.8-206.885c0,.066.035.291.083.589A1.149,1.149,0,0,0,3319.8-206.885Z" transform="translate(-3281.706 220.576)" fill="#c99b3c"/>
        <path id="Path_2522" data-name="Path 2522" d="M3300.245-233.316c-.112.624-.081.854-.4,1.129-1.436.753-.48,2.376-.837,3.486-.126.423-.193,1.451-.282.937s0-1.16-.156-1.361-.112.049-.357-.154-.223-.024-.356-.381a1.9,1.9,0,0,1-.121-.384.981.981,0,0,1-.5.55,7.066,7.066,0,0,0,1.564,2.122,3.3,3.3,0,0,1,1.5-2.805c-.3.149-.315.175-.262-.129.065-.37.237-.485.72-.919a1.258,1.258,0,0,1-.825-.033c-.372-.238.484-.587.863-.929s.736-.5.981-1a9.355,9.355,0,0,1,2.622-1.562c-.207-.466-.017-.721-.51-1.359-.349-.388-.537-.895-.87-1.152-.908.446-1.526,2.35-1.886,2.8C3300.757-233.918,3300.356-233.94,3300.245-233.316Z" transform="translate(-3267.906 239.148)" fill="#b79945"/>
        <path id="Path_2523" data-name="Path 2523" d="M3304.788-232.243c.111-.624.513-.6.894-1.14a22.734,22.734,0,0,0,1.095-2.118c-.7.654-1.452,1.468-2.109,2.121A3.624,3.624,0,0,1,3304.788-232.243Z" transform="translate(-3272.449 238.075)" fill="#cda84d"/>
        <path id="Path_2524" data-name="Path 2524" d="M3303.5-227.115c-.068.423-.611.956-.937,1.517A1.531,1.531,0,0,0,3303.5-227.115Z" transform="translate(-3271.164 232.947)" fill="#cda84d"/>
        <path id="Path_2525" data-name="Path 2525" d="M3307.228-228c2.529-.885,1.271,1.026.931,1.472s-.708,1.627-1.288,2.4a14.663,14.663,0,0,1-1.489,1.915c.441.273.451.424,1.027.82-.059-.7,1.07.413,1.4-.561.2-.354-.245.019-.713-.062s-.356-.32-.312-.916.624-.742,1.2-1.2c.3-.236.722-.548,1.057-.794,1.078-2.66.917-3.5-.531-5.865a9.355,9.355,0,0,0-2.622,1.562c-.246.491-.6.653-.981,1s-1.235.691-.863.929a1.259,1.259,0,0,0,.825.033A6.087,6.087,0,0,1,3307.228-228Z" transform="translate(-3272.013 235.195)" fill="#957336"/>
        <path id="Path_2526" data-name="Path 2526" d="M3313.586-235.565c1.445,2.352,1.608,3.221.531,5.865.311-.228.549-.4.549-.4a6.361,6.361,0,0,1-.5,1.817c.5,1.292,1.136.362,1.55-.623,1.091-3.472.236-4.973-.381-7.84-.109-1.885-1.805-2.315-3.082-1.366.233.365.5.772.824,1.187C3313.57-236.286,3313.379-236.031,3313.586-235.565Z" transform="translate(-3277.087 239.969)" fill="#9f7d33"/>
        <path id="Path_2527" data-name="Path 2527" d="M3303.992-216.465c-.521.424-.438-.178-.505-.541s-.758.051-1-.15.113-.335.514-.669a3.641,3.641,0,0,0,.736-.939,5.565,5.565,0,0,1,1.338-1.224c.6-.423.067-.423-.535-.031s-.334.031.134-.393-.089-.513-.491-.29-.9.3-1.41.575a3.3,3.3,0,0,0-1.5,2.805c.657.4,1.89.876,2.473,1.2A.629.629,0,0,0,3303.992-216.465Z" transform="translate(-3270.368 229.098)" fill="#af8e3f"/>
        <path id="Path_2528" data-name="Path 2528" d="M3300.475-228.949a2.965,2.965,0,0,1-.892,1.472,6.784,6.784,0,0,0-1.057,1.845,1.879,1.879,0,0,0,.121.384c.133.357.111.178.356.381s.2-.046.357.154.067.847.156,1.361.156-.514.282-.937a2.723,2.723,0,0,0,.075-1.092c-.538-2.692,1.7-2.407,1.039-4.66C3300.478-229.747,3300.638-229.478,3300.475-228.949Z" transform="translate(-3268.693 234.736)" fill="#8d6329"/>
        <path id="Path_2529" data-name="Path 2529" d="M3296.107-227.483c-.067.2-1.27.892-1.26,1.628a4.809,4.809,0,0,1,.929,1.28c.745-.432.888-1.859,1.557-2.4a3.071,3.071,0,0,0,1-2.242,4.264,4.264,0,0,1-3.1,1.265C3295.7-227.8,3296.143-227.591,3296.107-227.483Z" transform="translate(-3266.444 234.229)" fill="#ad8233"/>
        <path id="Path_2530" data-name="Path 2530" d="M3257.211-236.339a34.863,34.863,0,0,0-.146-4.615c-.089-.934,1.1-1.107,1.137-1.121-2.99-.653-.038,5.114-2.079,7.078A1.755,1.755,0,0,0,3257.211-236.339Z" transform="translate(-3242.764 242.127)" fill="#cca03f"/>
        <path id="Path_2531" data-name="Path 2531" d="M3253.157-222.543a7.982,7.982,0,0,1,1.038-2.107c-.962.413-1.312,1.4-2.266,2C3252.662-222.874,3252.64-222.824,3253.157-222.543Z" transform="translate(-3240.199 231.44)" fill="#c19535"/>
        <path id="Path_2532" data-name="Path 2532" d="M3257.462-225.211a4.3,4.3,0,0,1,1.14-.957h0a5.884,5.884,0,0,1,.905-.591,4.529,4.529,0,0,1-.345-.3,3.242,3.242,0,0,1-.57.091c-.624.033-1.279.633-1.53.408-.834.6-.912,1.571-1.8,2.584a.4.4,0,0,1,.2.255A11.327,11.327,0,0,0,3257.462-225.211Z" transform="translate(-3242.24 232.915)" fill="#c19535"/>
        <path id="Path_2533" data-name="Path 2533" d="M3265.309-226.318a3.674,3.674,0,0,1-.55-.371,5.857,5.857,0,0,0-.905.591h0c1.39-.854,2.742.848,2.462,2.183-.153.856-.942,2.514-1.006,3.009.04,1.14-.25,1.294-.764,2.293,1.463-.948,1.154-2.138,1.77-3.116,0,0,1.821-2.374,2.863-2.675s1.847-.769,1.629-.435c.916-.024,3.892-.374,5.088.368-.01-.736,1.192-1.427,1.26-1.628.036-.108-.407-.313-.875-.464a9.9,9.9,0,0,0-1.913.42c-1.512.5-4.759-.117-6.561-.8h0S3265.4-226.276,3265.309-226.318Z" transform="translate(-3247.491 232.844)" fill="#d3a83f"/>
        <path id="Path_2534" data-name="Path 2534" d="M3252.228-220.362c1.536-1.307,3.826-5.167,4.188-.637-.241.771.5.794.729,1.382.047-.755.842-2.249,1.056-3.324.281-1.334-1.072-3.038-2.462-2.183a4.311,4.311,0,0,0-1.14.957,11.306,11.306,0,0,1-1.992,1.487c.072.332-.354.794-.557,1.433-.124.9-2.091,1.812-1.263,2.282A4.722,4.722,0,0,1,3252.228-220.362Z" transform="translate(-3239.377 231.87)" fill="#dbb958"/>
        <path id="Path_2535" data-name="Path 2535" d="M3236.362-211.319a3.06,3.06,0,0,1,.561-.967c.3-.4.335-.2.775-.7a1.918,1.918,0,0,1,1.332-.836c.84-.038.268,1.4-.389,1.734a12.231,12.231,0,0,0,.766,3.435,32.686,32.686,0,0,0,2.88-2.479c-.7.007-1.543-.132-1.52-.787a1.619,1.619,0,0,1,.113-1.894,4.731,4.731,0,0,1,.409-1.766c-.83-.466,1.14-1.388,1.263-2.282.207-.787.917-1.254.353-1.688-.108.129-.108.087-.068-.039-.979-.764-1.951.592-2.938.949-3.541,2.065-3.02,5.3-4.847,8.414C3235.5-210.582,3235.936-210.941,3236.362-211.319Z" transform="translate(-3229.879 228.485)" fill="#eccc75"/>
        <path id="Path_2536" data-name="Path 2536" d="M3251.425-214.671c2.25-2.05,2.438-4.036,2.669.486.781-.873,1.177-.955,1.433-1.616s.063-1.556.552-1.18c.043-.522-.034-2.793-1.034-2.789-.739.178-1.514,1.182-1.982,1.647-1.44,1.739-2.946,1.8-3.01,4.339A1.361,1.361,0,0,1,3251.425-214.671Z" transform="translate(-3239.052 228.455)" fill="#e9ce77"/>
        <path id="Path_2537" data-name="Path 2537" d="M3253.914-209.705c-.23-4.53-.424-2.528-2.669-.486a1.564,1.564,0,0,1,1.036,2.672c-.984.938-2.164.85-2.517.047-.08.7.789.86,1.515.85.608-.477,1.2-.907,1.861-1.418A3.846,3.846,0,0,1,3253.914-209.705Z" transform="translate(-3238.872 223.976)" fill="#d8bc6b"/>
        <path id="Path_2538" data-name="Path 2538" d="M3313.96-206.682c-.023.073-.254.1-.519.093.318.366.83,1.6,1.3,2.127.4.45.226.585.6.787a1.6,1.6,0,0,0,.747-1.877c-.134-.718-.334-.484-.167-1.153a1.655,1.655,0,0,0-.308-1.472c-.64.218-.819.636-1.616.8C3313.869-207.005,3314.007-206.826,3313.96-206.682Z" transform="translate(-3277.814 221.366)" fill="#8d6329"/>
        <path id="Path_2539" data-name="Path 2539" d="M3301.321-217.158c-.6.423.57,1.029.37,1.759-.182.923-.171.61.1,1.534.109.486.063,2.385-.747,1.877-.378-.2-.2-.337-.6-.787-.448-.5-.99-1.741-1.267-2.087-.249-.1-.707-.051-.826-.134-.246-.089-.4-.379-.44-.885-1.048-1.023-2.267-1.328-3.54-2.047-.732-.4-1.74-2.806-2.452-3.378a5.467,5.467,0,0,0-1.865-.465c.934.206-.286,1.29.17,1.97.126.378-.341.756.108.911,1.319-1.162,3.047.13,3.824,1.579a9.622,9.622,0,0,1,4.953,5.127c.6,1.125.38,3.812.976,4.91.2-.441.68-1.77,1.3-1.443-.434-5.095,1.158.507,1.917-2.212.233-.58.406-1.232.574-1.77-.813-2.8-1.252-4.06-1.7-5.247A7.542,7.542,0,0,1,3301.321-217.158Z" transform="translate(-3263.509 229.679)" fill="#cba13f"/>
        <path id="Path_2540" data-name="Path 2540" d="M3277.254-221.035c.541.268.846.033.242.5s-1.354.468-1.6.9a3.533,3.533,0,0,0-.368,1.1c.378-.39.645-.786,1.262-.834.892-.123,3.536.574,4.216,1.987,1.909-.535-.012,2.317,1.244,3.977a.537.537,0,0,1,.417-.259c.689-.142,1.8-.742,1.759-1.646s-.937-.324-.8-.948-.13-.847.537-1.07a2.011,2.011,0,0,1,1.109-.019c-.778-1.449-2.5-2.74-3.824-1.579-.448-.154.019-.532-.108-.911a1.19,1.19,0,0,1,.067-1.1c.275-.531.115-.894-.419-.885-.62-.015-3.041.116-3.041.116C3277.728-221.369,3276.713-221.3,3277.254-221.035Z" transform="translate(-3254.631 229.709)" fill="#d1ad4b"/>
        <path id="Path_2541" data-name="Path 2541" d="M3270.252-217.407c.627-.019,1.226-.929,1.956-1.119a3.533,3.533,0,0,1,.368-1.1c.244-.435.994-.435,1.6-.9s.3-.234-.242-.5.474-.334.692-.669-.586.134-1.629.435-2.862,2.676-2.862,2.676C3270.493-218.959,3269.81-217.293,3270.252-217.407Z" transform="translate(-3251.309 229.707)" fill="#c49837"/>
        <path id="Path_2542" data-name="Path 2542" d="M3264.835-209.9a8.093,8.093,0,0,1-.435,2.309c1.029-1.124,3.418-3.253,3.74-4.639a10.564,10.564,0,0,1,.647-1.324c-.75.158-1.39,1.122-2.019,1.137-.442.113.241-1.552-.118-1.184s-.276,1-.659,1.839a3.3,3.3,0,0,1-1.111,1.276C3264.839-210.373,3264.884-210.3,3264.835-209.9Z" transform="translate(-3247.825 224.713)" fill="#b59540"/>
        <path id="Path_2543" data-name="Path 2543" d="M3266.437-206.17a7.026,7.026,0,0,1,.361-.82c-.055-.587.235-.8.032-1.415-.226-.678.159-.626.662-1.051a2.449,2.449,0,0,1,.451-.324,2.959,2.959,0,0,1,.659-2.779c.477-.7-.135-.656.907-1.03a2.822,2.822,0,0,1,2.9.538c.946-.855.089.813,1.083-.076a2.614,2.614,0,0,1,.705-.387c-.99-1.672-4.511-2.865-5.415-1.171a10.6,10.6,0,0,0-.647,1.324c-.317,1.386-2.726,3.521-3.742,4.647,1.416.64,1.163,2,1.331,3.315A1.549,1.549,0,0,0,3266.437-206.17Z" transform="translate(-3247.822 225.848)" fill="#d6b75c"/>
        <path id="Path_2544" data-name="Path 2544" d="M3274.036-207.094c.292.028.41.354.468.667a2.861,2.861,0,0,1,1.691-1.031,7.454,7.454,0,0,0,.993-1.148c.126-.3-.037-.192-.49-.344-.639-.218.844-1,1.072-1.347a2.822,2.822,0,0,0-2.9-.538c-1.042.374-.43.328-.907,1.03a2.957,2.957,0,0,0-.658,2.779A1.223,1.223,0,0,1,3274.036-207.094Z" transform="translate(-3253.179 223.094)" fill="#cdb464"/>
        <path id="Path_2545" data-name="Path 2545" d="M3283.058-210.176c-.142-.418-.876.571-1.089.669-1.637,1.171.279.6,0,1.165a7.468,7.468,0,0,1-.993,1.148,3.751,3.751,0,0,1,2.7.934c.457.162.861.622.521,1.145.952.189,1.257-1.073,1.389-1.4a5.588,5.588,0,0,0-.344-.7c-.365-.666.067-1.951,0-2.82-.085-.936-1.159-.416-1.6-.067C3283.065-209.674,3283.132-209.774,3283.058-210.176Z" transform="translate(-3257.962 222.83)" fill="#cca848"/>
        <path id="Path_2546" data-name="Path 2546" d="M3261.234-212.722c-.5-.4-.3.5-.564,1.171-.486,1.059-1.943,1.526-2.207,3.28a6.1,6.1,0,0,1,1.805-1.117,4.538,4.538,0,0,0,.962-.552C3261.784-211.025,3262.624-211.87,3261.234-212.722Z" transform="translate(-3244.195 224.206)" fill="#ccae50"/>
        <path id="Path_2547" data-name="Path 2547" d="M3268.732-187.917a2.41,2.41,0,0,1,.924-.223,9.8,9.8,0,0,1,1.005-2.3,2.415,2.415,0,0,1-.738-1.881c-.343-.141-1.037-.648-1.031-1.268-.253.481-.468,1.343-1.073,1.591.145,1.163.221,1.918.421,2.821A1.65,1.65,0,0,1,3268.732-187.917Z" transform="translate(-3249.916 212.443)" fill="#e2c172"/>
        <path id="Path_2548" data-name="Path 2548" d="M3249.117-200.519c3.295,1.1,2.871-2.587,5.282-2.041a8.132,8.132,0,0,0,.438-2.317c.025-.338.057-.617,0-.557a2.519,2.519,0,0,1-.937.557,6.1,6.1,0,0,0-1.8,1.117,29.858,29.858,0,0,0-4.046,3.454A1.709,1.709,0,0,1,3249.117-200.519Z" transform="translate(-3237.827 219.694)" fill="#e2c172"/>
        <path id="Path_2549" data-name="Path 2549" d="M3271.525-199.336c.287-.569.415-.234.7-.571s.185-.232.562-.287c.216-.252-.112-.77-.377-.779a1.208,1.208,0,0,0-1.186.392c-.5.425-.888.373-.662,1.051.2.61-.087.827-.032,1.415-.005.62.688,1.127,1.031,1.268a6.587,6.587,0,0,1,.425-1.784C3271.724-198.851,3271.22-198.731,3271.525-199.336Z" transform="translate(-3251.552 216.974)" fill="#b58f3a"/>
        <path id="Path_2550" data-name="Path 2550" d="M3282.7-210.36c-.667.223-.4.446-.537,1.07s.758.045.8.948-1.071,1.5-1.759,1.646a.537.537,0,0,0-.417.259c-.131.331-.437,1.594-1.388,1.4-.586,1.021-1.648,1.69-3.61,1.672a2.75,2.75,0,0,1-1.271-.27c-.554-.049-.719-.589-.919-.776a7.36,7.36,0,0,0-.446,1.907,2.6,2.6,0,0,0,.759,1.758c1.274-1.871,2.947,1.841,7.292-3.645.688-.758,1.179-1.379,2.473-.868s4.459-1.18,5.083,0C3288.147-207.221,3284.8-211.015,3282.7-210.36Z" transform="translate(-3253.174 222.747)" fill="#cdb464"/>
        <path id="Path_2551" data-name="Path 2551" d="M3250.69-193.9c2.661-.749,2.685.063,4.366,1.878a29.559,29.559,0,0,1-.523-4.134,2.091,2.091,0,0,0-1.472-2.07c-.981-.181-1.739.894-2.425,1.7-1.259,1.437-2.835-.438-4.378,1.067a4.357,4.357,0,0,0,.192.511A5.177,5.177,0,0,1,3250.69-193.9Z" transform="translate(-3236.732 215.295)" fill="#e2c470"/>
        <path id="Path_2552" data-name="Path 2552" d="M3315.958-196.594c-.518-.333-.422.877-.312,2.156.443.369.579,2.046.379,3.339-.267,1.732-2.809,7.041-1.806,6.627a8.65,8.65,0,0,0,3.478-3.988c2.705-5.177-.472,2.527.736,2.052.669-.15.356.126.412,1.66s.658.662,1.059.764,1,.168.334,1.372-.8,1.7-1.6,2.019-.979.891-1.522.289a3.35,3.35,0,0,1-.458-.765,13.972,13.972,0,0,1-1.454,2.4c-1.206,1.31-1.079.542-1.818,2.335,1.924-.86,2.652-1.372,3.689-1.538,1.115-.178,1.293-1.382,2.542-1.159a1.769,1.769,0,0,1,1.3,1.3c.917-3.125,1.346-2.123.93-5.485a131.644,131.644,0,0,0-3.707-15.206c-.168.538-.341,1.19-.574,1.77C3316.965-195.161,3316.895-195.992,3315.958-196.594Z" transform="translate(-3277.778 215.4)" fill="#cca846"/>
        <path id="Path_2553" data-name="Path 2553" d="M3307.865-182.119c-.535,1.266-4.325,6.974-4.058,7.419s2.5-1.561,2.229-.758-1.471,1.249-.981,1.65.713.182.357.938.713.132.825.622c.086.379-1.012,1.77-1.969,2.753a5.379,5.379,0,0,0,3.25-.685c.191-.4.4-.855.611-1.3-.292.18-.648.387-1.156.729-2.405,1.477,1.907-2.521.8-2.385-.535,0-.937.609-.951.357s.476-.431.416-.7-.045-.253-.386-.193-.355-.479.119-.768a18.184,18.184,0,0,0,2.81-2.041c1.2-1.115,2.574-3.295,2.424-2.74s-2.022,2.294-1.621,2.74c.985.637,1.076-.1.205,1.564a3.348,3.348,0,0,0,.458.765c.543.6.719.034,1.522-.289s.937-.815,1.605-2.019.067-1.271-.334-1.372-1,.77-1.06-.764.257-1.81-.412-1.66-.134-1.421.267-2.937c.777-3.479-2.025,4.226-4.482,4.873-1.2.046,3.454-7.894,1.427-9.966-.15-.125-.336-.1-.556.143C3307.547-186.2,3310.042-186.867,3307.865-182.119Z" transform="translate(-3271.915 209.249)" fill="#c1993a"/>
        <path id="Path_2554" data-name="Path 2554" d="M3231.964-186.421q.5-.332,1.016-.642-.475.367-.966.71a8.032,8.032,0,0,1,.6,1.116c.417-.439.86-.85,1.316-1.249-.4-1.933-.905-4.071.979-5.562-.73-.611-1.429-1.258-2.116-1.917a27.549,27.549,0,0,0-.881,2.931c.512.062,1.16.145,1.667.221-.516-.033-1.17-.091-1.687-.14a8.779,8.779,0,0,0-.23,1.619q.654-.172,1.316-.319-.656.217-1.32.408c-.014.306-.014.614,0,.923q.579-.253,1.166-.484-.576.3-1.163.572c.012.279.034.559.064.838.592-.336,1.251-.7,1.856-1.016-.587.374-1.244.768-1.844,1.119C3231.8-186.993,3231.731-186.648,3231.964-186.421Z" transform="translate(-3227.798 212.676)" fill="#f7ecb6"/>
        <path id="Path_2555" data-name="Path 2555" d="M3236.1-196.375q.344.332.676.677c1.015-.84,1.934-1.8,2.554-.38-.24-.627-.38-1.216-.591-1.969a4.3,4.3,0,0,1-.321-1.878c-.242.141-.342.01-.748.272-.568.368-.535.97-1.471,1.605s-.234-.468-.167-.8c0,0,.048-.144.108-.3-.461.512-1.236.782-1.454,1.459Q3235.4-197.047,3236.1-196.375Z" transform="translate(-3229.652 216.32)" fill="#f7ecb6"/>
        <path id="Path_2556" data-name="Path 2556" d="M3234.618-173.664q-.226.193-.46.378c.131.281.257.575.369.848.87,1.878,1.3-1.163.958-2.01Q3235.062-174.045,3234.618-173.664Z" transform="translate(-3229.332 200.741)" fill="#f7ecb6"/>
        <path id="Path_2557" data-name="Path 2557" d="M3235.23-177.525a11.069,11.069,0,0,0,2.106,1.574c-3.205-2.463-.815-4.139-.568-7.071a6.853,6.853,0,0,0-.5-1.638c-.256-.6-.5-.423-.412-1.516a10.745,10.745,0,0,1,.575-2.266,2.107,2.107,0,0,1,1.465-2.622c-.627-1.536-1.518-.622-2.6.28l.058.059-.063-.054c-1.884,1.492-1.382,3.63-.979,5.562.226-.2.457-.393.7-.577-.218.236-.446.46-.678.68.343.845-.088,3.889-.958,2.01-.112-.274-.239-.567-.369-.848-.03.024-.06.049-.09.072.027-.03.055-.058.083-.087a8.03,8.03,0,0,0-.6-1.116l-.125.088c.63,3.488,2.152,6.3,2.347,7.179C3234.776-177.859,3234.978-177.787,3235.23-177.525Zm-.682-5.238c-.1.169-.2.338-.314.5a13.433,13.433,0,0,1,1.118-2.078A13.679,13.679,0,0,1,3234.548-182.764Z" transform="translate(-3228.175 211.406)" fill="#f4e19d"/>
        <path id="Path_2558" data-name="Path 2558" d="M3232.136-174.9c.011.067.022.133.034.2l.092-.061A1.017,1.017,0,0,0,3232.136-174.9Z" transform="translate(-3228.096 201.02)" fill="#f4e19d"/>
        <path id="Path_2559" data-name="Path 2559" d="M3285.83-148.392a31.621,31.621,0,0,1-3.21,1.223A11.378,11.378,0,0,0,3285.83-148.392Z" transform="translate(-3258.967 184.808)" fill="#e1ce8a"/>
        <path id="Path_2560" data-name="Path 2560" d="M3278.261-197.768c-2.583-.883-2.53,2.339-5.619,3.61-3.244,1.636-3.448-1.866-5.152,3.2a.359.359,0,0,1,.266.142,10.3,10.3,0,0,1,4.9.868,14.1,14.1,0,0,0-4.873-.835,6.082,6.082,0,0,1,.191,1.622c.305,1.163.935.857.886,2.3,3.481,2.592-.445,2.977-2.525,3.99a21,21,0,0,0-2.055,1.545,6.478,6.478,0,0,0,2.021,1.62,21.228,21.228,0,0,0-1.1-2.162,7.38,7.38,0,0,1,1.185,2.2,3.373,3.373,0,0,0,2.858-.041c-.791-4.4,4.35-1.726,4.608-3-.134-.624-1.776-.972-1-1.891s.148-1.107,2.179-2.016a13.406,13.406,0,0,0,3.5-1.89c1.026-.8,2.9-1.561,3.389-1.159s-.268.322-1.025,1.543.134,1.266-.847,1.979c-1.76.93-3.025-1.084-2.23,2.854.044.713,1.074.089-.533,1.293-1.988,1.3-1.626.048-2.256,2.171a.9.9,0,0,1,.387.329c2.676-1.92,2.21-.481.019,1.291-.5.4-1.09.877-1.741,1.347.815-.212,1.567-.391,2.026-.46,1.472-.223.539.655,1.563,1.063,1.514.51,1.8.263,2.824.759.957-.983,2.056-2.374,1.969-2.753-.112-.49-1.181.134-.825-.622s.134-.537-.356-.938.713-.847.981-1.65-1.962,1.2-2.229.758c.346-2.349,6.513-8.963,4.678-12.145-.6-1.1-.382-3.785-.977-4.91C3282.72-198.948,3279.554-197.257,3278.261-197.768Z" transform="translate(-3247.75 215.263)" fill="#e1ce8a"/>
        <path id="Path_2561" data-name="Path 2561" d="M3252.373-158.985c3.35-.411,6.405-.819,8.838-2.709a.9.9,0,0,0-.387-.329c-.319.861-.592.891-1.669.918-1.331.02-4.083.247-4.118-.8a3.373,3.373,0,0,1-2.858.041,2.7,2.7,0,0,1,.108.523,4.731,4.731,0,0,0-.189-.558,6.468,6.468,0,0,1-2.021-1.62c-2.154,1.793-3.631,1.357-4.679-.676-.29-.49-1.227-.535-1.828-1.583a18.054,18.054,0,0,1-1.427-3.29c-.25,2.938-2.635,4.61.568,7.071a4.252,4.252,0,0,1,.993.767,19.863,19.863,0,0,0,1.906,2.064A22.965,22.965,0,0,0,3252.373-158.985Zm-9.9-7.486c-.055.261-.145.507-.225.761a1.873,1.873,0,0,1,.268-1.026A2.047,2.047,0,0,1,3242.478-166.47Zm.608.65c-.122.575-.189,1.193-.342,1.761a4.393,4.393,0,0,1,.382-1.873A.426.426,0,0,0,3243.085-165.821Z" transform="translate(-3233.549 197.45)" fill="#efda8b"/>
        <path id="Path_2562" data-name="Path 2562" d="M3257.165-166.18c1.748-.791.647-2.136-.441-2.853a.946.946,0,0,1-.38.723c-.037.6-.438,1.035-1.241,1.461-.64,1.1-2.36,1.359-3.973,1.476a4.145,4.145,0,0,1,.521,1.334,8.627,8.627,0,0,0-.633-1.331,3.315,3.315,0,0,1-.565-.03c-.825-.134-.223.223-1.538.156-1.779-.253-1.869-1.017-2.571-1.54-.855-.063-.746-.645-1.086-.891a3.453,3.453,0,0,1-.822-.693,25.416,25.416,0,0,0,1.2,2.61c.6,1.048,1.539,1.092,1.828,1.583,1.936,3.831,4.477.6,6.733-.869C3255.092-165.489,3256.3-165.845,3257.165-166.18Z" transform="translate(-3235.618 197.43)" fill="#e0c777"/>
        <path id="Path_2563" data-name="Path 2563" d="M3240.618-151c1.665,1.2,3.792,1.4,3.746,2.988a2.5,2.5,0,0,1,1.672.914c1.36,1.573,2.565,1.249,2.074,0-.909-2.274-5.983-2.8-7.4-5.842,0,0-.221-.4.936.892a4.322,4.322,0,0,0,2.3,1.074c-1.347-1.16-1.609-2.07-2.914-2.845a11.076,11.076,0,0,1-2.106-1.574c-.252-.262-.454-.333-.617-.29C3238.482-154.85,3239.155-152.077,3240.618-151Z" transform="translate(-3231.869 189.273)" fill="#d2b25b"/>
        <path id="Path_2564" data-name="Path 2564" d="M3285.112-148.545c-1.249-.223-1.427.981-2.542,1.159-.945.109-2.4,1-4.147,1.739-1.859.726-2.4.707-3.434.223a18.525,18.525,0,0,1-2.183-.5c-1.024-.408-.091-1.286-1.563-1.063-.46.07-1.211.248-2.026.46-3.479,2.775-5.425,1.313-6,2.756-.58,1.2-.268,1.576-1.472,2.087s-1.026.1-1.293,1.26-.089,1.246-1.2,1.692-1-.089-1.615.981c-.593,1.032.443,1.027-.673,1.186,3.227,2.446,4.882.916,6.1,2.277a49.376,49.376,0,0,0,5.817-3.129c2.876-1.606,4.415-1.735,6.154-3.008s3.746-3.414,5.552-4.15,3.488-.936,2.981,1.07c-.289,1.147-.7,2.714-.994,4.007a36.751,36.751,0,0,0,2.695-2.87c2.074-2.542.6-2.141,1.071-4.549A1.491,1.491,0,0,0,3285.112-148.545Z" transform="translate(-3243.277 184.918)" fill="#d8c173"/>
        <path id="Path_2565" data-name="Path 2565" d="M3284.962-168.771c1.608-1.2.578-.58.533-1.293-.8-3.939.471-1.923,2.229-2.854.981-.714.089-.758.847-1.979s1.516-1.142,1.026-1.544-2.364.357-3.389,1.159a13.405,13.405,0,0,1-3.5,1.89c-2.031.909-1.4,1.1-2.179,2.016s.866,1.266,1,1.891c-.292,1.29-5.45-1.431-4.593,3.077.082.935,2.809.758,4.1.725,1.078-.027,1.35-.057,1.669-.918C3283.34-168.73,3282.973-167.467,3284.962-168.771Z" transform="translate(-3255.431 202.027)" fill="#ecd592"/>
        <path id="Path_2566" data-name="Path 2566" d="M3258.251-115.539c-1.04-1.258-3.31-.082-5.572-1.96-.187-.106-.411-.349-.662-.3a5.54,5.54,0,0,1-2.444-.118,2.3,2.3,0,0,0-.483.98,27.865,27.865,0,0,0,6.737,2.768A11.529,11.529,0,0,1,3258.251-115.539Z" transform="translate(-3238.463 166.172)" fill="#d2b25b"/>
        <path id="Path_2567" data-name="Path 2567" d="M3249.979-140.168c.615-1.07.5-.535,1.615-.981s.937-.535,1.2-1.692.089-.748,1.293-1.26.892-.883,1.472-2.087,1.2-.446,3.057-1.115c1.9-.695,6.105-3.608,6.531-5.172-.139-.345-2.193,1.059-2.667,1.554-1.807,1.112-5.3,1.786-8.039,2.05-3.574.161-6.7.581-9.05-1.24-1.157-1.288-.936-.892-.936-.892,1.458,3.077,6.451,3.531,7.4,5.841.491,1.249-.714,1.573-2.074,0a2.5,2.5,0,0,0-1.672-.914c-.338,4.228,1.912,4.739.6,6.243-.606.826-1.392.157-1.987.751a5.762,5.762,0,0,0,2.575.1C3250.423-139.141,3249.386-139.136,3249.979-140.168Z" transform="translate(-3235.621 187.338)" fill="#c2a44c"/>
        <path id="Path_2568" data-name="Path 2568" d="M3239.47-140.895c.6-.594,1.381.075,1.987-.751,1.31-1.494-.94-2.021-.6-6.243-.517-3-4.907-.968-6.047-7.6a11.143,11.143,0,0,1-.911,4.75c-.763,2.041.045,3.767-1.33,5.78a28.14,28.14,0,0,0,6.419,5.048A2.3,2.3,0,0,1,3239.47-140.895Z" transform="translate(-3228.36 189.15)" fill="#e6cb7a"/>
        <path id="Path_2569" data-name="Path 2569" d="M3288.365-134.014c.3-1.293.7-2.86.994-4.007.507-2.007-1.175-1.806-2.981-1.07s-3.813,2.876-5.552,4.15-3.277,1.4-6.154,3.008a48.4,48.4,0,0,1-6.154,3.277,11,11,0,0,0-2.087,1.221,28.321,28.321,0,0,0,18.167-1.3A16.388,16.388,0,0,1,3288.365-134.014Z" transform="translate(-3249.067 179.438)" fill="#dcc67a"/>
        <path id="Path_2570" data-name="Path 2570" d="M3268.67-174.765c.531-.413.373-.951.3-1.525-.067-.557-.691-.713-.8-1.494a6.08,6.08,0,0,0-.191-1.622l-.444-.022c.14-.007.281-.01.421-.012-.305-.313-.741-.061-1.19.081-.1.951-1.117,1.016-1.483,1.974-.858,1.618-1.116,1.616.468,2.141a4.517,4.517,0,0,1,2.586-.194c.282.06.334.122.252.2C3268.781-175.2,3268.728-175.028,3268.67-174.765Z" transform="translate(-3247.943 203.885)" fill="#cbac5a"/>
        <path id="Path_2571" data-name="Path 2571" d="M3257.621-163.558c-1.092-.111-1.472-.624-1.739-.513s-.892.58-1.494.112-.825-.045-1.327.446a2.005,2.005,0,0,1-2.264.223,2.779,2.779,0,0,0,2.008,1.026c1.315.067.713-.29,1.538-.156a3.32,3.32,0,0,0,.565.03c-.2-.359-.4-.714-.591-1.077a8.113,8.113,0,0,1,.7,1.074c1.611-.116,3.334-.372,3.973-1.476A2.587,2.587,0,0,1,3257.621-163.558Z" transform="translate(-3239.507 194.451)" fill="#cbac5a"/>
        <path id="Path_2572" data-name="Path 2572" d="M3259.706-182.39c.658-1.339,2.378-1.431.991-3.23-1.68-1.816-1.71-2.627-4.366-1.878a2.1,2.1,0,0,1,.27.306c.906.173.179,1.551-.484,2.566.062-.005.249.082.208.177-.015.074.022.082-.047.178s-.139-.059-.22-.178a.707.707,0,0,1,.021-.119c-.141.217-.275.4-.393.576.109-.1.277.057.311.129a.337.337,0,0,1-.4.034c-.474,1.068.682,2.9,1.136,3.4.469.522,2.544.463,3.442.179C3258.589-180.775,3258.849-180.772,3259.706-182.39Zm-3.8-.459c-.007.065-.1.136-.1.136l-.1-.034C3255.639-183.081,3255.992-183.093,3255.908-182.849Zm.285,1.062c-.039.038-.052.073-.136.029-.052-.045-.16-.037-.062-.112.083-.062.136-.052.158,0S3256.218-181.816,3256.193-181.787Zm-.057-1.5c-.2.043-.245-.309-.014-.308C3256.434-183.609,3256.405-183.348,3256.136-183.287Zm.411.853c-.089.052-.1.067-.163,0-.24-.189-.009-.228.126-.223C3256.577-182.531,3256.637-182.487,3256.548-182.435Zm.29.817c-.169.193-.234.072-.178-.059.1-.089.141-.148.178-.082S3256.927-181.691,3256.837-181.617Zm.1-1.888c-.074,0-.089.089-.119,0s-.022-.082-.037-.134c-.019-.125.151-.058.208-.074C3256.979-183.631,3257.008-183.5,3256.934-183.5Zm.245,2.579c-.016.1-.177.014-.164-.042.03-.084.119-.159.134-.092S3257.194-180.963,3257.179-180.926Zm.275-1.695c-.066.058-.269-.017-.275-.073C3257.33-182.944,3257.628-182.771,3257.454-182.62Zm.208,1.111c-.186-.169.108-.176.1-.085C3257.764-181.595,3257.713-181.479,3257.662-181.51Zm.075-2.434c-.067-.082-.119-.034-.111-.118s.163-.15.163-.15c.052,0,.156.126.1.193S3257.8-183.862,3257.737-183.943Zm.468,1.181c-.153.1-.41.1-.3-.119.041-.054.285-.161.3-.111C3258.257-182.836,3258.331-182.806,3258.205-182.762Zm.565-1.679c-.035.24-.453.274-.334,0C3258.61-184.674,3258.792-184.553,3258.77-184.441Z" transform="translate(-3242.373 208.891)" fill="#d0c283"/>
        <path id="Path_2573" data-name="Path 2573" d="M3249.911-165.877a2.005,2.005,0,0,0,2.264-.223c.5-.491.724-.914,1.327-.446s1.227,0,1.494-.111.647.4,1.739.513c1.007.109,2.631-.826,2.613-1.773.058-.263.111-.434-.087-.474-1.777.9-4.212,1.833-6.494,1.021-1.252-.39-1.875,1.208-3.418.98A3.861,3.861,0,0,0,3249.911-165.877Z" transform="translate(-3238.621 197.038)" fill="#927c4a"/>
        <path id="Path_2574" data-name="Path 2574" d="M3242.637-178.909a3.463,3.463,0,0,0,.822.693c.34.246.231.828,1.086.891,1.545.227,2.164-1.369,3.418-.98a6.125,6.125,0,0,0,3.567.111c.639-.257,3.83-1.132,2.675-1.331a4.39,4.39,0,0,1-3.723.93,74.963,74.963,0,0,1-8.317-2.029,4.433,4.433,0,0,1,2.943,0c5.815,2.173,3.008,1.93,8.942,1.07a4.487,4.487,0,0,0-2.431.223c-.9.285-2.973.343-3.442-.179-.453-.5-1.61-2.333-1.135-3.4.488-.824,2.234-3.1,1-3.363.647.953-1.49,1.667-1.868,2.579a1.838,1.838,0,0,1,.41.383c.175.234-.075.167-.309.468s0,.334.067.669c.122.551.534.676-.1,1.037-.491.327-.691-1.213-1.171-.97-.237.078-.627.045-.965.145a1.386,1.386,0,0,1-.064.424c-.07.225-.042-.286-.043-.416a5.188,5.188,0,0,1-.6-.052c-.367-.033-.334-.535-.568-.97a.868.868,0,0,1-.073-.647,2.336,2.336,0,0,1-.689-1.384c-.4,1.171-.987,2.838-.163,3.782C3242.325-180.474,3242.273-179.622,3242.637-178.909Z" transform="translate(-3233.818 207.972)" fill="#6e6443"/>
        <path id="Path_2575" data-name="Path 2575" d="M3249.012-178.716a1.754,1.754,0,0,1-.69,0,1.875,1.875,0,0,0-.109.815c.339-.1.728-.067.965-.145.234-.1.268.033.468.335s.4.836.7.636.368-.234.334-.435-.167-.268-.234-.6-.3-.368-.067-.669.484-.234.309-.468a1.838,1.838,0,0,0-.41-.383A2.222,2.222,0,0,1,3249.012-178.716Z" transform="translate(-3237.922 203.912)" fill="#3e3320"/>
        <path id="Path_2576" data-name="Path 2576" d="M3244.708-179.453a.868.868,0,0,0,.073.647c.234.435.2.936.568.97a5.2,5.2,0,0,0,.6.052c0-.254-.021-.715-.038-.889A2.987,2.987,0,0,1,3244.708-179.453Z" transform="translate(-3235.765 203.801)" fill="#3e3320"/>
        <path id="Path_2577" data-name="Path 2577" d="M3320.8-149.578c-.682,2.491,1.011,2.311-1.143,4.883-1.756,2.238-4.182,3.863-5.418,6.221-.26.521-.632,1.2-1.044,1.929a28.092,28.092,0,0,0,9.185-6.322c-.239-1.677-.344-6.338-.48-9.517A12.471,12.471,0,0,0,3320.8-149.578Z" transform="translate(-3277.663 187.249)" fill="#b78e3e"/>
        <path id="Path_2578" data-name="Path 2578" d="M3243.6-185.9a2.987,2.987,0,0,0,1.2.78c.048.041,0,1.617.082,1.3a2.248,2.248,0,0,0,.067-.372,1.938,1.938,0,0,1,.105-.868c1.163.275,1.87-.791,2.482-1.577.456-.528,1.916-1.078,1.345-1.919a4.9,4.9,0,0,0-4.509-1.357C3242.6-189.58,3242.441-187.018,3243.6-185.9Z" transform="translate(-3234.653 210.245)" fill="#25220f"/>
        <path id="Path_2579" data-name="Path 2579" d="M3279.374-198.512c-.337.013-.946,1.031-1.614,1.445a4.038,4.038,0,0,1-2.965.424c-.379.245-1-.246-1.093-.892a2.23,2.23,0,0,1,.556-1.4c-.377.056-.278-.049-.562.287s-.412,0-.7.571c-.3.606.2.485.46.7C3274.653-195.335,3279.335-196.483,3279.374-198.512Z" transform="translate(-3253.024 215.715)" fill="#47462a"/>
        <path id="Path_2580" data-name="Path 2580" d="M3288.533-198.931a1.051,1.051,0,0,0-.616-.542A4.435,4.435,0,0,1,3288.533-198.931Z" transform="translate(-3262.206 216.044)" fill="#47462a"/>
        <path id="Path_2581" data-name="Path 2581" d="M3277.853-198.792a1.062,1.062,0,0,1-.021-.924c-.5-.116.458-.975.679-1.057-1.411-.038-3.255,2.11-1.685,3.007a4.038,4.038,0,0,0,2.965-.424A1.247,1.247,0,0,1,3277.853-198.792Z" transform="translate(-3255.056 216.839)" fill="#e8d99e"/>
        <path id="Path_2582" data-name="Path 2582" d="M3255.107-171.006c-5.93.862-3.135,1.1-8.941-1.07a4.434,4.434,0,0,0-2.943,0,74.926,74.926,0,0,0,8.317,2.029C3253.07-169.506,3255.873-171.083,3255.107-171.006Z" transform="translate(-3234.875 199.424)" fill="#25220f"/>
        <path id="Path_2583" data-name="Path 2583" d="M3251.655-202.394a1.346,1.346,0,0,1-1.565-.27c-.584.5-.862-1.111-.594-1.7C3248.508-203.479,3249.7-200.717,3251.655-202.394Z" transform="translate(-3238.495 219.033)" fill="#47462a"/>
        <path id="Path_2584" data-name="Path 2584" d="M3275.594-200.852a2.39,2.39,0,0,0-.646,1.513c.089.646.713,1.137,1.092.892-1.573-.9.279-3.046,1.685-3.007.221-.089.579-.107.552.172a1.625,1.625,0,0,1-1.231.885,1.308,1.308,0,0,0,1.96,1.526c.558-.335,1.315-1.382,1.472-1.4.1-.016.2-.018.121-.132C3279.362-201.738,3277.035-202.722,3275.594-200.852Z" transform="translate(-3254.271 217.52)" fill="#25220f"/>
        <path id="Path_2585" data-name="Path 2585" d="M3251.061-206.289c.461-.173.736.713.446.691s-.558.312-.736.691c-.151.32.032.687-.142.861,1.253,1.242,3.234-.572,1.814-2.1a1.429,1.429,0,0,0-2.419.463A1.844,1.844,0,0,1,3251.061-206.289Zm1.249.293c.388-.061.5.752.107.8C3252.029-205.139,3251.919-205.952,3252.31-206Z" transform="translate(-3239.034 220.416)" fill="#25220f"/>
        <path id="Path_2586" data-name="Path 2586" d="M3280.038-200.089c-.214.739,1.393-.277,1.344-.631C3281.228-201.42,3280.16-200.448,3280.038-200.089Z" transform="translate(-3257.376 216.958)" fill="#f9fdef"/>
        <path id="Path_2587" data-name="Path 2587" d="M3255.631-204.22c.39-.044.28-.857-.108-.8C3255.134-204.971,3255.243-204.159,3255.631-204.22Z" transform="translate(-3242.248 219.435)" fill="#f9fdef"/>
        <path id="Path_2588" data-name="Path 2588" d="M3250.6-204.418c.178-.379.446-.714.736-.691s.015-.864-.446-.691c-.216.035-1.249.4-1.137,1.026.049.818.2,1.566.705,1.218C3250.632-203.731,3250.449-204.1,3250.6-204.418Z" transform="translate(-3238.863 219.927)" fill="#e8d99e"/>
        <path id="Path_2589" data-name="Path 2589" d="M3314.423-162.239c-.4-.446,1.472-2.185,1.621-2.74s-1.22,1.625-2.424,2.74a18.16,18.16,0,0,1-2.81,2.041c-.473.29-.461.828-.119.768s.327-.074.386.193-.431.446-.416.7.416-.357.951-.357c1.1-.136-3.208,3.862-.8,2.385a7.673,7.673,0,0,0,3.817-4.165C3315.5-162.338,3315.409-161.6,3314.423-162.239Z" transform="translate(-3275.752 195.005)" fill="#a67b2f"/>
        <path id="Path_2590" data-name="Path 2590" d="M3305.977-222.774c.4-.223.959-.134.491.29s-.736.786-.134.393,1.137-.393.535.031a5.565,5.565,0,0,0-1.338,1.224c-.519,1.063-1.622,1.34-1.25,1.608.247.2.938-.213,1,.15s-.015.965.505.541c.948-.746,2.018-3.038,2.522-3.969.339-.446,1.6-2.356-.931-1.471-.524.021-2.893.483-3.077,1.65-.053.3-.035.278.262.129C3305.075-222.474,3305.578-222.551,3305.977-222.774Z" transform="translate(-3272.167 231.17)" fill="#533f26"/>
        <path id="Path_2591" data-name="Path 2591" d="M3266.4-234.845l-.206,1.739a6.768,6.768,0,0,1-.9.288,4.75,4.75,0,0,0,.9.674c.095.041,2.5-.629,2.5-.629h0c-1.95-.466-1.939-2.442-2.371-3.7A9.837,9.837,0,0,1,3266.4-234.845Z" transform="translate(-3248.372 238.671)" fill="#b58636"/>
        <path id="Path_2592" data-name="Path 2592" d="M3260.951-239.342c.087,1.461-.8,2.864-1.536,4.029l.184-.1c.251.225.907-.375,1.53-.408a5.884,5.884,0,0,0,1.466-.379c.28-2.385.768-3.8-1.911-5.333A5.237,5.237,0,0,1,3260.951-239.342Z" transform="translate(-3244.777 241.762)" fill="#cca03f"/>
        <path id="Path_2593" data-name="Path 2593" d="M3310.642-214.333c-.044.6-.156.834.313.916s.914-.293.713.062-.156.376-.557.421-.879-.366-.841.141c.083.948.439.948,1.231.978.823.018.368-.14.563-.791.366-1.326,1.308-2.843,1.389-4.116-.288.206-1.247.909-1.605,1.194C3311.267-215.075,3310.687-214.929,3310.642-214.333Z" transform="translate(-3275.873 226.592)" fill="#af8e3f"/>
        <path id="Path_2594" data-name="Path 2594" d="M3256.405-240.865c.047,1.655.6,4.357-.305,5.618a7.964,7.964,0,0,0-1.037,2.107c-.1.312.218-.158.371-.367.637-.892.615-1.175.927-1.569a7.871,7.871,0,0,0,.966-1.489,10.016,10.016,0,0,0,.771-1.624,4.388,4.388,0,0,0,.181-1.427,5.241,5.241,0,0,0-.267-2.189,1.553,1.553,0,0,0-.492-.174S3256.294-241.779,3256.405-240.865Z" transform="translate(-3242.104 242.037)" fill="#e0c069"/>
        <path id="Path_2595" data-name="Path 2595" d="M3240.423-203c.6-.655.535-1.424,0-1.39a1.918,1.918,0,0,0-1.332.836c-.44.5-.474.3-.775.7a4.175,4.175,0,0,0-.4.6,5.241,5.241,0,0,0-.268.669c-.067.335-.769,1.438.167.8s.9-1.237,1.471-1.605C3239.909-202.725,3239.984-202.467,3240.423-203Z" transform="translate(-3231.273 219.051)" fill="#f5f0c8"/>
        <path id="Path_2596" data-name="Path 2596" d="M3263.048-179.4c-.119.274.3.24.334,0C3263.4-179.514,3263.222-179.635,3263.048-179.4Z" transform="translate(-3246.985 203.852)" fill="#35301b"/>
        <path id="Path_2597" data-name="Path 2597" d="M3261.158-178.6s-.156.067-.163.15.044.036.112.118.089-.008.148-.075S3261.21-178.6,3261.158-178.6Z" transform="translate(-3245.742 203.28)" fill="#35301b"/>
        <path id="Path_2598" data-name="Path 2598" d="M3258.851-177.318c-.069.033-.027.112,0,.208s.045,0,.119,0,.044-.126.052-.208Z" transform="translate(-3244.409 202.496)" fill="#35301b"/>
        <path id="Path_2599" data-name="Path 2599" d="M3261.67-175.372c-.108.216.149.216.3.119.126-.044.052-.074,0-.23C3261.956-175.533,3261.711-175.426,3261.67-175.372Z" transform="translate(-3246.14 201.382)" fill="#35301b"/>
        <path id="Path_2600" data-name="Path 2600" d="M3259.848-174.895c.006.056.209.131.275.073C3260.3-174.97,3260-175.147,3259.848-174.895Z" transform="translate(-3245.042 201.092)" fill="#35301b"/>
        <path id="Path_2601" data-name="Path 2601" d="M3257.529-174.541c-.015.061.037.1.1.162s.074.052.164,0,.03-.1-.037-.223C3257.76-174.6,3257.544-174.6,3257.529-174.541Z" transform="translate(-3243.622 200.835)" fill="#35301b"/>
        <path id="Path_2602" data-name="Path 2602" d="M3256.218-175.51c-.2-.065-.149.258-.149.258l.1.034C3256.209-175.238,3256.369-175.471,3256.218-175.51Z" transform="translate(-3242.728 201.395)" fill="#35301b"/>
        <path id="Path_2603" data-name="Path 2603" d="M3257.1-176.9c-.062-.24-.562-.094-.337.15C3256.86-176.632,3257.086-176.773,3257.1-176.9Z" transform="translate(-3243.122 202.313)" fill="#35301b"/>
        <path id="Path_2604" data-name="Path 2604" d="M3255.876-177.879c.265.013.388-.1.105-.244C3255.82-178.144,3255.618-177.9,3255.876-177.879Z" transform="translate(-3242.537 202.989)" fill="#35301b"/>
        <path id="Path_2605" data-name="Path 2605" d="M3257.179-179.313c.07-.1.032-.1.047-.178.042-.095-.146-.182-.208-.177-.044.01-.061.175-.06.177C3257.041-179.372,3257.11-179.216,3257.179-179.313Z" transform="translate(-3243.275 203.933)" fill="#35301b"/>
        <path id="Path_2606" data-name="Path 2606" d="M3258.479-172.251c-.056.132.009.253.178.059.089-.074.037-.074,0-.141S3258.575-172.34,3258.479-172.251Z" transform="translate(-3244.192 199.465)" fill="#35301b"/>
        <path id="Path_2607" data-name="Path 2607" d="M3260.961-172.013s-.066.076.038.139C3261.108-171.867,3261.164-172.052,3260.961-172.013Z" transform="translate(-3245.709 199.255)" fill="#35301b"/>
        <path id="Path_2608" data-name="Path 2608" d="M3259.426-170.429c-.013.056.147.144.164.042S3259.52-170.645,3259.426-170.429Z" transform="translate(-3244.783 198.352)" fill="#35301b"/>
        <path id="Path_2609" data-name="Path 2609" d="M3256.738-172.641c-.1.074.009.067.061.111a.092.092,0,0,0,.112,0c.046-.043.034-.042-.015-.111C3256.875-172.693,3256.821-172.7,3256.738-172.641Z" transform="translate(-3243.115 199.662)" fill="#35301b"/>
        <path id="Path_2610" data-name="Path 2610" d="M3272.593-179.154a14.1,14.1,0,0,1,4.873.834,10.853,10.853,0,0,0-5.317-.857Z" transform="translate(-3252.564 203.633)" fill="#caae5b"/>
        <path id="Path_2611" data-name="Path 2611" d="M3238.205-171.922c.086-.177.17-.355.245-.538a13.414,13.414,0,0,0-1.118,2.078A13.69,13.69,0,0,0,3238.205-171.922Z" transform="translate(-3231.273 199.525)" fill="#caae5b"/>
        <path id="Path_2612" data-name="Path 2612" d="M3234.424-174.793c-.17.165-.335.335-.5.507a19.544,19.544,0,0,0,2.1-1.914A19.943,19.943,0,0,0,3234.424-174.793Z" transform="translate(-3229.19 201.812)" fill="#caae5b"/>
        <path id="Path_2613" data-name="Path 2613" d="M3226.794-186.887c.241.017.483.039.725.053-1.913-.275-3.856-.485-5.783-.624C3223.406-187.213,3225.112-187.033,3226.794-186.887Z" transform="translate(-3221.736 208.697)" fill="#caae5b"/>
        <path id="Path_2614" data-name="Path 2614" d="M3227.985-182.866q-2.279.52-4.5,1.241Q3225.76-182.146,3227.985-182.866Z" transform="translate(-3222.803 205.889)" fill="#caae5b"/>
        <path id="Path_2615" data-name="Path 2615" d="M3228.039-180.685q-2.149.861-4.214,1.911Q3225.974-179.635,3228.039-180.685Z" transform="translate(-3223.013 204.555)" fill="#caae5b"/>
        <path id="Path_2616" data-name="Path 2616" d="M3228.643-179.31c.192-.12.385-.238.576-.361-1.6.841-3.176,1.754-4.7,2.714C3225.909-177.689,3227.3-178.491,3228.643-179.31Z" transform="translate(-3223.435 203.935)" fill="#caae5b"/>
        <path id="Path_2617" data-name="Path 2617" d="M3228.955-175.592q.415-.3.82-.607a40.349,40.349,0,0,0-3.367,2.3C3227.282-174.429,3228.123-175,3228.955-175.592Z" transform="translate(-3224.593 201.812)" fill="#caae5b"/>
        <path id="Path_2618" data-name="Path 2618" d="M3234.632-194.029c.258.232.522.456.787.679q-1.45-1.491-3.043-2.832C3233.1-195.433,3233.858-194.722,3234.632-194.029Z" transform="translate(-3228.242 214.031)" fill="#caae5b"/>
        <path id="Path_2619" data-name="Path 2619" d="M3267.447-154.9a8.105,8.105,0,0,0-.808-1.284,14.054,14.054,0,0,1,1.293,2.72A4.305,4.305,0,0,0,3267.447-154.9Z" transform="translate(-3249.194 189.569)" fill="#caae5b"/>
        <path id="Path_2620" data-name="Path 2620" d="M3245.673-160.786a5.789,5.789,0,0,0-.269,1.658c.176-.6.2-1.274.382-1.873A.637.637,0,0,0,3245.673-160.786Z" transform="translate(-3236.209 192.517)" fill="#caae5b"/>
        <path id="Path_2621" data-name="Path 2621" d="M3244.191-162.572a1.326,1.326,0,0,0-.063.532,5.231,5.231,0,0,0,.268-1.026A2.109,2.109,0,0,0,3244.191-162.572Z" transform="translate(-3235.423 193.781)" fill="#caae5b"/>
        <path id="Path_2622" data-name="Path 2622" d="M3259.858-162.377a20.047,20.047,0,0,1,1.223,2.408A6.185,6.185,0,0,0,3259.858-162.377Z" transform="translate(-3245.048 193.359)" fill="#caae5b"/>
      </g>
    </g>
    <g id="Group_354" data-name="Group 354" transform="translate(-13376.992 -3392.903)" opacity="0.77">
      <path id="Path_2623" data-name="Path 2623" d="M3244.361-195.5h3.985v-16.844h-3.985v-8.918h16.444c11.2,0,16.612,5.5,16.612,16.894,0,11.692-5.663,17.786-16.57,17.786h-16.486Zm16.78.793c3.985,0,5.915-3.022,5.915-9.364,0-6.242-1.846-9.066-5.915-9.066h-2.727v18.43Z" transform="translate(-3244.361 221.267)" fill="#fff"/>
    </g>
  </g>
</svg>
