<svg xmlns="http://www.w3.org/2000/svg" width="46.083" height="46.083" viewBox="0 0 46.083 46.083">
  <path id="Subtraction_1" data-name="Subtraction 1" d="M9141.542,3741.083a22.472,22.472,0,1,1,8.773-1.771A22.4,22.4,0,0,1,9141.542,3741.083Zm-5.435-20.306h0l-3.16,3.141,8.6,8.6,8.6-8.6-3.159-3.141-5.444,5.427-5.441-5.427Zm16.244-5.407h0l-3.169,3.171,3.169,3.17,3.171-3.17-3.171-3.171Zm-10.8,0h0l-3.168,3.171,3.168,3.17,3.171-3.17-3.171-3.171Zm-10.819,0h0l-3.168,3.171,3.168,3.17,3.171-3.17-3.171-3.171Zm10.819-4.492h0l5.443,5.426,3.159-3.141-8.6-8.6-8.6,8.6,3.16,3.141,5.44-5.426Z" transform="translate(-9118.5 -3695.5)" fill="#ffcb05" stroke="rgba(0,0,0,0)" stroke-miterlimit="10" stroke-width="1"/>
</svg>
