<svg id="litecoin" xmlns="http://www.w3.org/2000/svg" width="45" height="45" viewBox="0 0 45 45">
  <path id="Path_2479" data-name="Path 2479" d="M103.04,88.137a14.9,14.9,0,1,0,14.9,14.9A14.92,14.92,0,0,0,103.04,88.137Zm4.761,19.676a1.332,1.332,0,1,1,0,2.663h-6.857a2.181,2.181,0,0,1-2.093-2.795l1.011-3.449-2.367.514a1.332,1.332,0,1,1-.565-2.6l3.785-.822,1.957-6.675a1.332,1.332,0,1,1,2.556.749l-1.549,5.282,3.837-.833a1.332,1.332,0,1,1,.565,2.6l-5.256,1.141-1.238,4.223H107.8Zm0,0" transform="translate(-80.54 -80.54)" fill="#ffcb05"/>
  <path id="Path_2480" data-name="Path 2480" d="M38.41,6.59A22.5,22.5,0,0,0,6.59,38.41,22.5,22.5,0,0,0,38.41,6.59ZM22.5,39.89A17.39,17.39,0,1,1,39.89,22.5,17.41,17.41,0,0,1,22.5,39.89Zm0,0" transform="translate(0 0)" fill="#ffcb05"/>
</svg>
