<svg xmlns="http://www.w3.org/2000/svg" width="56" height="56" viewBox="0 0 56 56">
  <g id="Group_410" data-name="Group 410" transform="translate(-2981.698 714.648)">
    <circle id="Ellipse_4" data-name="Ellipse 4" cx="28" cy="28" r="28" transform="translate(2981.698 -714.648)" fill="#ed9222"/>
    <g id="Group_409" data-name="Group 409" transform="translate(2989.394 -692.469)">
      <g id="Group_408" data-name="Group 408" transform="translate(0 0)">
        <path id="Path_2641" data-name="Path 2641" d="M3008.571-649.92H3005.3c-.965,0-1.455-.366-1.455-1.086,0-1.071,1.095-1.071,1.455-1.071h5.238l1.482-1.938h-6.475c-2.679,0-4.037.95-4.037,2.825,0,2.132,1.9,2.58,3.485,2.58h3.275c.965,0,1.455.371,1.455,1.1s-.49,1.117-1.455,1.117h-5.274l-1.475,1.907h6.5c3.619,0,4.037-1.709,4.037-2.995C3012.056-649.1,3010.884-649.92,3008.571-649.92Z" transform="translate(-3001.505 655.396)" fill="#fff"/>
        <path id="Path_2642" data-name="Path 2642" d="M3034.133-657.567l-2.536,3.318h1.314v7.593h2.445v-7.593h1.314Z" transform="translate(-3019.905 657.567)" fill="#fff"/>
        <path id="Path_2643" data-name="Path 2643" d="M3054.124-654.016h-6.435l1.481,1.938h5.245c1.181,0,1.915.587,1.915,1.531s-.752,1.547-1.915,1.547h-6.544v4.515h2.429v-2.624h3.808c2.888,0,4.682-1.312,4.682-3.424C3058.79-652.681,3057-654.016,3054.124-654.016Z" transform="translate(-3029.744 655.396)" fill="#fff"/>
        <path id="Path_2644" data-name="Path 2644" d="M3086.372-655.9h-4.1l-2.146,2.813-2.146-2.813h-4.095l4.194,5.5-4.194,5.5h4.095l2.146-2.813,2.146,2.813h4.1l-4.194-5.5Zm-3.734,10.262-2.508-3.287-2.508,3.287h-2.257L3079-650.4l-3.636-4.766h2.257l2.508,3.287,2.508-3.287h2.256l-3.636,4.766,3.636,4.766Z" transform="translate(-3045.764 656.546)" fill="#fff"/>
      </g>
    </g>
  </g>
</svg>
