<svg xmlns="http://www.w3.org/2000/svg" width="45" height="45" viewBox="0 0 45 45">
  <g id="iconfinder_USDT-alt_1175206_1_" data-name="iconfinder_USDT-alt_1175206 (1)" transform="translate(0 0.001)">
    <path id="Path_2402" data-name="Path 2402" d="M69.09,100.328v2.77c-1.019.037-2.084.057-3.181.057-1.192,0-2.345-.023-3.443-.067v-2.212h0v-.54c-6.087.209-10.594.962-10.594,1.859,0,1.059,6.284,1.917,14.037,1.917s14.037-.858,14.037-1.917C79.946,101.285,75.309,100.525,69.09,100.328Z" transform="translate(-43.409 -80.017)" fill="#65645f"/>
    <path id="Path_2403" data-name="Path 2403" d="M22.5,0A22.5,22.5,0,1,0,45,22.5,22.5,22.5,0,0,0,22.5,0Zm2.766,26.32v9.925h-5.76V26.305C13.339,25.949,8.726,24.514,8.726,22.8s4.613-3.15,10.779-3.507V16.51H11.664V10.75H33.109v5.76H25.266v2.768c6.281.334,11.008,1.784,11.008,3.52S31.547,25.985,25.266,26.319Z" fill="#65645f"/>
  </g>
</svg>
