<svg xmlns="http://www.w3.org/2000/svg" width="56" height="56" viewBox="0 0 56 56">
  <g id="Group_411" data-name="Group 411" transform="translate(8491.923 3963.923)">
    <circle id="Ellipse_5" data-name="Ellipse 5" cx="28" cy="28" r="28" transform="translate(-8491.923 -3907.924) rotate(-90)" fill="#50af95"/>
    <path id="Path_2645" data-name="Path 2645" d="M2602.982-299.729v-4.276h10.211v-6.859H2585.52v6.859h10.211v4.276c-8.293.38-14.536,2.038-14.536,4.026s6.243,3.646,14.536,4.026v14.392h7.25v-14.392c8.293-.38,14.536-2.038,14.536-4.026S2611.275-299.349,2602.982-299.729Zm0,6.838c-1.167.051-2.38.078-3.625.078s-2.458-.027-3.625-.078c-7.4-.324-12.924-1.617-12.924-3.164s5.528-2.84,12.924-3.163v5.1c1.167.041,2.38.063,3.625.063s2.459-.022,3.625-.063v-5.1c7.4.324,12.924,1.617,12.924,3.163S2610.378-293.214,2602.982-292.891Z" transform="translate(-11063.28 -3641.849)" fill="#fff"/>
  </g>
</svg>
