<svg width="16" height="16" viewBox="0 0 16 16" fill="none" xmlns="http://www.w3.org/2000/svg">
<path d="M15.4829 5.73188L10.6864 5.04753L8.54222 0.780078C8.48365 0.663238 8.38731 0.568653 8.26829 0.51116C7.96981 0.366501 7.6071 0.48705 7.45786 0.780078L5.3137 5.04753L0.517213 5.73188C0.384974 5.75042 0.26407 5.81162 0.171503 5.90436C0.0595945 6.01728 -0.0020722 6.16919 5.31713e-05 6.32673C0.00217854 6.48426 0.0679221 6.63452 0.182838 6.74449L3.65316 10.0661L2.83328 14.7564C2.81405 14.8656 2.82635 14.9778 2.86878 15.0804C2.91121 15.183 2.98207 15.2718 3.07333 15.3369C3.16459 15.402 3.27259 15.4406 3.38509 15.4485C3.4976 15.4564 3.6101 15.4331 3.70983 15.3814L8.00004 13.167L12.2902 15.3814C12.4074 15.4426 12.5434 15.463 12.6737 15.4408C13.0024 15.3852 13.2235 15.0791 13.1668 14.7564L12.3469 10.0661L15.8172 6.74449C15.9117 6.65362 15.974 6.53492 15.9929 6.4051C16.0439 6.08054 15.8135 5.7801 15.4829 5.73188Z" fill="#C9161D"/>
</svg>
