<svg xmlns="http://www.w3.org/2000/svg" width="16.116" height="17.309" viewBox="0 0 16.116 17.309">
  <g id="notification-new" transform="translate(-3.373 -1.125)">
    <path id="Path_2392" data-name="Path 2392" d="M17.1,11.033V9.481H15.908v1.791a.543.543,0,0,0,.179.418L17.7,13.3v.955H4.568V13.3l1.612-1.612a.543.543,0,0,0,.179-.418V8.287a4.775,4.775,0,0,1,4.775-4.775,4.709,4.709,0,0,1,2.387.65V2.8a5.8,5.8,0,0,0-1.791-.477V1.125H10.536V2.319A6.058,6.058,0,0,0,5.164,8.287v2.746L3.553,12.645a.543.543,0,0,0-.179.418v1.791a.561.561,0,0,0,.6.6H8.149a2.984,2.984,0,0,0,5.969,0H18.3a.561.561,0,0,0,.6-.6V13.062a.543.543,0,0,0-.179-.418ZM11.133,17.24A1.791,1.791,0,0,1,9.342,15.45h3.581a1.791,1.791,0,0,1-1.791,1.791Z" fill="#fff"/>
    <path id="Path_2393" data-name="Path 2393" d="M29.525,6.887A2.387,2.387,0,1,1,27.137,4.5a2.387,2.387,0,0,1,2.387,2.387Z" transform="translate(-10.036 -1.584)" fill="#fff"/>
  </g>
</svg>
