<svg xmlns="http://www.w3.org/2000/svg" xmlns:xlink="http://www.w3.org/1999/xlink" width="14.803" height="23.685" viewBox="0 0 14.803 23.685">
  <defs>
    <linearGradient id="linear-gradient" y1="1" x2="1" y2="0.5" gradientUnits="objectBoundingBox">
      <stop offset="0" stop-color="#f7941d"/>
      <stop offset="1" stop-color="#ffcb05"/>
    </linearGradient>
  </defs>
  <path id="Icon_awesome-level-up-alt" data-name="Icon awesome-level-up-alt" d="M14.5,5.536,9.7.355a1.111,1.111,0,0,0-1.627,0L3.258,5.536A1.111,1.111,0,0,0,4.072,7.4H7.031V19.984H3.147a.555.555,0,0,0-.393.163L.164,22.737a.555.555,0,0,0,.393.948H9.622a1.11,1.11,0,0,0,1.11-1.11V7.4h2.959A1.111,1.111,0,0,0,14.5,5.536Z" fill="url(#linear-gradient)"/>
</svg>
