<svg xmlns="http://www.w3.org/2000/svg" width="23.438" height="23.438" viewBox="0 0 23.438 23.438">
  <path id="Icon_awesome-arrow-circle-down" data-name="Icon awesome-arrow-circle-down" d="M24,12.281A11.719,11.719,0,1,1,12.281.563,11.717,11.717,0,0,1,24,12.281Zm-6.786-1.366-3.421,3.568V5.855a1.131,1.131,0,0,0-1.134-1.134H11.9a1.131,1.131,0,0,0-1.134,1.134v8.628L7.348,10.916A1.135,1.135,0,0,0,5.727,10.9l-.515.52a1.129,1.129,0,0,0,0,1.6l6.266,6.27a1.129,1.129,0,0,0,1.6,0l6.27-6.27a1.129,1.129,0,0,0,0-1.6l-.515-.52a1.135,1.135,0,0,0-1.621.019Z" transform="translate(-0.563 -0.563)" fill="#e0b23c"/>
</svg>
