<svg xmlns="http://www.w3.org/2000/svg" xmlns:xlink="http://www.w3.org/1999/xlink" width="40" height="39.998" viewBox="0 0 40 39.998">
  <defs>
    <linearGradient id="linear-gradient" y1="0.217" x2="1" y2="1" gradientUnits="objectBoundingBox">
      <stop offset="0" stop-color="#f7941d"/>
      <stop offset="1" stop-color="#ffcb05"/>
    </linearGradient>
  </defs>
  <path id="network" d="M.048,21.012A5.026,5.026,0,0,1,0,20.05v-.091c5.444-.467,11.374-1.838,15.789-4.993a4.124,4.124,0,0,0,3.707-.091,19.364,19.364,0,0,0,8.238,5.313,3.951,3.951,0,0,0,1.6,1.97,18.373,18.373,0,0,1-3.707,5.818,4.368,4.368,0,0,0-6.5,1.97C11.8,29.865,4.406,26.657.047,21.013ZM19.085,32.83A22.686,22.686,0,0,1,7.37,35.579a21.126,21.126,0,0,1-6.5-9.573,28.575,28.575,0,0,0,18.214,6.825Zm8.283-.55a26.044,26.044,0,0,0,11.35-5.222,20.249,20.249,0,0,1-27,11.222,26.174,26.174,0,0,0,9.153-3.161,4.42,4.42,0,0,0,6.5-2.84ZM35.24,21.1c1.64-.121,3.239-.242,4.76-.5,0,.409-.046.812-.046,1.191A22.017,22.017,0,0,1,28.513,29.12a22.458,22.458,0,0,0,3.616-6.275A4.519,4.519,0,0,0,35.241,21.1Zm.732-2.931a4.37,4.37,0,0,0-1.922-3.161,46.9,46.9,0,0,0,.138-9.07,20.754,20.754,0,0,1,5.674,11.727,27.334,27.334,0,0,1-3.89.5ZM13.685,12.9A29.774,29.774,0,0,1,.23,17.073,20.22,20.22,0,0,1,13.044,1.27a20.527,20.527,0,0,0,1.6,6.642,4.342,4.342,0,0,0-.961,4.993Zm7.871-3.39a25.935,25.935,0,0,0,4.851-8.429A19.7,19.7,0,0,1,31.03,3.331a48.577,48.577,0,0,1,.183,11.039,4.462,4.462,0,0,0-3.524,2.749,17.412,17.412,0,0,1-6.224-4.306,4.606,4.606,0,0,0,.091-3.3ZM17.3,6.812A16.931,16.931,0,0,1,15.882.446,18.96,18.96,0,0,1,23.616.354a25.313,25.313,0,0,1-3.936,6.962c-.544-.232-1.869-.75-2.38-.5Z" transform="translate(0 0)" fill="url(#linear-gradient)"/>
</svg>
