<svg xmlns="http://www.w3.org/2000/svg" xmlns:xlink="http://www.w3.org/1999/xlink" width="41.675" height="38.356" viewBox="0 0 41.675 38.356">
  <defs>
    <linearGradient id="linear-gradient" y1="0.217" x2="1" y2="1" gradientUnits="objectBoundingBox">
      <stop offset="0" stop-color="#deae42"/>
      <stop offset="1" stop-color="#f7d206"/>
    </linearGradient>
  </defs>
  <g id="wallet-sharp" transform="translate(-2.203 -2.498)">
    <path id="Path_2394" data-name="Path 2394" d="M3.672,8.866H39.427V3.986a1.488,1.488,0,0,0-1.78-1.459L3.426,8.15a1.488,1.488,0,0,0-1.116.973,3.691,3.691,0,0,1,1.362-.258Z" transform="translate(0.035 0)" fill="url(#linear-gradient)"/>
    <path id="Path_2395" data-name="Path 2395" d="M42.387,9H3.7a1.488,1.488,0,0,0-1.488,1.488V37.269A1.488,1.488,0,0,0,3.7,38.757H42.387a1.488,1.488,0,0,0,1.488-1.488V10.488A1.488,1.488,0,0,0,42.387,9ZM33.506,26.854a2.976,2.976,0,1,1,2.976-2.976A2.976,2.976,0,0,1,33.506,26.854Z" transform="translate(0.004 2.097)" fill="url(#linear-gradient)"/>
    <path id="Path_2396" data-name="Path 2396" d="M2.2,22.147V8.8A1.627,1.627,0,0,1,3.637,6.943c3.273-.514,10.1-.791,10.1-.791A2.974,2.974,0,0,1,11.192,7.64V9.919c1.721,0,2.914,2.185,2.914,2.185L7.178,19.962Z" transform="translate(0 1.178)" fill="url(#linear-gradient)"/>
  </g>
</svg>
