<svg xmlns="http://www.w3.org/2000/svg" xmlns:xlink="http://www.w3.org/1999/xlink" width="21.754" height="24.862" viewBox="0 0 21.754 24.862">
  <defs>
    <linearGradient id="linear-gradient" y1="1" x2="1" y2="0.5" gradientUnits="objectBoundingBox">
      <stop offset="0" stop-color="#6b400c"/>
      <stop offset="0.217" stop-color="#c89b37"/>
      <stop offset="0.414" stop-color="#be9232"/>
      <stop offset="0.666" stop-color="#ffcb50"/>
      <stop offset="0.903" stop-color="#d98735"/>
      <stop offset="1" stop-color="#f79a41"/>
    </linearGradient>
  </defs>
  <g id="files-copy-interface-symbol" transform="translate(-43.714)">
    <g id="_x33__31_" transform="translate(43.714)">
      <g id="Group_332" data-name="Group 332" transform="translate(0)">
        <path id="Path_2483" data-name="Path 2483" d="M60.03.024,50.706,0A3.237,3.237,0,0,0,47.6,3.108l-.9.021a3.111,3.111,0,0,0-2.987,3.087V21.754a3.237,3.237,0,0,0,3.108,3.108H58.476a3.237,3.237,0,0,0,3.108-3.108h.777a3.237,3.237,0,0,0,3.108-3.108V6.234ZM58.476,23.308H46.822a1.629,1.629,0,0,1-1.554-1.554V6.215c0-1.156.951-1.554,2.331-1.554V18.646a3.237,3.237,0,0,0,3.108,3.108l9.33-.009A1.469,1.469,0,0,1,58.476,23.308Zm1.554-6.984H53.037a.776.776,0,1,1,0-1.552H60.03a.776.776,0,1,1,0,1.552Zm0-3.881H53.037a.776.776,0,1,1,0-1.552H60.03a.776.776,0,1,1,0,1.552Zm1.554-6.228A1.609,1.609,0,0,1,60.03,4.662V1.576l3.885,4.639Z" transform="translate(-43.714)" fill="url(#linear-gradient)"/>
      </g>
    </g>
  </g>
</svg>
