<svg width="25" height="24" viewBox="0 0 25 24" fill="none" xmlns="http://www.w3.org/2000/svg">
<mask id="mask0_1306_1455" style="mask-type:luminance" maskUnits="userSpaceOnUse" x="0" y="0" width="25" height="24">
<path fill-rule="evenodd" clip-rule="evenodd" d="M24.3991 9.7711H13.0348V14.3761H19.5762C18.9664 17.3016 16.4164 18.981 13.0348 18.981C9.04339 18.981 5.8281 15.8388 5.8281 11.9381C5.8281 8.03746 9.04339 4.89525 13.0348 4.89525C14.7533 4.89525 16.3055 5.49119 17.5251 6.46636L21.073 2.99909C18.911 1.15711 16.1392 0.0194092 13.0348 0.0194092C6.27159 0.0194092 0.838867 5.32866 0.838867 11.9381C0.838867 18.5476 6.27159 23.8569 13.0348 23.8569C19.1327 23.8569 24.6763 19.5228 24.6763 11.9381C24.6763 11.2339 24.5655 10.4754 24.3991 9.7711Z" fill="white"/>
</mask>
<g mask="url(#mask0_1306_1455)">
<path d="M-0.270508 18.981V4.89526L9.1536 11.9381L-0.270508 18.981Z" fill="#FBBC05"/>
</g>
<mask id="mask1_1306_1455" style="mask-type:luminance" maskUnits="userSpaceOnUse" x="0" y="0" width="25" height="24">
<path fill-rule="evenodd" clip-rule="evenodd" d="M24.3991 9.7711H13.0348V14.3761H19.5762C18.9664 17.3016 16.4164 18.981 13.0348 18.981C9.04339 18.981 5.8281 15.8388 5.8281 11.9381C5.8281 8.03746 9.04339 4.89525 13.0348 4.89525C14.7533 4.89525 16.3055 5.49119 17.5251 6.46636L21.073 2.99909C18.911 1.15711 16.1392 0.0194092 13.0348 0.0194092C6.27159 0.0194092 0.838867 5.32866 0.838867 11.9381C0.838867 18.5476 6.27159 23.8569 13.0348 23.8569C19.1327 23.8569 24.6763 19.5228 24.6763 11.9381C24.6763 11.2339 24.5655 10.4754 24.3991 9.7711Z" fill="white"/>
</mask>
<g mask="url(#mask1_1306_1455)">
<path d="M-0.270508 4.89528L9.1536 11.9382L13.0341 8.63343L26.3388 6.52056V-1.06409H-0.270508V4.89528Z" fill="#EA4335"/>
</g>
<mask id="mask2_1306_1455" style="mask-type:luminance" maskUnits="userSpaceOnUse" x="0" y="0" width="25" height="24">
<path fill-rule="evenodd" clip-rule="evenodd" d="M24.3991 9.7711H13.0348V14.3761H19.5762C18.9664 17.3016 16.4164 18.981 13.0348 18.981C9.04339 18.981 5.8281 15.8388 5.8281 11.9381C5.8281 8.03746 9.04339 4.89525 13.0348 4.89525C14.7533 4.89525 16.3055 5.49119 17.5251 6.46636L21.073 2.99909C18.911 1.15711 16.1392 0.0194092 13.0348 0.0194092C6.27159 0.0194092 0.838867 5.32866 0.838867 11.9381C0.838867 18.5476 6.27159 23.8569 13.0348 23.8569C19.1327 23.8569 24.6763 19.5228 24.6763 11.9381C24.6763 11.2339 24.5655 10.4754 24.3991 9.7711Z" fill="white"/>
</mask>
<g mask="url(#mask2_1306_1455)">
<path d="M-0.270508 18.9811L16.3603 6.52056L20.7397 7.06232L26.3388 -1.06409V24.9404H-0.270508V18.9811Z" fill="#34A853"/>
</g>
<mask id="mask3_1306_1455" style="mask-type:luminance" maskUnits="userSpaceOnUse" x="0" y="0" width="25" height="24">
<path fill-rule="evenodd" clip-rule="evenodd" d="M24.3991 9.7711H13.0348V14.3761H19.5762C18.9664 17.3016 16.4164 18.981 13.0348 18.981C9.04339 18.981 5.8281 15.8388 5.8281 11.9381C5.8281 8.03746 9.04339 4.89525 13.0348 4.89525C14.7533 4.89525 16.3055 5.49119 17.5251 6.46636L21.073 2.99909C18.911 1.15711 16.1392 0.0194092 13.0348 0.0194092C6.27159 0.0194092 0.838867 5.32866 0.838867 11.9381C0.838867 18.5476 6.27159 23.8569 13.0348 23.8569C19.1327 23.8569 24.6763 19.5228 24.6763 11.9381C24.6763 11.2339 24.5655 10.4754 24.3991 9.7711Z" fill="white"/>
</mask>
<g mask="url(#mask3_1306_1455)">
<path d="M26.3391 24.9404L9.15396 11.9381L6.93652 10.3129L26.3391 4.89526V24.9404Z" fill="#4285F4"/>
</g>
</svg>
