<svg width="24" height="25" viewBox="0 0 24 25" fill="none" xmlns="http://www.w3.org/2000/svg">
<path d="M10 12.5C11.6569 12.5 13 13.8431 13 15.5V21.5H11V15.5C11 14.9477 10.5523 14.5 10 14.5H4C3.44772 14.5 3 14.9477 3 15.5V21.5H1V15.5C1 13.8431 2.34315 12.5 4 12.5H10ZM20 12.5C21.6569 12.5 23 13.8431 23 15.5V21.5H21V15.5C21 14.9477 20.5523 14.5 20 14.5H16L15 12.5H20ZM7 3.5C9.2091 3.5 11 5.29086 11 7.5C11 9.70914 9.2091 11.5 7 11.5C4.79086 11.5 3 9.70914 3 7.5C3 5.29086 4.79086 3.5 7 3.5ZM17 3.5C19.2091 3.5 21 5.29086 21 7.5C21 9.70914 19.2091 11.5 17 11.5C14.7909 11.5 13 9.70914 13 7.5C13 5.29086 14.7909 3.5 17 3.5ZM7 5.5C5.8954 5.5 5 6.39543 5 7.5C5 8.60457 5.8954 9.5 7 9.5C8.1046 9.5 9 8.60457 9 7.5C9 6.39543 8.1046 5.5 7 5.5ZM17 5.5C15.8954 5.5 15 6.39543 15 7.5C15 8.60457 15.8954 9.5 17 9.5C18.1046 9.5 19 8.60457 19 7.5C19 6.39543 18.1046 5.5 17 5.5Z" fill="#C9161D"/>
</svg>
