<svg width="54" height="54" viewBox="0 0 54 54" fill="none" xmlns="http://www.w3.org/2000/svg">
<path d="M18.5625 42.25C20.3919 42.25 21.875 43.7331 21.875 45.5625C21.875 47.3919 20.3919 48.875 18.5625 48.875C16.7331 48.875 15.25 47.3919 15.25 45.5625C15.25 43.7331 16.7331 42.25 18.5625 42.25Z" fill="white" stroke="white" stroke-width="0.125"/>
<path d="M40.5 42.25C42.3294 42.25 43.8125 43.7331 43.8125 45.5625C43.8125 47.3919 42.3294 48.875 40.5 48.875C38.6706 48.875 37.1875 47.3919 37.1875 45.5625C37.1875 43.7331 38.6706 42.25 40.5 42.25Z" fill="white" stroke="white" stroke-width="0.125"/>
<path d="M3.375 6.75H8.4375L16.1895 34.6528C16.3867 35.3634 16.8114 35.9899 17.3984 36.4363C17.9854 36.8828 18.7025 37.1247 19.44 37.125H40.2891C41.0269 37.1251 41.7445 36.8835 42.332 36.437C42.9194 35.9905 43.3443 35.3638 43.5417 34.6528L48.9375 15.1875H10.781" stroke="white" stroke-width="2" stroke-linecap="round" stroke-linejoin="round"/>
</svg>
