<svg width="39" height="42" viewBox="0 0 39 42" fill="none" xmlns="http://www.w3.org/2000/svg">
<path d="M36.7575 8.1671L20.2455 0.742864C20.0109 0.637465 19.7572 0.583008 19.5006 0.583008C19.244 0.583008 18.9902 0.637465 18.7557 0.742864L2.2436 8.1671C1.9192 8.31291 1.64357 8.55078 1.45013 8.85189C1.2567 9.15301 1.15376 9.50443 1.15381 9.86355V11.1628C1.15567 17.2853 2.77505 23.2961 5.8443 28.5728C8.91356 33.8495 13.3212 38.2005 18.6107 41.1752C18.8831 41.3281 19.1893 41.4081 19.5006 41.4081C19.8119 41.4081 20.1181 41.3281 20.3904 41.1752C25.68 38.2005 30.0877 33.8495 33.1568 28.5728C36.2261 23.2961 37.8455 17.2853 37.8474 11.1628V9.86355C37.8474 9.50443 37.7445 9.15301 37.551 8.85189C37.3576 8.55078 37.082 8.31291 36.7575 8.1671ZM34.178 11.1628C34.1764 16.4467 32.824 21.6404 30.2522 26.2394C27.6804 30.8383 23.9766 34.6862 19.5006 37.4094C15.0246 34.6862 11.3208 30.8383 8.74897 26.2394C6.17717 21.6404 4.82478 16.4467 4.82316 11.1628V11.07L19.5006 4.46983L34.178 11.07V11.1628ZM17.6659 17.2878H21.3353V32.1363H17.6659V17.2878ZM17.6659 9.86355H21.3353V13.5756H17.6659V9.86355Z" fill="black"/>
</svg>
