<svg width="35" height="44" viewBox="0 0 35 44" fill="none" xmlns="http://www.w3.org/2000/svg">
<path d="M32.6237 6.93709C25.8011 6.93709 18.7045 1.66959 18.6345 1.61638C18.3073 1.36968 17.9092 1.23633 17.5002 1.23633C17.0912 1.23633 16.6931 1.36968 16.366 1.61638C16.296 1.66959 9.19933 6.93709 2.37676 6.93709C1.87539 6.93709 1.39455 7.13729 1.04002 7.49365C0.685498 7.85002 0.486328 8.33336 0.486328 8.83734C0.486328 9.97749 0.675372 36.8261 16.8366 42.9222C17.2636 43.0809 17.733 43.0809 18.16 42.9222C34.3251 36.8261 34.5141 9.97749 34.5141 8.83734C34.5141 8.33336 34.315 7.85002 33.9605 7.49365C33.6059 7.13729 33.125 6.93709 32.6237 6.93709ZM17.5002 39.0931C6.53571 34.3007 4.65472 16.387 4.33336 10.6293C9.05114 9.90795 13.5494 8.13761 17.5002 5.44728C21.4511 8.13761 25.9493 9.90795 30.6671 10.6293C30.3552 16.387 28.4647 34.3007 17.5002 39.0931ZM9.93849 20.2388C9.93849 21.7422 10.382 23.2118 11.2129 24.4618C12.0438 25.7118 13.2248 26.6859 14.6065 27.2612C15.9882 27.8365 17.5086 27.9871 18.9754 27.6938C20.4423 27.4005 21.7897 26.6766 22.8472 25.6135C23.9047 24.5505 24.6249 23.1962 24.9166 21.7218C25.2084 20.2473 25.0587 18.7189 24.4863 17.33C23.914 15.9411 22.9448 14.7541 21.7013 13.9188C20.4577 13.0836 18.9958 12.6378 17.5002 12.6378C15.4947 12.6378 13.5714 13.4387 12.1533 14.8642C10.7352 16.2896 9.93849 18.2229 9.93849 20.2388ZM21.2811 20.2388C21.2811 20.9905 21.0593 21.7253 20.6439 22.3504C20.2284 22.9753 19.6379 23.4624 18.9471 23.7501C18.2562 24.0377 17.4961 24.113 16.7626 23.9664C16.0292 23.8197 15.3555 23.4577 14.8267 22.9262C14.298 22.3947 13.9379 21.7175 13.792 20.9804C13.6461 20.2431 13.721 19.4789 14.0072 18.7845C14.2933 18.09 14.7779 17.4964 15.3997 17.0788C16.0214 16.6612 16.7524 16.4384 17.5002 16.4384C18.5029 16.4384 19.4646 16.8388 20.1737 17.5514C20.8828 18.2642 21.2811 19.2309 21.2811 20.2388Z" fill="black"/>
</svg>
