<svg width="48" height="49" viewBox="0 0 48 49" fill="none" xmlns="http://www.w3.org/2000/svg">
<path d="M38.8481 31.0026C37.3381 31.0099 35.8584 31.4255 34.5653 32.2053L31.2817 28.9216C32.2196 27.3747 32.6267 25.5639 32.4414 23.7645C32.2561 21.9651 31.4884 20.2754 30.2551 18.952L32.2341 14.0053C32.319 14.0053 32.3996 14.0308 32.4844 14.0308C33.9913 14.0455 35.4556 13.5303 36.6213 12.5751C37.787 11.6199 38.5798 10.2855 38.8616 8.80504C39.1432 7.32456 38.8958 5.79218 38.1623 4.47567C37.4287 3.15916 36.2561 2.14226 34.8489 1.60265C33.4418 1.06304 31.8898 1.03505 30.4641 1.52356C29.0385 2.01207 27.8297 2.98603 27.0494 4.27522C26.2689 5.56441 25.9662 7.08687 26.1944 8.57654C26.4225 10.0662 27.1668 11.4284 28.2972 12.425L26.6235 16.6102C25.4898 16.2101 24.2809 16.0693 23.0856 16.1981C21.8904 16.327 20.7393 16.7222 19.7169 17.3546L12.772 10.412L12.7572 10.3992C13.1725 9.54889 13.3901 8.61558 13.3935 7.66924C13.3935 6.41062 13.0203 5.18028 12.3211 4.13379C11.6218 3.08729 10.628 2.27165 9.46516 1.79C8.30235 1.30835 7.02284 1.18233 5.78842 1.42787C4.55399 1.67342 3.4201 2.27949 2.53013 3.16946C1.64015 4.05944 1.03408 5.19333 0.788538 6.42776C0.542996 7.66217 0.669016 8.94169 1.15067 10.1045C1.63231 11.2673 2.44796 12.2612 3.49445 12.9604C4.54095 13.6597 5.7713 14.0329 7.0299 14.0329C7.97623 14.0292 8.90948 13.8117 9.75991 13.3965L9.77263 13.4156L16.7174 20.3562C15.7916 21.8821 15.383 23.6661 15.5522 25.4428C15.7215 27.2195 16.4598 28.8941 17.6572 30.2178L11.6329 37.5783C11.1712 37.4428 10.6929 37.3714 10.2117 37.3663C9.03847 37.3523 7.893 37.7232 6.95066 38.4224C6.00831 39.1215 5.32106 40.1101 4.99407 41.237C4.66709 42.3638 4.71841 43.5667 5.14018 44.6617C5.56196 45.7565 6.33093 46.6831 7.32939 47.2994C8.32785 47.9155 9.50076 48.1877 10.6686 48.0739C11.8364 47.96 12.9347 47.4668 13.7954 46.6693C14.6561 45.8719 15.2318 44.8144 15.4342 43.6586C15.6367 42.5029 15.4549 41.3127 14.9166 40.2701L21.1848 32.6063C22.3417 33.0409 23.5828 33.2051 24.813 33.0863C26.0431 32.9676 27.2299 32.569 28.2824 31.921L31.566 35.2047C30.7862 36.4978 30.3707 37.9775 30.3633 39.4874C30.3633 41.1655 30.8609 42.806 31.7932 44.2013C32.7254 45.5967 34.0507 46.6842 35.6011 47.3264C37.1515 47.9686 38.8575 48.1366 40.5033 47.8092C42.1493 47.4819 43.6612 46.6738 44.8478 45.4871C46.0344 44.3005 46.8425 42.7887 47.17 41.1427C47.4972 39.4969 47.3292 37.7909 46.6871 36.2405C46.0449 34.6901 44.9573 33.3648 43.562 32.4325C42.1666 31.5002 40.5262 31.0026 38.8481 31.0026ZM7.0299 9.79045C6.61037 9.79045 6.20026 9.66604 5.85141 9.43296C5.50258 9.19987 5.2307 8.86859 5.07016 8.48099C4.90961 8.09339 4.8676 7.66688 4.94945 7.25541C5.0313 6.84393 5.23332 6.46597 5.52997 6.16931C5.82663 5.87266 6.20459 5.67062 6.61607 5.58877C7.02754 5.50693 7.45404 5.54893 7.84165 5.70949C8.22926 5.87004 8.56055 6.14192 8.79362 6.49075C9.0267 6.83958 9.15111 7.24971 9.15111 7.66924C9.15111 8.23181 8.92763 8.77135 8.52983 9.16915C8.13202 9.56696 7.59247 9.79045 7.0299 9.79045ZM19.7572 24.639C19.7572 23.7999 20.006 22.9797 20.4722 22.2819C20.9382 21.5843 21.6009 21.0406 22.3761 20.7194C23.1513 20.3983 24.0043 20.3143 24.8273 20.478C25.6502 20.6418 26.4062 21.0458 26.9995 21.6391C27.5928 22.2325 27.9969 22.9884 28.1605 23.8112C28.3241 24.6342 28.2402 25.4873 27.919 26.2624C27.598 27.0377 27.0542 27.7002 26.3566 28.1664C25.6588 28.6326 24.8386 28.8813 23.9996 28.8813C22.8744 28.8813 21.7954 28.4343 20.9998 27.6387C20.2041 26.8432 19.7572 25.7641 19.7572 24.639ZM38.8481 43.7299C38.0089 43.7299 37.1887 43.481 36.4911 43.0149C35.7935 42.5487 35.2497 41.8861 34.9286 41.1109C34.6075 40.3357 34.5234 39.4828 34.6872 38.6598C34.8508 37.8368 35.2549 37.0809 35.8482 36.4876C36.4415 35.8943 37.1974 35.4902 38.0204 35.3266C38.8434 35.1628 39.6964 35.2469 40.4716 35.5679C41.2468 35.889 41.9093 36.4327 42.3755 37.1305C42.8417 37.8281 43.0905 38.6483 43.0905 39.4874C43.0905 40.6125 42.6436 41.6917 41.8479 42.4873C41.0523 43.2829 39.9733 43.7299 38.8481 43.7299ZM40.9692 20.3965C41.8084 20.3965 42.6286 20.6453 43.3263 21.1114C44.0239 21.5776 44.5676 22.2402 44.8888 23.0154C45.2098 23.7906 45.2939 24.6437 45.1302 25.4666C44.9665 26.2895 44.5624 27.0454 43.9691 27.6387C43.3758 28.2322 42.6199 28.6361 41.797 28.7999C40.974 28.9635 40.1209 28.8796 39.3458 28.5584C38.5705 28.2373 37.908 27.6935 37.4418 26.9959C36.9756 26.2982 36.7269 25.478 36.7269 24.639C36.7269 23.5138 37.1739 22.4346 37.9695 21.6391C38.765 20.8435 39.8441 20.3965 40.9692 20.3965ZM7.0299 26.7602C6.19083 26.7602 5.3706 26.5113 4.67294 26.0451C3.97527 25.5791 3.43151 24.9164 3.11041 24.1413C2.78932 23.366 2.7053 22.513 2.869 21.6901C3.03269 20.8671 3.43674 20.1111 4.03006 19.5178C4.62337 18.9245 5.3793 18.5205 6.20225 18.3568C7.02519 18.1932 7.87821 18.2771 8.65341 18.5983C9.42861 18.9193 10.0912 19.4631 10.5573 20.1607C11.0235 20.8583 11.2723 21.6787 11.2723 22.5177C11.2723 23.6429 10.8254 24.7219 10.0297 25.5175C9.23413 26.3132 8.15506 26.7602 7.0299 26.7602ZM47.3329 14.0329C47.3329 14.4524 47.2085 14.8625 46.9755 15.2114C46.7423 15.5602 46.4111 15.832 46.0235 15.9926C45.6358 16.1532 45.2094 16.1952 44.7979 16.1133C44.3864 16.0314 44.0085 15.8294 43.7118 15.5328C43.4152 15.2361 43.2132 14.8582 43.1313 14.4467C43.0494 14.0352 43.0914 13.6087 43.252 13.2211C43.4126 12.8335 43.6844 12.5022 44.0332 12.2692C44.382 12.0361 44.7922 11.9117 45.2117 11.9117C45.7743 11.9117 46.3138 12.1351 46.7116 12.5329C47.1095 12.9308 47.3329 13.4703 47.3329 14.0329ZM2.78747 31.0026C3.207 31.0026 3.61713 31.127 3.96596 31.36C4.31479 31.5932 4.58667 31.9244 4.74722 32.312C4.90778 32.6997 4.94978 33.1261 4.86794 33.5376C4.78609 33.9491 4.58405 34.327 4.2874 34.6237C3.99074 34.9203 3.61278 35.1223 3.2013 35.2042C2.78983 35.2861 2.36332 35.2441 1.97572 35.0835C1.58812 34.9229 1.25683 34.6511 1.02375 34.3023C0.79067 33.9535 0.666263 33.5433 0.666263 33.1238C0.666263 32.5612 0.889747 32.0217 1.28755 31.6239C1.68536 31.2261 2.2249 31.0026 2.78747 31.0026Z" fill="black"/>
</svg>
