<svg width="48" height="48" viewBox="0 0 48 48" fill="none" xmlns="http://www.w3.org/2000/svg">
<path d="M47.3329 23.9996C47.3329 24.5621 47.1095 25.1017 46.7116 25.4996C46.3138 25.8974 45.7743 26.1208 45.2117 26.1208H37.605L42.469 30.9848C42.8553 31.3848 43.0692 31.9207 43.0644 32.4769C43.0596 33.0329 42.8364 33.565 42.4431 33.9583C42.0498 34.3516 41.5179 34.5746 40.9617 34.5796C40.4054 34.5844 39.8696 34.3705 39.4696 33.9842L31.6063 26.1208H26.1208V31.6063L33.9842 39.4696C34.3705 39.8696 34.5844 40.4054 34.5796 40.9617C34.5746 41.5179 34.3516 42.0498 33.9583 42.4431C33.565 42.8364 33.0329 43.0596 32.4769 43.0644C31.9207 43.0692 31.3848 42.8553 30.9848 42.469L26.1208 37.605V45.2117C26.1208 45.7743 25.8974 46.3138 25.4996 46.7116C25.1017 47.1095 24.5621 47.3329 23.9996 47.3329C23.437 47.3329 22.8975 47.1095 22.4997 46.7116C22.1019 46.3138 21.8783 45.7743 21.8783 45.2117V37.605L17.0145 42.469C16.8188 42.6716 16.5846 42.8332 16.3259 42.9444C16.0671 43.0555 15.7887 43.1141 15.5071 43.1164C15.2255 43.1189 14.9461 43.0652 14.6854 42.9586C14.4248 42.852 14.1879 42.6945 13.9888 42.4953C13.7896 42.2961 13.6321 42.0593 13.5254 41.7986C13.4188 41.538 13.3651 41.2585 13.3675 40.9769C13.37 40.6953 13.4285 40.4169 13.5397 40.1582C13.6509 39.8993 13.8125 39.6652 14.015 39.4696L21.8783 31.6063V26.1208H16.3929L8.52959 33.9842C8.12952 34.3705 7.59371 34.5844 7.03754 34.5796C6.48136 34.5746 5.94933 34.3516 5.55604 33.9583C5.16274 33.565 4.93966 33.0329 4.93483 32.4769C4.93 31.9207 5.1438 31.3848 5.5302 30.9848L10.3941 26.1208H2.78747C2.2249 26.1208 1.68535 25.8974 1.28755 25.4996C0.889743 25.1017 0.66626 24.5621 0.66626 23.9996C0.66626 23.437 0.889743 22.8975 1.28755 22.4997C1.68535 22.1019 2.2249 21.8783 2.78747 21.8783H10.3941L5.5302 17.0145C5.3276 16.8188 5.166 16.5846 5.05483 16.3259C4.94366 16.0671 4.88514 15.7887 4.8827 15.5071C4.88026 15.2255 4.93393 14.9461 5.04058 14.6854C5.14724 14.4248 5.30474 14.1879 5.50391 13.9888C5.70308 13.7896 5.93991 13.6321 6.2006 13.5254C6.46129 13.4188 6.74061 13.3651 7.02226 13.3675C7.30392 13.37 7.58226 13.4285 7.84106 13.5397C8.09985 13.6509 8.33391 13.8125 8.52959 14.015L16.3929 21.8783H21.8783V16.3929L14.015 8.52959C13.8125 8.33391 13.6509 8.09985 13.5397 7.84106C13.4285 7.58226 13.37 7.30392 13.3675 7.02226C13.3651 6.74061 13.4188 6.46129 13.5254 6.2006C13.6321 5.93991 13.7896 5.70308 13.9888 5.50391C14.1879 5.30474 14.4248 5.14724 14.6854 5.04058C14.9461 4.93393 15.2255 4.88026 15.5071 4.8827C15.7887 4.88514 16.0671 4.94366 16.3259 5.05483C16.5846 5.166 16.8188 5.3276 17.0145 5.5302L21.8783 10.3941V2.78747C21.8783 2.2249 22.1019 1.68535 22.4997 1.28755C22.8975 0.889743 23.437 0.66626 23.9996 0.66626C24.5621 0.66626 25.1017 0.889743 25.4996 1.28755C25.8974 1.68535 26.1208 2.2249 26.1208 2.78747V10.3941L30.9848 5.5302C31.1804 5.3276 31.4145 5.166 31.6732 5.05483C31.9321 4.94366 32.2104 4.88514 32.4921 4.8827C32.7737 4.88026 33.053 4.93393 33.3138 5.04058C33.5745 5.14724 33.8113 5.30474 34.0104 5.50391C34.2097 5.70308 34.3671 5.93991 34.4738 6.2006C34.5804 6.46129 34.6341 6.74061 34.6316 7.02226C34.6292 7.30392 34.5707 7.58226 34.4596 7.84106C34.3483 8.09985 34.1867 8.33391 33.9842 8.52959L26.1208 16.3929V21.8783H31.6063L39.4696 14.015C39.6652 13.8125 39.8993 13.6509 40.1582 13.5397C40.4169 13.4285 40.6953 13.37 40.9769 13.3675C41.2585 13.3651 41.538 13.4188 41.7986 13.5254C42.0593 13.6321 42.2961 13.7896 42.4953 13.9888C42.6945 14.1879 42.852 14.4248 42.9586 14.6854C43.0652 14.9461 43.1189 15.2255 43.1164 15.5071C43.1141 15.7887 43.0555 16.0671 42.9444 16.3259C42.8332 16.5846 42.6716 16.8188 42.469 17.0145L37.605 21.8783H45.2117C45.7743 21.8783 46.3138 22.1019 46.7116 22.4997C47.1095 22.8975 47.3329 23.437 47.3329 23.9996Z" fill="black"/>
</svg>
