<svg width="14" height="19" viewBox="0 0 14 19" fill="none" xmlns="http://www.w3.org/2000/svg">
<path d="M8.57957 14.6651C8.46813 14.7727 8.31886 14.8323 8.16393 14.8309C8.00899 14.8296 7.86079 14.7674 7.75123 14.6579C7.64168 14.5483 7.57952 14.4001 7.57816 14.2452C7.5768 14.0902 7.63636 13.941 7.74403 13.8295L11.4626 10.1109H1.07089C0.914171 10.1109 0.763871 10.0487 0.653054 9.93787C0.542237 9.82705 0.47998 9.67675 0.47998 9.52003C0.47998 9.36331 0.542237 9.21301 0.653054 9.10219C0.763871 8.99138 0.914171 8.92912 1.07089 8.92912H11.4626L7.74403 5.21053C7.63636 5.09908 7.5768 4.94981 7.57816 4.79488C7.57952 4.63995 7.64168 4.49174 7.75123 4.38218C7.86079 4.27262 8.00899 4.21048 8.16393 4.20913C8.31886 4.20778 8.46813 4.26734 8.57957 4.37498L13.3068 9.10225C13.3616 9.15727 13.4049 9.22252 13.4345 9.2943C13.4645 9.36576 13.48 9.44251 13.48 9.52003C13.48 9.59755 13.4645 9.67429 13.4345 9.74575C13.4049 9.81753 13.3616 9.88279 13.3068 9.9378L8.57957 14.6651Z" fill="#A61C20"/>
</svg>
