<svg xmlns="http://www.w3.org/2000/svg" xmlns:xlink="http://www.w3.org/1999/xlink" width="123.226" height="54.37" viewBox="0 0 123.226 54.37">
  <defs>
    <linearGradient id="linear-gradient" y1="0.5" x2="1" y2="0.5" gradientUnits="objectBoundingBox">
      <stop offset="0" stop-color="#fede51"/>
      <stop offset="1" stop-color="#fede51"/>
    </linearGradient>
    <linearGradient id="linear-gradient-8" x1="0.5" y1="1.038" x2="0.5" y2="-0.038" gradientUnits="objectBoundingBox">
      <stop offset="0" stop-color="#f7941d"/>
      <stop offset="0.104" stop-color="#fab734"/>
      <stop offset="0.208" stop-color="#fdd447"/>
      <stop offset="0.268" stop-color="#ffdf4f"/>
      <stop offset="0.534" stop-color="#fff9ae"/>
      <stop offset="0.793" stop-color="#ffdf4f"/>
      <stop offset="1" stop-color="#f7941d"/>
    </linearGradient>
    <linearGradient id="linear-gradient-9" x1="0.5" y1="1.033" x2="0.5" y2="-0.055" xlink:href="#linear-gradient-8"/>
    <linearGradient id="linear-gradient-11" y1="0.5" x2="1" y2="0.5" gradientUnits="objectBoundingBox">
      <stop offset="0" stop-color="#ffdf4f" stop-opacity="0"/>
      <stop offset="0.5" stop-color="#ffdf4f"/>
      <stop offset="1" stop-color="#f7941d"/>
    </linearGradient>
  </defs>
  <g id="Group_341" data-name="Group 341" transform="translate(-632.72 -418.997)">
    <g id="Group_334" data-name="Group 334" transform="translate(633.795 459.574)">
      <path id="Path_2484" data-name="Path 2484" d="M640.124,531.173H637.68v5.471h-2.212V523.161h4.656c3.2,0,4.772,1.824,4.772,4.016C644.9,529.1,643.635,531.173,640.124,531.173Zm0-1.8c1.726,0,2.5-.834,2.5-2.192,0-1.4-.776-2.212-2.5-2.212H637.68v4.4Z" transform="translate(-635.468 -522.987)" fill="url(#linear-gradient)"/>
      <path id="Path_2485" data-name="Path 2485" d="M685.5,523.161c3.2,0,4.772,1.843,4.772,4.035a3.838,3.838,0,0,1-3.123,3.861l3.337,5.587h-2.638l-3.1-5.393h-1.688v5.393h-2.211V523.161Zm0,1.8h-2.444v4.52H685.5c1.727,0,2.5-.951,2.5-2.289C688,525.838,687.224,524.965,685.5,524.965Z" transform="translate(-663.091 -522.987)" fill="url(#linear-gradient)"/>
      <path id="Path_2486" data-name="Path 2486" d="M733.051,536.508a6.9,6.9,0,1,1,6.887-6.906A6.749,6.749,0,0,1,733.051,536.508Zm0-1.921c2.677,0,4.617-1.94,4.617-4.986s-1.94-4.947-4.617-4.947-4.617,1.9-4.617,4.947S730.374,534.588,733.051,534.588Z" transform="translate(-690.682 -522.715)" fill="url(#linear-gradient)"/>
      <path id="Path_2487" data-name="Path 2487" d="M786.982,523.161h2.231v9.719a3.978,3.978,0,0,1-7.954,0h2.231c.019,1.125.563,1.94,1.746,1.94s1.746-.815,1.746-1.94Z" transform="translate(-724.223 -522.987)" fill="url(#linear-gradient)"/>
      <path id="Path_2488" data-name="Path 2488" d="M834.082,524.916h-5.238v3.957H833.5v1.8h-4.656v4.132h5.238v1.8h-7.449v-13.5h7.449Z" transform="translate(-751.846 -522.957)" fill="url(#linear-gradient)"/>
      <path id="Path_2489" data-name="Path 2489" d="M873.487,522.715a6.427,6.427,0,0,1,6.266,4.055H877.1a3.767,3.767,0,0,0-3.609-2.115c-2.677,0-4.617,1.9-4.617,4.947s1.94,4.966,4.617,4.966a3.767,3.767,0,0,0,3.609-2.115h2.658a6.411,6.411,0,0,1-6.266,4.035,6.887,6.887,0,0,1,0-13.774Z" transform="translate(-776.177 -522.715)" fill="url(#linear-gradient)"/>
      <path id="Path_2490" data-name="Path 2490" d="M920.9,523.161h9.409v1.8h-3.589v11.679h-2.212V524.965H920.9Z" transform="translate(-809.234 -522.987)" fill="url(#linear-gradient)"/>
    </g>
    <g id="Group_335" data-name="Group 335" transform="translate(632.72 418.997)">
      <path id="Path_2491" data-name="Path 2491" d="M654.162,442.129h-9.937c-2.928,0-4.413-1.109-4.413-3.3,0-3.251,3.322-3.251,4.413-3.251h15.9l4.5-5.882H644.97c-8.129,0-12.25,2.884-12.25,8.572,0,6.471,5.751,7.829,10.575,7.829h9.937c2.929,0,4.414,1.126,4.414,3.346,0,2.25-1.485,3.391-4.414,3.391h-16l-4.475,5.787h19.733c10.981,0,12.251-5.186,12.251-9.087C664.738,444.622,661.18,442.129,654.162,442.129Z" transform="translate(-632.72 -425.513)" fill="url(#linear-gradient-8)"/>
      <path id="Path_2492" data-name="Path 2492" d="M731.107,419l-7.7,10.07H727.4v23.043h7.419V429.067H738.8Z" transform="translate(-687.931 -418.997)" fill="url(#linear-gradient-9)"/>
      <path id="Path_2493" data-name="Path 2493" d="M791.439,429.7H771.911l4.5,5.882h15.916c3.584,0,5.811,1.78,5.811,4.646s-2.281,4.7-5.811,4.7H772.464v13.7h7.372v-7.96h11.556c8.763,0,14.206-3.981,14.206-10.391C805.6,433.751,800.173,429.7,791.439,429.7Z" transform="translate(-717.457 -425.513)" fill="url(#linear-gradient-8)"/>
      <path id="Path_2494" data-name="Path 2494" d="M888.754,424.031H876.327l-6.513,8.536-6.513-8.536H850.873l12.727,16.68-12.727,16.681H863.3l6.513-8.536,6.513,8.536h12.427l-12.726-16.681Zm-11.33,31.143-7.61-9.975-7.61,9.975h-6.848l11.034-14.463-11.034-14.462H862.2l7.61,9.975,7.61-9.975h6.848l-11.034,14.462,11.034,14.463Z" transform="translate(-765.527 -422.062)" fill="url(#linear-gradient-11)"/>
    </g>
  </g>
</svg>
