<svg width="24" height="25" viewBox="0 0 24 25" fill="none" xmlns="http://www.w3.org/2000/svg">
<path fill-rule="evenodd" clip-rule="evenodd" d="M22 5.5H2C1.44772 5.5 1 5.94772 1 6.5V10.5C1.00356 11.7683 1.80427 12.8973 3 13.32V22.5C3 23.0523 3.44772 23.5 4 23.5H20C20.5523 23.5 21 23.0523 21 22.5V13.32C22.1957 12.8973 22.9964 11.7683 23 10.5V6.5C23 5.94772 22.5523 5.5 22 5.5ZM15 7.5H17V10.5C17 11.0523 16.5523 11.5 16 11.5C15.4477 11.5 15 11.0523 15 10.5V7.5ZM11 7.5H13V10.5C13 11.0523 12.5523 11.5 12 11.5C11.4477 11.5 11 11.0523 11 10.5V7.5ZM7 7.5H9V10.5C9 11.0523 8.55228 11.5 8 11.5C7.44772 11.5 7 11.0523 7 10.5V7.5ZM4 11.5C3.44772 11.5 3 11.0523 3 10.5V7.5H5V10.5C5 11.0523 4.55228 11.5 4 11.5ZM14 21.5H10V19.5C10 18.3954 10.8954 17.5 12 17.5C13.1046 17.5 14 18.3954 14 19.5V21.5ZM19 21.5H16V19.5C16 17.2909 14.2091 15.5 12 15.5C9.79086 15.5 8 17.2909 8 19.5V21.5H5V13.32C5.36757 13.1836 5.70664 12.9801 6 12.72C7.1388 13.7386 8.8612 13.7386 10 12.72C11.1388 13.7386 12.8612 13.7386 14 12.72C15.1388 13.7386 16.8612 13.7386 18 12.72C18.2934 12.9801 18.6324 13.1836 19 13.32V21.5ZM21 10.5C21 11.0523 20.5523 11.5 20 11.5C19.4477 11.5 19 11.0523 19 10.5V7.5H21V10.5ZM4.3 3.5H20C20.5523 3.5 21 3.05228 21 2.5C21 1.94772 20.5523 1.5 20 1.5H4.3C3.74772 1.5 3.3 1.94772 3.3 2.5C3.3 3.05228 3.74772 3.5 4.3 3.5Z" fill="#8F92A1"/>
</svg>
