<svg width="36" height="32" viewBox="0 0 36 32" fill="none" xmlns="http://www.w3.org/2000/svg">
<path d="M18 31.7501C17.5017 31.7501 17.0214 31.5675 16.647 31.2358C15.233 29.9851 13.8699 28.8098 12.6671 27.773L12.661 27.7676C9.13488 24.7279 6.08995 22.1028 3.97136 19.5169C1.60312 16.6261 0.5 13.885 0.5 10.8907C0.5 7.98142 1.48615 5.29741 3.27655 3.3328C5.08835 1.34494 7.57438 0.250122 10.2775 0.250122C12.2979 0.250122 14.1481 0.896282 15.7767 2.17048C16.5986 2.8136 17.3436 3.60076 18 4.5189C18.6566 3.60076 19.4014 2.8136 20.2235 2.17048C21.8522 0.896282 23.7024 0.250122 25.7228 0.250122C28.4256 0.250122 30.9119 1.34494 32.7237 3.3328C34.5141 5.29741 35.5 7.98142 35.5 10.8907C35.5 13.885 34.3972 16.626 32.0289 19.5166C29.9103 22.1028 26.8656 24.7276 23.34 27.7671C22.1352 28.8055 20.7699 29.9827 19.3528 31.2363C18.9782 31.5677 18.4976 31.7503 18 31.7501ZM10.2775 2.32414C8.15386 2.32414 6.20295 3.18156 4.78367 4.73852C3.34334 6.31907 2.54996 8.50387 2.54996 10.8907C2.54996 13.4091 3.47521 15.6613 5.54978 18.1936C7.55489 20.6411 10.5373 23.2122 13.9906 26.1893L13.9969 26.1947C15.2042 27.2354 16.5727 28.4154 17.9971 29.6753C19.4299 28.413 20.8006 27.2312 22.0102 26.1888C25.4632 23.2117 28.4454 20.6411 30.4505 18.1936C32.5248 15.6613 33.45 13.4091 33.45 10.8907C33.45 8.5038 32.6567 6.319 31.2163 4.73852C29.7973 3.18156 27.8462 2.32414 25.7228 2.32414C24.167 2.32414 22.7387 2.82446 21.4775 3.81091C20.3536 4.69046 19.5707 5.8023 19.1116 6.58026C18.8756 6.98031 18.4601 7.21909 18 7.21909C17.5399 7.21909 17.1244 6.98031 16.8883 6.58026C16.4296 5.8023 15.6467 4.69046 14.5224 3.81091C13.2613 2.82446 11.833 2.32414 10.2775 2.32414Z" fill="black"/>
</svg>
